<?xml version="1.0" encoding="utf-8" standalone="no"?>
<!DOCTYPE svg PUBLIC "-//W3C//DTD SVG 1.1//EN"
  "http://www.w3.org/Graphics/SVG/1.1/DTD/svg11.dtd">
<svg xmlns:xlink="http://www.w3.org/1999/xlink" width="784.38125pt" height="538.7026pt" viewBox="0 0 784.38125 538.7026" xmlns="http://www.w3.org/2000/svg" version="1.1">
 <metadata>
  <rdf:RDF xmlns:dc="http://purl.org/dc/elements/1.1/" xmlns:cc="http://creativecommons.org/ns#" xmlns:rdf="http://www.w3.org/1999/02/22-rdf-syntax-ns#">
   <cc:Work>
    <dc:type rdf:resource="http://purl.org/dc/dcmitype/StillImage"/>
    <dc:date>2026-06-01T21:09:37.385088</dc:date>
    <dc:format>image/svg+xml</dc:format>
    <dc:creator>
     <cc:Agent>
      <dc:title>Matplotlib v3.10.8, https://matplotlib.org/</dc:title>
     </cc:Agent>
    </dc:creator>
   </cc:Work>
  </rdf:RDF>
 </metadata>
 <defs>
  <style type="text/css">*{stroke-linejoin: round; stroke-linecap: butt}</style>
 </defs>
 <g id="figure_1">
  <g id="patch_1">
   <path d="M 0 538.7026 
L 784.38125 538.7026 
L 784.38125 0 
L 0 0 
z
" style="fill: #ffffff"/>
  </g>
  <g id="axes_1">
   <g id="patch_2">
    <path d="M 45.056875 425.52 
L 768.591875 425.52 
L 768.591875 61.44 
L 45.056875 61.44 
z
" style="fill: #ffffff"/>
   </g>
   <g id="matplotlib.axis_1">
    <g id="xtick_1">
     <g id="line2d_1">
      <path d="M 45.056875 425.52 
L 45.056875 61.44 
" clip-path="url(#pe363744dbe)" style="fill: none; stroke: #b0b0b0; stroke-opacity: 0.3; stroke-width: 0.8; stroke-linecap: square"/>
     </g>
     <g id="line2d_2">
      <defs>
       <path id="mdff2dc2233" d="M 0 0 
L 0 3.5 
" style="stroke: #000000; stroke-width: 0.8"/>
      </defs>
      <g>
       <use xlink:href="#mdff2dc2233" x="45.056875" y="425.52" style="stroke: #000000; stroke-width: 0.8"/>
      </g>
     </g>
     <g id="text_1">
      <!-- 0 -->
      <g transform="translate(42.19375 439.358594) scale(0.09 -0.09)">
       <defs>
        <path id="DejaVuSans-30" d="M 2034 4250 
Q 1547 4250 1301 3770 
Q 1056 3291 1056 2328 
Q 1056 1369 1301 889 
Q 1547 409 2034 409 
Q 2525 409 2770 889 
Q 3016 1369 3016 2328 
Q 3016 3291 2770 3770 
Q 2525 4250 2034 4250 
z
M 2034 4750 
Q 2819 4750 3233 4129 
Q 3647 3509 3647 2328 
Q 3647 1150 3233 529 
Q 2819 -91 2034 -91 
Q 1250 -91 836 529 
Q 422 1150 422 2328 
Q 422 3509 836 4129 
Q 1250 4750 2034 4750 
z
" transform="scale(0.015625)"/>
       </defs>
       <use xlink:href="#DejaVuSans-30"/>
      </g>
     </g>
    </g>
    <g id="xtick_2">
     <g id="line2d_3">
      <path d="M 165.646042 425.52 
L 165.646042 61.44 
" clip-path="url(#pe363744dbe)" style="fill: none; stroke: #b0b0b0; stroke-opacity: 0.3; stroke-width: 0.8; stroke-linecap: square"/>
     </g>
     <g id="line2d_4">
      <g>
       <use xlink:href="#mdff2dc2233" x="165.646042" y="425.52" style="stroke: #000000; stroke-width: 0.8"/>
      </g>
     </g>
     <g id="text_2">
      <!-- 100 -->
      <g transform="translate(157.056667 439.358594) scale(0.09 -0.09)">
       <defs>
        <path id="DejaVuSans-31" d="M 794 531 
L 1825 531 
L 1825 4091 
L 703 3866 
L 703 4441 
L 1819 4666 
L 2450 4666 
L 2450 531 
L 3481 531 
L 3481 0 
L 794 0 
L 794 531 
z
" transform="scale(0.015625)"/>
       </defs>
       <use xlink:href="#DejaVuSans-31"/>
       <use xlink:href="#DejaVuSans-30" transform="translate(63.623047 0)"/>
       <use xlink:href="#DejaVuSans-30" transform="translate(127.246094 0)"/>
      </g>
     </g>
    </g>
    <g id="xtick_3">
     <g id="line2d_5">
      <path d="M 286.235208 425.52 
L 286.235208 61.44 
" clip-path="url(#pe363744dbe)" style="fill: none; stroke: #b0b0b0; stroke-opacity: 0.3; stroke-width: 0.8; stroke-linecap: square"/>
     </g>
     <g id="line2d_6">
      <g>
       <use xlink:href="#mdff2dc2233" x="286.235208" y="425.52" style="stroke: #000000; stroke-width: 0.8"/>
      </g>
     </g>
     <g id="text_3">
      <!-- 200 -->
      <g transform="translate(277.645833 439.358594) scale(0.09 -0.09)">
       <defs>
        <path id="DejaVuSans-32" d="M 1228 531 
L 3431 531 
L 3431 0 
L 469 0 
L 469 531 
Q 828 903 1448 1529 
Q 2069 2156 2228 2338 
Q 2531 2678 2651 2914 
Q 2772 3150 2772 3378 
Q 2772 3750 2511 3984 
Q 2250 4219 1831 4219 
Q 1534 4219 1204 4116 
Q 875 4013 500 3803 
L 500 4441 
Q 881 4594 1212 4672 
Q 1544 4750 1819 4750 
Q 2544 4750 2975 4387 
Q 3406 4025 3406 3419 
Q 3406 3131 3298 2873 
Q 3191 2616 2906 2266 
Q 2828 2175 2409 1742 
Q 1991 1309 1228 531 
z
" transform="scale(0.015625)"/>
       </defs>
       <use xlink:href="#DejaVuSans-32"/>
       <use xlink:href="#DejaVuSans-30" transform="translate(63.623047 0)"/>
       <use xlink:href="#DejaVuSans-30" transform="translate(127.246094 0)"/>
      </g>
     </g>
    </g>
    <g id="xtick_4">
     <g id="line2d_7">
      <path d="M 406.824375 425.52 
L 406.824375 61.44 
" clip-path="url(#pe363744dbe)" style="fill: none; stroke: #b0b0b0; stroke-opacity: 0.3; stroke-width: 0.8; stroke-linecap: square"/>
     </g>
     <g id="line2d_8">
      <g>
       <use xlink:href="#mdff2dc2233" x="406.824375" y="425.52" style="stroke: #000000; stroke-width: 0.8"/>
      </g>
     </g>
     <g id="text_4">
      <!-- 300 -->
      <g transform="translate(398.235 439.358594) scale(0.09 -0.09)">
       <defs>
        <path id="DejaVuSans-33" d="M 2597 2516 
Q 3050 2419 3304 2112 
Q 3559 1806 3559 1356 
Q 3559 666 3084 287 
Q 2609 -91 1734 -91 
Q 1441 -91 1130 -33 
Q 819 25 488 141 
L 488 750 
Q 750 597 1062 519 
Q 1375 441 1716 441 
Q 2309 441 2620 675 
Q 2931 909 2931 1356 
Q 2931 1769 2642 2001 
Q 2353 2234 1838 2234 
L 1294 2234 
L 1294 2753 
L 1863 2753 
Q 2328 2753 2575 2939 
Q 2822 3125 2822 3475 
Q 2822 3834 2567 4026 
Q 2313 4219 1838 4219 
Q 1578 4219 1281 4162 
Q 984 4106 628 3988 
L 628 4550 
Q 988 4650 1302 4700 
Q 1616 4750 1894 4750 
Q 2613 4750 3031 4423 
Q 3450 4097 3450 3541 
Q 3450 3153 3228 2886 
Q 3006 2619 2597 2516 
z
" transform="scale(0.015625)"/>
       </defs>
       <use xlink:href="#DejaVuSans-33"/>
       <use xlink:href="#DejaVuSans-30" transform="translate(63.623047 0)"/>
       <use xlink:href="#DejaVuSans-30" transform="translate(127.246094 0)"/>
      </g>
     </g>
    </g>
    <g id="xtick_5">
     <g id="line2d_9">
      <path d="M 527.413542 425.52 
L 527.413542 61.44 
" clip-path="url(#pe363744dbe)" style="fill: none; stroke: #b0b0b0; stroke-opacity: 0.3; stroke-width: 0.8; stroke-linecap: square"/>
     </g>
     <g id="line2d_10">
      <g>
       <use xlink:href="#mdff2dc2233" x="527.413542" y="425.52" style="stroke: #000000; stroke-width: 0.8"/>
      </g>
     </g>
     <g id="text_5">
      <!-- 400 -->
      <g transform="translate(518.824167 439.358594) scale(0.09 -0.09)">
       <defs>
        <path id="DejaVuSans-34" d="M 2419 4116 
L 825 1625 
L 2419 1625 
L 2419 4116 
z
M 2253 4666 
L 3047 4666 
L 3047 1625 
L 3713 1625 
L 3713 1100 
L 3047 1100 
L 3047 0 
L 2419 0 
L 2419 1100 
L 313 1100 
L 313 1709 
L 2253 4666 
z
" transform="scale(0.015625)"/>
       </defs>
       <use xlink:href="#DejaVuSans-34"/>
       <use xlink:href="#DejaVuSans-30" transform="translate(63.623047 0)"/>
       <use xlink:href="#DejaVuSans-30" transform="translate(127.246094 0)"/>
      </g>
     </g>
    </g>
    <g id="xtick_6">
     <g id="line2d_11">
      <path d="M 648.002708 425.52 
L 648.002708 61.44 
" clip-path="url(#pe363744dbe)" style="fill: none; stroke: #b0b0b0; stroke-opacity: 0.3; stroke-width: 0.8; stroke-linecap: square"/>
     </g>
     <g id="line2d_12">
      <g>
       <use xlink:href="#mdff2dc2233" x="648.002708" y="425.52" style="stroke: #000000; stroke-width: 0.8"/>
      </g>
     </g>
     <g id="text_6">
      <!-- 500 -->
      <g transform="translate(639.413333 439.358594) scale(0.09 -0.09)">
       <defs>
        <path id="DejaVuSans-35" d="M 691 4666 
L 3169 4666 
L 3169 4134 
L 1269 4134 
L 1269 2991 
Q 1406 3038 1543 3061 
Q 1681 3084 1819 3084 
Q 2600 3084 3056 2656 
Q 3513 2228 3513 1497 
Q 3513 744 3044 326 
Q 2575 -91 1722 -91 
Q 1428 -91 1123 -41 
Q 819 9 494 109 
L 494 744 
Q 775 591 1075 516 
Q 1375 441 1709 441 
Q 2250 441 2565 725 
Q 2881 1009 2881 1497 
Q 2881 1984 2565 2268 
Q 2250 2553 1709 2553 
Q 1456 2553 1204 2497 
Q 953 2441 691 2322 
L 691 4666 
z
" transform="scale(0.015625)"/>
       </defs>
       <use xlink:href="#DejaVuSans-35"/>
       <use xlink:href="#DejaVuSans-30" transform="translate(63.623047 0)"/>
       <use xlink:href="#DejaVuSans-30" transform="translate(127.246094 0)"/>
      </g>
     </g>
    </g>
    <g id="xtick_7">
     <g id="line2d_13">
      <path d="M 768.591875 425.52 
L 768.591875 61.44 
" clip-path="url(#pe363744dbe)" style="fill: none; stroke: #b0b0b0; stroke-opacity: 0.3; stroke-width: 0.8; stroke-linecap: square"/>
     </g>
     <g id="line2d_14">
      <g>
       <use xlink:href="#mdff2dc2233" x="768.591875" y="425.52" style="stroke: #000000; stroke-width: 0.8"/>
      </g>
     </g>
     <g id="text_7">
      <!-- 600 -->
      <g transform="translate(760.0025 439.358594) scale(0.09 -0.09)">
       <defs>
        <path id="DejaVuSans-36" d="M 2113 2584 
Q 1688 2584 1439 2293 
Q 1191 2003 1191 1497 
Q 1191 994 1439 701 
Q 1688 409 2113 409 
Q 2538 409 2786 701 
Q 3034 994 3034 1497 
Q 3034 2003 2786 2293 
Q 2538 2584 2113 2584 
z
M 3366 4563 
L 3366 3988 
Q 3128 4100 2886 4159 
Q 2644 4219 2406 4219 
Q 1781 4219 1451 3797 
Q 1122 3375 1075 2522 
Q 1259 2794 1537 2939 
Q 1816 3084 2150 3084 
Q 2853 3084 3261 2657 
Q 3669 2231 3669 1497 
Q 3669 778 3244 343 
Q 2819 -91 2113 -91 
Q 1303 -91 875 529 
Q 447 1150 447 2328 
Q 447 3434 972 4092 
Q 1497 4750 2381 4750 
Q 2619 4750 2861 4703 
Q 3103 4656 3366 4563 
z
" transform="scale(0.015625)"/>
       </defs>
       <use xlink:href="#DejaVuSans-36"/>
       <use xlink:href="#DejaVuSans-30" transform="translate(63.623047 0)"/>
       <use xlink:href="#DejaVuSans-30" transform="translate(127.246094 0)"/>
      </g>
     </g>
    </g>
    <g id="text_8">
     <!-- Time (s) -->
     <g transform="translate(386.495469 452.82875) scale(0.1 -0.1)">
      <defs>
       <path id="DejaVuSans-54" d="M -19 4666 
L 3928 4666 
L 3928 4134 
L 2272 4134 
L 2272 0 
L 1638 0 
L 1638 4134 
L -19 4134 
L -19 4666 
z
" transform="scale(0.015625)"/>
       <path id="DejaVuSans-69" d="M 603 3500 
L 1178 3500 
L 1178 0 
L 603 0 
L 603 3500 
z
M 603 4863 
L 1178 4863 
L 1178 4134 
L 603 4134 
L 603 4863 
z
" transform="scale(0.015625)"/>
       <path id="DejaVuSans-6d" d="M 3328 2828 
Q 3544 3216 3844 3400 
Q 4144 3584 4550 3584 
Q 5097 3584 5394 3201 
Q 5691 2819 5691 2113 
L 5691 0 
L 5113 0 
L 5113 2094 
Q 5113 2597 4934 2840 
Q 4756 3084 4391 3084 
Q 3944 3084 3684 2787 
Q 3425 2491 3425 1978 
L 3425 0 
L 2847 0 
L 2847 2094 
Q 2847 2600 2669 2842 
Q 2491 3084 2119 3084 
Q 1678 3084 1418 2786 
Q 1159 2488 1159 1978 
L 1159 0 
L 581 0 
L 581 3500 
L 1159 3500 
L 1159 2956 
Q 1356 3278 1631 3431 
Q 1906 3584 2284 3584 
Q 2666 3584 2933 3390 
Q 3200 3197 3328 2828 
z
" transform="scale(0.015625)"/>
       <path id="DejaVuSans-65" d="M 3597 1894 
L 3597 1613 
L 953 1613 
Q 991 1019 1311 708 
Q 1631 397 2203 397 
Q 2534 397 2845 478 
Q 3156 559 3463 722 
L 3463 178 
Q 3153 47 2828 -22 
Q 2503 -91 2169 -91 
Q 1331 -91 842 396 
Q 353 884 353 1716 
Q 353 2575 817 3079 
Q 1281 3584 2069 3584 
Q 2775 3584 3186 3129 
Q 3597 2675 3597 1894 
z
M 3022 2063 
Q 3016 2534 2758 2815 
Q 2500 3097 2075 3097 
Q 1594 3097 1305 2825 
Q 1016 2553 972 2059 
L 3022 2063 
z
" transform="scale(0.015625)"/>
       <path id="DejaVuSans-20" transform="scale(0.015625)"/>
       <path id="DejaVuSans-28" d="M 1984 4856 
Q 1566 4138 1362 3434 
Q 1159 2731 1159 2009 
Q 1159 1288 1364 580 
Q 1569 -128 1984 -844 
L 1484 -844 
Q 1016 -109 783 600 
Q 550 1309 550 2009 
Q 550 2706 781 3412 
Q 1013 4119 1484 4856 
L 1984 4856 
z
" transform="scale(0.015625)"/>
       <path id="DejaVuSans-73" d="M 2834 3397 
L 2834 2853 
Q 2591 2978 2328 3040 
Q 2066 3103 1784 3103 
Q 1356 3103 1142 2972 
Q 928 2841 928 2578 
Q 928 2378 1081 2264 
Q 1234 2150 1697 2047 
L 1894 2003 
Q 2506 1872 2764 1633 
Q 3022 1394 3022 966 
Q 3022 478 2636 193 
Q 2250 -91 1575 -91 
Q 1294 -91 989 -36 
Q 684 19 347 128 
L 347 722 
Q 666 556 975 473 
Q 1284 391 1588 391 
Q 1994 391 2212 530 
Q 2431 669 2431 922 
Q 2431 1156 2273 1281 
Q 2116 1406 1581 1522 
L 1381 1569 
Q 847 1681 609 1914 
Q 372 2147 372 2553 
Q 372 3047 722 3315 
Q 1072 3584 1716 3584 
Q 2034 3584 2315 3537 
Q 2597 3491 2834 3397 
z
" transform="scale(0.015625)"/>
       <path id="DejaVuSans-29" d="M 513 4856 
L 1013 4856 
Q 1481 4119 1714 3412 
Q 1947 2706 1947 2009 
Q 1947 1309 1714 600 
Q 1481 -109 1013 -844 
L 513 -844 
Q 928 -128 1133 580 
Q 1338 1288 1338 2009 
Q 1338 2731 1133 3434 
Q 928 4138 513 4856 
z
" transform="scale(0.015625)"/>
      </defs>
      <use xlink:href="#DejaVuSans-54"/>
      <use xlink:href="#DejaVuSans-69" transform="translate(57.958984 0)"/>
      <use xlink:href="#DejaVuSans-6d" transform="translate(85.742188 0)"/>
      <use xlink:href="#DejaVuSans-65" transform="translate(183.154297 0)"/>
      <use xlink:href="#DejaVuSans-20" transform="translate(244.677734 0)"/>
      <use xlink:href="#DejaVuSans-28" transform="translate(276.464844 0)"/>
      <use xlink:href="#DejaVuSans-73" transform="translate(315.478516 0)"/>
      <use xlink:href="#DejaVuSans-29" transform="translate(367.578125 0)"/>
     </g>
    </g>
   </g>
   <g id="matplotlib.axis_2">
    <g id="ytick_1">
     <g id="line2d_15">
      <path d="M 45.056875 425.52 
L 768.591875 425.52 
" clip-path="url(#pe363744dbe)" style="fill: none; stroke: #b0b0b0; stroke-opacity: 0.3; stroke-width: 0.8; stroke-linecap: square"/>
     </g>
     <g id="line2d_16">
      <defs>
       <path id="m3e2de58f4d" d="M 0 0 
L -3.5 0 
" style="stroke: #000000; stroke-width: 0.8"/>
      </defs>
      <g>
       <use xlink:href="#m3e2de58f4d" x="45.056875" y="425.52" style="stroke: #000000; stroke-width: 0.8"/>
      </g>
     </g>
     <g id="text_9">
      <!-- 0 -->
      <g transform="translate(32.330625 428.939297) scale(0.09 -0.09)">
       <use xlink:href="#DejaVuSans-30"/>
      </g>
     </g>
    </g>
    <g id="ytick_2">
     <g id="line2d_17">
      <path d="M 45.056875 382.177143 
L 768.591875 382.177143 
" clip-path="url(#pe363744dbe)" style="fill: none; stroke: #b0b0b0; stroke-opacity: 0.3; stroke-width: 0.8; stroke-linecap: square"/>
     </g>
     <g id="line2d_18">
      <g>
       <use xlink:href="#m3e2de58f4d" x="45.056875" y="382.177143" style="stroke: #000000; stroke-width: 0.8"/>
      </g>
     </g>
     <g id="text_10">
      <!-- 25 -->
      <g transform="translate(26.604375 385.59644) scale(0.09 -0.09)">
       <use xlink:href="#DejaVuSans-32"/>
       <use xlink:href="#DejaVuSans-35" transform="translate(63.623047 0)"/>
      </g>
     </g>
    </g>
    <g id="ytick_3">
     <g id="line2d_19">
      <path d="M 45.056875 338.834286 
L 768.591875 338.834286 
" clip-path="url(#pe363744dbe)" style="fill: none; stroke: #b0b0b0; stroke-opacity: 0.3; stroke-width: 0.8; stroke-linecap: square"/>
     </g>
     <g id="line2d_20">
      <g>
       <use xlink:href="#m3e2de58f4d" x="45.056875" y="338.834286" style="stroke: #000000; stroke-width: 0.8"/>
      </g>
     </g>
     <g id="text_11">
      <!-- 50 -->
      <g transform="translate(26.604375 342.253583) scale(0.09 -0.09)">
       <use xlink:href="#DejaVuSans-35"/>
       <use xlink:href="#DejaVuSans-30" transform="translate(63.623047 0)"/>
      </g>
     </g>
    </g>
    <g id="ytick_4">
     <g id="line2d_21">
      <path d="M 45.056875 295.491429 
L 768.591875 295.491429 
" clip-path="url(#pe363744dbe)" style="fill: none; stroke: #b0b0b0; stroke-opacity: 0.3; stroke-width: 0.8; stroke-linecap: square"/>
     </g>
     <g id="line2d_22">
      <g>
       <use xlink:href="#m3e2de58f4d" x="45.056875" y="295.491429" style="stroke: #000000; stroke-width: 0.8"/>
      </g>
     </g>
     <g id="text_12">
      <!-- 75 -->
      <g transform="translate(26.604375 298.910725) scale(0.09 -0.09)">
       <defs>
        <path id="DejaVuSans-37" d="M 525 4666 
L 3525 4666 
L 3525 4397 
L 1831 0 
L 1172 0 
L 2766 4134 
L 525 4134 
L 525 4666 
z
" transform="scale(0.015625)"/>
       </defs>
       <use xlink:href="#DejaVuSans-37"/>
       <use xlink:href="#DejaVuSans-35" transform="translate(63.623047 0)"/>
      </g>
     </g>
    </g>
    <g id="ytick_5">
     <g id="line2d_23">
      <path d="M 45.056875 252.148571 
L 768.591875 252.148571 
" clip-path="url(#pe363744dbe)" style="fill: none; stroke: #b0b0b0; stroke-opacity: 0.3; stroke-width: 0.8; stroke-linecap: square"/>
     </g>
     <g id="line2d_24">
      <g>
       <use xlink:href="#m3e2de58f4d" x="45.056875" y="252.148571" style="stroke: #000000; stroke-width: 0.8"/>
      </g>
     </g>
     <g id="text_13">
      <!-- 100 -->
      <g transform="translate(20.878125 255.567868) scale(0.09 -0.09)">
       <use xlink:href="#DejaVuSans-31"/>
       <use xlink:href="#DejaVuSans-30" transform="translate(63.623047 0)"/>
       <use xlink:href="#DejaVuSans-30" transform="translate(127.246094 0)"/>
      </g>
     </g>
    </g>
    <g id="ytick_6">
     <g id="line2d_25">
      <path d="M 45.056875 208.805714 
L 768.591875 208.805714 
" clip-path="url(#pe363744dbe)" style="fill: none; stroke: #b0b0b0; stroke-opacity: 0.3; stroke-width: 0.8; stroke-linecap: square"/>
     </g>
     <g id="line2d_26">
      <g>
       <use xlink:href="#m3e2de58f4d" x="45.056875" y="208.805714" style="stroke: #000000; stroke-width: 0.8"/>
      </g>
     </g>
     <g id="text_14">
      <!-- 125 -->
      <g transform="translate(20.878125 212.225011) scale(0.09 -0.09)">
       <use xlink:href="#DejaVuSans-31"/>
       <use xlink:href="#DejaVuSans-32" transform="translate(63.623047 0)"/>
       <use xlink:href="#DejaVuSans-35" transform="translate(127.246094 0)"/>
      </g>
     </g>
    </g>
    <g id="ytick_7">
     <g id="line2d_27">
      <path d="M 45.056875 165.462857 
L 768.591875 165.462857 
" clip-path="url(#pe363744dbe)" style="fill: none; stroke: #b0b0b0; stroke-opacity: 0.3; stroke-width: 0.8; stroke-linecap: square"/>
     </g>
     <g id="line2d_28">
      <g>
       <use xlink:href="#m3e2de58f4d" x="45.056875" y="165.462857" style="stroke: #000000; stroke-width: 0.8"/>
      </g>
     </g>
     <g id="text_15">
      <!-- 150 -->
      <g transform="translate(20.878125 168.882154) scale(0.09 -0.09)">
       <use xlink:href="#DejaVuSans-31"/>
       <use xlink:href="#DejaVuSans-35" transform="translate(63.623047 0)"/>
       <use xlink:href="#DejaVuSans-30" transform="translate(127.246094 0)"/>
      </g>
     </g>
    </g>
    <g id="ytick_8">
     <g id="line2d_29">
      <path d="M 45.056875 122.12 
L 768.591875 122.12 
" clip-path="url(#pe363744dbe)" style="fill: none; stroke: #b0b0b0; stroke-opacity: 0.3; stroke-width: 0.8; stroke-linecap: square"/>
     </g>
     <g id="line2d_30">
      <g>
       <use xlink:href="#m3e2de58f4d" x="45.056875" y="122.12" style="stroke: #000000; stroke-width: 0.8"/>
      </g>
     </g>
     <g id="text_16">
      <!-- 175 -->
      <g transform="translate(20.878125 125.539297) scale(0.09 -0.09)">
       <use xlink:href="#DejaVuSans-31"/>
       <use xlink:href="#DejaVuSans-37" transform="translate(63.623047 0)"/>
       <use xlink:href="#DejaVuSans-35" transform="translate(127.246094 0)"/>
      </g>
     </g>
    </g>
    <g id="ytick_9">
     <g id="line2d_31">
      <path d="M 45.056875 78.777143 
L 768.591875 78.777143 
" clip-path="url(#pe363744dbe)" style="fill: none; stroke: #b0b0b0; stroke-opacity: 0.3; stroke-width: 0.8; stroke-linecap: square"/>
     </g>
     <g id="line2d_32">
      <g>
       <use xlink:href="#m3e2de58f4d" x="45.056875" y="78.777143" style="stroke: #000000; stroke-width: 0.8"/>
      </g>
     </g>
     <g id="text_17">
      <!-- 200 -->
      <g transform="translate(20.878125 82.19644) scale(0.09 -0.09)">
       <use xlink:href="#DejaVuSans-32"/>
       <use xlink:href="#DejaVuSans-30" transform="translate(63.623047 0)"/>
       <use xlink:href="#DejaVuSans-30" transform="translate(127.246094 0)"/>
      </g>
     </g>
    </g>
    <g id="text_18">
     <!-- Instances solved -->
     <g transform="translate(14.798438 285.204219) rotate(-90) scale(0.1 -0.1)">
      <defs>
       <path id="DejaVuSans-49" d="M 628 4666 
L 1259 4666 
L 1259 0 
L 628 0 
L 628 4666 
z
" transform="scale(0.015625)"/>
       <path id="DejaVuSans-6e" d="M 3513 2113 
L 3513 0 
L 2938 0 
L 2938 2094 
Q 2938 2591 2744 2837 
Q 2550 3084 2163 3084 
Q 1697 3084 1428 2787 
Q 1159 2491 1159 1978 
L 1159 0 
L 581 0 
L 581 3500 
L 1159 3500 
L 1159 2956 
Q 1366 3272 1645 3428 
Q 1925 3584 2291 3584 
Q 2894 3584 3203 3211 
Q 3513 2838 3513 2113 
z
" transform="scale(0.015625)"/>
       <path id="DejaVuSans-74" d="M 1172 4494 
L 1172 3500 
L 2356 3500 
L 2356 3053 
L 1172 3053 
L 1172 1153 
Q 1172 725 1289 603 
Q 1406 481 1766 481 
L 2356 481 
L 2356 0 
L 1766 0 
Q 1100 0 847 248 
Q 594 497 594 1153 
L 594 3053 
L 172 3053 
L 172 3500 
L 594 3500 
L 594 4494 
L 1172 4494 
z
" transform="scale(0.015625)"/>
       <path id="DejaVuSans-61" d="M 2194 1759 
Q 1497 1759 1228 1600 
Q 959 1441 959 1056 
Q 959 750 1161 570 
Q 1363 391 1709 391 
Q 2188 391 2477 730 
Q 2766 1069 2766 1631 
L 2766 1759 
L 2194 1759 
z
M 3341 1997 
L 3341 0 
L 2766 0 
L 2766 531 
Q 2569 213 2275 61 
Q 1981 -91 1556 -91 
Q 1019 -91 701 211 
Q 384 513 384 1019 
Q 384 1609 779 1909 
Q 1175 2209 1959 2209 
L 2766 2209 
L 2766 2266 
Q 2766 2663 2505 2880 
Q 2244 3097 1772 3097 
Q 1472 3097 1187 3025 
Q 903 2953 641 2809 
L 641 3341 
Q 956 3463 1253 3523 
Q 1550 3584 1831 3584 
Q 2591 3584 2966 3190 
Q 3341 2797 3341 1997 
z
" transform="scale(0.015625)"/>
       <path id="DejaVuSans-63" d="M 3122 3366 
L 3122 2828 
Q 2878 2963 2633 3030 
Q 2388 3097 2138 3097 
Q 1578 3097 1268 2742 
Q 959 2388 959 1747 
Q 959 1106 1268 751 
Q 1578 397 2138 397 
Q 2388 397 2633 464 
Q 2878 531 3122 666 
L 3122 134 
Q 2881 22 2623 -34 
Q 2366 -91 2075 -91 
Q 1284 -91 818 406 
Q 353 903 353 1747 
Q 353 2603 823 3093 
Q 1294 3584 2113 3584 
Q 2378 3584 2631 3529 
Q 2884 3475 3122 3366 
z
" transform="scale(0.015625)"/>
       <path id="DejaVuSans-6f" d="M 1959 3097 
Q 1497 3097 1228 2736 
Q 959 2375 959 1747 
Q 959 1119 1226 758 
Q 1494 397 1959 397 
Q 2419 397 2687 759 
Q 2956 1122 2956 1747 
Q 2956 2369 2687 2733 
Q 2419 3097 1959 3097 
z
M 1959 3584 
Q 2709 3584 3137 3096 
Q 3566 2609 3566 1747 
Q 3566 888 3137 398 
Q 2709 -91 1959 -91 
Q 1206 -91 779 398 
Q 353 888 353 1747 
Q 353 2609 779 3096 
Q 1206 3584 1959 3584 
z
" transform="scale(0.015625)"/>
       <path id="DejaVuSans-6c" d="M 603 4863 
L 1178 4863 
L 1178 0 
L 603 0 
L 603 4863 
z
" transform="scale(0.015625)"/>
       <path id="DejaVuSans-76" d="M 191 3500 
L 800 3500 
L 1894 563 
L 2988 3500 
L 3597 3500 
L 2284 0 
L 1503 0 
L 191 3500 
z
" transform="scale(0.015625)"/>
       <path id="DejaVuSans-64" d="M 2906 2969 
L 2906 4863 
L 3481 4863 
L 3481 0 
L 2906 0 
L 2906 525 
Q 2725 213 2448 61 
Q 2172 -91 1784 -91 
Q 1150 -91 751 415 
Q 353 922 353 1747 
Q 353 2572 751 3078 
Q 1150 3584 1784 3584 
Q 2172 3584 2448 3432 
Q 2725 3281 2906 2969 
z
M 947 1747 
Q 947 1113 1208 752 
Q 1469 391 1925 391 
Q 2381 391 2643 752 
Q 2906 1113 2906 1747 
Q 2906 2381 2643 2742 
Q 2381 3103 1925 3103 
Q 1469 3103 1208 2742 
Q 947 2381 947 1747 
z
" transform="scale(0.015625)"/>
      </defs>
      <use xlink:href="#DejaVuSans-49"/>
      <use xlink:href="#DejaVuSans-6e" transform="translate(29.492188 0)"/>
      <use xlink:href="#DejaVuSans-73" transform="translate(92.871094 0)"/>
      <use xlink:href="#DejaVuSans-74" transform="translate(144.970703 0)"/>
      <use xlink:href="#DejaVuSans-61" transform="translate(184.179688 0)"/>
      <use xlink:href="#DejaVuSans-6e" transform="translate(245.458984 0)"/>
      <use xlink:href="#DejaVuSans-63" transform="translate(308.837891 0)"/>
      <use xlink:href="#DejaVuSans-65" transform="translate(363.818359 0)"/>
      <use xlink:href="#DejaVuSans-73" transform="translate(425.341797 0)"/>
      <use xlink:href="#DejaVuSans-20" transform="translate(477.441406 0)"/>
      <use xlink:href="#DejaVuSans-73" transform="translate(509.228516 0)"/>
      <use xlink:href="#DejaVuSans-6f" transform="translate(561.328125 0)"/>
      <use xlink:href="#DejaVuSans-6c" transform="translate(622.509766 0)"/>
      <use xlink:href="#DejaVuSans-76" transform="translate(650.292969 0)"/>
      <use xlink:href="#DejaVuSans-65" transform="translate(709.472656 0)"/>
      <use xlink:href="#DejaVuSans-64" transform="translate(770.996094 0)"/>
     </g>
    </g>
   </g>
   <g id="line2d_33">
    <path d="M 45.056875 425.52 
L 48.964569 425.52 
L 48.964569 423.786286 
L 49.103451 423.786286 
L 49.103451 422.052571 
L 53.220254 422.052571 
L 53.220254 420.318857 
L 55.013785 420.318857 
L 55.013785 418.585143 
L 59.813575 418.585143 
L 59.813575 416.851429 
L 72.563086 416.851429 
L 72.563086 415.117714 
L 74.691066 415.117714 
L 74.691066 413.384 
L 78.602881 413.384 
L 78.602881 411.650286 
L 80.584973 411.650286 
L 80.584973 409.916571 
L 82.498505 409.916571 
L 82.498505 408.182857 
L 88.783973 408.182857 
L 88.783973 406.449143 
L 105.30784 406.449143 
L 105.30784 404.715429 
L 113.903359 404.715429 
L 113.903359 402.981714 
L 152.536492 402.981714 
L 152.536492 401.248 
L 164.600492 401.248 
L 164.600492 399.514286 
L 183.67335 399.514286 
L 183.67335 397.780571 
L 267.17294 397.780571 
L 267.17294 396.046857 
L 333.931189 396.046857 
L 333.931189 394.313143 
L 541.169711 394.313143 
L 541.169711 392.579429 
L 547.31349 392.579429 
L 547.31349 390.845714 
L 660.467894 390.845714 
L 660.467894 389.112 
L 768.591875 389.112 
L 768.591875 389.112 
" clip-path="url(#pe363744dbe)" style="fill: none; stroke: #9467bd; stroke-width: 2.2; stroke-linecap: square"/>
   </g>
   <g id="line2d_34">
    <path d="M 45.056875 425.52 
L 48.341116 425.52 
L 48.341116 423.786286 
L 49.76667 423.786286 
L 49.76667 422.052571 
L 52.360181 422.052571 
L 52.360181 420.318857 
L 54.370994 420.318857 
L 54.370994 418.585143 
L 54.580492 418.585143 
L 54.580492 416.851429 
L 54.684263 416.851429 
L 54.684263 415.117714 
L 57.314622 415.117714 
L 57.314622 413.384 
L 58.8357 413.384 
L 58.8357 411.650286 
L 58.869072 411.650286 
L 58.869072 409.916571 
L 65.329065 409.916571 
L 65.329065 408.182857 
L 69.445515 408.182857 
L 69.445515 406.449143 
L 79.55244 406.449143 
L 79.55244 404.715429 
L 92.264981 404.715429 
L 92.264981 402.981714 
L 107.932397 402.981714 
L 107.932397 401.248 
L 133.182063 401.248 
L 133.182063 399.514286 
L 140.867663 399.514286 
L 140.867663 397.780571 
L 157.333696 397.780571 
L 157.333696 396.046857 
L 164.731793 396.046857 
L 164.731793 394.313143 
L 186.061854 394.313143 
L 186.061854 392.579429 
L 225.927033 392.579429 
L 225.927033 390.845714 
L 234.388027 390.845714 
L 234.388027 389.112 
L 240.240131 389.112 
L 240.240131 387.378286 
L 250.128711 387.378286 
L 250.128711 385.644571 
L 255.210599 385.644571 
L 255.210599 383.910857 
L 271.788222 383.910857 
L 271.788222 382.177143 
L 288.811898 382.177143 
L 288.811898 380.443429 
L 308.774069 380.443429 
L 308.774069 378.709714 
L 342.370449 378.709714 
L 342.370449 376.976 
L 355.18749 376.976 
L 355.18749 375.242286 
L 374.997664 375.242286 
L 374.997664 373.508571 
L 382.289588 373.508571 
L 382.289588 371.774857 
L 388.902642 371.774857 
L 388.902642 370.041143 
L 399.476323 370.041143 
L 399.476323 368.307429 
L 472.105491 368.307429 
L 472.105491 366.573714 
L 488.582341 366.573714 
L 488.582341 364.84 
L 556.704257 364.84 
L 556.704257 363.106286 
L 768.591875 363.106286 
L 768.591875 363.106286 
" clip-path="url(#pe363744dbe)" style="fill: none; stroke: #2ca02c; stroke-width: 2.2; stroke-linecap: square"/>
   </g>
   <g id="line2d_35">
    <path d="M 45.056875 425.52 
L 48.414779 425.52 
L 48.414779 423.786286 
L 50.329216 423.786286 
L 50.329216 422.052571 
L 50.598491 422.052571 
L 50.598491 420.318857 
L 50.679386 420.318857 
L 50.679386 418.585143 
L 50.956581 418.585143 
L 50.956581 416.851429 
L 54.364017 416.851429 
L 54.364017 415.117714 
L 55.483792 415.117714 
L 55.483792 413.384 
L 55.767857 413.384 
L 55.767857 411.650286 
L 55.838432 411.650286 
L 55.838432 409.916571 
L 56.106739 409.916571 
L 56.106739 408.182857 
L 56.864878 408.182857 
L 56.864878 406.449143 
L 57.077099 406.449143 
L 57.077099 404.715429 
L 57.87675 404.715429 
L 57.87675 402.981714 
L 58.956236 402.981714 
L 58.956236 401.248 
L 59.64452 401.248 
L 59.64452 399.514286 
L 59.808277 399.514286 
L 59.808277 397.780571 
L 63.171066 397.780571 
L 63.171066 396.046857 
L 66.300163 396.046857 
L 66.300163 394.313143 
L 68.674658 394.313143 
L 68.674658 392.579429 
L 73.279194 392.579429 
L 73.279194 390.845714 
L 73.70599 390.845714 
L 73.70599 389.112 
L 74.174471 389.112 
L 74.174471 387.378286 
L 76.25994 387.378286 
L 76.25994 385.644571 
L 84.56874 385.644571 
L 84.56874 383.910857 
L 84.616691 383.910857 
L 84.616691 382.177143 
L 91.814386 382.177143 
L 91.814386 380.443429 
L 100.443348 380.443429 
L 100.443348 378.709714 
L 103.625212 378.709714 
L 103.625212 376.976 
L 107.214014 376.976 
L 107.214014 375.242286 
L 107.402868 375.242286 
L 107.402868 373.508571 
L 110.27649 373.508571 
L 110.27649 371.774857 
L 110.721219 371.774857 
L 110.721219 370.041143 
L 112.138381 370.041143 
L 112.138381 368.307429 
L 136.494824 368.307429 
L 136.494824 366.573714 
L 150.841459 366.573714 
L 150.841459 364.84 
L 179.070004 364.84 
L 179.070004 363.106286 
L 216.240945 363.106286 
L 216.240945 361.372571 
L 232.812096 361.372571 
L 232.812096 359.638857 
L 262.494707 359.638857 
L 262.494707 357.905143 
L 266.115515 357.905143 
L 266.115515 356.171429 
L 296.415238 356.171429 
L 296.415238 354.437714 
L 312.840503 354.437714 
L 312.840503 352.704 
L 400.551571 352.704 
L 400.551571 350.970286 
L 409.762616 350.970286 
L 409.762616 349.236571 
L 425.567732 349.236571 
L 425.567732 347.502857 
L 434.842298 347.502857 
L 434.842298 345.769143 
L 445.665157 345.769143 
L 445.665157 344.035429 
L 464.27551 344.035429 
L 464.27551 342.301714 
L 481.112809 342.301714 
L 481.112809 340.568 
L 498.164734 340.568 
L 498.164734 338.834286 
L 594.517201 338.834286 
L 594.517201 337.100571 
L 695.251767 337.100571 
L 695.251767 335.366857 
L 768.591875 335.366857 
L 768.591875 335.366857 
" clip-path="url(#pe363744dbe)" style="fill: none; stroke: #1f77b4; stroke-width: 2.2; stroke-linecap: square"/>
   </g>
   <g id="line2d_36">
    <path d="M 45.056875 425.52 
L 47.840644 425.52 
L 47.840644 423.786286 
L 48.427672 423.786286 
L 48.427672 422.052571 
L 48.652322 422.052571 
L 48.652322 420.318857 
L 49.883432 420.318857 
L 49.883432 418.585143 
L 50.365395 418.585143 
L 50.365395 416.851429 
L 50.724518 416.851429 
L 50.724518 415.117714 
L 51.075446 415.117714 
L 51.075446 413.384 
L 51.394899 413.384 
L 51.394899 411.650286 
L 52.838558 411.650286 
L 52.838558 409.916571 
L 56.347686 409.916571 
L 56.347686 408.182857 
L 56.672294 408.182857 
L 56.672294 406.449143 
L 59.202894 406.449143 
L 59.202894 404.715429 
L 62.981718 404.715429 
L 62.981718 402.981714 
L 63.284482 402.981714 
L 63.284482 401.248 
L 63.771719 401.248 
L 63.771719 399.514286 
L 63.967903 399.514286 
L 63.967903 397.780571 
L 64.286483 397.780571 
L 64.286483 396.046857 
L 66.934045 396.046857 
L 66.934045 394.313143 
L 67.018221 394.313143 
L 67.018221 392.579429 
L 68.914654 392.579429 
L 68.914654 390.845714 
L 69.054857 390.845714 
L 69.054857 389.112 
L 69.48178 389.112 
L 69.48178 387.378286 
L 71.449941 387.378286 
L 71.449941 385.644571 
L 72.557588 385.644571 
L 72.557588 383.910857 
L 72.974302 383.910857 
L 72.974302 382.177143 
L 77.179281 382.177143 
L 77.179281 380.443429 
L 80.957449 380.443429 
L 80.957449 378.709714 
L 81.467363 378.709714 
L 81.467363 376.976 
L 85.920791 376.976 
L 85.920791 375.242286 
L 89.777532 375.242286 
L 89.777532 373.508571 
L 95.230027 373.508571 
L 95.230027 371.774857 
L 97.629616 371.774857 
L 97.629616 370.041143 
L 100.054174 370.041143 
L 100.054174 368.307429 
L 103.516232 368.307429 
L 103.516232 366.573714 
L 104.615213 366.573714 
L 104.615213 364.84 
L 110.523453 364.84 
L 110.523453 363.106286 
L 112.976972 363.106286 
L 112.976972 361.372571 
L 114.396907 361.372571 
L 114.396907 359.638857 
L 117.52041 359.638857 
L 117.52041 357.905143 
L 119.882672 357.905143 
L 119.882672 356.171429 
L 125.663601 356.171429 
L 125.663601 354.437714 
L 129.180149 354.437714 
L 129.180149 352.704 
L 136.896553 352.704 
L 136.896553 350.970286 
L 145.244619 350.970286 
L 145.244619 349.236571 
L 156.746169 349.236571 
L 156.746169 347.502857 
L 159.275781 347.502857 
L 159.275781 345.769143 
L 162.205424 345.769143 
L 162.205424 344.035429 
L 167.329194 344.035429 
L 167.329194 342.301714 
L 221.154328 342.301714 
L 221.154328 340.568 
L 222.683137 340.568 
L 222.683137 338.834286 
L 264.031244 338.834286 
L 264.031244 337.100571 
L 296.935236 337.100571 
L 296.935236 335.366857 
L 309.855738 335.366857 
L 309.855738 333.633143 
L 336.006552 333.633143 
L 336.006552 331.899429 
L 336.694829 331.899429 
L 336.694829 330.165714 
L 431.839103 330.165714 
L 431.839103 328.432 
L 450.547626 328.432 
L 450.547626 326.698286 
L 498.702223 326.698286 
L 498.702223 324.964571 
L 511.256379 324.964571 
L 511.256379 323.230857 
L 768.591875 323.230857 
L 768.591875 323.230857 
" clip-path="url(#pe363744dbe)" style="fill: none; stroke: #ff7f0e; stroke-width: 2.2; stroke-linecap: square"/>
   </g>
   <g id="line2d_37">
    <path d="M 45.056875 425.52 
L 47.756364 425.52 
L 47.855427 420.318857 
L 47.91548 420.318857 
L 47.91548 418.585143 
L 48.101539 418.585143 
L 48.205896 411.650286 
L 48.340805 411.650286 
L 48.340805 409.916571 
L 48.51081 409.916571 
L 48.522335 406.449143 
L 48.623802 406.449143 
L 48.623802 404.715429 
L 48.739554 404.715429 
L 48.778596 399.514286 
L 48.963637 399.514286 
L 49.000728 396.046857 
L 49.120466 396.046857 
L 49.155531 390.845714 
L 49.242875 390.845714 
L 49.294664 387.378286 
L 49.639786 387.378286 
L 49.739571 383.910857 
L 49.751822 383.910857 
L 49.751822 382.177143 
L 50.208787 382.177143 
L 50.208787 380.443429 
L 50.613562 380.443429 
L 50.724288 376.976 
L 50.859804 376.976 
L 50.859804 375.242286 
L 51.032072 375.242286 
L 51.047497 371.774857 
L 51.171006 371.774857 
L 51.171006 370.041143 
L 51.345918 370.041143 
L 51.345918 368.307429 
L 51.585669 368.307429 
L 51.585669 366.573714 
L 52.014745 366.573714 
L 52.014745 364.84 
L 52.452334 364.84 
L 52.452334 363.106286 
L 52.645398 363.106286 
L 52.645398 361.372571 
L 52.854261 361.372571 
L 52.854261 359.638857 
L 53.166227 359.638857 
L 53.166227 357.905143 
L 54.417611 357.905143 
L 54.517712 352.704 
L 55.214782 352.704 
L 55.214782 350.970286 
L 55.499516 350.970286 
L 55.499516 349.236571 
L 56.272785 349.236571 
L 56.272785 347.502857 
L 57.234514 347.502857 
L 57.234514 345.769143 
L 60.976022 345.769143 
L 60.976022 344.035429 
L 61.966464 344.035429 
L 61.966464 342.301714 
L 62.795522 342.301714 
L 62.795522 340.568 
L 63.314909 340.568 
L 63.314909 338.834286 
L 64.973855 338.834286 
L 64.973855 337.100571 
L 67.339146 337.100571 
L 67.339146 335.366857 
L 69.501244 335.366857 
L 69.501244 333.633143 
L 69.896197 333.633143 
L 69.896197 331.899429 
L 75.358113 331.899429 
L 75.358113 330.165714 
L 81.287922 330.165714 
L 81.287922 328.432 
L 84.227289 328.432 
L 84.227289 326.698286 
L 85.873663 326.698286 
L 85.873663 324.964571 
L 90.504647 324.964571 
L 90.504647 323.230857 
L 90.837376 323.230857 
L 90.94291 319.763429 
L 92.731366 319.763429 
L 92.731366 318.029714 
L 97.94111 318.029714 
L 97.94111 316.296 
L 100.93102 316.296 
L 100.93102 314.562286 
L 102.434514 314.562286 
L 102.434514 312.828571 
L 110.115595 312.828571 
L 110.115595 311.094857 
L 110.338465 311.094857 
L 110.338465 309.361143 
L 122.033761 309.361143 
L 122.033761 307.627429 
L 127.781122 307.627429 
L 127.781122 305.893714 
L 140.530614 305.893714 
L 140.530614 304.16 
L 143.434339 304.16 
L 143.434339 302.426286 
L 149.002605 302.426286 
L 149.002605 300.692571 
L 159.976358 300.692571 
L 159.976358 298.958857 
L 174.296874 298.958857 
L 174.296874 297.225143 
L 175.22943 297.225143 
L 175.22943 295.491429 
L 178.361552 295.491429 
L 178.361552 293.757714 
L 185.006296 293.757714 
L 185.006296 292.024 
L 186.011268 292.024 
L 186.011268 290.290286 
L 220.026809 290.290286 
L 220.026809 288.556571 
L 241.473956 288.556571 
L 241.473956 286.822857 
L 245.610987 286.822857 
L 245.610987 285.089143 
L 252.047472 285.089143 
L 252.047472 283.355429 
L 260.265958 283.355429 
L 260.265958 281.621714 
L 262.202608 281.621714 
L 262.202608 279.888 
L 289.456818 279.888 
L 289.456818 278.154286 
L 334.299454 278.154286 
L 334.299454 276.420571 
L 350.580471 276.420571 
L 350.580471 274.686857 
L 354.698756 274.686857 
L 354.698756 272.953143 
L 390.455577 272.953143 
L 390.455577 271.219429 
L 399.610578 271.219429 
L 399.610578 269.485714 
L 404.073171 269.485714 
L 404.073171 267.752 
L 405.747804 267.752 
L 405.747804 266.018286 
L 446.517919 266.018286 
L 446.517919 264.284571 
L 456.105713 264.284571 
L 456.105713 262.550857 
L 457.928092 262.550857 
L 457.928092 260.817143 
L 480.479207 260.817143 
L 480.479207 259.083429 
L 538.431375 259.083429 
L 538.431375 257.349714 
L 553.292586 257.349714 
L 553.292586 255.616 
L 571.177751 255.616 
L 571.177751 253.882286 
L 682.967076 253.882286 
L 682.967076 252.148571 
L 768.591875 252.148571 
L 768.591875 252.148571 
" clip-path="url(#pe363744dbe)" style="fill: none; stroke: #d62728; stroke-width: 2.2; stroke-linecap: square"/>
   </g>
   <g id="patch_3">
    <path d="M 45.056875 425.52 
L 45.056875 61.44 
" style="fill: none; stroke: #000000; stroke-width: 0.8; stroke-linejoin: miter; stroke-linecap: square"/>
   </g>
   <g id="patch_4">
    <path d="M 768.591875 425.52 
L 768.591875 61.44 
" style="fill: none; stroke: #000000; stroke-width: 0.8; stroke-linejoin: miter; stroke-linecap: square"/>
   </g>
   <g id="patch_5">
    <path d="M 45.056875 425.52 
L 768.591875 425.52 
" style="fill: none; stroke: #000000; stroke-width: 0.8; stroke-linejoin: miter; stroke-linecap: square"/>
   </g>
   <g id="patch_6">
    <path d="M 45.056875 61.44 
L 768.591875 61.44 
" style="fill: none; stroke: #000000; stroke-width: 0.8; stroke-linejoin: miter; stroke-linecap: square"/>
   </g>
   <g id="text_19">
    <!-- Solved (SAT/UNSAT) -->
    <g transform="translate(344.840234 55.44) scale(0.11 -0.11)">
     <defs>
      <path id="DejaVuSans-Bold-53" d="M 3834 4519 
L 3834 3531 
Q 3450 3703 3084 3790 
Q 2719 3878 2394 3878 
Q 1963 3878 1756 3759 
Q 1550 3641 1550 3391 
Q 1550 3203 1689 3098 
Q 1828 2994 2194 2919 
L 2706 2816 
Q 3484 2659 3812 2340 
Q 4141 2022 4141 1434 
Q 4141 663 3683 286 
Q 3225 -91 2284 -91 
Q 1841 -91 1394 -6 
Q 947 78 500 244 
L 500 1259 
Q 947 1022 1364 901 
Q 1781 781 2169 781 
Q 2563 781 2772 912 
Q 2981 1044 2981 1288 
Q 2981 1506 2839 1625 
Q 2697 1744 2272 1838 
L 1806 1941 
Q 1106 2091 782 2419 
Q 459 2747 459 3303 
Q 459 4000 909 4375 
Q 1359 4750 2203 4750 
Q 2588 4750 2994 4692 
Q 3400 4634 3834 4519 
z
" transform="scale(0.015625)"/>
      <path id="DejaVuSans-Bold-6f" d="M 2203 2784 
Q 1831 2784 1636 2517 
Q 1441 2250 1441 1747 
Q 1441 1244 1636 976 
Q 1831 709 2203 709 
Q 2569 709 2762 976 
Q 2956 1244 2956 1747 
Q 2956 2250 2762 2517 
Q 2569 2784 2203 2784 
z
M 2203 3584 
Q 3106 3584 3614 3096 
Q 4122 2609 4122 1747 
Q 4122 884 3614 396 
Q 3106 -91 2203 -91 
Q 1297 -91 786 396 
Q 275 884 275 1747 
Q 275 2609 786 3096 
Q 1297 3584 2203 3584 
z
" transform="scale(0.015625)"/>
      <path id="DejaVuSans-Bold-6c" d="M 538 4863 
L 1656 4863 
L 1656 0 
L 538 0 
L 538 4863 
z
" transform="scale(0.015625)"/>
      <path id="DejaVuSans-Bold-76" d="M 97 3500 
L 1216 3500 
L 2088 1081 
L 2956 3500 
L 4078 3500 
L 2700 0 
L 1472 0 
L 97 3500 
z
" transform="scale(0.015625)"/>
      <path id="DejaVuSans-Bold-65" d="M 4031 1759 
L 4031 1441 
L 1416 1441 
Q 1456 1047 1700 850 
Q 1944 653 2381 653 
Q 2734 653 3104 758 
Q 3475 863 3866 1075 
L 3866 213 
Q 3469 63 3072 -14 
Q 2675 -91 2278 -91 
Q 1328 -91 801 392 
Q 275 875 275 1747 
Q 275 2603 792 3093 
Q 1309 3584 2216 3584 
Q 3041 3584 3536 3087 
Q 4031 2591 4031 1759 
z
M 2881 2131 
Q 2881 2450 2695 2645 
Q 2509 2841 2209 2841 
Q 1884 2841 1681 2658 
Q 1478 2475 1428 2131 
L 2881 2131 
z
" transform="scale(0.015625)"/>
      <path id="DejaVuSans-Bold-64" d="M 2919 2988 
L 2919 4863 
L 4044 4863 
L 4044 0 
L 2919 0 
L 2919 506 
Q 2688 197 2409 53 
Q 2131 -91 1766 -91 
Q 1119 -91 703 423 
Q 288 938 288 1747 
Q 288 2556 703 3070 
Q 1119 3584 1766 3584 
Q 2128 3584 2408 3439 
Q 2688 3294 2919 2988 
z
M 2181 722 
Q 2541 722 2730 984 
Q 2919 1247 2919 1747 
Q 2919 2247 2730 2509 
Q 2541 2772 2181 2772 
Q 1825 2772 1636 2509 
Q 1447 2247 1447 1747 
Q 1447 1247 1636 984 
Q 1825 722 2181 722 
z
" transform="scale(0.015625)"/>
      <path id="DejaVuSans-Bold-20" transform="scale(0.015625)"/>
      <path id="DejaVuSans-Bold-28" d="M 2413 -844 
L 1484 -844 
Q 1006 -72 778 623 
Q 550 1319 550 2003 
Q 550 2688 779 3389 
Q 1009 4091 1484 4856 
L 2413 4856 
Q 2013 4116 1813 3408 
Q 1613 2700 1613 2009 
Q 1613 1319 1811 609 
Q 2009 -100 2413 -844 
z
" transform="scale(0.015625)"/>
      <path id="DejaVuSans-Bold-41" d="M 3419 850 
L 1538 850 
L 1241 0 
L 31 0 
L 1759 4666 
L 3194 4666 
L 4922 0 
L 3713 0 
L 3419 850 
z
M 1838 1716 
L 3116 1716 
L 2478 3572 
L 1838 1716 
z
" transform="scale(0.015625)"/>
      <path id="DejaVuSans-Bold-54" d="M 31 4666 
L 4331 4666 
L 4331 3756 
L 2784 3756 
L 2784 0 
L 1581 0 
L 1581 3756 
L 31 3756 
L 31 4666 
z
" transform="scale(0.015625)"/>
      <path id="DejaVuSans-Bold-2f" d="M 1644 4666 
L 2338 4666 
L 691 -594 
L 0 -594 
L 1644 4666 
z
" transform="scale(0.015625)"/>
      <path id="DejaVuSans-Bold-55" d="M 588 4666 
L 1791 4666 
L 1791 1869 
Q 1791 1291 1980 1042 
Q 2169 794 2597 794 
Q 3028 794 3217 1042 
Q 3406 1291 3406 1869 
L 3406 4666 
L 4609 4666 
L 4609 1869 
Q 4609 878 4112 393 
Q 3616 -91 2597 -91 
Q 1581 -91 1084 393 
Q 588 878 588 1869 
L 588 4666 
z
" transform="scale(0.015625)"/>
      <path id="DejaVuSans-Bold-4e" d="M 588 4666 
L 1931 4666 
L 3628 1466 
L 3628 4666 
L 4769 4666 
L 4769 0 
L 3425 0 
L 1728 3200 
L 1728 0 
L 588 0 
L 588 4666 
z
" transform="scale(0.015625)"/>
      <path id="DejaVuSans-Bold-29" d="M 513 -844 
Q 913 -100 1113 609 
Q 1313 1319 1313 2009 
Q 1313 2700 1113 3408 
Q 913 4116 513 4856 
L 1441 4856 
Q 1916 4091 2145 3389 
Q 2375 2688 2375 2003 
Q 2375 1319 2147 623 
Q 1919 -72 1441 -844 
L 513 -844 
z
" transform="scale(0.015625)"/>
     </defs>
     <use xlink:href="#DejaVuSans-Bold-53"/>
     <use xlink:href="#DejaVuSans-Bold-6f" transform="translate(72.021484 0)"/>
     <use xlink:href="#DejaVuSans-Bold-6c" transform="translate(140.722656 0)"/>
     <use xlink:href="#DejaVuSans-Bold-76" transform="translate(175 0)"/>
     <use xlink:href="#DejaVuSans-Bold-65" transform="translate(240.185547 0)"/>
     <use xlink:href="#DejaVuSans-Bold-64" transform="translate(308.007812 0)"/>
     <use xlink:href="#DejaVuSans-Bold-20" transform="translate(379.589844 0)"/>
     <use xlink:href="#DejaVuSans-Bold-28" transform="translate(414.404297 0)"/>
     <use xlink:href="#DejaVuSans-Bold-53" transform="translate(460.107422 0)"/>
     <use xlink:href="#DejaVuSans-Bold-41" transform="translate(532.128906 0)"/>
     <use xlink:href="#DejaVuSans-Bold-54" transform="translate(601.771484 0)"/>
     <use xlink:href="#DejaVuSans-Bold-2f" transform="translate(669.984375 0)"/>
     <use xlink:href="#DejaVuSans-Bold-55" transform="translate(706.507812 0)"/>
     <use xlink:href="#DejaVuSans-Bold-4e" transform="translate(787.708984 0)"/>
     <use xlink:href="#DejaVuSans-Bold-53" transform="translate(871.400391 0)"/>
     <use xlink:href="#DejaVuSans-Bold-41" transform="translate(943.421875 0)"/>
     <use xlink:href="#DejaVuSans-Bold-54" transform="translate(1013.064453 0)"/>
     <use xlink:href="#DejaVuSans-Bold-29" transform="translate(1081.277344 0)"/>
    </g>
   </g>
   <g id="legend_1">
    <g id="patch_7">
     <path d="M 265.023125 531.5026 
L 548.625625 531.5026 
Q 550.225625 531.5026 550.225625 529.9026 
L 550.225625 507.2176 
Q 550.225625 505.6176 548.625625 505.6176 
L 265.023125 505.6176 
Q 263.423125 505.6176 263.423125 507.2176 
L 263.423125 529.9026 
Q 263.423125 531.5026 265.023125 531.5026 
z
" style="fill: #ffffff; opacity: 0.95; stroke: #cccccc; stroke-linejoin: miter"/>
    </g>
    <g id="line2d_38">
     <path d="M 266.623125 512.09635 
L 274.623125 512.09635 
L 274.623125 512.09635 
L 282.623125 512.09635 
L 282.623125 512.09635 
" style="fill: none; stroke: #d62728; stroke-width: 2.2; stroke-linecap: square"/>
    </g>
    <g id="text_20">
     <!-- ortools (100/200) -->
     <g transform="translate(289.023125 514.89635) scale(0.08 -0.08)">
      <defs>
       <path id="DejaVuSans-72" d="M 2631 2963 
Q 2534 3019 2420 3045 
Q 2306 3072 2169 3072 
Q 1681 3072 1420 2755 
Q 1159 2438 1159 1844 
L 1159 0 
L 581 0 
L 581 3500 
L 1159 3500 
L 1159 2956 
Q 1341 3275 1631 3429 
Q 1922 3584 2338 3584 
Q 2397 3584 2469 3576 
Q 2541 3569 2628 3553 
L 2631 2963 
z
" transform="scale(0.015625)"/>
       <path id="DejaVuSans-2f" d="M 1625 4666 
L 2156 4666 
L 531 -594 
L 0 -594 
L 1625 4666 
z
" transform="scale(0.015625)"/>
      </defs>
      <use xlink:href="#DejaVuSans-6f"/>
      <use xlink:href="#DejaVuSans-72" transform="translate(61.181641 0)"/>
      <use xlink:href="#DejaVuSans-74" transform="translate(102.294922 0)"/>
      <use xlink:href="#DejaVuSans-6f" transform="translate(141.503906 0)"/>
      <use xlink:href="#DejaVuSans-6f" transform="translate(202.685547 0)"/>
      <use xlink:href="#DejaVuSans-6c" transform="translate(263.867188 0)"/>
      <use xlink:href="#DejaVuSans-73" transform="translate(291.650391 0)"/>
      <use xlink:href="#DejaVuSans-20" transform="translate(343.75 0)"/>
      <use xlink:href="#DejaVuSans-28" transform="translate(375.537109 0)"/>
      <use xlink:href="#DejaVuSans-31" transform="translate(414.550781 0)"/>
      <use xlink:href="#DejaVuSans-30" transform="translate(478.173828 0)"/>
      <use xlink:href="#DejaVuSans-30" transform="translate(541.796875 0)"/>
      <use xlink:href="#DejaVuSans-2f" transform="translate(605.419922 0)"/>
      <use xlink:href="#DejaVuSans-32" transform="translate(639.111328 0)"/>
      <use xlink:href="#DejaVuSans-30" transform="translate(702.734375 0)"/>
      <use xlink:href="#DejaVuSans-30" transform="translate(766.357422 0)"/>
      <use xlink:href="#DejaVuSans-29" transform="translate(829.980469 0)"/>
     </g>
    </g>
    <g id="line2d_39">
     <path d="M 266.623125 523.83885 
L 274.623125 523.83885 
L 274.623125 523.83885 
L 282.623125 523.83885 
L 282.623125 523.83885 
" style="fill: none; stroke: #ff7f0e; stroke-width: 2.2; stroke-linecap: square"/>
    </g>
    <g id="text_21">
     <!-- gurobi (59/200) -->
     <g transform="translate(289.023125 526.63885) scale(0.08 -0.08)">
      <defs>
       <path id="DejaVuSans-67" d="M 2906 1791 
Q 2906 2416 2648 2759 
Q 2391 3103 1925 3103 
Q 1463 3103 1205 2759 
Q 947 2416 947 1791 
Q 947 1169 1205 825 
Q 1463 481 1925 481 
Q 2391 481 2648 825 
Q 2906 1169 2906 1791 
z
M 3481 434 
Q 3481 -459 3084 -895 
Q 2688 -1331 1869 -1331 
Q 1566 -1331 1297 -1286 
Q 1028 -1241 775 -1147 
L 775 -588 
Q 1028 -725 1275 -790 
Q 1522 -856 1778 -856 
Q 2344 -856 2625 -561 
Q 2906 -266 2906 331 
L 2906 616 
Q 2728 306 2450 153 
Q 2172 0 1784 0 
Q 1141 0 747 490 
Q 353 981 353 1791 
Q 353 2603 747 3093 
Q 1141 3584 1784 3584 
Q 2172 3584 2450 3431 
Q 2728 3278 2906 2969 
L 2906 3500 
L 3481 3500 
L 3481 434 
z
" transform="scale(0.015625)"/>
       <path id="DejaVuSans-75" d="M 544 1381 
L 544 3500 
L 1119 3500 
L 1119 1403 
Q 1119 906 1312 657 
Q 1506 409 1894 409 
Q 2359 409 2629 706 
Q 2900 1003 2900 1516 
L 2900 3500 
L 3475 3500 
L 3475 0 
L 2900 0 
L 2900 538 
Q 2691 219 2414 64 
Q 2138 -91 1772 -91 
Q 1169 -91 856 284 
Q 544 659 544 1381 
z
M 1991 3584 
L 1991 3584 
z
" transform="scale(0.015625)"/>
       <path id="DejaVuSans-62" d="M 3116 1747 
Q 3116 2381 2855 2742 
Q 2594 3103 2138 3103 
Q 1681 3103 1420 2742 
Q 1159 2381 1159 1747 
Q 1159 1113 1420 752 
Q 1681 391 2138 391 
Q 2594 391 2855 752 
Q 3116 1113 3116 1747 
z
M 1159 2969 
Q 1341 3281 1617 3432 
Q 1894 3584 2278 3584 
Q 2916 3584 3314 3078 
Q 3713 2572 3713 1747 
Q 3713 922 3314 415 
Q 2916 -91 2278 -91 
Q 1894 -91 1617 61 
Q 1341 213 1159 525 
L 1159 0 
L 581 0 
L 581 4863 
L 1159 4863 
L 1159 2969 
z
" transform="scale(0.015625)"/>
       <path id="DejaVuSans-39" d="M 703 97 
L 703 672 
Q 941 559 1184 500 
Q 1428 441 1663 441 
Q 2288 441 2617 861 
Q 2947 1281 2994 2138 
Q 2813 1869 2534 1725 
Q 2256 1581 1919 1581 
Q 1219 1581 811 2004 
Q 403 2428 403 3163 
Q 403 3881 828 4315 
Q 1253 4750 1959 4750 
Q 2769 4750 3195 4129 
Q 3622 3509 3622 2328 
Q 3622 1225 3098 567 
Q 2575 -91 1691 -91 
Q 1453 -91 1209 -44 
Q 966 3 703 97 
z
M 1959 2075 
Q 2384 2075 2632 2365 
Q 2881 2656 2881 3163 
Q 2881 3666 2632 3958 
Q 2384 4250 1959 4250 
Q 1534 4250 1286 3958 
Q 1038 3666 1038 3163 
Q 1038 2656 1286 2365 
Q 1534 2075 1959 2075 
z
" transform="scale(0.015625)"/>
      </defs>
      <use xlink:href="#DejaVuSans-67"/>
      <use xlink:href="#DejaVuSans-75" transform="translate(63.476562 0)"/>
      <use xlink:href="#DejaVuSans-72" transform="translate(126.855469 0)"/>
      <use xlink:href="#DejaVuSans-6f" transform="translate(165.71875 0)"/>
      <use xlink:href="#DejaVuSans-62" transform="translate(226.900391 0)"/>
      <use xlink:href="#DejaVuSans-69" transform="translate(290.376953 0)"/>
      <use xlink:href="#DejaVuSans-20" transform="translate(318.160156 0)"/>
      <use xlink:href="#DejaVuSans-28" transform="translate(349.947266 0)"/>
      <use xlink:href="#DejaVuSans-35" transform="translate(388.960938 0)"/>
      <use xlink:href="#DejaVuSans-39" transform="translate(452.583984 0)"/>
      <use xlink:href="#DejaVuSans-2f" transform="translate(516.207031 0)"/>
      <use xlink:href="#DejaVuSans-32" transform="translate(549.898438 0)"/>
      <use xlink:href="#DejaVuSans-30" transform="translate(613.521484 0)"/>
      <use xlink:href="#DejaVuSans-30" transform="translate(677.144531 0)"/>
      <use xlink:href="#DejaVuSans-29" transform="translate(740.767578 0)"/>
     </g>
    </g>
    <g id="line2d_40">
     <path d="M 374.543125 512.09635 
L 382.543125 512.09635 
L 382.543125 512.09635 
L 390.543125 512.09635 
L 390.543125 512.09635 
" style="fill: none; stroke: #1f77b4; stroke-width: 2.2; stroke-linecap: square"/>
    </g>
    <g id="text_22">
     <!-- exact (52/200) -->
     <g transform="translate(396.943125 514.89635) scale(0.08 -0.08)">
      <defs>
       <path id="DejaVuSans-78" d="M 3513 3500 
L 2247 1797 
L 3578 0 
L 2900 0 
L 1881 1375 
L 863 0 
L 184 0 
L 1544 1831 
L 300 3500 
L 978 3500 
L 1906 2253 
L 2834 3500 
L 3513 3500 
z
" transform="scale(0.015625)"/>
      </defs>
      <use xlink:href="#DejaVuSans-65"/>
      <use xlink:href="#DejaVuSans-78" transform="translate(59.773438 0)"/>
      <use xlink:href="#DejaVuSans-61" transform="translate(118.953125 0)"/>
      <use xlink:href="#DejaVuSans-63" transform="translate(180.232422 0)"/>
      <use xlink:href="#DejaVuSans-74" transform="translate(235.212891 0)"/>
      <use xlink:href="#DejaVuSans-20" transform="translate(274.421875 0)"/>
      <use xlink:href="#DejaVuSans-28" transform="translate(306.208984 0)"/>
      <use xlink:href="#DejaVuSans-35" transform="translate(345.222656 0)"/>
      <use xlink:href="#DejaVuSans-32" transform="translate(408.845703 0)"/>
      <use xlink:href="#DejaVuSans-2f" transform="translate(472.46875 0)"/>
      <use xlink:href="#DejaVuSans-32" transform="translate(506.160156 0)"/>
      <use xlink:href="#DejaVuSans-30" transform="translate(569.783203 0)"/>
      <use xlink:href="#DejaVuSans-30" transform="translate(633.40625 0)"/>
      <use xlink:href="#DejaVuSans-29" transform="translate(697.029297 0)"/>
     </g>
    </g>
    <g id="line2d_41">
     <path d="M 374.543125 523.83885 
L 382.543125 523.83885 
L 382.543125 523.83885 
L 390.543125 523.83885 
L 390.543125 523.83885 
" style="fill: none; stroke: #2ca02c; stroke-width: 2.2; stroke-linecap: square"/>
    </g>
    <g id="text_23">
     <!-- highs (36/200) -->
     <g transform="translate(396.943125 526.63885) scale(0.08 -0.08)">
      <defs>
       <path id="DejaVuSans-68" d="M 3513 2113 
L 3513 0 
L 2938 0 
L 2938 2094 
Q 2938 2591 2744 2837 
Q 2550 3084 2163 3084 
Q 1697 3084 1428 2787 
Q 1159 2491 1159 1978 
L 1159 0 
L 581 0 
L 581 4863 
L 1159 4863 
L 1159 2956 
Q 1366 3272 1645 3428 
Q 1925 3584 2291 3584 
Q 2894 3584 3203 3211 
Q 3513 2838 3513 2113 
z
" transform="scale(0.015625)"/>
      </defs>
      <use xlink:href="#DejaVuSans-68"/>
      <use xlink:href="#DejaVuSans-69" transform="translate(63.378906 0)"/>
      <use xlink:href="#DejaVuSans-67" transform="translate(91.162109 0)"/>
      <use xlink:href="#DejaVuSans-68" transform="translate(154.638672 0)"/>
      <use xlink:href="#DejaVuSans-73" transform="translate(218.017578 0)"/>
      <use xlink:href="#DejaVuSans-20" transform="translate(270.117188 0)"/>
      <use xlink:href="#DejaVuSans-28" transform="translate(301.904297 0)"/>
      <use xlink:href="#DejaVuSans-33" transform="translate(340.917969 0)"/>
      <use xlink:href="#DejaVuSans-36" transform="translate(404.541016 0)"/>
      <use xlink:href="#DejaVuSans-2f" transform="translate(468.164062 0)"/>
      <use xlink:href="#DejaVuSans-32" transform="translate(501.855469 0)"/>
      <use xlink:href="#DejaVuSans-30" transform="translate(565.478516 0)"/>
      <use xlink:href="#DejaVuSans-30" transform="translate(629.101562 0)"/>
      <use xlink:href="#DejaVuSans-29" transform="translate(692.724609 0)"/>
     </g>
    </g>
    <g id="line2d_42">
     <path d="M 471.828125 512.09635 
L 479.828125 512.09635 
L 479.828125 512.09635 
L 487.828125 512.09635 
L 487.828125 512.09635 
" style="fill: none; stroke: #9467bd; stroke-width: 2.2; stroke-linecap: square"/>
    </g>
    <g id="text_24">
     <!-- scip (21/200) -->
     <g transform="translate(494.228125 514.89635) scale(0.08 -0.08)">
      <defs>
       <path id="DejaVuSans-70" d="M 1159 525 
L 1159 -1331 
L 581 -1331 
L 581 3500 
L 1159 3500 
L 1159 2969 
Q 1341 3281 1617 3432 
Q 1894 3584 2278 3584 
Q 2916 3584 3314 3078 
Q 3713 2572 3713 1747 
Q 3713 922 3314 415 
Q 2916 -91 2278 -91 
Q 1894 -91 1617 61 
Q 1341 213 1159 525 
z
M 3116 1747 
Q 3116 2381 2855 2742 
Q 2594 3103 2138 3103 
Q 1681 3103 1420 2742 
Q 1159 2381 1159 1747 
Q 1159 1113 1420 752 
Q 1681 391 2138 391 
Q 2594 391 2855 752 
Q 3116 1113 3116 1747 
z
" transform="scale(0.015625)"/>
      </defs>
      <use xlink:href="#DejaVuSans-73"/>
      <use xlink:href="#DejaVuSans-63" transform="translate(52.099609 0)"/>
      <use xlink:href="#DejaVuSans-69" transform="translate(107.080078 0)"/>
      <use xlink:href="#DejaVuSans-70" transform="translate(134.863281 0)"/>
      <use xlink:href="#DejaVuSans-20" transform="translate(198.339844 0)"/>
      <use xlink:href="#DejaVuSans-28" transform="translate(230.126953 0)"/>
      <use xlink:href="#DejaVuSans-32" transform="translate(269.140625 0)"/>
      <use xlink:href="#DejaVuSans-31" transform="translate(332.763672 0)"/>
      <use xlink:href="#DejaVuSans-2f" transform="translate(396.386719 0)"/>
      <use xlink:href="#DejaVuSans-32" transform="translate(430.078125 0)"/>
      <use xlink:href="#DejaVuSans-30" transform="translate(493.701172 0)"/>
      <use xlink:href="#DejaVuSans-30" transform="translate(557.324219 0)"/>
      <use xlink:href="#DejaVuSans-29" transform="translate(620.947266 0)"/>
     </g>
    </g>
   </g>
  </g>
  <g id="text_25">
   <!-- Track: XCSP3-2025-CSP25 -->
   <g transform="translate(297.134609 17.077969) scale(0.13 -0.13)">
    <defs>
     <path id="DejaVuSans-Bold-72" d="M 3138 2547 
Q 2991 2616 2845 2648 
Q 2700 2681 2553 2681 
Q 2122 2681 1889 2404 
Q 1656 2128 1656 1613 
L 1656 0 
L 538 0 
L 538 3500 
L 1656 3500 
L 1656 2925 
Q 1872 3269 2151 3426 
Q 2431 3584 2822 3584 
Q 2878 3584 2943 3579 
Q 3009 3575 3134 3559 
L 3138 2547 
z
" transform="scale(0.015625)"/>
     <path id="DejaVuSans-Bold-61" d="M 2106 1575 
Q 1756 1575 1579 1456 
Q 1403 1338 1403 1106 
Q 1403 894 1545 773 
Q 1688 653 1941 653 
Q 2256 653 2472 879 
Q 2688 1106 2688 1447 
L 2688 1575 
L 2106 1575 
z
M 3816 1997 
L 3816 0 
L 2688 0 
L 2688 519 
Q 2463 200 2181 54 
Q 1900 -91 1497 -91 
Q 953 -91 614 226 
Q 275 544 275 1050 
Q 275 1666 698 1953 
Q 1122 2241 2028 2241 
L 2688 2241 
L 2688 2328 
Q 2688 2594 2478 2717 
Q 2269 2841 1825 2841 
Q 1466 2841 1156 2769 
Q 847 2697 581 2553 
L 581 3406 
Q 941 3494 1303 3539 
Q 1666 3584 2028 3584 
Q 2975 3584 3395 3211 
Q 3816 2838 3816 1997 
z
" transform="scale(0.015625)"/>
     <path id="DejaVuSans-Bold-63" d="M 3366 3391 
L 3366 2478 
Q 3138 2634 2908 2709 
Q 2678 2784 2431 2784 
Q 1963 2784 1702 2511 
Q 1441 2238 1441 1747 
Q 1441 1256 1702 982 
Q 1963 709 2431 709 
Q 2694 709 2930 787 
Q 3166 866 3366 1019 
L 3366 103 
Q 3103 6 2833 -42 
Q 2563 -91 2291 -91 
Q 1344 -91 809 395 
Q 275 881 275 1747 
Q 275 2613 809 3098 
Q 1344 3584 2291 3584 
Q 2566 3584 2833 3536 
Q 3100 3488 3366 3391 
z
" transform="scale(0.015625)"/>
     <path id="DejaVuSans-Bold-6b" d="M 538 4863 
L 1656 4863 
L 1656 2216 
L 2944 3500 
L 4244 3500 
L 2534 1894 
L 4378 0 
L 3022 0 
L 1656 1459 
L 1656 0 
L 538 0 
L 538 4863 
z
" transform="scale(0.015625)"/>
     <path id="DejaVuSans-Bold-3a" d="M 716 3500 
L 1844 3500 
L 1844 2291 
L 716 2291 
L 716 3500 
z
M 716 1209 
L 1844 1209 
L 1844 0 
L 716 0 
L 716 1209 
z
" transform="scale(0.015625)"/>
     <path id="DejaVuSans-Bold-58" d="M 3188 2381 
L 4806 0 
L 3553 0 
L 2463 1594 
L 1381 0 
L 122 0 
L 1741 2381 
L 184 4666 
L 1441 4666 
L 2463 3163 
L 3481 4666 
L 4744 4666 
L 3188 2381 
z
" transform="scale(0.015625)"/>
     <path id="DejaVuSans-Bold-43" d="M 4288 256 
Q 3956 84 3597 -3 
Q 3238 -91 2847 -91 
Q 1681 -91 1000 561 
Q 319 1213 319 2328 
Q 319 3447 1000 4098 
Q 1681 4750 2847 4750 
Q 3238 4750 3597 4662 
Q 3956 4575 4288 4403 
L 4288 3438 
Q 3953 3666 3628 3772 
Q 3303 3878 2944 3878 
Q 2300 3878 1931 3465 
Q 1563 3053 1563 2328 
Q 1563 1606 1931 1193 
Q 2300 781 2944 781 
Q 3303 781 3628 887 
Q 3953 994 4288 1222 
L 4288 256 
z
" transform="scale(0.015625)"/>
     <path id="DejaVuSans-Bold-50" d="M 588 4666 
L 2584 4666 
Q 3475 4666 3951 4270 
Q 4428 3875 4428 3144 
Q 4428 2409 3951 2014 
Q 3475 1619 2584 1619 
L 1791 1619 
L 1791 0 
L 588 0 
L 588 4666 
z
M 1791 3794 
L 1791 2491 
L 2456 2491 
Q 2806 2491 2997 2661 
Q 3188 2831 3188 3144 
Q 3188 3456 2997 3625 
Q 2806 3794 2456 3794 
L 1791 3794 
z
" transform="scale(0.015625)"/>
     <path id="DejaVuSans-Bold-33" d="M 2981 2516 
Q 3453 2394 3698 2092 
Q 3944 1791 3944 1325 
Q 3944 631 3412 270 
Q 2881 -91 1863 -91 
Q 1503 -91 1142 -33 
Q 781 25 428 141 
L 428 1069 
Q 766 900 1098 814 
Q 1431 728 1753 728 
Q 2231 728 2486 893 
Q 2741 1059 2741 1369 
Q 2741 1688 2480 1852 
Q 2219 2016 1709 2016 
L 1228 2016 
L 1228 2791 
L 1734 2791 
Q 2188 2791 2409 2933 
Q 2631 3075 2631 3366 
Q 2631 3634 2415 3781 
Q 2200 3928 1806 3928 
Q 1516 3928 1219 3862 
Q 922 3797 628 3669 
L 628 4550 
Q 984 4650 1334 4700 
Q 1684 4750 2022 4750 
Q 2931 4750 3382 4451 
Q 3834 4153 3834 3553 
Q 3834 3144 3618 2883 
Q 3403 2622 2981 2516 
z
" transform="scale(0.015625)"/>
     <path id="DejaVuSans-Bold-2d" d="M 347 2297 
L 2309 2297 
L 2309 1388 
L 347 1388 
L 347 2297 
z
" transform="scale(0.015625)"/>
     <path id="DejaVuSans-Bold-32" d="M 1844 884 
L 3897 884 
L 3897 0 
L 506 0 
L 506 884 
L 2209 2388 
Q 2438 2594 2547 2791 
Q 2656 2988 2656 3200 
Q 2656 3528 2436 3728 
Q 2216 3928 1850 3928 
Q 1569 3928 1234 3808 
Q 900 3688 519 3450 
L 519 4475 
Q 925 4609 1322 4679 
Q 1719 4750 2100 4750 
Q 2938 4750 3402 4381 
Q 3866 4013 3866 3353 
Q 3866 2972 3669 2642 
Q 3472 2313 2841 1759 
L 1844 884 
z
" transform="scale(0.015625)"/>
     <path id="DejaVuSans-Bold-30" d="M 2944 2338 
Q 2944 3213 2780 3570 
Q 2616 3928 2228 3928 
Q 1841 3928 1675 3570 
Q 1509 3213 1509 2338 
Q 1509 1453 1675 1090 
Q 1841 728 2228 728 
Q 2613 728 2778 1090 
Q 2944 1453 2944 2338 
z
M 4147 2328 
Q 4147 1169 3647 539 
Q 3147 -91 2228 -91 
Q 1306 -91 806 539 
Q 306 1169 306 2328 
Q 306 3491 806 4120 
Q 1306 4750 2228 4750 
Q 3147 4750 3647 4120 
Q 4147 3491 4147 2328 
z
" transform="scale(0.015625)"/>
     <path id="DejaVuSans-Bold-35" d="M 678 4666 
L 3669 4666 
L 3669 3781 
L 1638 3781 
L 1638 3059 
Q 1775 3097 1914 3117 
Q 2053 3138 2203 3138 
Q 3056 3138 3531 2711 
Q 4006 2284 4006 1522 
Q 4006 766 3489 337 
Q 2972 -91 2053 -91 
Q 1656 -91 1267 -14 
Q 878 63 494 219 
L 494 1166 
Q 875 947 1217 837 
Q 1559 728 1863 728 
Q 2300 728 2551 942 
Q 2803 1156 2803 1522 
Q 2803 1891 2551 2103 
Q 2300 2316 1863 2316 
Q 1603 2316 1309 2248 
Q 1016 2181 678 2041 
L 678 4666 
z
" transform="scale(0.015625)"/>
    </defs>
    <use xlink:href="#DejaVuSans-Bold-54"/>
    <use xlink:href="#DejaVuSans-Bold-72" transform="translate(57.212891 0)"/>
    <use xlink:href="#DejaVuSans-Bold-61" transform="translate(106.529297 0)"/>
    <use xlink:href="#DejaVuSans-Bold-63" transform="translate(174.009766 0)"/>
    <use xlink:href="#DejaVuSans-Bold-6b" transform="translate(233.287109 0)"/>
    <use xlink:href="#DejaVuSans-Bold-3a" transform="translate(299.791016 0)"/>
    <use xlink:href="#DejaVuSans-Bold-20" transform="translate(339.78125 0)"/>
    <use xlink:href="#DejaVuSans-Bold-58" transform="translate(374.595703 0)"/>
    <use xlink:href="#DejaVuSans-Bold-43" transform="translate(448.070312 0)"/>
    <use xlink:href="#DejaVuSans-Bold-53" transform="translate(523.333984 0)"/>
    <use xlink:href="#DejaVuSans-Bold-50" transform="translate(595.355469 0)"/>
    <use xlink:href="#DejaVuSans-Bold-33" transform="translate(668.646484 0)"/>
    <use xlink:href="#DejaVuSans-Bold-2d" transform="translate(738.226562 0)"/>
    <use xlink:href="#DejaVuSans-Bold-32" transform="translate(779.730469 0)"/>
    <use xlink:href="#DejaVuSans-Bold-30" transform="translate(849.310547 0)"/>
    <use xlink:href="#DejaVuSans-Bold-32" transform="translate(918.890625 0)"/>
    <use xlink:href="#DejaVuSans-Bold-35" transform="translate(988.470703 0)"/>
    <use xlink:href="#DejaVuSans-Bold-2d" transform="translate(1058.050781 0)"/>
    <use xlink:href="#DejaVuSans-Bold-43" transform="translate(1099.554688 0)"/>
    <use xlink:href="#DejaVuSans-Bold-53" transform="translate(1174.818359 0)"/>
    <use xlink:href="#DejaVuSans-Bold-50" transform="translate(1246.839844 0)"/>
    <use xlink:href="#DejaVuSans-Bold-32" transform="translate(1320.130859 0)"/>
    <use xlink:href="#DejaVuSans-Bold-35" transform="translate(1389.710938 0)"/>
   </g>
  </g>
 </g>
 <defs>
  <clipPath id="pe363744dbe">
   <rect x="45.056875" y="61.44" width="723.535" height="364.08"/>
  </clipPath>
 </defs>
</svg>
