<?xml version="1.0" encoding="utf-8" standalone="no"?>
<!DOCTYPE svg PUBLIC "-//W3C//DTD SVG 1.1//EN"
  "http://www.w3.org/Graphics/SVG/1.1/DTD/svg11.dtd">
<svg xmlns:xlink="http://www.w3.org/1999/xlink" width="1612.38125pt" height="526.9601pt" viewBox="0 0 1612.38125 526.9601" xmlns="http://www.w3.org/2000/svg" version="1.1">
 <metadata>
  <rdf:RDF xmlns:dc="http://purl.org/dc/elements/1.1/" xmlns:cc="http://creativecommons.org/ns#" xmlns:rdf="http://www.w3.org/1999/02/22-rdf-syntax-ns#">
   <cc:Work>
    <dc:type rdf:resource="http://purl.org/dc/dcmitype/StillImage"/>
    <dc:date>2026-05-26T14:14:37.872232</dc:date>
    <dc:format>image/svg+xml</dc:format>
    <dc:creator>
     <cc:Agent>
      <dc:title>Matplotlib v3.10.8, https://matplotlib.org/</dc:title>
     </cc:Agent>
    </dc:creator>
   </cc:Work>
  </rdf:RDF>
 </metadata>
 <defs>
  <style type="text/css">*{stroke-linejoin: round; stroke-linecap: butt}</style>
 </defs>
 <g id="figure_1">
  <g id="patch_1">
   <path d="M 0 526.9601 
L 1612.38125 526.9601 
L 1612.38125 0 
L 0 0 
z
" style="fill: #ffffff"/>
  </g>
  <g id="axes_1">
   <g id="patch_2">
    <path d="M 45.056875 425.52 
L 523.791875 425.52 
L 523.791875 61.44 
L 45.056875 61.44 
z
" style="fill: #ffffff"/>
   </g>
   <g id="matplotlib.axis_1">
    <g id="xtick_1">
     <g id="line2d_1">
      <path d="M 45.056875 425.52 
L 45.056875 61.44 
" clip-path="url(#p62852f3b86)" style="fill: none; stroke: #b0b0b0; stroke-opacity: 0.3; stroke-width: 0.8; stroke-linecap: square"/>
     </g>
     <g id="line2d_2">
      <defs>
       <path id="m2c4532b3f3" d="M 0 0 
L 0 3.5 
" style="stroke: #000000; stroke-width: 0.8"/>
      </defs>
      <g>
       <use xlink:href="#m2c4532b3f3" x="45.056875" y="425.52" style="stroke: #000000; stroke-width: 0.8"/>
      </g>
     </g>
     <g id="text_1">
      <!-- 0 -->
      <g transform="translate(42.19375 439.358594) scale(0.09 -0.09)">
       <defs>
        <path id="DejaVuSans-30" d="M 2034 4250 
Q 1547 4250 1301 3770 
Q 1056 3291 1056 2328 
Q 1056 1369 1301 889 
Q 1547 409 2034 409 
Q 2525 409 2770 889 
Q 3016 1369 3016 2328 
Q 3016 3291 2770 3770 
Q 2525 4250 2034 4250 
z
M 2034 4750 
Q 2819 4750 3233 4129 
Q 3647 3509 3647 2328 
Q 3647 1150 3233 529 
Q 2819 -91 2034 -91 
Q 1250 -91 836 529 
Q 422 1150 422 2328 
Q 422 3509 836 4129 
Q 1250 4750 2034 4750 
z
" transform="scale(0.015625)"/>
       </defs>
       <use xlink:href="#DejaVuSans-30"/>
      </g>
     </g>
    </g>
    <g id="xtick_2">
     <g id="line2d_3">
      <path d="M 124.846042 425.52 
L 124.846042 61.44 
" clip-path="url(#p62852f3b86)" style="fill: none; stroke: #b0b0b0; stroke-opacity: 0.3; stroke-width: 0.8; stroke-linecap: square"/>
     </g>
     <g id="line2d_4">
      <g>
       <use xlink:href="#m2c4532b3f3" x="124.846042" y="425.52" style="stroke: #000000; stroke-width: 0.8"/>
      </g>
     </g>
     <g id="text_2">
      <!-- 50 -->
      <g transform="translate(119.119792 439.358594) scale(0.09 -0.09)">
       <defs>
        <path id="DejaVuSans-35" d="M 691 4666 
L 3169 4666 
L 3169 4134 
L 1269 4134 
L 1269 2991 
Q 1406 3038 1543 3061 
Q 1681 3084 1819 3084 
Q 2600 3084 3056 2656 
Q 3513 2228 3513 1497 
Q 3513 744 3044 326 
Q 2575 -91 1722 -91 
Q 1428 -91 1123 -41 
Q 819 9 494 109 
L 494 744 
Q 775 591 1075 516 
Q 1375 441 1709 441 
Q 2250 441 2565 725 
Q 2881 1009 2881 1497 
Q 2881 1984 2565 2268 
Q 2250 2553 1709 2553 
Q 1456 2553 1204 2497 
Q 953 2441 691 2322 
L 691 4666 
z
" transform="scale(0.015625)"/>
       </defs>
       <use xlink:href="#DejaVuSans-35"/>
       <use xlink:href="#DejaVuSans-30" transform="translate(63.623047 0)"/>
      </g>
     </g>
    </g>
    <g id="xtick_3">
     <g id="line2d_5">
      <path d="M 204.635208 425.52 
L 204.635208 61.44 
" clip-path="url(#p62852f3b86)" style="fill: none; stroke: #b0b0b0; stroke-opacity: 0.3; stroke-width: 0.8; stroke-linecap: square"/>
     </g>
     <g id="line2d_6">
      <g>
       <use xlink:href="#m2c4532b3f3" x="204.635208" y="425.52" style="stroke: #000000; stroke-width: 0.8"/>
      </g>
     </g>
     <g id="text_3">
      <!-- 100 -->
      <g transform="translate(196.045833 439.358594) scale(0.09 -0.09)">
       <defs>
        <path id="DejaVuSans-31" d="M 794 531 
L 1825 531 
L 1825 4091 
L 703 3866 
L 703 4441 
L 1819 4666 
L 2450 4666 
L 2450 531 
L 3481 531 
L 3481 0 
L 794 0 
L 794 531 
z
" transform="scale(0.015625)"/>
       </defs>
       <use xlink:href="#DejaVuSans-31"/>
       <use xlink:href="#DejaVuSans-30" transform="translate(63.623047 0)"/>
       <use xlink:href="#DejaVuSans-30" transform="translate(127.246094 0)"/>
      </g>
     </g>
    </g>
    <g id="xtick_4">
     <g id="line2d_7">
      <path d="M 284.424375 425.52 
L 284.424375 61.44 
" clip-path="url(#p62852f3b86)" style="fill: none; stroke: #b0b0b0; stroke-opacity: 0.3; stroke-width: 0.8; stroke-linecap: square"/>
     </g>
     <g id="line2d_8">
      <g>
       <use xlink:href="#m2c4532b3f3" x="284.424375" y="425.52" style="stroke: #000000; stroke-width: 0.8"/>
      </g>
     </g>
     <g id="text_4">
      <!-- 150 -->
      <g transform="translate(275.835 439.358594) scale(0.09 -0.09)">
       <use xlink:href="#DejaVuSans-31"/>
       <use xlink:href="#DejaVuSans-35" transform="translate(63.623047 0)"/>
       <use xlink:href="#DejaVuSans-30" transform="translate(127.246094 0)"/>
      </g>
     </g>
    </g>
    <g id="xtick_5">
     <g id="line2d_9">
      <path d="M 364.213542 425.52 
L 364.213542 61.44 
" clip-path="url(#p62852f3b86)" style="fill: none; stroke: #b0b0b0; stroke-opacity: 0.3; stroke-width: 0.8; stroke-linecap: square"/>
     </g>
     <g id="line2d_10">
      <g>
       <use xlink:href="#m2c4532b3f3" x="364.213542" y="425.52" style="stroke: #000000; stroke-width: 0.8"/>
      </g>
     </g>
     <g id="text_5">
      <!-- 200 -->
      <g transform="translate(355.624167 439.358594) scale(0.09 -0.09)">
       <defs>
        <path id="DejaVuSans-32" d="M 1228 531 
L 3431 531 
L 3431 0 
L 469 0 
L 469 531 
Q 828 903 1448 1529 
Q 2069 2156 2228 2338 
Q 2531 2678 2651 2914 
Q 2772 3150 2772 3378 
Q 2772 3750 2511 3984 
Q 2250 4219 1831 4219 
Q 1534 4219 1204 4116 
Q 875 4013 500 3803 
L 500 4441 
Q 881 4594 1212 4672 
Q 1544 4750 1819 4750 
Q 2544 4750 2975 4387 
Q 3406 4025 3406 3419 
Q 3406 3131 3298 2873 
Q 3191 2616 2906 2266 
Q 2828 2175 2409 1742 
Q 1991 1309 1228 531 
z
" transform="scale(0.015625)"/>
       </defs>
       <use xlink:href="#DejaVuSans-32"/>
       <use xlink:href="#DejaVuSans-30" transform="translate(63.623047 0)"/>
       <use xlink:href="#DejaVuSans-30" transform="translate(127.246094 0)"/>
      </g>
     </g>
    </g>
    <g id="xtick_6">
     <g id="line2d_11">
      <path d="M 444.002708 425.52 
L 444.002708 61.44 
" clip-path="url(#p62852f3b86)" style="fill: none; stroke: #b0b0b0; stroke-opacity: 0.3; stroke-width: 0.8; stroke-linecap: square"/>
     </g>
     <g id="line2d_12">
      <g>
       <use xlink:href="#m2c4532b3f3" x="444.002708" y="425.52" style="stroke: #000000; stroke-width: 0.8"/>
      </g>
     </g>
     <g id="text_6">
      <!-- 250 -->
      <g transform="translate(435.413333 439.358594) scale(0.09 -0.09)">
       <use xlink:href="#DejaVuSans-32"/>
       <use xlink:href="#DejaVuSans-35" transform="translate(63.623047 0)"/>
       <use xlink:href="#DejaVuSans-30" transform="translate(127.246094 0)"/>
      </g>
     </g>
    </g>
    <g id="xtick_7">
     <g id="line2d_13">
      <path d="M 523.791875 425.52 
L 523.791875 61.44 
" clip-path="url(#p62852f3b86)" style="fill: none; stroke: #b0b0b0; stroke-opacity: 0.3; stroke-width: 0.8; stroke-linecap: square"/>
     </g>
     <g id="line2d_14">
      <g>
       <use xlink:href="#m2c4532b3f3" x="523.791875" y="425.52" style="stroke: #000000; stroke-width: 0.8"/>
      </g>
     </g>
     <g id="text_7">
      <!-- 300 -->
      <g transform="translate(515.2025 439.358594) scale(0.09 -0.09)">
       <defs>
        <path id="DejaVuSans-33" d="M 2597 2516 
Q 3050 2419 3304 2112 
Q 3559 1806 3559 1356 
Q 3559 666 3084 287 
Q 2609 -91 1734 -91 
Q 1441 -91 1130 -33 
Q 819 25 488 141 
L 488 750 
Q 750 597 1062 519 
Q 1375 441 1716 441 
Q 2309 441 2620 675 
Q 2931 909 2931 1356 
Q 2931 1769 2642 2001 
Q 2353 2234 1838 2234 
L 1294 2234 
L 1294 2753 
L 1863 2753 
Q 2328 2753 2575 2939 
Q 2822 3125 2822 3475 
Q 2822 3834 2567 4026 
Q 2313 4219 1838 4219 
Q 1578 4219 1281 4162 
Q 984 4106 628 3988 
L 628 4550 
Q 988 4650 1302 4700 
Q 1616 4750 1894 4750 
Q 2613 4750 3031 4423 
Q 3450 4097 3450 3541 
Q 3450 3153 3228 2886 
Q 3006 2619 2597 2516 
z
" transform="scale(0.015625)"/>
       </defs>
       <use xlink:href="#DejaVuSans-33"/>
       <use xlink:href="#DejaVuSans-30" transform="translate(63.623047 0)"/>
       <use xlink:href="#DejaVuSans-30" transform="translate(127.246094 0)"/>
      </g>
     </g>
    </g>
    <g id="text_8">
     <!-- Time (s) -->
     <g transform="translate(264.095469 452.82875) scale(0.1 -0.1)">
      <defs>
       <path id="DejaVuSans-54" d="M -19 4666 
L 3928 4666 
L 3928 4134 
L 2272 4134 
L 2272 0 
L 1638 0 
L 1638 4134 
L -19 4134 
L -19 4666 
z
" transform="scale(0.015625)"/>
       <path id="DejaVuSans-69" d="M 603 3500 
L 1178 3500 
L 1178 0 
L 603 0 
L 603 3500 
z
M 603 4863 
L 1178 4863 
L 1178 4134 
L 603 4134 
L 603 4863 
z
" transform="scale(0.015625)"/>
       <path id="DejaVuSans-6d" d="M 3328 2828 
Q 3544 3216 3844 3400 
Q 4144 3584 4550 3584 
Q 5097 3584 5394 3201 
Q 5691 2819 5691 2113 
L 5691 0 
L 5113 0 
L 5113 2094 
Q 5113 2597 4934 2840 
Q 4756 3084 4391 3084 
Q 3944 3084 3684 2787 
Q 3425 2491 3425 1978 
L 3425 0 
L 2847 0 
L 2847 2094 
Q 2847 2600 2669 2842 
Q 2491 3084 2119 3084 
Q 1678 3084 1418 2786 
Q 1159 2488 1159 1978 
L 1159 0 
L 581 0 
L 581 3500 
L 1159 3500 
L 1159 2956 
Q 1356 3278 1631 3431 
Q 1906 3584 2284 3584 
Q 2666 3584 2933 3390 
Q 3200 3197 3328 2828 
z
" transform="scale(0.015625)"/>
       <path id="DejaVuSans-65" d="M 3597 1894 
L 3597 1613 
L 953 1613 
Q 991 1019 1311 708 
Q 1631 397 2203 397 
Q 2534 397 2845 478 
Q 3156 559 3463 722 
L 3463 178 
Q 3153 47 2828 -22 
Q 2503 -91 2169 -91 
Q 1331 -91 842 396 
Q 353 884 353 1716 
Q 353 2575 817 3079 
Q 1281 3584 2069 3584 
Q 2775 3584 3186 3129 
Q 3597 2675 3597 1894 
z
M 3022 2063 
Q 3016 2534 2758 2815 
Q 2500 3097 2075 3097 
Q 1594 3097 1305 2825 
Q 1016 2553 972 2059 
L 3022 2063 
z
" transform="scale(0.015625)"/>
       <path id="DejaVuSans-20" transform="scale(0.015625)"/>
       <path id="DejaVuSans-28" d="M 1984 4856 
Q 1566 4138 1362 3434 
Q 1159 2731 1159 2009 
Q 1159 1288 1364 580 
Q 1569 -128 1984 -844 
L 1484 -844 
Q 1016 -109 783 600 
Q 550 1309 550 2009 
Q 550 2706 781 3412 
Q 1013 4119 1484 4856 
L 1984 4856 
z
" transform="scale(0.015625)"/>
       <path id="DejaVuSans-73" d="M 2834 3397 
L 2834 2853 
Q 2591 2978 2328 3040 
Q 2066 3103 1784 3103 
Q 1356 3103 1142 2972 
Q 928 2841 928 2578 
Q 928 2378 1081 2264 
Q 1234 2150 1697 2047 
L 1894 2003 
Q 2506 1872 2764 1633 
Q 3022 1394 3022 966 
Q 3022 478 2636 193 
Q 2250 -91 1575 -91 
Q 1294 -91 989 -36 
Q 684 19 347 128 
L 347 722 
Q 666 556 975 473 
Q 1284 391 1588 391 
Q 1994 391 2212 530 
Q 2431 669 2431 922 
Q 2431 1156 2273 1281 
Q 2116 1406 1581 1522 
L 1381 1569 
Q 847 1681 609 1914 
Q 372 2147 372 2553 
Q 372 3047 722 3315 
Q 1072 3584 1716 3584 
Q 2034 3584 2315 3537 
Q 2597 3491 2834 3397 
z
" transform="scale(0.015625)"/>
       <path id="DejaVuSans-29" d="M 513 4856 
L 1013 4856 
Q 1481 4119 1714 3412 
Q 1947 2706 1947 2009 
Q 1947 1309 1714 600 
Q 1481 -109 1013 -844 
L 513 -844 
Q 928 -128 1133 580 
Q 1338 1288 1338 2009 
Q 1338 2731 1133 3434 
Q 928 4138 513 4856 
z
" transform="scale(0.015625)"/>
      </defs>
      <use xlink:href="#DejaVuSans-54"/>
      <use xlink:href="#DejaVuSans-69" transform="translate(57.958984 0)"/>
      <use xlink:href="#DejaVuSans-6d" transform="translate(85.742188 0)"/>
      <use xlink:href="#DejaVuSans-65" transform="translate(183.154297 0)"/>
      <use xlink:href="#DejaVuSans-20" transform="translate(244.677734 0)"/>
      <use xlink:href="#DejaVuSans-28" transform="translate(276.464844 0)"/>
      <use xlink:href="#DejaVuSans-73" transform="translate(315.478516 0)"/>
      <use xlink:href="#DejaVuSans-29" transform="translate(367.578125 0)"/>
     </g>
    </g>
   </g>
   <g id="matplotlib.axis_2">
    <g id="ytick_1">
     <g id="line2d_15">
      <path d="M 45.056875 425.52 
L 523.791875 425.52 
" clip-path="url(#p62852f3b86)" style="fill: none; stroke: #b0b0b0; stroke-opacity: 0.3; stroke-width: 0.8; stroke-linecap: square"/>
     </g>
     <g id="line2d_16">
      <defs>
       <path id="m770ee05b78" d="M 0 0 
L -3.5 0 
" style="stroke: #000000; stroke-width: 0.8"/>
      </defs>
      <g>
       <use xlink:href="#m770ee05b78" x="45.056875" y="425.52" style="stroke: #000000; stroke-width: 0.8"/>
      </g>
     </g>
     <g id="text_9">
      <!-- 0 -->
      <g transform="translate(32.330625 428.939297) scale(0.09 -0.09)">
       <use xlink:href="#DejaVuSans-30"/>
      </g>
     </g>
    </g>
    <g id="ytick_2">
     <g id="line2d_17">
      <path d="M 45.056875 368.207131 
L 523.791875 368.207131 
" clip-path="url(#p62852f3b86)" style="fill: none; stroke: #b0b0b0; stroke-opacity: 0.3; stroke-width: 0.8; stroke-linecap: square"/>
     </g>
     <g id="line2d_18">
      <g>
       <use xlink:href="#m770ee05b78" x="45.056875" y="368.207131" style="stroke: #000000; stroke-width: 0.8"/>
      </g>
     </g>
     <g id="text_10">
      <!-- 20 -->
      <g transform="translate(26.604375 371.626428) scale(0.09 -0.09)">
       <use xlink:href="#DejaVuSans-32"/>
       <use xlink:href="#DejaVuSans-30" transform="translate(63.623047 0)"/>
      </g>
     </g>
    </g>
    <g id="ytick_3">
     <g id="line2d_19">
      <path d="M 45.056875 310.894262 
L 523.791875 310.894262 
" clip-path="url(#p62852f3b86)" style="fill: none; stroke: #b0b0b0; stroke-opacity: 0.3; stroke-width: 0.8; stroke-linecap: square"/>
     </g>
     <g id="line2d_20">
      <g>
       <use xlink:href="#m770ee05b78" x="45.056875" y="310.894262" style="stroke: #000000; stroke-width: 0.8"/>
      </g>
     </g>
     <g id="text_11">
      <!-- 40 -->
      <g transform="translate(26.604375 314.313559) scale(0.09 -0.09)">
       <defs>
        <path id="DejaVuSans-34" d="M 2419 4116 
L 825 1625 
L 2419 1625 
L 2419 4116 
z
M 2253 4666 
L 3047 4666 
L 3047 1625 
L 3713 1625 
L 3713 1100 
L 3047 1100 
L 3047 0 
L 2419 0 
L 2419 1100 
L 313 1100 
L 313 1709 
L 2253 4666 
z
" transform="scale(0.015625)"/>
       </defs>
       <use xlink:href="#DejaVuSans-34"/>
       <use xlink:href="#DejaVuSans-30" transform="translate(63.623047 0)"/>
      </g>
     </g>
    </g>
    <g id="ytick_4">
     <g id="line2d_21">
      <path d="M 45.056875 253.581393 
L 523.791875 253.581393 
" clip-path="url(#p62852f3b86)" style="fill: none; stroke: #b0b0b0; stroke-opacity: 0.3; stroke-width: 0.8; stroke-linecap: square"/>
     </g>
     <g id="line2d_22">
      <g>
       <use xlink:href="#m770ee05b78" x="45.056875" y="253.581393" style="stroke: #000000; stroke-width: 0.8"/>
      </g>
     </g>
     <g id="text_12">
      <!-- 60 -->
      <g transform="translate(26.604375 257.00069) scale(0.09 -0.09)">
       <defs>
        <path id="DejaVuSans-36" d="M 2113 2584 
Q 1688 2584 1439 2293 
Q 1191 2003 1191 1497 
Q 1191 994 1439 701 
Q 1688 409 2113 409 
Q 2538 409 2786 701 
Q 3034 994 3034 1497 
Q 3034 2003 2786 2293 
Q 2538 2584 2113 2584 
z
M 3366 4563 
L 3366 3988 
Q 3128 4100 2886 4159 
Q 2644 4219 2406 4219 
Q 1781 4219 1451 3797 
Q 1122 3375 1075 2522 
Q 1259 2794 1537 2939 
Q 1816 3084 2150 3084 
Q 2853 3084 3261 2657 
Q 3669 2231 3669 1497 
Q 3669 778 3244 343 
Q 2819 -91 2113 -91 
Q 1303 -91 875 529 
Q 447 1150 447 2328 
Q 447 3434 972 4092 
Q 1497 4750 2381 4750 
Q 2619 4750 2861 4703 
Q 3103 4656 3366 4563 
z
" transform="scale(0.015625)"/>
       </defs>
       <use xlink:href="#DejaVuSans-36"/>
       <use xlink:href="#DejaVuSans-30" transform="translate(63.623047 0)"/>
      </g>
     </g>
    </g>
    <g id="ytick_5">
     <g id="line2d_23">
      <path d="M 45.056875 196.268524 
L 523.791875 196.268524 
" clip-path="url(#p62852f3b86)" style="fill: none; stroke: #b0b0b0; stroke-opacity: 0.3; stroke-width: 0.8; stroke-linecap: square"/>
     </g>
     <g id="line2d_24">
      <g>
       <use xlink:href="#m770ee05b78" x="45.056875" y="196.268524" style="stroke: #000000; stroke-width: 0.8"/>
      </g>
     </g>
     <g id="text_13">
      <!-- 80 -->
      <g transform="translate(26.604375 199.687821) scale(0.09 -0.09)">
       <defs>
        <path id="DejaVuSans-38" d="M 2034 2216 
Q 1584 2216 1326 1975 
Q 1069 1734 1069 1313 
Q 1069 891 1326 650 
Q 1584 409 2034 409 
Q 2484 409 2743 651 
Q 3003 894 3003 1313 
Q 3003 1734 2745 1975 
Q 2488 2216 2034 2216 
z
M 1403 2484 
Q 997 2584 770 2862 
Q 544 3141 544 3541 
Q 544 4100 942 4425 
Q 1341 4750 2034 4750 
Q 2731 4750 3128 4425 
Q 3525 4100 3525 3541 
Q 3525 3141 3298 2862 
Q 3072 2584 2669 2484 
Q 3125 2378 3379 2068 
Q 3634 1759 3634 1313 
Q 3634 634 3220 271 
Q 2806 -91 2034 -91 
Q 1263 -91 848 271 
Q 434 634 434 1313 
Q 434 1759 690 2068 
Q 947 2378 1403 2484 
z
M 1172 3481 
Q 1172 3119 1398 2916 
Q 1625 2713 2034 2713 
Q 2441 2713 2670 2916 
Q 2900 3119 2900 3481 
Q 2900 3844 2670 4047 
Q 2441 4250 2034 4250 
Q 1625 4250 1398 4047 
Q 1172 3844 1172 3481 
z
" transform="scale(0.015625)"/>
       </defs>
       <use xlink:href="#DejaVuSans-38"/>
       <use xlink:href="#DejaVuSans-30" transform="translate(63.623047 0)"/>
      </g>
     </g>
    </g>
    <g id="ytick_6">
     <g id="line2d_25">
      <path d="M 45.056875 138.955655 
L 523.791875 138.955655 
" clip-path="url(#p62852f3b86)" style="fill: none; stroke: #b0b0b0; stroke-opacity: 0.3; stroke-width: 0.8; stroke-linecap: square"/>
     </g>
     <g id="line2d_26">
      <g>
       <use xlink:href="#m770ee05b78" x="45.056875" y="138.955655" style="stroke: #000000; stroke-width: 0.8"/>
      </g>
     </g>
     <g id="text_14">
      <!-- 100 -->
      <g transform="translate(20.878125 142.374952) scale(0.09 -0.09)">
       <use xlink:href="#DejaVuSans-31"/>
       <use xlink:href="#DejaVuSans-30" transform="translate(63.623047 0)"/>
       <use xlink:href="#DejaVuSans-30" transform="translate(127.246094 0)"/>
      </g>
     </g>
    </g>
    <g id="ytick_7">
     <g id="line2d_27">
      <path d="M 45.056875 81.642786 
L 523.791875 81.642786 
" clip-path="url(#p62852f3b86)" style="fill: none; stroke: #b0b0b0; stroke-opacity: 0.3; stroke-width: 0.8; stroke-linecap: square"/>
     </g>
     <g id="line2d_28">
      <g>
       <use xlink:href="#m770ee05b78" x="45.056875" y="81.642786" style="stroke: #000000; stroke-width: 0.8"/>
      </g>
     </g>
     <g id="text_15">
      <!-- 120 -->
      <g transform="translate(20.878125 85.062083) scale(0.09 -0.09)">
       <use xlink:href="#DejaVuSans-31"/>
       <use xlink:href="#DejaVuSans-32" transform="translate(63.623047 0)"/>
       <use xlink:href="#DejaVuSans-30" transform="translate(127.246094 0)"/>
      </g>
     </g>
    </g>
    <g id="text_16">
     <!-- Instances solved -->
     <g transform="translate(14.798438 285.204219) rotate(-90) scale(0.1 -0.1)">
      <defs>
       <path id="DejaVuSans-49" d="M 628 4666 
L 1259 4666 
L 1259 0 
L 628 0 
L 628 4666 
z
" transform="scale(0.015625)"/>
       <path id="DejaVuSans-6e" d="M 3513 2113 
L 3513 0 
L 2938 0 
L 2938 2094 
Q 2938 2591 2744 2837 
Q 2550 3084 2163 3084 
Q 1697 3084 1428 2787 
Q 1159 2491 1159 1978 
L 1159 0 
L 581 0 
L 581 3500 
L 1159 3500 
L 1159 2956 
Q 1366 3272 1645 3428 
Q 1925 3584 2291 3584 
Q 2894 3584 3203 3211 
Q 3513 2838 3513 2113 
z
" transform="scale(0.015625)"/>
       <path id="DejaVuSans-74" d="M 1172 4494 
L 1172 3500 
L 2356 3500 
L 2356 3053 
L 1172 3053 
L 1172 1153 
Q 1172 725 1289 603 
Q 1406 481 1766 481 
L 2356 481 
L 2356 0 
L 1766 0 
Q 1100 0 847 248 
Q 594 497 594 1153 
L 594 3053 
L 172 3053 
L 172 3500 
L 594 3500 
L 594 4494 
L 1172 4494 
z
" transform="scale(0.015625)"/>
       <path id="DejaVuSans-61" d="M 2194 1759 
Q 1497 1759 1228 1600 
Q 959 1441 959 1056 
Q 959 750 1161 570 
Q 1363 391 1709 391 
Q 2188 391 2477 730 
Q 2766 1069 2766 1631 
L 2766 1759 
L 2194 1759 
z
M 3341 1997 
L 3341 0 
L 2766 0 
L 2766 531 
Q 2569 213 2275 61 
Q 1981 -91 1556 -91 
Q 1019 -91 701 211 
Q 384 513 384 1019 
Q 384 1609 779 1909 
Q 1175 2209 1959 2209 
L 2766 2209 
L 2766 2266 
Q 2766 2663 2505 2880 
Q 2244 3097 1772 3097 
Q 1472 3097 1187 3025 
Q 903 2953 641 2809 
L 641 3341 
Q 956 3463 1253 3523 
Q 1550 3584 1831 3584 
Q 2591 3584 2966 3190 
Q 3341 2797 3341 1997 
z
" transform="scale(0.015625)"/>
       <path id="DejaVuSans-63" d="M 3122 3366 
L 3122 2828 
Q 2878 2963 2633 3030 
Q 2388 3097 2138 3097 
Q 1578 3097 1268 2742 
Q 959 2388 959 1747 
Q 959 1106 1268 751 
Q 1578 397 2138 397 
Q 2388 397 2633 464 
Q 2878 531 3122 666 
L 3122 134 
Q 2881 22 2623 -34 
Q 2366 -91 2075 -91 
Q 1284 -91 818 406 
Q 353 903 353 1747 
Q 353 2603 823 3093 
Q 1294 3584 2113 3584 
Q 2378 3584 2631 3529 
Q 2884 3475 3122 3366 
z
" transform="scale(0.015625)"/>
       <path id="DejaVuSans-6f" d="M 1959 3097 
Q 1497 3097 1228 2736 
Q 959 2375 959 1747 
Q 959 1119 1226 758 
Q 1494 397 1959 397 
Q 2419 397 2687 759 
Q 2956 1122 2956 1747 
Q 2956 2369 2687 2733 
Q 2419 3097 1959 3097 
z
M 1959 3584 
Q 2709 3584 3137 3096 
Q 3566 2609 3566 1747 
Q 3566 888 3137 398 
Q 2709 -91 1959 -91 
Q 1206 -91 779 398 
Q 353 888 353 1747 
Q 353 2609 779 3096 
Q 1206 3584 1959 3584 
z
" transform="scale(0.015625)"/>
       <path id="DejaVuSans-6c" d="M 603 4863 
L 1178 4863 
L 1178 0 
L 603 0 
L 603 4863 
z
" transform="scale(0.015625)"/>
       <path id="DejaVuSans-76" d="M 191 3500 
L 800 3500 
L 1894 563 
L 2988 3500 
L 3597 3500 
L 2284 0 
L 1503 0 
L 191 3500 
z
" transform="scale(0.015625)"/>
       <path id="DejaVuSans-64" d="M 2906 2969 
L 2906 4863 
L 3481 4863 
L 3481 0 
L 2906 0 
L 2906 525 
Q 2725 213 2448 61 
Q 2172 -91 1784 -91 
Q 1150 -91 751 415 
Q 353 922 353 1747 
Q 353 2572 751 3078 
Q 1150 3584 1784 3584 
Q 2172 3584 2448 3432 
Q 2725 3281 2906 2969 
z
M 947 1747 
Q 947 1113 1208 752 
Q 1469 391 1925 391 
Q 2381 391 2643 752 
Q 2906 1113 2906 1747 
Q 2906 2381 2643 2742 
Q 2381 3103 1925 3103 
Q 1469 3103 1208 2742 
Q 947 2381 947 1747 
z
" transform="scale(0.015625)"/>
      </defs>
      <use xlink:href="#DejaVuSans-49"/>
      <use xlink:href="#DejaVuSans-6e" transform="translate(29.492188 0)"/>
      <use xlink:href="#DejaVuSans-73" transform="translate(92.871094 0)"/>
      <use xlink:href="#DejaVuSans-74" transform="translate(144.970703 0)"/>
      <use xlink:href="#DejaVuSans-61" transform="translate(184.179688 0)"/>
      <use xlink:href="#DejaVuSans-6e" transform="translate(245.458984 0)"/>
      <use xlink:href="#DejaVuSans-63" transform="translate(308.837891 0)"/>
      <use xlink:href="#DejaVuSans-65" transform="translate(363.818359 0)"/>
      <use xlink:href="#DejaVuSans-73" transform="translate(425.341797 0)"/>
      <use xlink:href="#DejaVuSans-20" transform="translate(477.441406 0)"/>
      <use xlink:href="#DejaVuSans-73" transform="translate(509.228516 0)"/>
      <use xlink:href="#DejaVuSans-6f" transform="translate(561.328125 0)"/>
      <use xlink:href="#DejaVuSans-6c" transform="translate(622.509766 0)"/>
      <use xlink:href="#DejaVuSans-76" transform="translate(650.292969 0)"/>
      <use xlink:href="#DejaVuSans-65" transform="translate(709.472656 0)"/>
      <use xlink:href="#DejaVuSans-64" transform="translate(770.996094 0)"/>
     </g>
    </g>
   </g>
   <g id="line2d_29">
    <path d="M 45.056875 425.52 
L 47.509475 425.52 
L 47.509475 422.654357 
L 48.112927 422.654357 
L 48.112927 419.788713 
L 48.146876 419.788713 
L 48.146876 416.92307 
L 48.581209 416.92307 
L 48.581209 414.057426 
L 48.662016 414.057426 
L 48.662016 411.191783 
L 48.746833 411.191783 
L 48.746833 408.326139 
L 49.079286 408.326139 
L 49.079286 405.460496 
L 49.331881 405.460496 
L 49.331881 402.594852 
L 49.90379 402.594852 
L 49.90379 399.729209 
L 50.191989 399.729209 
L 50.191989 396.863566 
L 50.714244 396.863566 
L 50.714244 393.997922 
L 50.88729 393.997922 
L 50.88729 391.132279 
L 51.186256 391.132279 
L 51.186256 388.266635 
L 51.220737 388.266635 
L 51.220737 385.400992 
L 51.444365 385.400992 
L 51.444365 382.535348 
L 51.61318 382.535348 
L 51.61318 379.669705 
L 53.309526 379.669705 
L 53.309526 376.804061 
L 53.948319 376.804061 
L 53.948319 373.938418 
L 54.243465 373.938418 
L 54.243465 371.072774 
L 54.338942 371.072774 
L 54.338942 368.207131 
L 54.828545 368.207131 
L 54.828545 365.341488 
L 55.63914 365.341488 
L 55.63914 362.475844 
L 55.74095 362.475844 
L 55.74095 359.610201 
L 55.956502 359.610201 
L 55.956502 356.744557 
L 55.986071 356.744557 
L 55.986071 353.878914 
L 56.183259 353.878914 
L 56.183259 351.01327 
L 56.725864 351.01327 
L 56.725864 348.147627 
L 57.011813 348.147627 
L 57.011813 345.281983 
L 57.987614 345.281983 
L 57.987614 342.41634 
L 58.255586 342.41634 
L 58.255586 339.550697 
L 58.930802 339.550697 
L 58.930802 336.685053 
L 60.513752 336.685053 
L 60.513752 333.81941 
L 61.061314 333.81941 
L 61.061314 330.953766 
L 61.20752 330.953766 
L 61.20752 328.088123 
L 62.552152 328.088123 
L 62.552152 325.222479 
L 63.071884 325.222479 
L 63.071884 322.356836 
L 63.939474 322.356836 
L 63.939474 319.491192 
L 66.000916 319.491192 
L 66.000916 316.625549 
L 67.154768 316.625549 
L 67.154768 313.759906 
L 69.225516 313.759906 
L 69.225516 310.894262 
L 69.683878 310.894262 
L 69.683878 308.028619 
L 69.833656 308.028619 
L 69.833656 305.162975 
L 70.933746 305.162975 
L 70.933746 302.297332 
L 77.708018 302.297332 
L 77.708018 299.431688 
L 96.370545 299.431688 
L 96.370545 296.566045 
L 97.48412 296.566045 
L 97.48412 293.700401 
L 108.903753 293.700401 
L 108.903753 290.834758 
L 117.69294 290.834758 
L 117.69294 287.969115 
L 136.273555 287.969115 
L 136.273555 285.103471 
L 160.770718 285.103471 
L 160.770718 282.237828 
L 163.734685 282.237828 
L 163.734685 279.372184 
L 177.402368 279.372184 
L 177.402368 276.506541 
L 182.071593 276.506541 
L 182.071593 273.640897 
L 213.841021 273.640897 
L 213.841021 270.775254 
L 245.611122 270.775254 
L 245.611122 267.90961 
L 248.542312 267.90961 
L 248.542312 265.043967 
L 259.797525 265.043967 
L 259.797525 262.178323 
L 264.855204 262.178323 
L 264.855204 259.31268 
L 280.873004 259.31268 
L 280.873004 256.447037 
L 321.830658 256.447037 
L 321.830658 253.581393 
L 360.67595 253.581393 
L 360.67595 250.71575 
L 410.379067 250.71575 
L 410.379067 247.850106 
L 523.791875 247.850106 
L 523.791875 247.850106 
" clip-path="url(#p62852f3b86)" style="fill: none; stroke: #1f77b4; stroke-width: 2.2; stroke-linecap: square"/>
   </g>
   <g id="patch_3">
    <path d="M 45.056875 425.52 
L 45.056875 61.44 
" style="fill: none; stroke: #000000; stroke-width: 0.8; stroke-linejoin: miter; stroke-linecap: square"/>
   </g>
   <g id="patch_4">
    <path d="M 523.791875 425.52 
L 523.791875 61.44 
" style="fill: none; stroke: #000000; stroke-width: 0.8; stroke-linejoin: miter; stroke-linecap: square"/>
   </g>
   <g id="patch_5">
    <path d="M 45.056875 425.52 
L 523.791875 425.52 
" style="fill: none; stroke: #000000; stroke-width: 0.8; stroke-linejoin: miter; stroke-linecap: square"/>
   </g>
   <g id="patch_6">
    <path d="M 45.056875 61.44 
L 523.791875 61.44 
" style="fill: none; stroke: #000000; stroke-width: 0.8; stroke-linejoin: miter; stroke-linecap: square"/>
   </g>
   <g id="text_17">
    <!-- Solved (SAT/UNSAT) -->
    <g transform="translate(222.440234 55.44) scale(0.11 -0.11)">
     <defs>
      <path id="DejaVuSans-Bold-53" d="M 3834 4519 
L 3834 3531 
Q 3450 3703 3084 3790 
Q 2719 3878 2394 3878 
Q 1963 3878 1756 3759 
Q 1550 3641 1550 3391 
Q 1550 3203 1689 3098 
Q 1828 2994 2194 2919 
L 2706 2816 
Q 3484 2659 3812 2340 
Q 4141 2022 4141 1434 
Q 4141 663 3683 286 
Q 3225 -91 2284 -91 
Q 1841 -91 1394 -6 
Q 947 78 500 244 
L 500 1259 
Q 947 1022 1364 901 
Q 1781 781 2169 781 
Q 2563 781 2772 912 
Q 2981 1044 2981 1288 
Q 2981 1506 2839 1625 
Q 2697 1744 2272 1838 
L 1806 1941 
Q 1106 2091 782 2419 
Q 459 2747 459 3303 
Q 459 4000 909 4375 
Q 1359 4750 2203 4750 
Q 2588 4750 2994 4692 
Q 3400 4634 3834 4519 
z
" transform="scale(0.015625)"/>
      <path id="DejaVuSans-Bold-6f" d="M 2203 2784 
Q 1831 2784 1636 2517 
Q 1441 2250 1441 1747 
Q 1441 1244 1636 976 
Q 1831 709 2203 709 
Q 2569 709 2762 976 
Q 2956 1244 2956 1747 
Q 2956 2250 2762 2517 
Q 2569 2784 2203 2784 
z
M 2203 3584 
Q 3106 3584 3614 3096 
Q 4122 2609 4122 1747 
Q 4122 884 3614 396 
Q 3106 -91 2203 -91 
Q 1297 -91 786 396 
Q 275 884 275 1747 
Q 275 2609 786 3096 
Q 1297 3584 2203 3584 
z
" transform="scale(0.015625)"/>
      <path id="DejaVuSans-Bold-6c" d="M 538 4863 
L 1656 4863 
L 1656 0 
L 538 0 
L 538 4863 
z
" transform="scale(0.015625)"/>
      <path id="DejaVuSans-Bold-76" d="M 97 3500 
L 1216 3500 
L 2088 1081 
L 2956 3500 
L 4078 3500 
L 2700 0 
L 1472 0 
L 97 3500 
z
" transform="scale(0.015625)"/>
      <path id="DejaVuSans-Bold-65" d="M 4031 1759 
L 4031 1441 
L 1416 1441 
Q 1456 1047 1700 850 
Q 1944 653 2381 653 
Q 2734 653 3104 758 
Q 3475 863 3866 1075 
L 3866 213 
Q 3469 63 3072 -14 
Q 2675 -91 2278 -91 
Q 1328 -91 801 392 
Q 275 875 275 1747 
Q 275 2603 792 3093 
Q 1309 3584 2216 3584 
Q 3041 3584 3536 3087 
Q 4031 2591 4031 1759 
z
M 2881 2131 
Q 2881 2450 2695 2645 
Q 2509 2841 2209 2841 
Q 1884 2841 1681 2658 
Q 1478 2475 1428 2131 
L 2881 2131 
z
" transform="scale(0.015625)"/>
      <path id="DejaVuSans-Bold-64" d="M 2919 2988 
L 2919 4863 
L 4044 4863 
L 4044 0 
L 2919 0 
L 2919 506 
Q 2688 197 2409 53 
Q 2131 -91 1766 -91 
Q 1119 -91 703 423 
Q 288 938 288 1747 
Q 288 2556 703 3070 
Q 1119 3584 1766 3584 
Q 2128 3584 2408 3439 
Q 2688 3294 2919 2988 
z
M 2181 722 
Q 2541 722 2730 984 
Q 2919 1247 2919 1747 
Q 2919 2247 2730 2509 
Q 2541 2772 2181 2772 
Q 1825 2772 1636 2509 
Q 1447 2247 1447 1747 
Q 1447 1247 1636 984 
Q 1825 722 2181 722 
z
" transform="scale(0.015625)"/>
      <path id="DejaVuSans-Bold-20" transform="scale(0.015625)"/>
      <path id="DejaVuSans-Bold-28" d="M 2413 -844 
L 1484 -844 
Q 1006 -72 778 623 
Q 550 1319 550 2003 
Q 550 2688 779 3389 
Q 1009 4091 1484 4856 
L 2413 4856 
Q 2013 4116 1813 3408 
Q 1613 2700 1613 2009 
Q 1613 1319 1811 609 
Q 2009 -100 2413 -844 
z
" transform="scale(0.015625)"/>
      <path id="DejaVuSans-Bold-41" d="M 3419 850 
L 1538 850 
L 1241 0 
L 31 0 
L 1759 4666 
L 3194 4666 
L 4922 0 
L 3713 0 
L 3419 850 
z
M 1838 1716 
L 3116 1716 
L 2478 3572 
L 1838 1716 
z
" transform="scale(0.015625)"/>
      <path id="DejaVuSans-Bold-54" d="M 31 4666 
L 4331 4666 
L 4331 3756 
L 2784 3756 
L 2784 0 
L 1581 0 
L 1581 3756 
L 31 3756 
L 31 4666 
z
" transform="scale(0.015625)"/>
      <path id="DejaVuSans-Bold-2f" d="M 1644 4666 
L 2338 4666 
L 691 -594 
L 0 -594 
L 1644 4666 
z
" transform="scale(0.015625)"/>
      <path id="DejaVuSans-Bold-55" d="M 588 4666 
L 1791 4666 
L 1791 1869 
Q 1791 1291 1980 1042 
Q 2169 794 2597 794 
Q 3028 794 3217 1042 
Q 3406 1291 3406 1869 
L 3406 4666 
L 4609 4666 
L 4609 1869 
Q 4609 878 4112 393 
Q 3616 -91 2597 -91 
Q 1581 -91 1084 393 
Q 588 878 588 1869 
L 588 4666 
z
" transform="scale(0.015625)"/>
      <path id="DejaVuSans-Bold-4e" d="M 588 4666 
L 1931 4666 
L 3628 1466 
L 3628 4666 
L 4769 4666 
L 4769 0 
L 3425 0 
L 1728 3200 
L 1728 0 
L 588 0 
L 588 4666 
z
" transform="scale(0.015625)"/>
      <path id="DejaVuSans-Bold-29" d="M 513 -844 
Q 913 -100 1113 609 
Q 1313 1319 1313 2009 
Q 1313 2700 1113 3408 
Q 913 4116 513 4856 
L 1441 4856 
Q 1916 4091 2145 3389 
Q 2375 2688 2375 2003 
Q 2375 1319 2147 623 
Q 1919 -72 1441 -844 
L 513 -844 
z
" transform="scale(0.015625)"/>
     </defs>
     <use xlink:href="#DejaVuSans-Bold-53"/>
     <use xlink:href="#DejaVuSans-Bold-6f" transform="translate(72.021484 0)"/>
     <use xlink:href="#DejaVuSans-Bold-6c" transform="translate(140.722656 0)"/>
     <use xlink:href="#DejaVuSans-Bold-76" transform="translate(175 0)"/>
     <use xlink:href="#DejaVuSans-Bold-65" transform="translate(240.185547 0)"/>
     <use xlink:href="#DejaVuSans-Bold-64" transform="translate(308.007812 0)"/>
     <use xlink:href="#DejaVuSans-Bold-20" transform="translate(379.589844 0)"/>
     <use xlink:href="#DejaVuSans-Bold-28" transform="translate(414.404297 0)"/>
     <use xlink:href="#DejaVuSans-Bold-53" transform="translate(460.107422 0)"/>
     <use xlink:href="#DejaVuSans-Bold-41" transform="translate(532.128906 0)"/>
     <use xlink:href="#DejaVuSans-Bold-54" transform="translate(601.771484 0)"/>
     <use xlink:href="#DejaVuSans-Bold-2f" transform="translate(669.984375 0)"/>
     <use xlink:href="#DejaVuSans-Bold-55" transform="translate(706.507812 0)"/>
     <use xlink:href="#DejaVuSans-Bold-4e" transform="translate(787.708984 0)"/>
     <use xlink:href="#DejaVuSans-Bold-53" transform="translate(871.400391 0)"/>
     <use xlink:href="#DejaVuSans-Bold-41" transform="translate(943.421875 0)"/>
     <use xlink:href="#DejaVuSans-Bold-54" transform="translate(1013.064453 0)"/>
     <use xlink:href="#DejaVuSans-Bold-29" transform="translate(1081.277344 0)"/>
    </g>
   </g>
   <g id="legend_1">
    <g id="patch_7">
     <path d="M 239.409375 519.7601 
L 329.439375 519.7601 
Q 331.039375 519.7601 331.039375 518.1601 
L 331.039375 507.2176 
Q 331.039375 505.6176 329.439375 505.6176 
L 239.409375 505.6176 
Q 237.809375 505.6176 237.809375 507.2176 
L 237.809375 518.1601 
Q 237.809375 519.7601 239.409375 519.7601 
z
" style="fill: #ffffff; opacity: 0.95; stroke: #cccccc; stroke-linejoin: miter"/>
    </g>
    <g id="line2d_30">
     <path d="M 241.009375 512.09635 
L 249.009375 512.09635 
L 249.009375 512.09635 
L 257.009375 512.09635 
L 257.009375 512.09635 
" style="fill: none; stroke: #1f77b4; stroke-width: 2.2; stroke-linecap: square"/>
    </g>
    <g id="text_18">
     <!-- ortools (62/121) -->
     <g transform="translate(263.409375 514.89635) scale(0.08 -0.08)">
      <defs>
       <path id="DejaVuSans-72" d="M 2631 2963 
Q 2534 3019 2420 3045 
Q 2306 3072 2169 3072 
Q 1681 3072 1420 2755 
Q 1159 2438 1159 1844 
L 1159 0 
L 581 0 
L 581 3500 
L 1159 3500 
L 1159 2956 
Q 1341 3275 1631 3429 
Q 1922 3584 2338 3584 
Q 2397 3584 2469 3576 
Q 2541 3569 2628 3553 
L 2631 2963 
z
" transform="scale(0.015625)"/>
       <path id="DejaVuSans-2f" d="M 1625 4666 
L 2156 4666 
L 531 -594 
L 0 -594 
L 1625 4666 
z
" transform="scale(0.015625)"/>
      </defs>
      <use xlink:href="#DejaVuSans-6f"/>
      <use xlink:href="#DejaVuSans-72" transform="translate(61.181641 0)"/>
      <use xlink:href="#DejaVuSans-74" transform="translate(102.294922 0)"/>
      <use xlink:href="#DejaVuSans-6f" transform="translate(141.503906 0)"/>
      <use xlink:href="#DejaVuSans-6f" transform="translate(202.685547 0)"/>
      <use xlink:href="#DejaVuSans-6c" transform="translate(263.867188 0)"/>
      <use xlink:href="#DejaVuSans-73" transform="translate(291.650391 0)"/>
      <use xlink:href="#DejaVuSans-20" transform="translate(343.75 0)"/>
      <use xlink:href="#DejaVuSans-28" transform="translate(375.537109 0)"/>
      <use xlink:href="#DejaVuSans-36" transform="translate(414.550781 0)"/>
      <use xlink:href="#DejaVuSans-32" transform="translate(478.173828 0)"/>
      <use xlink:href="#DejaVuSans-2f" transform="translate(541.796875 0)"/>
      <use xlink:href="#DejaVuSans-31" transform="translate(575.488281 0)"/>
      <use xlink:href="#DejaVuSans-32" transform="translate(639.111328 0)"/>
      <use xlink:href="#DejaVuSans-31" transform="translate(702.734375 0)"/>
      <use xlink:href="#DejaVuSans-29" transform="translate(766.357422 0)"/>
     </g>
    </g>
   </g>
  </g>
  <g id="axes_2">
   <g id="patch_8">
    <path d="M 581.456875 425.52 
L 1060.191875 425.52 
L 1060.191875 61.44 
L 581.456875 61.44 
z
" style="fill: #ffffff"/>
   </g>
   <g id="matplotlib.axis_3">
    <g id="xtick_8">
     <g id="line2d_31">
      <path d="M 581.456875 425.52 
L 581.456875 61.44 
" clip-path="url(#p6bd6389aa0)" style="fill: none; stroke: #b0b0b0; stroke-opacity: 0.3; stroke-width: 0.8; stroke-linecap: square"/>
     </g>
     <g id="line2d_32">
      <g>
       <use xlink:href="#m2c4532b3f3" x="581.456875" y="425.52" style="stroke: #000000; stroke-width: 0.8"/>
      </g>
     </g>
     <g id="text_19">
      <!-- 0 -->
      <g transform="translate(578.59375 439.358594) scale(0.09 -0.09)">
       <use xlink:href="#DejaVuSans-30"/>
      </g>
     </g>
    </g>
    <g id="xtick_9">
     <g id="line2d_33">
      <path d="M 661.246042 425.52 
L 661.246042 61.44 
" clip-path="url(#p6bd6389aa0)" style="fill: none; stroke: #b0b0b0; stroke-opacity: 0.3; stroke-width: 0.8; stroke-linecap: square"/>
     </g>
     <g id="line2d_34">
      <g>
       <use xlink:href="#m2c4532b3f3" x="661.246042" y="425.52" style="stroke: #000000; stroke-width: 0.8"/>
      </g>
     </g>
     <g id="text_20">
      <!-- 50 -->
      <g transform="translate(655.519792 439.358594) scale(0.09 -0.09)">
       <use xlink:href="#DejaVuSans-35"/>
       <use xlink:href="#DejaVuSans-30" transform="translate(63.623047 0)"/>
      </g>
     </g>
    </g>
    <g id="xtick_10">
     <g id="line2d_35">
      <path d="M 741.035208 425.52 
L 741.035208 61.44 
" clip-path="url(#p6bd6389aa0)" style="fill: none; stroke: #b0b0b0; stroke-opacity: 0.3; stroke-width: 0.8; stroke-linecap: square"/>
     </g>
     <g id="line2d_36">
      <g>
       <use xlink:href="#m2c4532b3f3" x="741.035208" y="425.52" style="stroke: #000000; stroke-width: 0.8"/>
      </g>
     </g>
     <g id="text_21">
      <!-- 100 -->
      <g transform="translate(732.445833 439.358594) scale(0.09 -0.09)">
       <use xlink:href="#DejaVuSans-31"/>
       <use xlink:href="#DejaVuSans-30" transform="translate(63.623047 0)"/>
       <use xlink:href="#DejaVuSans-30" transform="translate(127.246094 0)"/>
      </g>
     </g>
    </g>
    <g id="xtick_11">
     <g id="line2d_37">
      <path d="M 820.824375 425.52 
L 820.824375 61.44 
" clip-path="url(#p6bd6389aa0)" style="fill: none; stroke: #b0b0b0; stroke-opacity: 0.3; stroke-width: 0.8; stroke-linecap: square"/>
     </g>
     <g id="line2d_38">
      <g>
       <use xlink:href="#m2c4532b3f3" x="820.824375" y="425.52" style="stroke: #000000; stroke-width: 0.8"/>
      </g>
     </g>
     <g id="text_22">
      <!-- 150 -->
      <g transform="translate(812.235 439.358594) scale(0.09 -0.09)">
       <use xlink:href="#DejaVuSans-31"/>
       <use xlink:href="#DejaVuSans-35" transform="translate(63.623047 0)"/>
       <use xlink:href="#DejaVuSans-30" transform="translate(127.246094 0)"/>
      </g>
     </g>
    </g>
    <g id="xtick_12">
     <g id="line2d_39">
      <path d="M 900.613542 425.52 
L 900.613542 61.44 
" clip-path="url(#p6bd6389aa0)" style="fill: none; stroke: #b0b0b0; stroke-opacity: 0.3; stroke-width: 0.8; stroke-linecap: square"/>
     </g>
     <g id="line2d_40">
      <g>
       <use xlink:href="#m2c4532b3f3" x="900.613542" y="425.52" style="stroke: #000000; stroke-width: 0.8"/>
      </g>
     </g>
     <g id="text_23">
      <!-- 200 -->
      <g transform="translate(892.024167 439.358594) scale(0.09 -0.09)">
       <use xlink:href="#DejaVuSans-32"/>
       <use xlink:href="#DejaVuSans-30" transform="translate(63.623047 0)"/>
       <use xlink:href="#DejaVuSans-30" transform="translate(127.246094 0)"/>
      </g>
     </g>
    </g>
    <g id="xtick_13">
     <g id="line2d_41">
      <path d="M 980.402708 425.52 
L 980.402708 61.44 
" clip-path="url(#p6bd6389aa0)" style="fill: none; stroke: #b0b0b0; stroke-opacity: 0.3; stroke-width: 0.8; stroke-linecap: square"/>
     </g>
     <g id="line2d_42">
      <g>
       <use xlink:href="#m2c4532b3f3" x="980.402708" y="425.52" style="stroke: #000000; stroke-width: 0.8"/>
      </g>
     </g>
     <g id="text_24">
      <!-- 250 -->
      <g transform="translate(971.813333 439.358594) scale(0.09 -0.09)">
       <use xlink:href="#DejaVuSans-32"/>
       <use xlink:href="#DejaVuSans-35" transform="translate(63.623047 0)"/>
       <use xlink:href="#DejaVuSans-30" transform="translate(127.246094 0)"/>
      </g>
     </g>
    </g>
    <g id="xtick_14">
     <g id="line2d_43">
      <path d="M 1060.191875 425.52 
L 1060.191875 61.44 
" clip-path="url(#p6bd6389aa0)" style="fill: none; stroke: #b0b0b0; stroke-opacity: 0.3; stroke-width: 0.8; stroke-linecap: square"/>
     </g>
     <g id="line2d_44">
      <g>
       <use xlink:href="#m2c4532b3f3" x="1060.191875" y="425.52" style="stroke: #000000; stroke-width: 0.8"/>
      </g>
     </g>
     <g id="text_25">
      <!-- 300 -->
      <g transform="translate(1051.6025 439.358594) scale(0.09 -0.09)">
       <use xlink:href="#DejaVuSans-33"/>
       <use xlink:href="#DejaVuSans-30" transform="translate(63.623047 0)"/>
       <use xlink:href="#DejaVuSans-30" transform="translate(127.246094 0)"/>
      </g>
     </g>
    </g>
    <g id="text_26">
     <!-- Time (s) -->
     <g transform="translate(800.495469 452.82875) scale(0.1 -0.1)">
      <use xlink:href="#DejaVuSans-54"/>
      <use xlink:href="#DejaVuSans-69" transform="translate(57.958984 0)"/>
      <use xlink:href="#DejaVuSans-6d" transform="translate(85.742188 0)"/>
      <use xlink:href="#DejaVuSans-65" transform="translate(183.154297 0)"/>
      <use xlink:href="#DejaVuSans-20" transform="translate(244.677734 0)"/>
      <use xlink:href="#DejaVuSans-28" transform="translate(276.464844 0)"/>
      <use xlink:href="#DejaVuSans-73" transform="translate(315.478516 0)"/>
      <use xlink:href="#DejaVuSans-29" transform="translate(367.578125 0)"/>
     </g>
    </g>
   </g>
   <g id="matplotlib.axis_4">
    <g id="ytick_8">
     <g id="line2d_45">
      <path d="M 581.456875 425.52 
L 1060.191875 425.52 
" clip-path="url(#p6bd6389aa0)" style="fill: none; stroke: #b0b0b0; stroke-opacity: 0.3; stroke-width: 0.8; stroke-linecap: square"/>
     </g>
     <g id="line2d_46">
      <g>
       <use xlink:href="#m770ee05b78" x="581.456875" y="425.52" style="stroke: #000000; stroke-width: 0.8"/>
      </g>
     </g>
     <g id="text_27">
      <!-- 0 -->
      <g transform="translate(568.730625 428.939297) scale(0.09 -0.09)">
       <use xlink:href="#DejaVuSans-30"/>
      </g>
     </g>
    </g>
    <g id="ytick_9">
     <g id="line2d_47">
      <path d="M 581.456875 362.475844 
L 1060.191875 362.475844 
" clip-path="url(#p6bd6389aa0)" style="fill: none; stroke: #b0b0b0; stroke-opacity: 0.3; stroke-width: 0.8; stroke-linecap: square"/>
     </g>
     <g id="line2d_48">
      <g>
       <use xlink:href="#m770ee05b78" x="581.456875" y="362.475844" style="stroke: #000000; stroke-width: 0.8"/>
      </g>
     </g>
     <g id="text_28">
      <!-- 20 -->
      <g transform="translate(563.004375 365.895141) scale(0.09 -0.09)">
       <use xlink:href="#DejaVuSans-32"/>
       <use xlink:href="#DejaVuSans-30" transform="translate(63.623047 0)"/>
      </g>
     </g>
    </g>
    <g id="ytick_10">
     <g id="line2d_49">
      <path d="M 581.456875 299.431688 
L 1060.191875 299.431688 
" clip-path="url(#p6bd6389aa0)" style="fill: none; stroke: #b0b0b0; stroke-opacity: 0.3; stroke-width: 0.8; stroke-linecap: square"/>
     </g>
     <g id="line2d_50">
      <g>
       <use xlink:href="#m770ee05b78" x="581.456875" y="299.431688" style="stroke: #000000; stroke-width: 0.8"/>
      </g>
     </g>
     <g id="text_29">
      <!-- 40 -->
      <g transform="translate(563.004375 302.850985) scale(0.09 -0.09)">
       <use xlink:href="#DejaVuSans-34"/>
       <use xlink:href="#DejaVuSans-30" transform="translate(63.623047 0)"/>
      </g>
     </g>
    </g>
    <g id="ytick_11">
     <g id="line2d_51">
      <path d="M 581.456875 236.387532 
L 1060.191875 236.387532 
" clip-path="url(#p6bd6389aa0)" style="fill: none; stroke: #b0b0b0; stroke-opacity: 0.3; stroke-width: 0.8; stroke-linecap: square"/>
     </g>
     <g id="line2d_52">
      <g>
       <use xlink:href="#m770ee05b78" x="581.456875" y="236.387532" style="stroke: #000000; stroke-width: 0.8"/>
      </g>
     </g>
     <g id="text_30">
      <!-- 60 -->
      <g transform="translate(563.004375 239.806829) scale(0.09 -0.09)">
       <use xlink:href="#DejaVuSans-36"/>
       <use xlink:href="#DejaVuSans-30" transform="translate(63.623047 0)"/>
      </g>
     </g>
    </g>
    <g id="ytick_12">
     <g id="line2d_53">
      <path d="M 581.456875 173.343377 
L 1060.191875 173.343377 
" clip-path="url(#p6bd6389aa0)" style="fill: none; stroke: #b0b0b0; stroke-opacity: 0.3; stroke-width: 0.8; stroke-linecap: square"/>
     </g>
     <g id="line2d_54">
      <g>
       <use xlink:href="#m770ee05b78" x="581.456875" y="173.343377" style="stroke: #000000; stroke-width: 0.8"/>
      </g>
     </g>
     <g id="text_31">
      <!-- 80 -->
      <g transform="translate(563.004375 176.762673) scale(0.09 -0.09)">
       <use xlink:href="#DejaVuSans-38"/>
       <use xlink:href="#DejaVuSans-30" transform="translate(63.623047 0)"/>
      </g>
     </g>
    </g>
    <g id="ytick_13">
     <g id="line2d_55">
      <path d="M 581.456875 110.299221 
L 1060.191875 110.299221 
" clip-path="url(#p6bd6389aa0)" style="fill: none; stroke: #b0b0b0; stroke-opacity: 0.3; stroke-width: 0.8; stroke-linecap: square"/>
     </g>
     <g id="line2d_56">
      <g>
       <use xlink:href="#m770ee05b78" x="581.456875" y="110.299221" style="stroke: #000000; stroke-width: 0.8"/>
      </g>
     </g>
     <g id="text_32">
      <!-- 100 -->
      <g transform="translate(557.278125 113.718518) scale(0.09 -0.09)">
       <use xlink:href="#DejaVuSans-31"/>
       <use xlink:href="#DejaVuSans-30" transform="translate(63.623047 0)"/>
       <use xlink:href="#DejaVuSans-30" transform="translate(127.246094 0)"/>
      </g>
     </g>
    </g>
    <g id="text_33">
     <!-- Instances proved optimal -->
     <g transform="translate(551.198437 306.822969) rotate(-90) scale(0.1 -0.1)">
      <defs>
       <path id="DejaVuSans-70" d="M 1159 525 
L 1159 -1331 
L 581 -1331 
L 581 3500 
L 1159 3500 
L 1159 2969 
Q 1341 3281 1617 3432 
Q 1894 3584 2278 3584 
Q 2916 3584 3314 3078 
Q 3713 2572 3713 1747 
Q 3713 922 3314 415 
Q 2916 -91 2278 -91 
Q 1894 -91 1617 61 
Q 1341 213 1159 525 
z
M 3116 1747 
Q 3116 2381 2855 2742 
Q 2594 3103 2138 3103 
Q 1681 3103 1420 2742 
Q 1159 2381 1159 1747 
Q 1159 1113 1420 752 
Q 1681 391 2138 391 
Q 2594 391 2855 752 
Q 3116 1113 3116 1747 
z
" transform="scale(0.015625)"/>
      </defs>
      <use xlink:href="#DejaVuSans-49"/>
      <use xlink:href="#DejaVuSans-6e" transform="translate(29.492188 0)"/>
      <use xlink:href="#DejaVuSans-73" transform="translate(92.871094 0)"/>
      <use xlink:href="#DejaVuSans-74" transform="translate(144.970703 0)"/>
      <use xlink:href="#DejaVuSans-61" transform="translate(184.179688 0)"/>
      <use xlink:href="#DejaVuSans-6e" transform="translate(245.458984 0)"/>
      <use xlink:href="#DejaVuSans-63" transform="translate(308.837891 0)"/>
      <use xlink:href="#DejaVuSans-65" transform="translate(363.818359 0)"/>
      <use xlink:href="#DejaVuSans-73" transform="translate(425.341797 0)"/>
      <use xlink:href="#DejaVuSans-20" transform="translate(477.441406 0)"/>
      <use xlink:href="#DejaVuSans-70" transform="translate(509.228516 0)"/>
      <use xlink:href="#DejaVuSans-72" transform="translate(572.705078 0)"/>
      <use xlink:href="#DejaVuSans-6f" transform="translate(611.568359 0)"/>
      <use xlink:href="#DejaVuSans-76" transform="translate(672.75 0)"/>
      <use xlink:href="#DejaVuSans-65" transform="translate(731.929688 0)"/>
      <use xlink:href="#DejaVuSans-64" transform="translate(793.453125 0)"/>
      <use xlink:href="#DejaVuSans-20" transform="translate(856.929688 0)"/>
      <use xlink:href="#DejaVuSans-6f" transform="translate(888.716797 0)"/>
      <use xlink:href="#DejaVuSans-70" transform="translate(949.898438 0)"/>
      <use xlink:href="#DejaVuSans-74" transform="translate(1013.375 0)"/>
      <use xlink:href="#DejaVuSans-69" transform="translate(1052.583984 0)"/>
      <use xlink:href="#DejaVuSans-6d" transform="translate(1080.367188 0)"/>
      <use xlink:href="#DejaVuSans-61" transform="translate(1177.779297 0)"/>
      <use xlink:href="#DejaVuSans-6c" transform="translate(1239.058594 0)"/>
     </g>
    </g>
   </g>
   <g id="line2d_57">
    <path d="M 581.456875 425.52 
L 583.909475 425.52 
L 583.909475 422.367792 
L 584.512927 422.367792 
L 584.512927 419.215584 
L 584.546876 419.215584 
L 584.546876 416.063377 
L 584.981209 416.063377 
L 584.981209 412.911169 
L 585.062016 412.911169 
L 585.062016 409.758961 
L 585.146833 409.758961 
L 585.146833 406.606753 
L 585.479286 406.606753 
L 585.479286 403.454545 
L 585.731881 403.454545 
L 585.731881 400.302338 
L 586.30379 400.302338 
L 586.30379 397.15013 
L 586.591989 397.15013 
L 586.591989 393.997922 
L 587.114244 393.997922 
L 587.114244 390.845714 
L 587.28729 390.845714 
L 587.28729 387.693506 
L 587.586256 387.693506 
L 587.586256 384.541299 
L 587.620737 384.541299 
L 587.620737 381.389091 
L 587.844365 381.389091 
L 587.844365 378.236883 
L 588.01318 378.236883 
L 588.01318 375.084675 
L 589.709526 375.084675 
L 589.709526 371.932468 
L 590.348319 371.932468 
L 590.348319 368.78026 
L 590.643465 368.78026 
L 590.643465 365.628052 
L 590.738942 365.628052 
L 590.738942 362.475844 
L 591.228545 362.475844 
L 591.228545 359.323636 
L 592.03914 359.323636 
L 592.03914 356.171429 
L 592.14095 356.171429 
L 592.14095 353.019221 
L 592.356502 353.019221 
L 592.356502 349.867013 
L 592.386071 349.867013 
L 592.386071 346.714805 
L 592.583259 346.714805 
L 592.583259 343.562597 
L 593.125864 343.562597 
L 593.125864 340.41039 
L 593.411813 340.41039 
L 593.411813 337.258182 
L 594.387614 337.258182 
L 594.387614 334.105974 
L 594.655586 334.105974 
L 594.655586 330.953766 
L 595.330802 330.953766 
L 595.330802 327.801558 
L 596.913752 327.801558 
L 596.913752 324.649351 
L 597.461314 324.649351 
L 597.461314 321.497143 
L 597.60752 321.497143 
L 597.60752 318.344935 
L 598.952152 318.344935 
L 598.952152 315.192727 
L 599.471884 315.192727 
L 599.471884 312.040519 
L 600.339474 312.040519 
L 600.339474 308.888312 
L 602.400916 308.888312 
L 602.400916 305.736104 
L 603.554768 305.736104 
L 603.554768 302.583896 
L 605.625516 302.583896 
L 605.625516 299.431688 
L 606.083878 299.431688 
L 606.083878 296.279481 
L 606.233656 296.279481 
L 606.233656 293.127273 
L 607.333746 293.127273 
L 607.333746 289.975065 
L 614.108018 289.975065 
L 614.108018 286.822857 
L 632.770545 286.822857 
L 632.770545 283.670649 
L 633.88412 283.670649 
L 633.88412 280.518442 
L 645.303753 280.518442 
L 645.303753 277.366234 
L 654.09294 277.366234 
L 654.09294 274.214026 
L 672.673555 274.214026 
L 672.673555 271.061818 
L 697.170718 271.061818 
L 697.170718 267.90961 
L 700.134685 267.90961 
L 700.134685 264.757403 
L 713.802368 264.757403 
L 713.802368 261.605195 
L 718.471593 261.605195 
L 718.471593 258.452987 
L 750.241021 258.452987 
L 750.241021 255.300779 
L 782.011122 255.300779 
L 782.011122 252.148571 
L 784.942312 252.148571 
L 784.942312 248.996364 
L 796.197525 248.996364 
L 796.197525 245.844156 
L 801.255204 245.844156 
L 801.255204 242.691948 
L 817.273004 242.691948 
L 817.273004 239.53974 
L 858.230658 239.53974 
L 858.230658 236.387532 
L 897.07595 236.387532 
L 897.07595 233.235325 
L 946.779067 233.235325 
L 946.779067 230.083117 
L 1060.191875 230.083117 
L 1060.191875 230.083117 
" clip-path="url(#p6bd6389aa0)" style="fill: none; stroke: #1f77b4; stroke-width: 2.2; stroke-linecap: square"/>
   </g>
   <g id="patch_9">
    <path d="M 581.456875 425.52 
L 581.456875 61.44 
" style="fill: none; stroke: #000000; stroke-width: 0.8; stroke-linejoin: miter; stroke-linecap: square"/>
   </g>
   <g id="patch_10">
    <path d="M 1060.191875 425.52 
L 1060.191875 61.44 
" style="fill: none; stroke: #000000; stroke-width: 0.8; stroke-linejoin: miter; stroke-linecap: square"/>
   </g>
   <g id="patch_11">
    <path d="M 581.456875 425.52 
L 1060.191875 425.52 
" style="fill: none; stroke: #000000; stroke-width: 0.8; stroke-linejoin: miter; stroke-linecap: square"/>
   </g>
   <g id="patch_12">
    <path d="M 581.456875 61.44 
L 1060.191875 61.44 
" style="fill: none; stroke: #000000; stroke-width: 0.8; stroke-linejoin: miter; stroke-linecap: square"/>
   </g>
   <g id="text_34">
    <!-- Proved Optimal -->
    <g transform="translate(772.679609 55.44) scale(0.11 -0.11)">
     <defs>
      <path id="DejaVuSans-Bold-50" d="M 588 4666 
L 2584 4666 
Q 3475 4666 3951 4270 
Q 4428 3875 4428 3144 
Q 4428 2409 3951 2014 
Q 3475 1619 2584 1619 
L 1791 1619 
L 1791 0 
L 588 0 
L 588 4666 
z
M 1791 3794 
L 1791 2491 
L 2456 2491 
Q 2806 2491 2997 2661 
Q 3188 2831 3188 3144 
Q 3188 3456 2997 3625 
Q 2806 3794 2456 3794 
L 1791 3794 
z
" transform="scale(0.015625)"/>
      <path id="DejaVuSans-Bold-72" d="M 3138 2547 
Q 2991 2616 2845 2648 
Q 2700 2681 2553 2681 
Q 2122 2681 1889 2404 
Q 1656 2128 1656 1613 
L 1656 0 
L 538 0 
L 538 3500 
L 1656 3500 
L 1656 2925 
Q 1872 3269 2151 3426 
Q 2431 3584 2822 3584 
Q 2878 3584 2943 3579 
Q 3009 3575 3134 3559 
L 3138 2547 
z
" transform="scale(0.015625)"/>
      <path id="DejaVuSans-Bold-4f" d="M 2719 3878 
Q 2169 3878 1866 3472 
Q 1563 3066 1563 2328 
Q 1563 1594 1866 1187 
Q 2169 781 2719 781 
Q 3272 781 3575 1187 
Q 3878 1594 3878 2328 
Q 3878 3066 3575 3472 
Q 3272 3878 2719 3878 
z
M 2719 4750 
Q 3844 4750 4481 4106 
Q 5119 3463 5119 2328 
Q 5119 1197 4481 553 
Q 3844 -91 2719 -91 
Q 1597 -91 958 553 
Q 319 1197 319 2328 
Q 319 3463 958 4106 
Q 1597 4750 2719 4750 
z
" transform="scale(0.015625)"/>
      <path id="DejaVuSans-Bold-70" d="M 1656 506 
L 1656 -1331 
L 538 -1331 
L 538 3500 
L 1656 3500 
L 1656 2988 
Q 1888 3294 2169 3439 
Q 2450 3584 2816 3584 
Q 3463 3584 3878 3070 
Q 4294 2556 4294 1747 
Q 4294 938 3878 423 
Q 3463 -91 2816 -91 
Q 2450 -91 2169 54 
Q 1888 200 1656 506 
z
M 2400 2772 
Q 2041 2772 1848 2508 
Q 1656 2244 1656 1747 
Q 1656 1250 1848 986 
Q 2041 722 2400 722 
Q 2759 722 2948 984 
Q 3138 1247 3138 1747 
Q 3138 2247 2948 2509 
Q 2759 2772 2400 2772 
z
" transform="scale(0.015625)"/>
      <path id="DejaVuSans-Bold-74" d="M 1759 4494 
L 1759 3500 
L 2913 3500 
L 2913 2700 
L 1759 2700 
L 1759 1216 
Q 1759 972 1856 886 
Q 1953 800 2241 800 
L 2816 800 
L 2816 0 
L 1856 0 
Q 1194 0 917 276 
Q 641 553 641 1216 
L 641 2700 
L 84 2700 
L 84 3500 
L 641 3500 
L 641 4494 
L 1759 4494 
z
" transform="scale(0.015625)"/>
      <path id="DejaVuSans-Bold-69" d="M 538 3500 
L 1656 3500 
L 1656 0 
L 538 0 
L 538 3500 
z
M 538 4863 
L 1656 4863 
L 1656 3950 
L 538 3950 
L 538 4863 
z
" transform="scale(0.015625)"/>
      <path id="DejaVuSans-Bold-6d" d="M 3781 2919 
Q 3994 3244 4286 3414 
Q 4578 3584 4928 3584 
Q 5531 3584 5847 3212 
Q 6163 2841 6163 2131 
L 6163 0 
L 5038 0 
L 5038 1825 
Q 5041 1866 5042 1909 
Q 5044 1953 5044 2034 
Q 5044 2406 4934 2573 
Q 4825 2741 4581 2741 
Q 4263 2741 4089 2478 
Q 3916 2216 3909 1719 
L 3909 0 
L 2784 0 
L 2784 1825 
Q 2784 2406 2684 2573 
Q 2584 2741 2328 2741 
Q 2006 2741 1831 2477 
Q 1656 2213 1656 1722 
L 1656 0 
L 531 0 
L 531 3500 
L 1656 3500 
L 1656 2988 
Q 1863 3284 2130 3434 
Q 2397 3584 2719 3584 
Q 3081 3584 3359 3409 
Q 3638 3234 3781 2919 
z
" transform="scale(0.015625)"/>
      <path id="DejaVuSans-Bold-61" d="M 2106 1575 
Q 1756 1575 1579 1456 
Q 1403 1338 1403 1106 
Q 1403 894 1545 773 
Q 1688 653 1941 653 
Q 2256 653 2472 879 
Q 2688 1106 2688 1447 
L 2688 1575 
L 2106 1575 
z
M 3816 1997 
L 3816 0 
L 2688 0 
L 2688 519 
Q 2463 200 2181 54 
Q 1900 -91 1497 -91 
Q 953 -91 614 226 
Q 275 544 275 1050 
Q 275 1666 698 1953 
Q 1122 2241 2028 2241 
L 2688 2241 
L 2688 2328 
Q 2688 2594 2478 2717 
Q 2269 2841 1825 2841 
Q 1466 2841 1156 2769 
Q 847 2697 581 2553 
L 581 3406 
Q 941 3494 1303 3539 
Q 1666 3584 2028 3584 
Q 2975 3584 3395 3211 
Q 3816 2838 3816 1997 
z
" transform="scale(0.015625)"/>
     </defs>
     <use xlink:href="#DejaVuSans-Bold-50"/>
     <use xlink:href="#DejaVuSans-Bold-72" transform="translate(73.291016 0)"/>
     <use xlink:href="#DejaVuSans-Bold-6f" transform="translate(122.607422 0)"/>
     <use xlink:href="#DejaVuSans-Bold-76" transform="translate(191.308594 0)"/>
     <use xlink:href="#DejaVuSans-Bold-65" transform="translate(256.494141 0)"/>
     <use xlink:href="#DejaVuSans-Bold-64" transform="translate(324.316406 0)"/>
     <use xlink:href="#DejaVuSans-Bold-20" transform="translate(395.898438 0)"/>
     <use xlink:href="#DejaVuSans-Bold-4f" transform="translate(430.712891 0)"/>
     <use xlink:href="#DejaVuSans-Bold-70" transform="translate(515.722656 0)"/>
     <use xlink:href="#DejaVuSans-Bold-74" transform="translate(587.304688 0)"/>
     <use xlink:href="#DejaVuSans-Bold-69" transform="translate(635.107422 0)"/>
     <use xlink:href="#DejaVuSans-Bold-6d" transform="translate(669.384766 0)"/>
     <use xlink:href="#DejaVuSans-Bold-61" transform="translate(773.583984 0)"/>
     <use xlink:href="#DejaVuSans-Bold-6c" transform="translate(841.064453 0)"/>
    </g>
   </g>
   <g id="legend_2">
    <g id="patch_13">
     <path d="M 775.809375 519.7601 
L 865.839375 519.7601 
Q 867.439375 519.7601 867.439375 518.1601 
L 867.439375 507.2176 
Q 867.439375 505.6176 865.839375 505.6176 
L 775.809375 505.6176 
Q 774.209375 505.6176 774.209375 507.2176 
L 774.209375 518.1601 
Q 774.209375 519.7601 775.809375 519.7601 
z
" style="fill: #ffffff; opacity: 0.95; stroke: #cccccc; stroke-linejoin: miter"/>
    </g>
    <g id="line2d_58">
     <path d="M 777.409375 512.09635 
L 785.409375 512.09635 
L 785.409375 512.09635 
L 793.409375 512.09635 
L 793.409375 512.09635 
" style="fill: none; stroke: #1f77b4; stroke-width: 2.2; stroke-linecap: square"/>
    </g>
    <g id="text_35">
     <!-- ortools (62/110) -->
     <g transform="translate(799.809375 514.89635) scale(0.08 -0.08)">
      <use xlink:href="#DejaVuSans-6f"/>
      <use xlink:href="#DejaVuSans-72" transform="translate(61.181641 0)"/>
      <use xlink:href="#DejaVuSans-74" transform="translate(102.294922 0)"/>
      <use xlink:href="#DejaVuSans-6f" transform="translate(141.503906 0)"/>
      <use xlink:href="#DejaVuSans-6f" transform="translate(202.685547 0)"/>
      <use xlink:href="#DejaVuSans-6c" transform="translate(263.867188 0)"/>
      <use xlink:href="#DejaVuSans-73" transform="translate(291.650391 0)"/>
      <use xlink:href="#DejaVuSans-20" transform="translate(343.75 0)"/>
      <use xlink:href="#DejaVuSans-28" transform="translate(375.537109 0)"/>
      <use xlink:href="#DejaVuSans-36" transform="translate(414.550781 0)"/>
      <use xlink:href="#DejaVuSans-32" transform="translate(478.173828 0)"/>
      <use xlink:href="#DejaVuSans-2f" transform="translate(541.796875 0)"/>
      <use xlink:href="#DejaVuSans-31" transform="translate(575.488281 0)"/>
      <use xlink:href="#DejaVuSans-31" transform="translate(639.111328 0)"/>
      <use xlink:href="#DejaVuSans-30" transform="translate(702.734375 0)"/>
      <use xlink:href="#DejaVuSans-29" transform="translate(766.357422 0)"/>
     </g>
    </g>
   </g>
  </g>
  <g id="axes_3">
   <g id="patch_14">
    <path d="M 1117.856875 425.52 
L 1596.591875 425.52 
L 1596.591875 61.44 
L 1117.856875 61.44 
z
" style="fill: #ffffff"/>
   </g>
   <g id="matplotlib.axis_5">
    <g id="xtick_15">
     <g id="line2d_59">
      <path d="M 1117.856875 425.52 
L 1117.856875 61.44 
" clip-path="url(#pc42bfb5235)" style="fill: none; stroke: #b0b0b0; stroke-opacity: 0.3; stroke-width: 0.8; stroke-linecap: square"/>
     </g>
     <g id="line2d_60">
      <g>
       <use xlink:href="#m2c4532b3f3" x="1117.856875" y="425.52" style="stroke: #000000; stroke-width: 0.8"/>
      </g>
     </g>
     <g id="text_36">
      <!-- 0 -->
      <g transform="translate(1114.99375 439.358594) scale(0.09 -0.09)">
       <use xlink:href="#DejaVuSans-30"/>
      </g>
     </g>
    </g>
    <g id="xtick_16">
     <g id="line2d_61">
      <path d="M 1197.646042 425.52 
L 1197.646042 61.44 
" clip-path="url(#pc42bfb5235)" style="fill: none; stroke: #b0b0b0; stroke-opacity: 0.3; stroke-width: 0.8; stroke-linecap: square"/>
     </g>
     <g id="line2d_62">
      <g>
       <use xlink:href="#m2c4532b3f3" x="1197.646042" y="425.52" style="stroke: #000000; stroke-width: 0.8"/>
      </g>
     </g>
     <g id="text_37">
      <!-- 50 -->
      <g transform="translate(1191.919792 439.358594) scale(0.09 -0.09)">
       <use xlink:href="#DejaVuSans-35"/>
       <use xlink:href="#DejaVuSans-30" transform="translate(63.623047 0)"/>
      </g>
     </g>
    </g>
    <g id="xtick_17">
     <g id="line2d_63">
      <path d="M 1277.435208 425.52 
L 1277.435208 61.44 
" clip-path="url(#pc42bfb5235)" style="fill: none; stroke: #b0b0b0; stroke-opacity: 0.3; stroke-width: 0.8; stroke-linecap: square"/>
     </g>
     <g id="line2d_64">
      <g>
       <use xlink:href="#m2c4532b3f3" x="1277.435208" y="425.52" style="stroke: #000000; stroke-width: 0.8"/>
      </g>
     </g>
     <g id="text_38">
      <!-- 100 -->
      <g transform="translate(1268.845833 439.358594) scale(0.09 -0.09)">
       <use xlink:href="#DejaVuSans-31"/>
       <use xlink:href="#DejaVuSans-30" transform="translate(63.623047 0)"/>
       <use xlink:href="#DejaVuSans-30" transform="translate(127.246094 0)"/>
      </g>
     </g>
    </g>
    <g id="xtick_18">
     <g id="line2d_65">
      <path d="M 1357.224375 425.52 
L 1357.224375 61.44 
" clip-path="url(#pc42bfb5235)" style="fill: none; stroke: #b0b0b0; stroke-opacity: 0.3; stroke-width: 0.8; stroke-linecap: square"/>
     </g>
     <g id="line2d_66">
      <g>
       <use xlink:href="#m2c4532b3f3" x="1357.224375" y="425.52" style="stroke: #000000; stroke-width: 0.8"/>
      </g>
     </g>
     <g id="text_39">
      <!-- 150 -->
      <g transform="translate(1348.635 439.358594) scale(0.09 -0.09)">
       <use xlink:href="#DejaVuSans-31"/>
       <use xlink:href="#DejaVuSans-35" transform="translate(63.623047 0)"/>
       <use xlink:href="#DejaVuSans-30" transform="translate(127.246094 0)"/>
      </g>
     </g>
    </g>
    <g id="xtick_19">
     <g id="line2d_67">
      <path d="M 1437.013542 425.52 
L 1437.013542 61.44 
" clip-path="url(#pc42bfb5235)" style="fill: none; stroke: #b0b0b0; stroke-opacity: 0.3; stroke-width: 0.8; stroke-linecap: square"/>
     </g>
     <g id="line2d_68">
      <g>
       <use xlink:href="#m2c4532b3f3" x="1437.013542" y="425.52" style="stroke: #000000; stroke-width: 0.8"/>
      </g>
     </g>
     <g id="text_40">
      <!-- 200 -->
      <g transform="translate(1428.424167 439.358594) scale(0.09 -0.09)">
       <use xlink:href="#DejaVuSans-32"/>
       <use xlink:href="#DejaVuSans-30" transform="translate(63.623047 0)"/>
       <use xlink:href="#DejaVuSans-30" transform="translate(127.246094 0)"/>
      </g>
     </g>
    </g>
    <g id="xtick_20">
     <g id="line2d_69">
      <path d="M 1516.802708 425.52 
L 1516.802708 61.44 
" clip-path="url(#pc42bfb5235)" style="fill: none; stroke: #b0b0b0; stroke-opacity: 0.3; stroke-width: 0.8; stroke-linecap: square"/>
     </g>
     <g id="line2d_70">
      <g>
       <use xlink:href="#m2c4532b3f3" x="1516.802708" y="425.52" style="stroke: #000000; stroke-width: 0.8"/>
      </g>
     </g>
     <g id="text_41">
      <!-- 250 -->
      <g transform="translate(1508.213333 439.358594) scale(0.09 -0.09)">
       <use xlink:href="#DejaVuSans-32"/>
       <use xlink:href="#DejaVuSans-35" transform="translate(63.623047 0)"/>
       <use xlink:href="#DejaVuSans-30" transform="translate(127.246094 0)"/>
      </g>
     </g>
    </g>
    <g id="xtick_21">
     <g id="line2d_71">
      <path d="M 1596.591875 425.52 
L 1596.591875 61.44 
" clip-path="url(#pc42bfb5235)" style="fill: none; stroke: #b0b0b0; stroke-opacity: 0.3; stroke-width: 0.8; stroke-linecap: square"/>
     </g>
     <g id="line2d_72">
      <g>
       <use xlink:href="#m2c4532b3f3" x="1596.591875" y="425.52" style="stroke: #000000; stroke-width: 0.8"/>
      </g>
     </g>
     <g id="text_42">
      <!-- 300 -->
      <g transform="translate(1588.0025 439.358594) scale(0.09 -0.09)">
       <use xlink:href="#DejaVuSans-33"/>
       <use xlink:href="#DejaVuSans-30" transform="translate(63.623047 0)"/>
       <use xlink:href="#DejaVuSans-30" transform="translate(127.246094 0)"/>
      </g>
     </g>
    </g>
    <g id="text_43">
     <!-- Time (s) -->
     <g transform="translate(1336.895469 452.82875) scale(0.1 -0.1)">
      <use xlink:href="#DejaVuSans-54"/>
      <use xlink:href="#DejaVuSans-69" transform="translate(57.958984 0)"/>
      <use xlink:href="#DejaVuSans-6d" transform="translate(85.742188 0)"/>
      <use xlink:href="#DejaVuSans-65" transform="translate(183.154297 0)"/>
      <use xlink:href="#DejaVuSans-20" transform="translate(244.677734 0)"/>
      <use xlink:href="#DejaVuSans-28" transform="translate(276.464844 0)"/>
      <use xlink:href="#DejaVuSans-73" transform="translate(315.478516 0)"/>
      <use xlink:href="#DejaVuSans-29" transform="translate(367.578125 0)"/>
     </g>
    </g>
   </g>
   <g id="matplotlib.axis_6">
    <g id="ytick_14">
     <g id="line2d_73">
      <path d="M 1117.856875 425.52 
L 1596.591875 425.52 
" clip-path="url(#pc42bfb5235)" style="fill: none; stroke: #b0b0b0; stroke-opacity: 0.3; stroke-width: 0.8; stroke-linecap: square"/>
     </g>
     <g id="line2d_74">
      <g>
       <use xlink:href="#m770ee05b78" x="1117.856875" y="425.52" style="stroke: #000000; stroke-width: 0.8"/>
      </g>
     </g>
     <g id="text_44">
      <!-- 0 -->
      <g transform="translate(1105.130625 428.939297) scale(0.09 -0.09)">
       <use xlink:href="#DejaVuSans-30"/>
      </g>
     </g>
    </g>
    <g id="ytick_15">
     <g id="line2d_75">
      <path d="M 1117.856875 368.207131 
L 1596.591875 368.207131 
" clip-path="url(#pc42bfb5235)" style="fill: none; stroke: #b0b0b0; stroke-opacity: 0.3; stroke-width: 0.8; stroke-linecap: square"/>
     </g>
     <g id="line2d_76">
      <g>
       <use xlink:href="#m770ee05b78" x="1117.856875" y="368.207131" style="stroke: #000000; stroke-width: 0.8"/>
      </g>
     </g>
     <g id="text_45">
      <!-- 20 -->
      <g transform="translate(1099.404375 371.626428) scale(0.09 -0.09)">
       <use xlink:href="#DejaVuSans-32"/>
       <use xlink:href="#DejaVuSans-30" transform="translate(63.623047 0)"/>
      </g>
     </g>
    </g>
    <g id="ytick_16">
     <g id="line2d_77">
      <path d="M 1117.856875 310.894262 
L 1596.591875 310.894262 
" clip-path="url(#pc42bfb5235)" style="fill: none; stroke: #b0b0b0; stroke-opacity: 0.3; stroke-width: 0.8; stroke-linecap: square"/>
     </g>
     <g id="line2d_78">
      <g>
       <use xlink:href="#m770ee05b78" x="1117.856875" y="310.894262" style="stroke: #000000; stroke-width: 0.8"/>
      </g>
     </g>
     <g id="text_46">
      <!-- 40 -->
      <g transform="translate(1099.404375 314.313559) scale(0.09 -0.09)">
       <use xlink:href="#DejaVuSans-34"/>
       <use xlink:href="#DejaVuSans-30" transform="translate(63.623047 0)"/>
      </g>
     </g>
    </g>
    <g id="ytick_17">
     <g id="line2d_79">
      <path d="M 1117.856875 253.581393 
L 1596.591875 253.581393 
" clip-path="url(#pc42bfb5235)" style="fill: none; stroke: #b0b0b0; stroke-opacity: 0.3; stroke-width: 0.8; stroke-linecap: square"/>
     </g>
     <g id="line2d_80">
      <g>
       <use xlink:href="#m770ee05b78" x="1117.856875" y="253.581393" style="stroke: #000000; stroke-width: 0.8"/>
      </g>
     </g>
     <g id="text_47">
      <!-- 60 -->
      <g transform="translate(1099.404375 257.00069) scale(0.09 -0.09)">
       <use xlink:href="#DejaVuSans-36"/>
       <use xlink:href="#DejaVuSans-30" transform="translate(63.623047 0)"/>
      </g>
     </g>
    </g>
    <g id="ytick_18">
     <g id="line2d_81">
      <path d="M 1117.856875 196.268524 
L 1596.591875 196.268524 
" clip-path="url(#pc42bfb5235)" style="fill: none; stroke: #b0b0b0; stroke-opacity: 0.3; stroke-width: 0.8; stroke-linecap: square"/>
     </g>
     <g id="line2d_82">
      <g>
       <use xlink:href="#m770ee05b78" x="1117.856875" y="196.268524" style="stroke: #000000; stroke-width: 0.8"/>
      </g>
     </g>
     <g id="text_48">
      <!-- 80 -->
      <g transform="translate(1099.404375 199.687821) scale(0.09 -0.09)">
       <use xlink:href="#DejaVuSans-38"/>
       <use xlink:href="#DejaVuSans-30" transform="translate(63.623047 0)"/>
      </g>
     </g>
    </g>
    <g id="ytick_19">
     <g id="line2d_83">
      <path d="M 1117.856875 138.955655 
L 1596.591875 138.955655 
" clip-path="url(#pc42bfb5235)" style="fill: none; stroke: #b0b0b0; stroke-opacity: 0.3; stroke-width: 0.8; stroke-linecap: square"/>
     </g>
     <g id="line2d_84">
      <g>
       <use xlink:href="#m770ee05b78" x="1117.856875" y="138.955655" style="stroke: #000000; stroke-width: 0.8"/>
      </g>
     </g>
     <g id="text_49">
      <!-- 100 -->
      <g transform="translate(1093.678125 142.374952) scale(0.09 -0.09)">
       <use xlink:href="#DejaVuSans-31"/>
       <use xlink:href="#DejaVuSans-30" transform="translate(63.623047 0)"/>
       <use xlink:href="#DejaVuSans-30" transform="translate(127.246094 0)"/>
      </g>
     </g>
    </g>
    <g id="ytick_20">
     <g id="line2d_85">
      <path d="M 1117.856875 81.642786 
L 1596.591875 81.642786 
" clip-path="url(#pc42bfb5235)" style="fill: none; stroke: #b0b0b0; stroke-opacity: 0.3; stroke-width: 0.8; stroke-linecap: square"/>
     </g>
     <g id="line2d_86">
      <g>
       <use xlink:href="#m770ee05b78" x="1117.856875" y="81.642786" style="stroke: #000000; stroke-width: 0.8"/>
      </g>
     </g>
     <g id="text_50">
      <!-- 120 -->
      <g transform="translate(1093.678125 85.062083) scale(0.09 -0.09)">
       <use xlink:href="#DejaVuSans-31"/>
       <use xlink:href="#DejaVuSans-32" transform="translate(63.623047 0)"/>
       <use xlink:href="#DejaVuSans-30" transform="translate(127.246094 0)"/>
      </g>
     </g>
    </g>
    <g id="text_51">
     <!-- Avg. norm. quality (instances) -->
     <g transform="translate(1087.598438 318.544062) rotate(-90) scale(0.1 -0.1)">
      <defs>
       <path id="DejaVuSans-41" d="M 2188 4044 
L 1331 1722 
L 3047 1722 
L 2188 4044 
z
M 1831 4666 
L 2547 4666 
L 4325 0 
L 3669 0 
L 3244 1197 
L 1141 1197 
L 716 0 
L 50 0 
L 1831 4666 
z
" transform="scale(0.015625)"/>
       <path id="DejaVuSans-67" d="M 2906 1791 
Q 2906 2416 2648 2759 
Q 2391 3103 1925 3103 
Q 1463 3103 1205 2759 
Q 947 2416 947 1791 
Q 947 1169 1205 825 
Q 1463 481 1925 481 
Q 2391 481 2648 825 
Q 2906 1169 2906 1791 
z
M 3481 434 
Q 3481 -459 3084 -895 
Q 2688 -1331 1869 -1331 
Q 1566 -1331 1297 -1286 
Q 1028 -1241 775 -1147 
L 775 -588 
Q 1028 -725 1275 -790 
Q 1522 -856 1778 -856 
Q 2344 -856 2625 -561 
Q 2906 -266 2906 331 
L 2906 616 
Q 2728 306 2450 153 
Q 2172 0 1784 0 
Q 1141 0 747 490 
Q 353 981 353 1791 
Q 353 2603 747 3093 
Q 1141 3584 1784 3584 
Q 2172 3584 2450 3431 
Q 2728 3278 2906 2969 
L 2906 3500 
L 3481 3500 
L 3481 434 
z
" transform="scale(0.015625)"/>
       <path id="DejaVuSans-2e" d="M 684 794 
L 1344 794 
L 1344 0 
L 684 0 
L 684 794 
z
" transform="scale(0.015625)"/>
       <path id="DejaVuSans-71" d="M 947 1747 
Q 947 1113 1208 752 
Q 1469 391 1925 391 
Q 2381 391 2643 752 
Q 2906 1113 2906 1747 
Q 2906 2381 2643 2742 
Q 2381 3103 1925 3103 
Q 1469 3103 1208 2742 
Q 947 2381 947 1747 
z
M 2906 525 
Q 2725 213 2448 61 
Q 2172 -91 1784 -91 
Q 1150 -91 751 415 
Q 353 922 353 1747 
Q 353 2572 751 3078 
Q 1150 3584 1784 3584 
Q 2172 3584 2448 3432 
Q 2725 3281 2906 2969 
L 2906 3500 
L 3481 3500 
L 3481 -1331 
L 2906 -1331 
L 2906 525 
z
" transform="scale(0.015625)"/>
       <path id="DejaVuSans-75" d="M 544 1381 
L 544 3500 
L 1119 3500 
L 1119 1403 
Q 1119 906 1312 657 
Q 1506 409 1894 409 
Q 2359 409 2629 706 
Q 2900 1003 2900 1516 
L 2900 3500 
L 3475 3500 
L 3475 0 
L 2900 0 
L 2900 538 
Q 2691 219 2414 64 
Q 2138 -91 1772 -91 
Q 1169 -91 856 284 
Q 544 659 544 1381 
z
M 1991 3584 
L 1991 3584 
z
" transform="scale(0.015625)"/>
       <path id="DejaVuSans-79" d="M 2059 -325 
Q 1816 -950 1584 -1140 
Q 1353 -1331 966 -1331 
L 506 -1331 
L 506 -850 
L 844 -850 
Q 1081 -850 1212 -737 
Q 1344 -625 1503 -206 
L 1606 56 
L 191 3500 
L 800 3500 
L 1894 763 
L 2988 3500 
L 3597 3500 
L 2059 -325 
z
" transform="scale(0.015625)"/>
      </defs>
      <use xlink:href="#DejaVuSans-41"/>
      <use xlink:href="#DejaVuSans-76" transform="translate(62.533203 0)"/>
      <use xlink:href="#DejaVuSans-67" transform="translate(121.712891 0)"/>
      <use xlink:href="#DejaVuSans-2e" transform="translate(185.189453 0)"/>
      <use xlink:href="#DejaVuSans-20" transform="translate(216.976562 0)"/>
      <use xlink:href="#DejaVuSans-6e" transform="translate(248.763672 0)"/>
      <use xlink:href="#DejaVuSans-6f" transform="translate(312.142578 0)"/>
      <use xlink:href="#DejaVuSans-72" transform="translate(373.324219 0)"/>
      <use xlink:href="#DejaVuSans-6d" transform="translate(412.6875 0)"/>
      <use xlink:href="#DejaVuSans-2e" transform="translate(510.099609 0)"/>
      <use xlink:href="#DejaVuSans-20" transform="translate(541.886719 0)"/>
      <use xlink:href="#DejaVuSans-71" transform="translate(573.673828 0)"/>
      <use xlink:href="#DejaVuSans-75" transform="translate(637.150391 0)"/>
      <use xlink:href="#DejaVuSans-61" transform="translate(700.529297 0)"/>
      <use xlink:href="#DejaVuSans-6c" transform="translate(761.808594 0)"/>
      <use xlink:href="#DejaVuSans-69" transform="translate(789.591797 0)"/>
      <use xlink:href="#DejaVuSans-74" transform="translate(817.375 0)"/>
      <use xlink:href="#DejaVuSans-79" transform="translate(856.583984 0)"/>
      <use xlink:href="#DejaVuSans-20" transform="translate(915.763672 0)"/>
      <use xlink:href="#DejaVuSans-28" transform="translate(947.550781 0)"/>
      <use xlink:href="#DejaVuSans-69" transform="translate(986.564453 0)"/>
      <use xlink:href="#DejaVuSans-6e" transform="translate(1014.347656 0)"/>
      <use xlink:href="#DejaVuSans-73" transform="translate(1077.726562 0)"/>
      <use xlink:href="#DejaVuSans-74" transform="translate(1129.826172 0)"/>
      <use xlink:href="#DejaVuSans-61" transform="translate(1169.035156 0)"/>
      <use xlink:href="#DejaVuSans-6e" transform="translate(1230.314453 0)"/>
      <use xlink:href="#DejaVuSans-63" transform="translate(1293.693359 0)"/>
      <use xlink:href="#DejaVuSans-65" transform="translate(1348.673828 0)"/>
      <use xlink:href="#DejaVuSans-73" transform="translate(1410.197266 0)"/>
      <use xlink:href="#DejaVuSans-29" transform="translate(1462.296875 0)"/>
     </g>
    </g>
   </g>
   <g id="line2d_87">
    <path d="M 1117.856875 425.52 
L 1117.948958 393.997922 
L 1118.306204 393.997922 
L 1118.378043 388.439755 
L 1118.473952 388.439755 
L 1118.566708 387.663335 
L 1118.611193 387.663335 
L 1118.719298 383.491683 
L 1118.737112 383.491683 
L 1118.809586 382.320722 
L 1118.886546 382.24167 
L 1118.996619 381.69992 
L 1118.999111 381.69992 
L 1119.104642 377.559507 
L 1119.247871 377.543214 
L 1119.356578 373.41259 
L 1119.427114 373.330663 
L 1119.523572 372.697716 
L 1119.539064 372.697716 
L 1119.641075 371.132634 
L 1119.66247 371.132634 
L 1119.74101 368.679559 
L 1119.801908 368.67955 
L 1119.896568 367.248447 
L 1119.917525 367.248447 
L 1120.000307 365.025738 
L 1120.07092 365.025738 
L 1120.178264 357.438228 
L 1120.385527 357.356358 
L 1120.436067 356.042939 
L 1120.700854 356.042939 
L 1120.80688 352.083815 
L 1120.992724 352.083664 
L 1121.101854 346.49111 
L 1121.123053 346.49111 
L 1121.233533 332.127892 
L 1121.276945 332.127892 
L 1121.334597 323.839469 
L 1121.405861 323.734579 
L 1121.435966 314.392655 
L 1121.573384 314.373946 
L 1121.676561 309.64066 
L 1121.752693 309.637542 
L 1121.845807 307.533559 
L 1121.91756 307.511731 
L 1122.003822 303.555502 
L 1122.034395 303.555502 
L 1122.116039 302.839092 
L 1122.163663 302.839092 
L 1122.191307 302.492099 
L 1122.441037 302.479626 
L 1122.532362 299.880686 
L 1122.579214 299.880686 
L 1122.684568 296.461624 
L 1122.724991 296.461621 
L 1122.828718 291.295385 
L 1122.872771 291.295385 
L 1122.97162 289.092419 
L 1123.1405 288.986826 
L 1123.251028 288.033554 
L 1123.286825 288.008073 
L 1123.34778 287.728994 
L 1123.520883 287.728974 
L 1123.602599 285.994419 
L 1123.645846 285.994419 
L 1123.645846 285.516811 
L 1123.817129 285.486649 
L 1123.89582 284.590999 
L 1124.051853 284.590999 
L 1124.051853 281.725356 
L 1124.165235 281.725356 
L 1124.237651 281.597354 
L 1124.306651 281.597354 
L 1124.306651 281.35855 
L 1124.444664 281.309425 
L 1124.444664 278.964808 
L 1124.607886 278.949217 
L 1124.718795 277.958667 
L 1124.913181 277.946191 
L 1124.992 277.397092 
L 1125.082192 277.393971 
L 1125.190267 275.438383 
L 1125.287388 275.435262 
L 1125.359017 274.826433 
L 1125.413621 274.826433 
L 1125.508056 273.139095 
L 1125.537831 273.139095 
L 1125.619489 269.869143 
L 1125.76201 269.822502 
L 1125.864949 269.153852 
L 1125.902163 269.153852 
L 1126.000934 267.681907 
L 1126.019383 267.681907 
L 1126.105706 265.898246 
L 1126.409745 265.898246 
L 1126.465536 264.24499 
L 1126.533349 264.24499 
L 1126.557664 264.062208 
L 1127.184203 263.95615 
L 1127.287027 263.337472 
L 1127.373271 263.33747 
L 1127.478355 260.471825 
L 1127.824714 260.405065 
L 1127.897356 259.810194 
L 1128.028274 259.810194 
L 1128.028274 258.336434 
L 1128.167362 258.336434 
L 1128.167362 257.903002 
L 1128.461841 257.903002 
L 1128.526451 257.719261 
L 1128.762816 257.719261 
L 1128.866557 256.444313 
L 1130.540405 256.338293 
L 1130.566474 255.445535 
L 1130.698049 255.445535 
L 1130.698049 252.579892 
L 1130.964918 252.569689 
L 1130.999831 252.172443 
L 1131.486225 252.076922 
L 1131.486225 251.503793 
L 1132.166963 251.408272 
L 1132.240173 247.9695 
L 1132.86557 247.9695 
L 1132.888301 247.29212 
L 1134.946321 247.29212 
L 1134.946321 244.426477 
L 1135.33662 244.426477 
L 1135.33662 244.065044 
L 1135.512233 244.065044 
L 1135.512233 243.885942 
L 1135.719127 243.885942 
L 1135.719127 241.381731 
L 1136.15616 241.381731 
L 1136.219251 238.325044 
L 1136.94557 238.229523 
L 1136.94557 238.03848 
L 1137.725011 237.941815 
L 1137.750019 234.855738 
L 1138.086475 234.855738 
L 1138.106547 234.62727 
L 1138.288472 234.62727 
L 1138.349136 233.187284 
L 1138.479191 233.187284 
L 1138.530799 230.321641 
L 1139.141725 230.321641 
L 1139.150756 226.95451 
L 1139.608019 226.95451 
L 1139.692653 226.462233 
L 1139.86811 226.445858 
L 1139.86811 226.159294 
L 1140.511538 226.107098 
L 1140.591002 225.298247 
L 1140.671016 225.298247 
L 1140.773787 223.598505 
L 1140.849712 223.598505 
L 1140.922073 222.814897 
L 1141.370863 222.814897 
L 1141.370863 219.949253 
L 1142.92786 219.905167 
L 1142.92786 219.833525 
L 1143.531592 219.81715 
L 1143.531592 219.639412 
L 1144.414059 219.639412 
L 1144.414059 219.396191 
L 1145.082977 219.305762 
L 1145.181303 217.257894 
L 1146.50318 217.257894 
L 1146.50318 216.831096 
L 1146.887922 216.831096 
L 1146.887922 216.648183 
L 1147.803619 216.587212 
L 1147.803619 215.15439 
L 1148.236415 215.15439 
L 1148.236415 215.011108 
L 1148.370096 215.011108 
L 1148.370096 214.294697 
L 1149.723613 214.233726 
L 1149.723613 214.172755 
L 1149.843128 214.172755 
L 1149.843128 213.599626 
L 1150.444975 213.599626 
L 1150.444975 210.733983 
L 1151.414754 210.733983 
L 1151.414754 210.609389 
L 1151.680022 210.609389 
L 1151.680022 210.466107 
L 1152.061077 210.466107 
L 1152.061077 210.322825 
L 1152.269783 210.322825 
L 1152.269783 207.706368 
L 1154.353201 207.634649 
L 1154.391499 207.169265 
L 1159.063566 207.115701 
L 1159.096152 204.250058 
L 1159.689861 204.250058 
L 1159.797978 203.205571 
L 1160.223604 203.205571 
L 1160.223604 203.014528 
L 1160.465661 202.919007 
L 1160.465661 202.727964 
L 1161.799341 202.620837 
L 1161.863581 202.486928 
L 1162.083099 202.486928 
L 1162.083099 202.272674 
L 1163.684837 202.192329 
L 1163.684837 202.085202 
L 1164.503154 202.085202 
L 1164.503154 201.951294 
L 1164.661084 201.951294 
L 1164.661084 201.760251 
L 1165.503731 201.760251 
L 1165.575727 200.566233 
L 1166.078473 200.566233 
L 1166.078473 197.700589 
L 1167.957757 197.647026 
L 1167.957757 197.073897 
L 1168.12624 197.073897 
L 1168.12624 196.787333 
L 1169.899845 196.787333 
L 1169.899845 196.618766 
L 1171.149322 196.618766 
L 1171.158953 196.015519 
L 1171.451482 196.015519 
L 1171.451482 195.261304 
L 1171.635676 195.261304 
L 1171.702425 194.941904 
L 1171.85569 194.941904 
L 1171.96386 193.660013 
L 1172.337799 193.659975 
L 1172.337799 193.475095 
L 1173.512327 193.39969 
L 1173.512327 190.534046 
L 1176.006031 190.534031 
L 1176.006031 187.668388 
L 1179.932118 187.662151 
L 1179.932118 187.528243 
L 1180.950888 187.479634 
L 1180.950888 187.39856 
L 1184.887449 187.31125 
L 1184.887449 184.445606 
L 1187.569771 184.445606 
L 1187.569771 184.290707 
L 1187.981124 184.290707 
L 1187.981124 182.97406 
L 1188.796101 182.89661 
L 1188.796101 182.857885 
L 1189.29502 182.81916 
L 1189.29502 182.74171 
L 1189.990107 182.702985 
L 1189.990107 182.586811 
L 1191.233783 182.54404 
L 1191.341251 182.105928 
L 1192.19222 182.051344 
L 1192.19222 181.973895 
L 1192.794413 181.888353 
L 1192.81335 181.643531 
L 1193.838652 181.575814 
L 1193.838652 181.459639 
L 1194.665384 181.377764 
L 1194.665384 181.292222 
L 1195.311594 181.292222 
L 1195.311594 181.176048 
L 1195.90917 181.133277 
L 1195.90917 178.909195 
L 1196.04485 178.909195 
L 1196.04485 178.754296 
L 1196.458675 178.668754 
L 1196.54851 178.462232 
L 1197.209885 178.376691 
L 1197.209885 178.267523 
L 1205.618039 178.267523 
L 1205.692523 173.191241 
L 1210.097778 173.083093 
L 1210.097778 172.932988 
L 1210.564219 172.852643 
L 1210.564219 172.811705 
L 1215.228737 172.71503 
L 1215.315213 170.645399 
L 1215.468708 170.565797 
L 1215.541869 170.326994 
L 1215.614879 170.326994 
L 1215.725893 170.08819 
L 1215.795325 170.08819 
L 1215.870374 169.849386 
L 1216.414029 169.849386 
L 1216.414029 166.983743 
L 1222.414123 166.878029 
L 1222.414123 166.808135 
L 1225.159155 166.772314 
L 1225.159155 165.860519 
L 1226.155574 165.860519 
L 1226.155574 165.600006 
L 1227.155194 165.600006 
L 1227.155194 165.431439 
L 1227.397458 165.347155 
L 1227.397458 164.956385 
L 1227.815957 164.872102 
L 1227.815957 164.787818 
L 1228.465123 164.703534 
L 1228.465123 164.50815 
L 1229.346556 164.472329 
L 1229.346556 164.276944 
L 1229.728846 164.276944 
L 1229.763405 163.50697 
L 1229.915457 163.50697 
L 1229.915457 161.357737 
L 1230.473014 161.357737 
L 1230.562044 159.208505 
L 1230.609059 159.208505 
L 1230.609059 158.492094 
L 1233.512665 158.438531 
L 1233.512665 158.354247 
L 1233.873944 158.354247 
L 1233.873944 158.214459 
L 1235.360655 158.160896 
L 1235.360655 157.919861 
L 1235.485648 157.919861 
L 1235.485648 157.780073 
L 1235.870576 157.780073 
L 1235.870576 157.649817 
L 1237.299443 157.649817 
L 1237.299443 157.389304 
L 1239.747625 157.324175 
L 1239.747625 156.933406 
L 1240.13492 156.933406 
L 1240.13492 155.203206 
L 1242.083671 155.149137 
L 1242.083671 155.084009 
L 1244.615227 154.975871 
L 1244.615227 154.272978 
L 1246.30703 154.176302 
L 1246.38935 153.955412 
L 1246.581446 153.955412 
L 1246.581446 151.089768 
L 1249.593192 150.99284 
L 1249.600772 150.842601 
L 1251.414775 150.842601 
L 1251.414775 150.702814 
L 1252.479754 150.61343 
L 1252.479754 150.543536 
L 1252.789245 150.543536 
L 1252.789245 150.38133 
L 1254.821967 150.38133 
L 1254.821967 150.171649 
L 1260.033041 150.11654 
L 1260.033041 147.967307 
L 1261.279827 147.967307 
L 1261.279827 147.636656 
L 1267.148399 147.636656 
L 1267.148399 147.496869 
L 1268.865441 147.426975 
L 1268.865441 147.357081 
L 1270.476053 147.357081 
L 1270.476053 147.191756 
L 1270.756452 147.191756 
L 1270.756452 146.982075 
L 1270.94218 146.982075 
L 1270.94218 146.422925 
L 1272.986305 146.353031 
L 1272.986305 144.02166 
L 1273.583101 143.924519 
L 1273.583101 143.814302 
L 1275.587877 143.765732 
L 1275.587877 143.625945 
L 1282.698681 143.523671 
L 1282.698681 143.468562 
L 1283.983435 143.419992 
L 1283.983435 141.98717 
L 1289.395783 141.92241 
L 1289.395783 141.852516 
L 1298.25172 141.750242 
L 1298.25172 141.723461 
L 1301.325763 141.67489 
L 1301.325763 138.809247 
L 1304.693415 138.809247 
L 1304.693415 137.251832 
L 1304.984373 137.158387 
L 1304.984373 137.131605 
L 1305.821731 137.038161 
L 1305.821731 136.446343 
L 1307.399744 136.384046 
L 1307.399744 136.323075 
L 1309.76622 136.22963 
L 1309.76622 133.363987 
L 1310.990799 133.363987 
L 1310.990799 132.436867 
L 1311.292839 132.436867 
L 1311.292839 132.184016 
L 1311.559923 132.184016 
L 1311.559923 131.678314 
L 1315.895139 131.568679 
L 1315.895139 131.552489 
L 1319.308784 131.471539 
L 1319.308784 131.302971 
L 1333.3513 131.193337 
L 1333.3513 131.123443 
L 1336.044154 131.028766 
L 1336.044154 130.997618 
L 1338.11276 130.935321 
L 1338.11276 129.627871 
L 1338.389788 129.627871 
L 1338.389788 128.320421 
L 1347.146357 128.217632 
L 1347.146357 128.11017 
L 1359.475702 128.05644 
L 1359.475702 127.986546 
L 1372.03095 127.986546 
L 1372.03095 127.807443 
L 1422.14002 127.753712 
L 1422.14002 127.467148 
L 1423.18589 127.467148 
L 1423.18589 127.180584 
L 1424.857303 127.180584 
L 1424.857303 126.034326 
L 1425.166163 126.034326 
L 1425.166163 125.747762 
L 1426.875207 125.747762 
L 1426.875207 125.461198 
L 1427.537472 125.461198 
L 1427.537472 125.174633 
L 1431.484345 125.174633 
L 1431.484345 124.888069 
L 1486.041022 124.888069 
L 1486.126487 122.106709 
L 1497.266378 122.012777 
L 1497.266378 121.983831 
L 1498.939729 121.896993 
L 1498.939729 120.411104 
L 1503.900251 120.37251 
L 1503.900251 119.156782 
L 1579.948616 119.054754 
L 1579.948616 119.037011 
L 1585.535512 119.037011 
L 1585.535512 118.895059 
L 1596.591875 118.815212 
L 1596.591875 118.815212 
" clip-path="url(#pc42bfb5235)" style="fill: none; stroke: #1f77b4; stroke-width: 2.2; stroke-linecap: square"/>
   </g>
   <g id="patch_15">
    <path d="M 1117.856875 425.52 
L 1117.856875 61.44 
" style="fill: none; stroke: #000000; stroke-width: 0.8; stroke-linejoin: miter; stroke-linecap: square"/>
   </g>
   <g id="patch_16">
    <path d="M 1596.591875 425.52 
L 1596.591875 61.44 
" style="fill: none; stroke: #000000; stroke-width: 0.8; stroke-linejoin: miter; stroke-linecap: square"/>
   </g>
   <g id="patch_17">
    <path d="M 1117.856875 425.52 
L 1596.591875 425.52 
" style="fill: none; stroke: #000000; stroke-width: 0.8; stroke-linejoin: miter; stroke-linecap: square"/>
   </g>
   <g id="patch_18">
    <path d="M 1117.856875 61.44 
L 1596.591875 61.44 
" style="fill: none; stroke: #000000; stroke-width: 0.8; stroke-linejoin: miter; stroke-linecap: square"/>
   </g>
   <g id="text_52">
    <!-- Anytime Quality -->
    <g transform="translate(1307.288672 55.44) scale(0.11 -0.11)">
     <defs>
      <path id="DejaVuSans-Bold-6e" d="M 4056 2131 
L 4056 0 
L 2931 0 
L 2931 347 
L 2931 1631 
Q 2931 2084 2911 2256 
Q 2891 2428 2841 2509 
Q 2775 2619 2662 2680 
Q 2550 2741 2406 2741 
Q 2056 2741 1856 2470 
Q 1656 2200 1656 1722 
L 1656 0 
L 538 0 
L 538 3500 
L 1656 3500 
L 1656 2988 
Q 1909 3294 2193 3439 
Q 2478 3584 2822 3584 
Q 3428 3584 3742 3212 
Q 4056 2841 4056 2131 
z
" transform="scale(0.015625)"/>
      <path id="DejaVuSans-Bold-79" d="M 78 3500 
L 1197 3500 
L 2138 1125 
L 2938 3500 
L 4056 3500 
L 2584 -331 
Q 2363 -916 2067 -1148 
Q 1772 -1381 1288 -1381 
L 641 -1381 
L 641 -647 
L 991 -647 
Q 1275 -647 1404 -556 
Q 1534 -466 1606 -231 
L 1638 -134 
L 78 3500 
z
" transform="scale(0.015625)"/>
      <path id="DejaVuSans-Bold-51" d="M 2847 -84 
L 2753 -84 
Q 1600 -84 959 553 
Q 319 1191 319 2328 
Q 319 3463 958 4106 
Q 1597 4750 2719 4750 
Q 3853 4750 4486 4112 
Q 5119 3475 5119 2328 
Q 5119 1541 4783 972 
Q 4447 403 3816 116 
L 4756 -934 
L 3609 -934 
L 2847 -84 
z
M 2719 3878 
Q 2169 3878 1866 3472 
Q 1563 3066 1563 2328 
Q 1563 1578 1859 1179 
Q 2156 781 2719 781 
Q 3272 781 3575 1187 
Q 3878 1594 3878 2328 
Q 3878 3066 3575 3472 
Q 3272 3878 2719 3878 
z
" transform="scale(0.015625)"/>
      <path id="DejaVuSans-Bold-75" d="M 500 1363 
L 500 3500 
L 1625 3500 
L 1625 3150 
Q 1625 2866 1622 2436 
Q 1619 2006 1619 1863 
Q 1619 1441 1641 1255 
Q 1663 1069 1716 984 
Q 1784 875 1895 815 
Q 2006 756 2150 756 
Q 2500 756 2700 1025 
Q 2900 1294 2900 1772 
L 2900 3500 
L 4019 3500 
L 4019 0 
L 2900 0 
L 2900 506 
Q 2647 200 2364 54 
Q 2081 -91 1741 -91 
Q 1134 -91 817 281 
Q 500 653 500 1363 
z
" transform="scale(0.015625)"/>
     </defs>
     <use xlink:href="#DejaVuSans-Bold-41"/>
     <use xlink:href="#DejaVuSans-Bold-6e" transform="translate(77.392578 0)"/>
     <use xlink:href="#DejaVuSans-Bold-79" transform="translate(148.583984 0)"/>
     <use xlink:href="#DejaVuSans-Bold-74" transform="translate(213.769531 0)"/>
     <use xlink:href="#DejaVuSans-Bold-69" transform="translate(261.572266 0)"/>
     <use xlink:href="#DejaVuSans-Bold-6d" transform="translate(295.849609 0)"/>
     <use xlink:href="#DejaVuSans-Bold-65" transform="translate(400.048828 0)"/>
     <use xlink:href="#DejaVuSans-Bold-20" transform="translate(467.871094 0)"/>
     <use xlink:href="#DejaVuSans-Bold-51" transform="translate(502.685547 0)"/>
     <use xlink:href="#DejaVuSans-Bold-75" transform="translate(587.695312 0)"/>
     <use xlink:href="#DejaVuSans-Bold-61" transform="translate(658.886719 0)"/>
     <use xlink:href="#DejaVuSans-Bold-6c" transform="translate(726.367188 0)"/>
     <use xlink:href="#DejaVuSans-Bold-69" transform="translate(760.644531 0)"/>
     <use xlink:href="#DejaVuSans-Bold-74" transform="translate(794.921875 0)"/>
     <use xlink:href="#DejaVuSans-Bold-79" transform="translate(842.724609 0)"/>
    </g>
   </g>
   <g id="legend_3">
    <g id="patch_19">
     <path d="M 1309.664375 519.7601 
L 1404.784375 519.7601 
Q 1406.384375 519.7601 1406.384375 518.1601 
L 1406.384375 507.2176 
Q 1406.384375 505.6176 1404.784375 505.6176 
L 1309.664375 505.6176 
Q 1308.064375 505.6176 1308.064375 507.2176 
L 1308.064375 518.1601 
Q 1308.064375 519.7601 1309.664375 519.7601 
z
" style="fill: #ffffff; opacity: 0.95; stroke: #cccccc; stroke-linejoin: miter"/>
    </g>
    <g id="line2d_88">
     <path d="M 1311.264375 512.09635 
L 1319.264375 512.09635 
L 1319.264375 512.09635 
L 1327.264375 512.09635 
L 1327.264375 512.09635 
" style="fill: none; stroke: #1f77b4; stroke-width: 2.2; stroke-linecap: square"/>
    </g>
    <g id="text_53">
     <!-- ortools (107/121) -->
     <g transform="translate(1333.664375 514.89635) scale(0.08 -0.08)">
      <defs>
       <path id="DejaVuSans-37" d="M 525 4666 
L 3525 4666 
L 3525 4397 
L 1831 0 
L 1172 0 
L 2766 4134 
L 525 4134 
L 525 4666 
z
" transform="scale(0.015625)"/>
      </defs>
      <use xlink:href="#DejaVuSans-6f"/>
      <use xlink:href="#DejaVuSans-72" transform="translate(61.181641 0)"/>
      <use xlink:href="#DejaVuSans-74" transform="translate(102.294922 0)"/>
      <use xlink:href="#DejaVuSans-6f" transform="translate(141.503906 0)"/>
      <use xlink:href="#DejaVuSans-6f" transform="translate(202.685547 0)"/>
      <use xlink:href="#DejaVuSans-6c" transform="translate(263.867188 0)"/>
      <use xlink:href="#DejaVuSans-73" transform="translate(291.650391 0)"/>
      <use xlink:href="#DejaVuSans-20" transform="translate(343.75 0)"/>
      <use xlink:href="#DejaVuSans-28" transform="translate(375.537109 0)"/>
      <use xlink:href="#DejaVuSans-31" transform="translate(414.550781 0)"/>
      <use xlink:href="#DejaVuSans-30" transform="translate(478.173828 0)"/>
      <use xlink:href="#DejaVuSans-37" transform="translate(541.796875 0)"/>
      <use xlink:href="#DejaVuSans-2f" transform="translate(605.419922 0)"/>
      <use xlink:href="#DejaVuSans-31" transform="translate(639.111328 0)"/>
      <use xlink:href="#DejaVuSans-32" transform="translate(702.734375 0)"/>
      <use xlink:href="#DejaVuSans-31" transform="translate(766.357422 0)"/>
      <use xlink:href="#DejaVuSans-29" transform="translate(829.980469 0)"/>
     </g>
    </g>
   </g>
  </g>
  <g id="text_54">
   <!-- Track: XCSP3-2025-COP25 -->
   <g transform="translate(710.411484 17.077969) scale(0.13 -0.13)">
    <defs>
     <path id="DejaVuSans-Bold-63" d="M 3366 3391 
L 3366 2478 
Q 3138 2634 2908 2709 
Q 2678 2784 2431 2784 
Q 1963 2784 1702 2511 
Q 1441 2238 1441 1747 
Q 1441 1256 1702 982 
Q 1963 709 2431 709 
Q 2694 709 2930 787 
Q 3166 866 3366 1019 
L 3366 103 
Q 3103 6 2833 -42 
Q 2563 -91 2291 -91 
Q 1344 -91 809 395 
Q 275 881 275 1747 
Q 275 2613 809 3098 
Q 1344 3584 2291 3584 
Q 2566 3584 2833 3536 
Q 3100 3488 3366 3391 
z
" transform="scale(0.015625)"/>
     <path id="DejaVuSans-Bold-6b" d="M 538 4863 
L 1656 4863 
L 1656 2216 
L 2944 3500 
L 4244 3500 
L 2534 1894 
L 4378 0 
L 3022 0 
L 1656 1459 
L 1656 0 
L 538 0 
L 538 4863 
z
" transform="scale(0.015625)"/>
     <path id="DejaVuSans-Bold-3a" d="M 716 3500 
L 1844 3500 
L 1844 2291 
L 716 2291 
L 716 3500 
z
M 716 1209 
L 1844 1209 
L 1844 0 
L 716 0 
L 716 1209 
z
" transform="scale(0.015625)"/>
     <path id="DejaVuSans-Bold-58" d="M 3188 2381 
L 4806 0 
L 3553 0 
L 2463 1594 
L 1381 0 
L 122 0 
L 1741 2381 
L 184 4666 
L 1441 4666 
L 2463 3163 
L 3481 4666 
L 4744 4666 
L 3188 2381 
z
" transform="scale(0.015625)"/>
     <path id="DejaVuSans-Bold-43" d="M 4288 256 
Q 3956 84 3597 -3 
Q 3238 -91 2847 -91 
Q 1681 -91 1000 561 
Q 319 1213 319 2328 
Q 319 3447 1000 4098 
Q 1681 4750 2847 4750 
Q 3238 4750 3597 4662 
Q 3956 4575 4288 4403 
L 4288 3438 
Q 3953 3666 3628 3772 
Q 3303 3878 2944 3878 
Q 2300 3878 1931 3465 
Q 1563 3053 1563 2328 
Q 1563 1606 1931 1193 
Q 2300 781 2944 781 
Q 3303 781 3628 887 
Q 3953 994 4288 1222 
L 4288 256 
z
" transform="scale(0.015625)"/>
     <path id="DejaVuSans-Bold-33" d="M 2981 2516 
Q 3453 2394 3698 2092 
Q 3944 1791 3944 1325 
Q 3944 631 3412 270 
Q 2881 -91 1863 -91 
Q 1503 -91 1142 -33 
Q 781 25 428 141 
L 428 1069 
Q 766 900 1098 814 
Q 1431 728 1753 728 
Q 2231 728 2486 893 
Q 2741 1059 2741 1369 
Q 2741 1688 2480 1852 
Q 2219 2016 1709 2016 
L 1228 2016 
L 1228 2791 
L 1734 2791 
Q 2188 2791 2409 2933 
Q 2631 3075 2631 3366 
Q 2631 3634 2415 3781 
Q 2200 3928 1806 3928 
Q 1516 3928 1219 3862 
Q 922 3797 628 3669 
L 628 4550 
Q 984 4650 1334 4700 
Q 1684 4750 2022 4750 
Q 2931 4750 3382 4451 
Q 3834 4153 3834 3553 
Q 3834 3144 3618 2883 
Q 3403 2622 2981 2516 
z
" transform="scale(0.015625)"/>
     <path id="DejaVuSans-Bold-2d" d="M 347 2297 
L 2309 2297 
L 2309 1388 
L 347 1388 
L 347 2297 
z
" transform="scale(0.015625)"/>
     <path id="DejaVuSans-Bold-32" d="M 1844 884 
L 3897 884 
L 3897 0 
L 506 0 
L 506 884 
L 2209 2388 
Q 2438 2594 2547 2791 
Q 2656 2988 2656 3200 
Q 2656 3528 2436 3728 
Q 2216 3928 1850 3928 
Q 1569 3928 1234 3808 
Q 900 3688 519 3450 
L 519 4475 
Q 925 4609 1322 4679 
Q 1719 4750 2100 4750 
Q 2938 4750 3402 4381 
Q 3866 4013 3866 3353 
Q 3866 2972 3669 2642 
Q 3472 2313 2841 1759 
L 1844 884 
z
" transform="scale(0.015625)"/>
     <path id="DejaVuSans-Bold-30" d="M 2944 2338 
Q 2944 3213 2780 3570 
Q 2616 3928 2228 3928 
Q 1841 3928 1675 3570 
Q 1509 3213 1509 2338 
Q 1509 1453 1675 1090 
Q 1841 728 2228 728 
Q 2613 728 2778 1090 
Q 2944 1453 2944 2338 
z
M 4147 2328 
Q 4147 1169 3647 539 
Q 3147 -91 2228 -91 
Q 1306 -91 806 539 
Q 306 1169 306 2328 
Q 306 3491 806 4120 
Q 1306 4750 2228 4750 
Q 3147 4750 3647 4120 
Q 4147 3491 4147 2328 
z
" transform="scale(0.015625)"/>
     <path id="DejaVuSans-Bold-35" d="M 678 4666 
L 3669 4666 
L 3669 3781 
L 1638 3781 
L 1638 3059 
Q 1775 3097 1914 3117 
Q 2053 3138 2203 3138 
Q 3056 3138 3531 2711 
Q 4006 2284 4006 1522 
Q 4006 766 3489 337 
Q 2972 -91 2053 -91 
Q 1656 -91 1267 -14 
Q 878 63 494 219 
L 494 1166 
Q 875 947 1217 837 
Q 1559 728 1863 728 
Q 2300 728 2551 942 
Q 2803 1156 2803 1522 
Q 2803 1891 2551 2103 
Q 2300 2316 1863 2316 
Q 1603 2316 1309 2248 
Q 1016 2181 678 2041 
L 678 4666 
z
" transform="scale(0.015625)"/>
    </defs>
    <use xlink:href="#DejaVuSans-Bold-54"/>
    <use xlink:href="#DejaVuSans-Bold-72" transform="translate(57.212891 0)"/>
    <use xlink:href="#DejaVuSans-Bold-61" transform="translate(106.529297 0)"/>
    <use xlink:href="#DejaVuSans-Bold-63" transform="translate(174.009766 0)"/>
    <use xlink:href="#DejaVuSans-Bold-6b" transform="translate(233.287109 0)"/>
    <use xlink:href="#DejaVuSans-Bold-3a" transform="translate(299.791016 0)"/>
    <use xlink:href="#DejaVuSans-Bold-20" transform="translate(339.78125 0)"/>
    <use xlink:href="#DejaVuSans-Bold-58" transform="translate(374.595703 0)"/>
    <use xlink:href="#DejaVuSans-Bold-43" transform="translate(448.070312 0)"/>
    <use xlink:href="#DejaVuSans-Bold-53" transform="translate(523.333984 0)"/>
    <use xlink:href="#DejaVuSans-Bold-50" transform="translate(595.355469 0)"/>
    <use xlink:href="#DejaVuSans-Bold-33" transform="translate(668.646484 0)"/>
    <use xlink:href="#DejaVuSans-Bold-2d" transform="translate(738.226562 0)"/>
    <use xlink:href="#DejaVuSans-Bold-32" transform="translate(779.730469 0)"/>
    <use xlink:href="#DejaVuSans-Bold-30" transform="translate(849.310547 0)"/>
    <use xlink:href="#DejaVuSans-Bold-32" transform="translate(918.890625 0)"/>
    <use xlink:href="#DejaVuSans-Bold-35" transform="translate(988.470703 0)"/>
    <use xlink:href="#DejaVuSans-Bold-2d" transform="translate(1058.050781 0)"/>
    <use xlink:href="#DejaVuSans-Bold-43" transform="translate(1099.554688 0)"/>
    <use xlink:href="#DejaVuSans-Bold-4f" transform="translate(1172.943359 0)"/>
    <use xlink:href="#DejaVuSans-Bold-50" transform="translate(1257.953125 0)"/>
    <use xlink:href="#DejaVuSans-Bold-32" transform="translate(1331.244141 0)"/>
    <use xlink:href="#DejaVuSans-Bold-35" transform="translate(1400.824219 0)"/>
   </g>
  </g>
 </g>
 <defs>
  <clipPath id="p62852f3b86">
   <rect x="45.056875" y="61.44" width="478.735" height="364.08"/>
  </clipPath>
  <clipPath id="p6bd6389aa0">
   <rect x="581.456875" y="61.44" width="478.735" height="364.08"/>
  </clipPath>
  <clipPath id="pc42bfb5235">
   <rect x="1117.856875" y="61.44" width="478.735" height="364.08"/>
  </clipPath>
 </defs>
</svg>
