<?xml version="1.0" encoding="utf-8" standalone="no"?>
<!DOCTYPE svg PUBLIC "-//W3C//DTD SVG 1.1//EN"
  "http://www.w3.org/Graphics/SVG/1.1/DTD/svg11.dtd">
<svg xmlns:xlink="http://www.w3.org/1999/xlink" width="713.29375pt" height="330.957188pt" viewBox="0 0 713.29375 330.957188" xmlns="http://www.w3.org/2000/svg" version="1.1">
 <metadata>
  <rdf:RDF xmlns:dc="http://purl.org/dc/elements/1.1/" xmlns:cc="http://creativecommons.org/ns#" xmlns:rdf="http://www.w3.org/1999/02/22-rdf-syntax-ns#">
   <cc:Work>
    <dc:type rdf:resource="http://purl.org/dc/dcmitype/StillImage"/>
    <dc:date>2026-05-21T18:43:41.004574</dc:date>
    <dc:format>image/svg+xml</dc:format>
    <dc:creator>
     <cc:Agent>
      <dc:title>Matplotlib v3.10.8, https://matplotlib.org/</dc:title>
     </cc:Agent>
    </dc:creator>
   </cc:Work>
  </rdf:RDF>
 </metadata>
 <defs>
  <style type="text/css">*{stroke-linejoin: round; stroke-linecap: butt}</style>
 </defs>
 <g id="figure_1">
  <g id="patch_1">
   <path d="M -0 330.957188 
L 713.29375 330.957188 
L 713.29375 0 
L -0 0 
z
" style="fill: #ffffff"/>
  </g>
  <g id="axes_1">
   <g id="patch_2">
    <path d="M 39.30375 298.24 
L 345.46925 298.24 
L 345.46925 56.04 
L 39.30375 56.04 
z
" style="fill: #ffffff"/>
   </g>
   <g id="matplotlib.axis_1">
    <g id="xtick_1">
     <g id="line2d_1">
      <path d="M 39.30375 298.24 
L 39.30375 56.04 
" clip-path="url(#p9419c8b877)" style="fill: none; stroke: #b0b0b0; stroke-opacity: 0.3; stroke-width: 0.8; stroke-linecap: square"/>
     </g>
     <g id="line2d_2">
      <defs>
       <path id="m56787ca3e2" d="M 0 0 
L 0 3.5 
" style="stroke: #000000; stroke-width: 0.8"/>
      </defs>
      <g>
       <use xlink:href="#m56787ca3e2" x="39.30375" y="298.24" style="stroke: #000000; stroke-width: 0.8"/>
      </g>
     </g>
     <g id="text_1">
      <!-- 0 -->
      <g transform="translate(37.076875 310.558906) scale(0.07 -0.07)">
       <defs>
        <path id="DejaVuSans-30" d="M 2034 4250 
Q 1547 4250 1301 3770 
Q 1056 3291 1056 2328 
Q 1056 1369 1301 889 
Q 1547 409 2034 409 
Q 2525 409 2770 889 
Q 3016 1369 3016 2328 
Q 3016 3291 2770 3770 
Q 2525 4250 2034 4250 
z
M 2034 4750 
Q 2819 4750 3233 4129 
Q 3647 3509 3647 2328 
Q 3647 1150 3233 529 
Q 2819 -91 2034 -91 
Q 1250 -91 836 529 
Q 422 1150 422 2328 
Q 422 3509 836 4129 
Q 1250 4750 2034 4750 
z
" transform="scale(0.015625)"/>
       </defs>
       <use xlink:href="#DejaVuSans-30"/>
      </g>
     </g>
    </g>
    <g id="xtick_2">
     <g id="line2d_3">
      <path d="M 90.331333 298.24 
L 90.331333 56.04 
" clip-path="url(#p9419c8b877)" style="fill: none; stroke: #b0b0b0; stroke-opacity: 0.3; stroke-width: 0.8; stroke-linecap: square"/>
     </g>
     <g id="line2d_4">
      <g>
       <use xlink:href="#m56787ca3e2" x="90.331333" y="298.24" style="stroke: #000000; stroke-width: 0.8"/>
      </g>
     </g>
     <g id="text_2">
      <!-- 100 -->
      <g transform="translate(83.650708 310.558906) scale(0.07 -0.07)">
       <defs>
        <path id="DejaVuSans-31" d="M 794 531 
L 1825 531 
L 1825 4091 
L 703 3866 
L 703 4441 
L 1819 4666 
L 2450 4666 
L 2450 531 
L 3481 531 
L 3481 0 
L 794 0 
L 794 531 
z
" transform="scale(0.015625)"/>
       </defs>
       <use xlink:href="#DejaVuSans-31"/>
       <use xlink:href="#DejaVuSans-30" transform="translate(63.623047 0)"/>
       <use xlink:href="#DejaVuSans-30" transform="translate(127.246094 0)"/>
      </g>
     </g>
    </g>
    <g id="xtick_3">
     <g id="line2d_5">
      <path d="M 141.358917 298.24 
L 141.358917 56.04 
" clip-path="url(#p9419c8b877)" style="fill: none; stroke: #b0b0b0; stroke-opacity: 0.3; stroke-width: 0.8; stroke-linecap: square"/>
     </g>
     <g id="line2d_6">
      <g>
       <use xlink:href="#m56787ca3e2" x="141.358917" y="298.24" style="stroke: #000000; stroke-width: 0.8"/>
      </g>
     </g>
     <g id="text_3">
      <!-- 200 -->
      <g transform="translate(134.678292 310.558906) scale(0.07 -0.07)">
       <defs>
        <path id="DejaVuSans-32" d="M 1228 531 
L 3431 531 
L 3431 0 
L 469 0 
L 469 531 
Q 828 903 1448 1529 
Q 2069 2156 2228 2338 
Q 2531 2678 2651 2914 
Q 2772 3150 2772 3378 
Q 2772 3750 2511 3984 
Q 2250 4219 1831 4219 
Q 1534 4219 1204 4116 
Q 875 4013 500 3803 
L 500 4441 
Q 881 4594 1212 4672 
Q 1544 4750 1819 4750 
Q 2544 4750 2975 4387 
Q 3406 4025 3406 3419 
Q 3406 3131 3298 2873 
Q 3191 2616 2906 2266 
Q 2828 2175 2409 1742 
Q 1991 1309 1228 531 
z
" transform="scale(0.015625)"/>
       </defs>
       <use xlink:href="#DejaVuSans-32"/>
       <use xlink:href="#DejaVuSans-30" transform="translate(63.623047 0)"/>
       <use xlink:href="#DejaVuSans-30" transform="translate(127.246094 0)"/>
      </g>
     </g>
    </g>
    <g id="xtick_4">
     <g id="line2d_7">
      <path d="M 192.3865 298.24 
L 192.3865 56.04 
" clip-path="url(#p9419c8b877)" style="fill: none; stroke: #b0b0b0; stroke-opacity: 0.3; stroke-width: 0.8; stroke-linecap: square"/>
     </g>
     <g id="line2d_8">
      <g>
       <use xlink:href="#m56787ca3e2" x="192.3865" y="298.24" style="stroke: #000000; stroke-width: 0.8"/>
      </g>
     </g>
     <g id="text_4">
      <!-- 300 -->
      <g transform="translate(185.705875 310.558906) scale(0.07 -0.07)">
       <defs>
        <path id="DejaVuSans-33" d="M 2597 2516 
Q 3050 2419 3304 2112 
Q 3559 1806 3559 1356 
Q 3559 666 3084 287 
Q 2609 -91 1734 -91 
Q 1441 -91 1130 -33 
Q 819 25 488 141 
L 488 750 
Q 750 597 1062 519 
Q 1375 441 1716 441 
Q 2309 441 2620 675 
Q 2931 909 2931 1356 
Q 2931 1769 2642 2001 
Q 2353 2234 1838 2234 
L 1294 2234 
L 1294 2753 
L 1863 2753 
Q 2328 2753 2575 2939 
Q 2822 3125 2822 3475 
Q 2822 3834 2567 4026 
Q 2313 4219 1838 4219 
Q 1578 4219 1281 4162 
Q 984 4106 628 3988 
L 628 4550 
Q 988 4650 1302 4700 
Q 1616 4750 1894 4750 
Q 2613 4750 3031 4423 
Q 3450 4097 3450 3541 
Q 3450 3153 3228 2886 
Q 3006 2619 2597 2516 
z
" transform="scale(0.015625)"/>
       </defs>
       <use xlink:href="#DejaVuSans-33"/>
       <use xlink:href="#DejaVuSans-30" transform="translate(63.623047 0)"/>
       <use xlink:href="#DejaVuSans-30" transform="translate(127.246094 0)"/>
      </g>
     </g>
    </g>
    <g id="xtick_5">
     <g id="line2d_9">
      <path d="M 243.414083 298.24 
L 243.414083 56.04 
" clip-path="url(#p9419c8b877)" style="fill: none; stroke: #b0b0b0; stroke-opacity: 0.3; stroke-width: 0.8; stroke-linecap: square"/>
     </g>
     <g id="line2d_10">
      <g>
       <use xlink:href="#m56787ca3e2" x="243.414083" y="298.24" style="stroke: #000000; stroke-width: 0.8"/>
      </g>
     </g>
     <g id="text_5">
      <!-- 400 -->
      <g transform="translate(236.733458 310.558906) scale(0.07 -0.07)">
       <defs>
        <path id="DejaVuSans-34" d="M 2419 4116 
L 825 1625 
L 2419 1625 
L 2419 4116 
z
M 2253 4666 
L 3047 4666 
L 3047 1625 
L 3713 1625 
L 3713 1100 
L 3047 1100 
L 3047 0 
L 2419 0 
L 2419 1100 
L 313 1100 
L 313 1709 
L 2253 4666 
z
" transform="scale(0.015625)"/>
       </defs>
       <use xlink:href="#DejaVuSans-34"/>
       <use xlink:href="#DejaVuSans-30" transform="translate(63.623047 0)"/>
       <use xlink:href="#DejaVuSans-30" transform="translate(127.246094 0)"/>
      </g>
     </g>
    </g>
    <g id="xtick_6">
     <g id="line2d_11">
      <path d="M 294.441667 298.24 
L 294.441667 56.04 
" clip-path="url(#p9419c8b877)" style="fill: none; stroke: #b0b0b0; stroke-opacity: 0.3; stroke-width: 0.8; stroke-linecap: square"/>
     </g>
     <g id="line2d_12">
      <g>
       <use xlink:href="#m56787ca3e2" x="294.441667" y="298.24" style="stroke: #000000; stroke-width: 0.8"/>
      </g>
     </g>
     <g id="text_6">
      <!-- 500 -->
      <g transform="translate(287.761042 310.558906) scale(0.07 -0.07)">
       <defs>
        <path id="DejaVuSans-35" d="M 691 4666 
L 3169 4666 
L 3169 4134 
L 1269 4134 
L 1269 2991 
Q 1406 3038 1543 3061 
Q 1681 3084 1819 3084 
Q 2600 3084 3056 2656 
Q 3513 2228 3513 1497 
Q 3513 744 3044 326 
Q 2575 -91 1722 -91 
Q 1428 -91 1123 -41 
Q 819 9 494 109 
L 494 744 
Q 775 591 1075 516 
Q 1375 441 1709 441 
Q 2250 441 2565 725 
Q 2881 1009 2881 1497 
Q 2881 1984 2565 2268 
Q 2250 2553 1709 2553 
Q 1456 2553 1204 2497 
Q 953 2441 691 2322 
L 691 4666 
z
" transform="scale(0.015625)"/>
       </defs>
       <use xlink:href="#DejaVuSans-35"/>
       <use xlink:href="#DejaVuSans-30" transform="translate(63.623047 0)"/>
       <use xlink:href="#DejaVuSans-30" transform="translate(127.246094 0)"/>
      </g>
     </g>
    </g>
    <g id="xtick_7">
     <g id="line2d_13">
      <path d="M 345.46925 298.24 
L 345.46925 56.04 
" clip-path="url(#p9419c8b877)" style="fill: none; stroke: #b0b0b0; stroke-opacity: 0.3; stroke-width: 0.8; stroke-linecap: square"/>
     </g>
     <g id="line2d_14">
      <g>
       <use xlink:href="#m56787ca3e2" x="345.46925" y="298.24" style="stroke: #000000; stroke-width: 0.8"/>
      </g>
     </g>
     <g id="text_7">
      <!-- 600 -->
      <g transform="translate(338.788625 310.558906) scale(0.07 -0.07)">
       <defs>
        <path id="DejaVuSans-36" d="M 2113 2584 
Q 1688 2584 1439 2293 
Q 1191 2003 1191 1497 
Q 1191 994 1439 701 
Q 1688 409 2113 409 
Q 2538 409 2786 701 
Q 3034 994 3034 1497 
Q 3034 2003 2786 2293 
Q 2538 2584 2113 2584 
z
M 3366 4563 
L 3366 3988 
Q 3128 4100 2886 4159 
Q 2644 4219 2406 4219 
Q 1781 4219 1451 3797 
Q 1122 3375 1075 2522 
Q 1259 2794 1537 2939 
Q 1816 3084 2150 3084 
Q 2853 3084 3261 2657 
Q 3669 2231 3669 1497 
Q 3669 778 3244 343 
Q 2819 -91 2113 -91 
Q 1303 -91 875 529 
Q 447 1150 447 2328 
Q 447 3434 972 4092 
Q 1497 4750 2381 4750 
Q 2619 4750 2861 4703 
Q 3103 4656 3366 4563 
z
" transform="scale(0.015625)"/>
       </defs>
       <use xlink:href="#DejaVuSans-36"/>
       <use xlink:href="#DejaVuSans-30" transform="translate(63.623047 0)"/>
       <use xlink:href="#DejaVuSans-30" transform="translate(127.246094 0)"/>
      </g>
     </g>
    </g>
    <g id="text_8">
     <!-- Time (s) -->
     <g transform="translate(176.123375 322.093438) scale(0.08 -0.08)">
      <defs>
       <path id="DejaVuSans-54" d="M -19 4666 
L 3928 4666 
L 3928 4134 
L 2272 4134 
L 2272 0 
L 1638 0 
L 1638 4134 
L -19 4134 
L -19 4666 
z
" transform="scale(0.015625)"/>
       <path id="DejaVuSans-69" d="M 603 3500 
L 1178 3500 
L 1178 0 
L 603 0 
L 603 3500 
z
M 603 4863 
L 1178 4863 
L 1178 4134 
L 603 4134 
L 603 4863 
z
" transform="scale(0.015625)"/>
       <path id="DejaVuSans-6d" d="M 3328 2828 
Q 3544 3216 3844 3400 
Q 4144 3584 4550 3584 
Q 5097 3584 5394 3201 
Q 5691 2819 5691 2113 
L 5691 0 
L 5113 0 
L 5113 2094 
Q 5113 2597 4934 2840 
Q 4756 3084 4391 3084 
Q 3944 3084 3684 2787 
Q 3425 2491 3425 1978 
L 3425 0 
L 2847 0 
L 2847 2094 
Q 2847 2600 2669 2842 
Q 2491 3084 2119 3084 
Q 1678 3084 1418 2786 
Q 1159 2488 1159 1978 
L 1159 0 
L 581 0 
L 581 3500 
L 1159 3500 
L 1159 2956 
Q 1356 3278 1631 3431 
Q 1906 3584 2284 3584 
Q 2666 3584 2933 3390 
Q 3200 3197 3328 2828 
z
" transform="scale(0.015625)"/>
       <path id="DejaVuSans-65" d="M 3597 1894 
L 3597 1613 
L 953 1613 
Q 991 1019 1311 708 
Q 1631 397 2203 397 
Q 2534 397 2845 478 
Q 3156 559 3463 722 
L 3463 178 
Q 3153 47 2828 -22 
Q 2503 -91 2169 -91 
Q 1331 -91 842 396 
Q 353 884 353 1716 
Q 353 2575 817 3079 
Q 1281 3584 2069 3584 
Q 2775 3584 3186 3129 
Q 3597 2675 3597 1894 
z
M 3022 2063 
Q 3016 2534 2758 2815 
Q 2500 3097 2075 3097 
Q 1594 3097 1305 2825 
Q 1016 2553 972 2059 
L 3022 2063 
z
" transform="scale(0.015625)"/>
       <path id="DejaVuSans-20" transform="scale(0.015625)"/>
       <path id="DejaVuSans-28" d="M 1984 4856 
Q 1566 4138 1362 3434 
Q 1159 2731 1159 2009 
Q 1159 1288 1364 580 
Q 1569 -128 1984 -844 
L 1484 -844 
Q 1016 -109 783 600 
Q 550 1309 550 2009 
Q 550 2706 781 3412 
Q 1013 4119 1484 4856 
L 1984 4856 
z
" transform="scale(0.015625)"/>
       <path id="DejaVuSans-73" d="M 2834 3397 
L 2834 2853 
Q 2591 2978 2328 3040 
Q 2066 3103 1784 3103 
Q 1356 3103 1142 2972 
Q 928 2841 928 2578 
Q 928 2378 1081 2264 
Q 1234 2150 1697 2047 
L 1894 2003 
Q 2506 1872 2764 1633 
Q 3022 1394 3022 966 
Q 3022 478 2636 193 
Q 2250 -91 1575 -91 
Q 1294 -91 989 -36 
Q 684 19 347 128 
L 347 722 
Q 666 556 975 473 
Q 1284 391 1588 391 
Q 1994 391 2212 530 
Q 2431 669 2431 922 
Q 2431 1156 2273 1281 
Q 2116 1406 1581 1522 
L 1381 1569 
Q 847 1681 609 1914 
Q 372 2147 372 2553 
Q 372 3047 722 3315 
Q 1072 3584 1716 3584 
Q 2034 3584 2315 3537 
Q 2597 3491 2834 3397 
z
" transform="scale(0.015625)"/>
       <path id="DejaVuSans-29" d="M 513 4856 
L 1013 4856 
Q 1481 4119 1714 3412 
Q 1947 2706 1947 2009 
Q 1947 1309 1714 600 
Q 1481 -109 1013 -844 
L 513 -844 
Q 928 -128 1133 580 
Q 1338 1288 1338 2009 
Q 1338 2731 1133 3434 
Q 928 4138 513 4856 
z
" transform="scale(0.015625)"/>
      </defs>
      <use xlink:href="#DejaVuSans-54"/>
      <use xlink:href="#DejaVuSans-69" transform="translate(57.958984 0)"/>
      <use xlink:href="#DejaVuSans-6d" transform="translate(85.742188 0)"/>
      <use xlink:href="#DejaVuSans-65" transform="translate(183.154297 0)"/>
      <use xlink:href="#DejaVuSans-20" transform="translate(244.677734 0)"/>
      <use xlink:href="#DejaVuSans-28" transform="translate(276.464844 0)"/>
      <use xlink:href="#DejaVuSans-73" transform="translate(315.478516 0)"/>
      <use xlink:href="#DejaVuSans-29" transform="translate(367.578125 0)"/>
     </g>
    </g>
   </g>
   <g id="matplotlib.axis_2">
    <g id="ytick_1">
     <g id="line2d_15">
      <path d="M 39.30375 298.24 
L 345.46925 298.24 
" clip-path="url(#p9419c8b877)" style="fill: none; stroke: #b0b0b0; stroke-opacity: 0.3; stroke-width: 0.8; stroke-linecap: square"/>
     </g>
     <g id="line2d_16">
      <defs>
       <path id="m4126316833" d="M 0 0 
L -3.5 0 
" style="stroke: #000000; stroke-width: 0.8"/>
      </defs>
      <g>
       <use xlink:href="#m4126316833" x="39.30375" y="298.24" style="stroke: #000000; stroke-width: 0.8"/>
      </g>
     </g>
     <g id="text_9">
      <!-- 0 -->
      <g transform="translate(27.85 300.899453) scale(0.07 -0.07)">
       <use xlink:href="#DejaVuSans-30"/>
      </g>
     </g>
    </g>
    <g id="ytick_2">
     <g id="line2d_17">
      <path d="M 39.30375 269.406667 
L 345.46925 269.406667 
" clip-path="url(#p9419c8b877)" style="fill: none; stroke: #b0b0b0; stroke-opacity: 0.3; stroke-width: 0.8; stroke-linecap: square"/>
     </g>
     <g id="line2d_18">
      <g>
       <use xlink:href="#m4126316833" x="39.30375" y="269.406667" style="stroke: #000000; stroke-width: 0.8"/>
      </g>
     </g>
     <g id="text_10">
      <!-- 25 -->
      <g transform="translate(23.39625 272.06612) scale(0.07 -0.07)">
       <use xlink:href="#DejaVuSans-32"/>
       <use xlink:href="#DejaVuSans-35" transform="translate(63.623047 0)"/>
      </g>
     </g>
    </g>
    <g id="ytick_3">
     <g id="line2d_19">
      <path d="M 39.30375 240.573333 
L 345.46925 240.573333 
" clip-path="url(#p9419c8b877)" style="fill: none; stroke: #b0b0b0; stroke-opacity: 0.3; stroke-width: 0.8; stroke-linecap: square"/>
     </g>
     <g id="line2d_20">
      <g>
       <use xlink:href="#m4126316833" x="39.30375" y="240.573333" style="stroke: #000000; stroke-width: 0.8"/>
      </g>
     </g>
     <g id="text_11">
      <!-- 50 -->
      <g transform="translate(23.39625 243.232786) scale(0.07 -0.07)">
       <use xlink:href="#DejaVuSans-35"/>
       <use xlink:href="#DejaVuSans-30" transform="translate(63.623047 0)"/>
      </g>
     </g>
    </g>
    <g id="ytick_4">
     <g id="line2d_21">
      <path d="M 39.30375 211.74 
L 345.46925 211.74 
" clip-path="url(#p9419c8b877)" style="fill: none; stroke: #b0b0b0; stroke-opacity: 0.3; stroke-width: 0.8; stroke-linecap: square"/>
     </g>
     <g id="line2d_22">
      <g>
       <use xlink:href="#m4126316833" x="39.30375" y="211.74" style="stroke: #000000; stroke-width: 0.8"/>
      </g>
     </g>
     <g id="text_12">
      <!-- 75 -->
      <g transform="translate(23.39625 214.399453) scale(0.07 -0.07)">
       <defs>
        <path id="DejaVuSans-37" d="M 525 4666 
L 3525 4666 
L 3525 4397 
L 1831 0 
L 1172 0 
L 2766 4134 
L 525 4134 
L 525 4666 
z
" transform="scale(0.015625)"/>
       </defs>
       <use xlink:href="#DejaVuSans-37"/>
       <use xlink:href="#DejaVuSans-35" transform="translate(63.623047 0)"/>
      </g>
     </g>
    </g>
    <g id="ytick_5">
     <g id="line2d_23">
      <path d="M 39.30375 182.906667 
L 345.46925 182.906667 
" clip-path="url(#p9419c8b877)" style="fill: none; stroke: #b0b0b0; stroke-opacity: 0.3; stroke-width: 0.8; stroke-linecap: square"/>
     </g>
     <g id="line2d_24">
      <g>
       <use xlink:href="#m4126316833" x="39.30375" y="182.906667" style="stroke: #000000; stroke-width: 0.8"/>
      </g>
     </g>
     <g id="text_13">
      <!-- 100 -->
      <g transform="translate(18.9425 185.56612) scale(0.07 -0.07)">
       <use xlink:href="#DejaVuSans-31"/>
       <use xlink:href="#DejaVuSans-30" transform="translate(63.623047 0)"/>
       <use xlink:href="#DejaVuSans-30" transform="translate(127.246094 0)"/>
      </g>
     </g>
    </g>
    <g id="ytick_6">
     <g id="line2d_25">
      <path d="M 39.30375 154.073333 
L 345.46925 154.073333 
" clip-path="url(#p9419c8b877)" style="fill: none; stroke: #b0b0b0; stroke-opacity: 0.3; stroke-width: 0.8; stroke-linecap: square"/>
     </g>
     <g id="line2d_26">
      <g>
       <use xlink:href="#m4126316833" x="39.30375" y="154.073333" style="stroke: #000000; stroke-width: 0.8"/>
      </g>
     </g>
     <g id="text_14">
      <!-- 125 -->
      <g transform="translate(18.9425 156.732786) scale(0.07 -0.07)">
       <use xlink:href="#DejaVuSans-31"/>
       <use xlink:href="#DejaVuSans-32" transform="translate(63.623047 0)"/>
       <use xlink:href="#DejaVuSans-35" transform="translate(127.246094 0)"/>
      </g>
     </g>
    </g>
    <g id="ytick_7">
     <g id="line2d_27">
      <path d="M 39.30375 125.24 
L 345.46925 125.24 
" clip-path="url(#p9419c8b877)" style="fill: none; stroke: #b0b0b0; stroke-opacity: 0.3; stroke-width: 0.8; stroke-linecap: square"/>
     </g>
     <g id="line2d_28">
      <g>
       <use xlink:href="#m4126316833" x="39.30375" y="125.24" style="stroke: #000000; stroke-width: 0.8"/>
      </g>
     </g>
     <g id="text_15">
      <!-- 150 -->
      <g transform="translate(18.9425 127.899453) scale(0.07 -0.07)">
       <use xlink:href="#DejaVuSans-31"/>
       <use xlink:href="#DejaVuSans-35" transform="translate(63.623047 0)"/>
       <use xlink:href="#DejaVuSans-30" transform="translate(127.246094 0)"/>
      </g>
     </g>
    </g>
    <g id="ytick_8">
     <g id="line2d_29">
      <path d="M 39.30375 96.406667 
L 345.46925 96.406667 
" clip-path="url(#p9419c8b877)" style="fill: none; stroke: #b0b0b0; stroke-opacity: 0.3; stroke-width: 0.8; stroke-linecap: square"/>
     </g>
     <g id="line2d_30">
      <g>
       <use xlink:href="#m4126316833" x="39.30375" y="96.406667" style="stroke: #000000; stroke-width: 0.8"/>
      </g>
     </g>
     <g id="text_16">
      <!-- 175 -->
      <g transform="translate(18.9425 99.06612) scale(0.07 -0.07)">
       <use xlink:href="#DejaVuSans-31"/>
       <use xlink:href="#DejaVuSans-37" transform="translate(63.623047 0)"/>
       <use xlink:href="#DejaVuSans-35" transform="translate(127.246094 0)"/>
      </g>
     </g>
    </g>
    <g id="ytick_9">
     <g id="line2d_31">
      <path d="M 39.30375 67.573333 
L 345.46925 67.573333 
" clip-path="url(#p9419c8b877)" style="fill: none; stroke: #b0b0b0; stroke-opacity: 0.3; stroke-width: 0.8; stroke-linecap: square"/>
     </g>
     <g id="line2d_32">
      <g>
       <use xlink:href="#m4126316833" x="39.30375" y="67.573333" style="stroke: #000000; stroke-width: 0.8"/>
      </g>
     </g>
     <g id="text_17">
      <!-- 200 -->
      <g transform="translate(18.9425 70.232786) scale(0.07 -0.07)">
       <use xlink:href="#DejaVuSans-32"/>
       <use xlink:href="#DejaVuSans-30" transform="translate(63.623047 0)"/>
       <use xlink:href="#DejaVuSans-30" transform="translate(127.246094 0)"/>
      </g>
     </g>
    </g>
    <g id="text_18">
     <!-- Instances solved -->
     <g transform="translate(13.27875 210.519375) rotate(-90) scale(0.08 -0.08)">
      <defs>
       <path id="DejaVuSans-49" d="M 628 4666 
L 1259 4666 
L 1259 0 
L 628 0 
L 628 4666 
z
" transform="scale(0.015625)"/>
       <path id="DejaVuSans-6e" d="M 3513 2113 
L 3513 0 
L 2938 0 
L 2938 2094 
Q 2938 2591 2744 2837 
Q 2550 3084 2163 3084 
Q 1697 3084 1428 2787 
Q 1159 2491 1159 1978 
L 1159 0 
L 581 0 
L 581 3500 
L 1159 3500 
L 1159 2956 
Q 1366 3272 1645 3428 
Q 1925 3584 2291 3584 
Q 2894 3584 3203 3211 
Q 3513 2838 3513 2113 
z
" transform="scale(0.015625)"/>
       <path id="DejaVuSans-74" d="M 1172 4494 
L 1172 3500 
L 2356 3500 
L 2356 3053 
L 1172 3053 
L 1172 1153 
Q 1172 725 1289 603 
Q 1406 481 1766 481 
L 2356 481 
L 2356 0 
L 1766 0 
Q 1100 0 847 248 
Q 594 497 594 1153 
L 594 3053 
L 172 3053 
L 172 3500 
L 594 3500 
L 594 4494 
L 1172 4494 
z
" transform="scale(0.015625)"/>
       <path id="DejaVuSans-61" d="M 2194 1759 
Q 1497 1759 1228 1600 
Q 959 1441 959 1056 
Q 959 750 1161 570 
Q 1363 391 1709 391 
Q 2188 391 2477 730 
Q 2766 1069 2766 1631 
L 2766 1759 
L 2194 1759 
z
M 3341 1997 
L 3341 0 
L 2766 0 
L 2766 531 
Q 2569 213 2275 61 
Q 1981 -91 1556 -91 
Q 1019 -91 701 211 
Q 384 513 384 1019 
Q 384 1609 779 1909 
Q 1175 2209 1959 2209 
L 2766 2209 
L 2766 2266 
Q 2766 2663 2505 2880 
Q 2244 3097 1772 3097 
Q 1472 3097 1187 3025 
Q 903 2953 641 2809 
L 641 3341 
Q 956 3463 1253 3523 
Q 1550 3584 1831 3584 
Q 2591 3584 2966 3190 
Q 3341 2797 3341 1997 
z
" transform="scale(0.015625)"/>
       <path id="DejaVuSans-63" d="M 3122 3366 
L 3122 2828 
Q 2878 2963 2633 3030 
Q 2388 3097 2138 3097 
Q 1578 3097 1268 2742 
Q 959 2388 959 1747 
Q 959 1106 1268 751 
Q 1578 397 2138 397 
Q 2388 397 2633 464 
Q 2878 531 3122 666 
L 3122 134 
Q 2881 22 2623 -34 
Q 2366 -91 2075 -91 
Q 1284 -91 818 406 
Q 353 903 353 1747 
Q 353 2603 823 3093 
Q 1294 3584 2113 3584 
Q 2378 3584 2631 3529 
Q 2884 3475 3122 3366 
z
" transform="scale(0.015625)"/>
       <path id="DejaVuSans-6f" d="M 1959 3097 
Q 1497 3097 1228 2736 
Q 959 2375 959 1747 
Q 959 1119 1226 758 
Q 1494 397 1959 397 
Q 2419 397 2687 759 
Q 2956 1122 2956 1747 
Q 2956 2369 2687 2733 
Q 2419 3097 1959 3097 
z
M 1959 3584 
Q 2709 3584 3137 3096 
Q 3566 2609 3566 1747 
Q 3566 888 3137 398 
Q 2709 -91 1959 -91 
Q 1206 -91 779 398 
Q 353 888 353 1747 
Q 353 2609 779 3096 
Q 1206 3584 1959 3584 
z
" transform="scale(0.015625)"/>
       <path id="DejaVuSans-6c" d="M 603 4863 
L 1178 4863 
L 1178 0 
L 603 0 
L 603 4863 
z
" transform="scale(0.015625)"/>
       <path id="DejaVuSans-76" d="M 191 3500 
L 800 3500 
L 1894 563 
L 2988 3500 
L 3597 3500 
L 2284 0 
L 1503 0 
L 191 3500 
z
" transform="scale(0.015625)"/>
       <path id="DejaVuSans-64" d="M 2906 2969 
L 2906 4863 
L 3481 4863 
L 3481 0 
L 2906 0 
L 2906 525 
Q 2725 213 2448 61 
Q 2172 -91 1784 -91 
Q 1150 -91 751 415 
Q 353 922 353 1747 
Q 353 2572 751 3078 
Q 1150 3584 1784 3584 
Q 2172 3584 2448 3432 
Q 2725 3281 2906 2969 
z
M 947 1747 
Q 947 1113 1208 752 
Q 1469 391 1925 391 
Q 2381 391 2643 752 
Q 2906 1113 2906 1747 
Q 2906 2381 2643 2742 
Q 2381 3103 1925 3103 
Q 1469 3103 1208 2742 
Q 947 2381 947 1747 
z
" transform="scale(0.015625)"/>
      </defs>
      <use xlink:href="#DejaVuSans-49"/>
      <use xlink:href="#DejaVuSans-6e" transform="translate(29.492188 0)"/>
      <use xlink:href="#DejaVuSans-73" transform="translate(92.871094 0)"/>
      <use xlink:href="#DejaVuSans-74" transform="translate(144.970703 0)"/>
      <use xlink:href="#DejaVuSans-61" transform="translate(184.179688 0)"/>
      <use xlink:href="#DejaVuSans-6e" transform="translate(245.458984 0)"/>
      <use xlink:href="#DejaVuSans-63" transform="translate(308.837891 0)"/>
      <use xlink:href="#DejaVuSans-65" transform="translate(363.818359 0)"/>
      <use xlink:href="#DejaVuSans-73" transform="translate(425.341797 0)"/>
      <use xlink:href="#DejaVuSans-20" transform="translate(477.441406 0)"/>
      <use xlink:href="#DejaVuSans-73" transform="translate(509.228516 0)"/>
      <use xlink:href="#DejaVuSans-6f" transform="translate(561.328125 0)"/>
      <use xlink:href="#DejaVuSans-6c" transform="translate(622.509766 0)"/>
      <use xlink:href="#DejaVuSans-76" transform="translate(650.292969 0)"/>
      <use xlink:href="#DejaVuSans-65" transform="translate(709.472656 0)"/>
      <use xlink:href="#DejaVuSans-64" transform="translate(770.996094 0)"/>
     </g>
    </g>
   </g>
   <g id="line2d_33">
    <path d="M 39.30375 298.24 
L 40.600685 298.24 
L 40.600685 297.086667 
L 41.535783 297.086667 
L 41.535783 295.933333 
L 41.536077 295.933333 
L 41.536077 294.78 
L 42.224834 294.78 
L 42.224834 293.626667 
L 42.522763 293.626667 
L 42.522763 292.473333 
L 42.589521 292.473333 
L 42.589521 291.32 
L 42.616082 291.32 
L 42.616082 290.166667 
L 43.813276 290.166667 
L 43.813276 289.013333 
L 43.979304 289.013333 
L 43.979304 287.86 
L 44.070829 287.86 
L 44.070829 286.706667 
L 44.084152 286.706667 
L 44.084152 285.553333 
L 44.27724 285.553333 
L 44.27724 284.4 
L 44.582259 284.4 
L 44.582259 283.246667 
L 44.602815 283.246667 
L 44.602815 282.093333 
L 45.197027 282.093333 
L 45.197027 280.94 
L 46.631393 280.94 
L 46.631393 279.786667 
L 47.212138 279.786667 
L 47.212138 278.633333 
L 48.063156 278.633333 
L 48.063156 277.48 
L 48.363815 277.48 
L 48.363815 276.326667 
L 50.438243 276.326667 
L 50.438243 275.173333 
L 51.884804 275.173333 
L 51.884804 274.02 
L 51.897888 274.02 
L 51.897888 272.866667 
L 55.208779 272.866667 
L 55.208779 271.713333 
L 56.525211 271.713333 
L 56.525211 270.56 
L 58.50574 270.56 
L 58.50574 269.406667 
L 59.001288 269.406667 
L 59.001288 268.253333 
L 59.336148 268.253333 
L 59.336148 267.1 
L 60.126696 267.1 
L 60.126696 265.946667 
L 63.925099 265.946667 
L 63.925099 264.793333 
L 65.199419 264.793333 
L 65.199419 263.64 
L 65.668262 263.64 
L 65.668262 262.486667 
L 66.603928 262.486667 
L 66.603928 261.333333 
L 72.333241 261.333333 
L 72.333241 260.18 
L 86.986877 260.18 
L 86.986877 259.026667 
L 88.93874 259.026667 
L 88.93874 257.873333 
L 102.381406 257.873333 
L 102.381406 256.72 
L 129.6114 256.72 
L 129.6114 255.566667 
L 143.50025 255.566667 
L 143.50025 254.413333 
L 145.527518 254.413333 
L 145.527518 253.26 
L 147.015367 253.26 
L 147.015367 252.106667 
L 165.512155 252.106667 
L 165.512155 250.953333 
L 180.747697 250.953333 
L 180.747697 249.8 
L 199.216261 249.8 
L 199.216261 248.646667 
L 214.585375 248.646667 
L 214.585375 247.493333 
L 245.172396 247.493333 
L 245.172396 246.34 
L 245.387359 246.34 
L 245.387359 245.186667 
L 257.142564 245.186667 
L 257.142564 244.033333 
L 345.46925 244.033333 
L 345.46925 244.033333 
" clip-path="url(#p9419c8b877)" style="fill: none; stroke: #1f77b4; stroke-width: 1.5; stroke-linecap: square"/>
   </g>
   <g id="line2d_34">
    <path d="M 39.30375 298.24 
L 44.32498 298.24 
L 44.32498 297.086667 
L 45.84039 297.086667 
L 45.84039 295.933333 
L 46.324501 295.933333 
L 46.324501 294.78 
L 49.675712 294.78 
L 49.675712 293.626667 
L 345.46925 293.626667 
L 345.46925 293.626667 
" clip-path="url(#p9419c8b877)" style="fill: none; stroke: #ff7f0e; stroke-width: 1.5; stroke-linecap: square"/>
   </g>
   <g id="line2d_35">
    <path d="M 39.30375 298.24 
L 40.411935 298.24 
L 40.516927 292.473333 
L 40.571252 292.473333 
L 40.612741 289.013333 
L 40.731862 289.013333 
L 40.731862 287.86 
L 40.85019 287.86 
L 40.89515 284.4 
L 40.96761 284.4 
L 41.072237 279.786667 
L 41.246206 279.786667 
L 41.289597 277.48 
L 41.376539 277.48 
L 41.471938 270.56 
L 41.575308 270.56 
L 41.649252 267.1 
L 41.699134 267.1 
L 41.726511 264.793333 
L 41.825437 264.793333 
L 41.907041 261.333333 
L 42.140929 261.333333 
L 42.174422 259.026667 
L 42.348985 259.026667 
L 42.399382 255.566667 
L 42.550407 255.566667 
L 42.550407 254.413333 
L 42.899913 254.413333 
L 42.899913 253.26 
L 43.076637 253.26 
L 43.180308 249.8 
L 43.32631 249.8 
L 43.32631 248.646667 
L 44.129811 248.646667 
L 44.129811 247.493333 
L 44.559251 247.493333 
L 44.559251 246.34 
L 45.597371 246.34 
L 45.597371 245.186667 
L 46.386443 245.186667 
L 46.386443 244.033333 
L 47.13622 244.033333 
L 47.13622 242.88 
L 48.644917 242.88 
L 48.644917 241.726667 
L 49.081333 241.726667 
L 49.081333 240.573333 
L 54.18674 240.573333 
L 54.18674 239.42 
L 56.766841 239.42 
L 56.766841 238.266667 
L 59.552094 238.266667 
L 59.601061 235.96 
L 59.863348 235.96 
L 59.863348 234.806667 
L 61.287487 234.806667 
L 61.287487 233.653333 
L 61.626295 233.653333 
L 61.626295 232.5 
L 62.569771 232.5 
L 62.674086 229.04 
L 63.974562 229.04 
L 63.974562 227.886667 
L 66.254963 227.886667 
L 66.254963 226.733333 
L 67.824115 226.733333 
L 67.824115 225.58 
L 72.284384 225.58 
L 72.284384 224.426667 
L 73.750051 224.426667 
L 73.750051 223.273333 
L 74.749974 223.273333 
L 74.749974 222.12 
L 75.700909 222.12 
L 75.700909 220.966667 
L 81.741441 220.966667 
L 81.741441 219.813333 
L 82.862822 219.813333 
L 82.862822 218.66 
L 83.009564 218.66 
L 83.009564 217.506667 
L 86.217393 217.506667 
L 86.217393 216.353333 
L 92.068893 216.353333 
L 92.068893 215.2 
L 96.306874 215.2 
L 96.306874 214.046667 
L 105.593748 214.046667 
L 105.593748 212.893333 
L 106.33481 212.893333 
L 106.33481 211.74 
L 110.825584 211.74 
L 110.825584 210.586667 
L 117.311488 210.586667 
L 117.311488 209.433333 
L 129.562565 209.433333 
L 129.562565 208.28 
L 147.818903 208.28 
L 147.818903 207.126667 
L 155.260198 207.126667 
L 155.260198 205.973333 
L 157.099609 205.973333 
L 157.099609 204.82 
L 159.422108 204.82 
L 159.422108 203.666667 
L 188.88195 203.666667 
L 188.88195 202.513333 
L 199.149203 202.513333 
L 199.149203 201.36 
L 200.554475 201.36 
L 200.554475 200.206667 
L 208.200072 200.206667 
L 208.200072 199.053333 
L 209.681745 199.053333 
L 209.681745 197.9 
L 217.776735 197.9 
L 217.776735 196.746667 
L 221.364309 196.746667 
L 221.364309 195.593333 
L 243.869174 195.593333 
L 243.869174 194.44 
L 254.176234 194.44 
L 254.176234 193.286667 
L 255.962792 193.286667 
L 255.962792 192.133333 
L 286.996413 192.133333 
L 286.996413 190.98 
L 295.966321 190.98 
L 295.966321 189.826667 
L 303.246522 189.826667 
L 303.246522 188.673333 
L 308.212985 188.673333 
L 308.212985 187.52 
L 309.261198 187.52 
L 309.261198 186.366667 
L 345.46925 186.366667 
L 345.46925 186.366667 
" clip-path="url(#p9419c8b877)" style="fill: none; stroke: #2ca02c; stroke-width: 1.5; stroke-linecap: square"/>
   </g>
   <g id="line2d_36">
    <path d="M 39.30375 298.24 
L 40.571877 298.24 
L 40.571877 297.086667 
L 40.600284 297.086667 
L 40.600284 295.933333 
L 40.718983 295.933333 
L 40.718983 294.78 
L 40.82246 294.78 
L 40.82246 293.626667 
L 40.995127 293.626667 
L 40.995127 292.473333 
L 41.012994 292.473333 
L 41.012994 291.32 
L 41.039059 291.32 
L 41.039059 290.166667 
L 41.152622 290.166667 
L 41.152622 289.013333 
L 41.153203 289.013333 
L 41.153203 287.86 
L 41.280843 287.86 
L 41.280843 286.706667 
L 41.625817 286.706667 
L 41.625817 285.553333 
L 41.758813 285.553333 
L 41.758813 284.4 
L 41.96511 284.4 
L 41.96511 283.246667 
L 42.076322 283.246667 
L 42.076322 282.093333 
L 42.243452 282.093333 
L 42.243452 280.94 
L 42.287286 280.94 
L 42.287286 279.786667 
L 42.691864 279.786667 
L 42.691864 278.633333 
L 42.898895 278.633333 
L 42.898895 277.48 
L 44.796437 277.48 
L 44.796437 276.326667 
L 44.888975 276.326667 
L 44.888975 275.173333 
L 45.10224 275.173333 
L 45.10224 274.02 
L 45.629668 274.02 
L 45.629668 272.866667 
L 46.860774 272.866667 
L 46.860774 271.713333 
L 46.866291 271.713333 
L 46.866291 270.56 
L 47.548627 270.56 
L 47.548627 269.406667 
L 52.814023 269.406667 
L 52.814023 268.253333 
L 53.581981 268.253333 
L 53.581981 267.1 
L 56.553601 267.1 
L 56.553601 265.946667 
L 60.319873 265.946667 
L 60.319873 264.793333 
L 62.563291 264.793333 
L 62.563291 263.64 
L 79.463598 263.64 
L 79.463598 262.486667 
L 84.198423 262.486667 
L 84.198423 261.333333 
L 110.59016 261.333333 
L 110.59016 260.18 
L 114.38614 260.18 
L 114.38614 259.026667 
L 161.407661 259.026667 
L 161.407661 257.873333 
L 161.702653 257.873333 
L 161.702653 256.72 
L 172.090383 256.72 
L 172.090383 255.566667 
L 217.123497 255.566667 
L 217.123497 254.413333 
L 231.354558 254.413333 
L 231.354558 253.26 
L 257.561546 253.26 
L 257.561546 252.106667 
L 258.745157 252.106667 
L 258.745157 250.953333 
L 265.353051 250.953333 
L 265.353051 249.8 
L 269.226831 249.8 
L 269.226831 248.646667 
L 279.05469 248.646667 
L 279.05469 247.493333 
L 337.240544 247.493333 
L 337.240544 246.34 
L 345.46925 246.34 
L 345.46925 246.34 
" clip-path="url(#p9419c8b877)" style="fill: none; stroke: #d62728; stroke-width: 1.5; stroke-linecap: square"/>
   </g>
   <g id="line2d_37">
    <path d="M 39.30375 298.24 
L 40.471882 298.24 
L 40.471882 297.086667 
L 40.564517 297.086667 
L 40.564517 295.933333 
L 40.6099 295.933333 
L 40.6099 294.78 
L 40.816276 294.78 
L 40.816276 293.626667 
L 42.829916 293.626667 
L 42.829916 292.473333 
L 43.755728 292.473333 
L 43.755728 291.32 
L 43.981776 291.32 
L 43.981776 290.166667 
L 54.274822 290.166667 
L 54.274822 289.013333 
L 56.275526 289.013333 
L 56.275526 287.86 
L 57.381955 287.86 
L 57.381955 286.706667 
L 60.134111 286.706667 
L 60.134111 285.553333 
L 62.558013 285.553333 
L 62.558013 284.4 
L 64.038196 284.4 
L 64.038196 283.246667 
L 64.235335 283.246667 
L 64.235335 282.093333 
L 65.045435 282.093333 
L 65.045435 280.94 
L 66.943315 280.94 
L 66.943315 279.786667 
L 77.104812 279.786667 
L 77.104812 278.633333 
L 83.611654 278.633333 
L 83.611654 277.48 
L 92.759224 277.48 
L 92.759224 276.326667 
L 97.765838 276.326667 
L 97.765838 275.173333 
L 98.746762 275.173333 
L 98.746762 274.02 
L 102.723399 274.02 
L 102.723399 272.866667 
L 105.198983 272.866667 
L 105.198983 271.713333 
L 119.827579 271.713333 
L 119.827579 270.56 
L 131.109978 270.56 
L 131.109978 269.406667 
L 156.215709 269.406667 
L 156.215709 268.253333 
L 185.6444 268.253333 
L 185.6444 267.1 
L 192.635168 267.1 
L 192.635168 265.946667 
L 193.464797 265.946667 
L 193.464797 264.793333 
L 210.448598 264.793333 
L 210.448598 263.64 
L 211.779773 263.64 
L 211.779773 262.486667 
L 214.764355 262.486667 
L 214.764355 261.333333 
L 214.794771 261.333333 
L 214.794771 260.18 
L 228.957503 260.18 
L 228.957503 259.026667 
L 233.761001 259.026667 
L 233.761001 257.873333 
L 246.436221 257.873333 
L 246.436221 256.72 
L 267.061725 256.72 
L 267.061725 255.566667 
L 306.749325 255.566667 
L 306.749325 254.413333 
L 345.46925 254.413333 
L 345.46925 254.413333 
" clip-path="url(#p9419c8b877)" style="fill: none; stroke: #9467bd; stroke-width: 1.5; stroke-linecap: square"/>
   </g>
   <g id="patch_3">
    <path d="M 39.30375 298.24 
L 39.30375 56.04 
" style="fill: none; stroke: #000000; stroke-width: 0.8; stroke-linejoin: miter; stroke-linecap: square"/>
   </g>
   <g id="patch_4">
    <path d="M 345.46925 298.24 
L 345.46925 56.04 
" style="fill: none; stroke: #000000; stroke-width: 0.8; stroke-linejoin: miter; stroke-linecap: square"/>
   </g>
   <g id="patch_5">
    <path d="M 39.30375 298.24 
L 345.46925 298.24 
" style="fill: none; stroke: #000000; stroke-width: 0.8; stroke-linejoin: miter; stroke-linecap: square"/>
   </g>
   <g id="patch_6">
    <path d="M 39.30375 56.04 
L 345.46925 56.04 
" style="fill: none; stroke: #000000; stroke-width: 0.8; stroke-linejoin: miter; stroke-linecap: square"/>
   </g>
   <g id="text_19">
    <!-- Solved (SAT/UNSAT) -->
    <g transform="translate(141.672203 50.04) scale(0.09 -0.09)">
     <defs>
      <path id="DejaVuSans-Bold-53" d="M 3834 4519 
L 3834 3531 
Q 3450 3703 3084 3790 
Q 2719 3878 2394 3878 
Q 1963 3878 1756 3759 
Q 1550 3641 1550 3391 
Q 1550 3203 1689 3098 
Q 1828 2994 2194 2919 
L 2706 2816 
Q 3484 2659 3812 2340 
Q 4141 2022 4141 1434 
Q 4141 663 3683 286 
Q 3225 -91 2284 -91 
Q 1841 -91 1394 -6 
Q 947 78 500 244 
L 500 1259 
Q 947 1022 1364 901 
Q 1781 781 2169 781 
Q 2563 781 2772 912 
Q 2981 1044 2981 1288 
Q 2981 1506 2839 1625 
Q 2697 1744 2272 1838 
L 1806 1941 
Q 1106 2091 782 2419 
Q 459 2747 459 3303 
Q 459 4000 909 4375 
Q 1359 4750 2203 4750 
Q 2588 4750 2994 4692 
Q 3400 4634 3834 4519 
z
" transform="scale(0.015625)"/>
      <path id="DejaVuSans-Bold-6f" d="M 2203 2784 
Q 1831 2784 1636 2517 
Q 1441 2250 1441 1747 
Q 1441 1244 1636 976 
Q 1831 709 2203 709 
Q 2569 709 2762 976 
Q 2956 1244 2956 1747 
Q 2956 2250 2762 2517 
Q 2569 2784 2203 2784 
z
M 2203 3584 
Q 3106 3584 3614 3096 
Q 4122 2609 4122 1747 
Q 4122 884 3614 396 
Q 3106 -91 2203 -91 
Q 1297 -91 786 396 
Q 275 884 275 1747 
Q 275 2609 786 3096 
Q 1297 3584 2203 3584 
z
" transform="scale(0.015625)"/>
      <path id="DejaVuSans-Bold-6c" d="M 538 4863 
L 1656 4863 
L 1656 0 
L 538 0 
L 538 4863 
z
" transform="scale(0.015625)"/>
      <path id="DejaVuSans-Bold-76" d="M 97 3500 
L 1216 3500 
L 2088 1081 
L 2956 3500 
L 4078 3500 
L 2700 0 
L 1472 0 
L 97 3500 
z
" transform="scale(0.015625)"/>
      <path id="DejaVuSans-Bold-65" d="M 4031 1759 
L 4031 1441 
L 1416 1441 
Q 1456 1047 1700 850 
Q 1944 653 2381 653 
Q 2734 653 3104 758 
Q 3475 863 3866 1075 
L 3866 213 
Q 3469 63 3072 -14 
Q 2675 -91 2278 -91 
Q 1328 -91 801 392 
Q 275 875 275 1747 
Q 275 2603 792 3093 
Q 1309 3584 2216 3584 
Q 3041 3584 3536 3087 
Q 4031 2591 4031 1759 
z
M 2881 2131 
Q 2881 2450 2695 2645 
Q 2509 2841 2209 2841 
Q 1884 2841 1681 2658 
Q 1478 2475 1428 2131 
L 2881 2131 
z
" transform="scale(0.015625)"/>
      <path id="DejaVuSans-Bold-64" d="M 2919 2988 
L 2919 4863 
L 4044 4863 
L 4044 0 
L 2919 0 
L 2919 506 
Q 2688 197 2409 53 
Q 2131 -91 1766 -91 
Q 1119 -91 703 423 
Q 288 938 288 1747 
Q 288 2556 703 3070 
Q 1119 3584 1766 3584 
Q 2128 3584 2408 3439 
Q 2688 3294 2919 2988 
z
M 2181 722 
Q 2541 722 2730 984 
Q 2919 1247 2919 1747 
Q 2919 2247 2730 2509 
Q 2541 2772 2181 2772 
Q 1825 2772 1636 2509 
Q 1447 2247 1447 1747 
Q 1447 1247 1636 984 
Q 1825 722 2181 722 
z
" transform="scale(0.015625)"/>
      <path id="DejaVuSans-Bold-20" transform="scale(0.015625)"/>
      <path id="DejaVuSans-Bold-28" d="M 2413 -844 
L 1484 -844 
Q 1006 -72 778 623 
Q 550 1319 550 2003 
Q 550 2688 779 3389 
Q 1009 4091 1484 4856 
L 2413 4856 
Q 2013 4116 1813 3408 
Q 1613 2700 1613 2009 
Q 1613 1319 1811 609 
Q 2009 -100 2413 -844 
z
" transform="scale(0.015625)"/>
      <path id="DejaVuSans-Bold-41" d="M 3419 850 
L 1538 850 
L 1241 0 
L 31 0 
L 1759 4666 
L 3194 4666 
L 4922 0 
L 3713 0 
L 3419 850 
z
M 1838 1716 
L 3116 1716 
L 2478 3572 
L 1838 1716 
z
" transform="scale(0.015625)"/>
      <path id="DejaVuSans-Bold-54" d="M 31 4666 
L 4331 4666 
L 4331 3756 
L 2784 3756 
L 2784 0 
L 1581 0 
L 1581 3756 
L 31 3756 
L 31 4666 
z
" transform="scale(0.015625)"/>
      <path id="DejaVuSans-Bold-2f" d="M 1644 4666 
L 2338 4666 
L 691 -594 
L 0 -594 
L 1644 4666 
z
" transform="scale(0.015625)"/>
      <path id="DejaVuSans-Bold-55" d="M 588 4666 
L 1791 4666 
L 1791 1869 
Q 1791 1291 1980 1042 
Q 2169 794 2597 794 
Q 3028 794 3217 1042 
Q 3406 1291 3406 1869 
L 3406 4666 
L 4609 4666 
L 4609 1869 
Q 4609 878 4112 393 
Q 3616 -91 2597 -91 
Q 1581 -91 1084 393 
Q 588 878 588 1869 
L 588 4666 
z
" transform="scale(0.015625)"/>
      <path id="DejaVuSans-Bold-4e" d="M 588 4666 
L 1931 4666 
L 3628 1466 
L 3628 4666 
L 4769 4666 
L 4769 0 
L 3425 0 
L 1728 3200 
L 1728 0 
L 588 0 
L 588 4666 
z
" transform="scale(0.015625)"/>
      <path id="DejaVuSans-Bold-29" d="M 513 -844 
Q 913 -100 1113 609 
Q 1313 1319 1313 2009 
Q 1313 2700 1113 3408 
Q 913 4116 513 4856 
L 1441 4856 
Q 1916 4091 2145 3389 
Q 2375 2688 2375 2003 
Q 2375 1319 2147 623 
Q 1919 -72 1441 -844 
L 513 -844 
z
" transform="scale(0.015625)"/>
     </defs>
     <use xlink:href="#DejaVuSans-Bold-53"/>
     <use xlink:href="#DejaVuSans-Bold-6f" transform="translate(72.021484 0)"/>
     <use xlink:href="#DejaVuSans-Bold-6c" transform="translate(140.722656 0)"/>
     <use xlink:href="#DejaVuSans-Bold-76" transform="translate(175 0)"/>
     <use xlink:href="#DejaVuSans-Bold-65" transform="translate(240.185547 0)"/>
     <use xlink:href="#DejaVuSans-Bold-64" transform="translate(308.007812 0)"/>
     <use xlink:href="#DejaVuSans-Bold-20" transform="translate(379.589844 0)"/>
     <use xlink:href="#DejaVuSans-Bold-28" transform="translate(414.404297 0)"/>
     <use xlink:href="#DejaVuSans-Bold-53" transform="translate(460.107422 0)"/>
     <use xlink:href="#DejaVuSans-Bold-41" transform="translate(532.128906 0)"/>
     <use xlink:href="#DejaVuSans-Bold-54" transform="translate(601.771484 0)"/>
     <use xlink:href="#DejaVuSans-Bold-2f" transform="translate(669.984375 0)"/>
     <use xlink:href="#DejaVuSans-Bold-55" transform="translate(706.507812 0)"/>
     <use xlink:href="#DejaVuSans-Bold-4e" transform="translate(787.708984 0)"/>
     <use xlink:href="#DejaVuSans-Bold-53" transform="translate(871.400391 0)"/>
     <use xlink:href="#DejaVuSans-Bold-41" transform="translate(943.421875 0)"/>
     <use xlink:href="#DejaVuSans-Bold-54" transform="translate(1013.064453 0)"/>
     <use xlink:href="#DejaVuSans-Bold-29" transform="translate(1081.277344 0)"/>
    </g>
   </g>
   <g id="legend_1">
    <g id="patch_7">
     <path d="M 255.278625 294.74 
L 340.56925 294.74 
Q 341.96925 294.74 341.96925 293.34 
L 341.96925 242.666563 
Q 341.96925 241.266563 340.56925 241.266563 
L 255.278625 241.266563 
Q 253.878625 241.266563 253.878625 242.666563 
L 253.878625 293.34 
Q 253.878625 294.74 255.278625 294.74 
z
" style="fill: #ffffff; opacity: 0.8; stroke: #cccccc; stroke-linejoin: miter"/>
    </g>
    <g id="line2d_38">
     <path d="M 256.678625 246.935469 
L 263.678625 246.935469 
L 263.678625 246.935469 
L 270.678625 246.935469 
L 270.678625 246.935469 
" style="fill: none; stroke: #1f77b4; stroke-width: 1.5; stroke-linecap: square"/>
    </g>
    <g id="text_20">
     <!-- exact (47/200) -->
     <g transform="translate(276.278625 249.385469) scale(0.07 -0.07)">
      <defs>
       <path id="DejaVuSans-78" d="M 3513 3500 
L 2247 1797 
L 3578 0 
L 2900 0 
L 1881 1375 
L 863 0 
L 184 0 
L 1544 1831 
L 300 3500 
L 978 3500 
L 1906 2253 
L 2834 3500 
L 3513 3500 
z
" transform="scale(0.015625)"/>
       <path id="DejaVuSans-2f" d="M 1625 4666 
L 2156 4666 
L 531 -594 
L 0 -594 
L 1625 4666 
z
" transform="scale(0.015625)"/>
      </defs>
      <use xlink:href="#DejaVuSans-65"/>
      <use xlink:href="#DejaVuSans-78" transform="translate(59.773438 0)"/>
      <use xlink:href="#DejaVuSans-61" transform="translate(118.953125 0)"/>
      <use xlink:href="#DejaVuSans-63" transform="translate(180.232422 0)"/>
      <use xlink:href="#DejaVuSans-74" transform="translate(235.212891 0)"/>
      <use xlink:href="#DejaVuSans-20" transform="translate(274.421875 0)"/>
      <use xlink:href="#DejaVuSans-28" transform="translate(306.208984 0)"/>
      <use xlink:href="#DejaVuSans-34" transform="translate(345.222656 0)"/>
      <use xlink:href="#DejaVuSans-37" transform="translate(408.845703 0)"/>
      <use xlink:href="#DejaVuSans-2f" transform="translate(472.46875 0)"/>
      <use xlink:href="#DejaVuSans-32" transform="translate(506.160156 0)"/>
      <use xlink:href="#DejaVuSans-30" transform="translate(569.783203 0)"/>
      <use xlink:href="#DejaVuSans-30" transform="translate(633.40625 0)"/>
      <use xlink:href="#DejaVuSans-29" transform="translate(697.029297 0)"/>
     </g>
    </g>
    <g id="line2d_39">
     <path d="M 256.678625 257.210156 
L 263.678625 257.210156 
L 263.678625 257.210156 
L 270.678625 257.210156 
L 270.678625 257.210156 
" style="fill: none; stroke: #ff7f0e; stroke-width: 1.5; stroke-linecap: square"/>
    </g>
    <g id="text_21">
     <!-- highs (4/200) -->
     <g transform="translate(276.278625 259.660156) scale(0.07 -0.07)">
      <defs>
       <path id="DejaVuSans-68" d="M 3513 2113 
L 3513 0 
L 2938 0 
L 2938 2094 
Q 2938 2591 2744 2837 
Q 2550 3084 2163 3084 
Q 1697 3084 1428 2787 
Q 1159 2491 1159 1978 
L 1159 0 
L 581 0 
L 581 4863 
L 1159 4863 
L 1159 2956 
Q 1366 3272 1645 3428 
Q 1925 3584 2291 3584 
Q 2894 3584 3203 3211 
Q 3513 2838 3513 2113 
z
" transform="scale(0.015625)"/>
       <path id="DejaVuSans-67" d="M 2906 1791 
Q 2906 2416 2648 2759 
Q 2391 3103 1925 3103 
Q 1463 3103 1205 2759 
Q 947 2416 947 1791 
Q 947 1169 1205 825 
Q 1463 481 1925 481 
Q 2391 481 2648 825 
Q 2906 1169 2906 1791 
z
M 3481 434 
Q 3481 -459 3084 -895 
Q 2688 -1331 1869 -1331 
Q 1566 -1331 1297 -1286 
Q 1028 -1241 775 -1147 
L 775 -588 
Q 1028 -725 1275 -790 
Q 1522 -856 1778 -856 
Q 2344 -856 2625 -561 
Q 2906 -266 2906 331 
L 2906 616 
Q 2728 306 2450 153 
Q 2172 0 1784 0 
Q 1141 0 747 490 
Q 353 981 353 1791 
Q 353 2603 747 3093 
Q 1141 3584 1784 3584 
Q 2172 3584 2450 3431 
Q 2728 3278 2906 2969 
L 2906 3500 
L 3481 3500 
L 3481 434 
z
" transform="scale(0.015625)"/>
      </defs>
      <use xlink:href="#DejaVuSans-68"/>
      <use xlink:href="#DejaVuSans-69" transform="translate(63.378906 0)"/>
      <use xlink:href="#DejaVuSans-67" transform="translate(91.162109 0)"/>
      <use xlink:href="#DejaVuSans-68" transform="translate(154.638672 0)"/>
      <use xlink:href="#DejaVuSans-73" transform="translate(218.017578 0)"/>
      <use xlink:href="#DejaVuSans-20" transform="translate(270.117188 0)"/>
      <use xlink:href="#DejaVuSans-28" transform="translate(301.904297 0)"/>
      <use xlink:href="#DejaVuSans-34" transform="translate(340.917969 0)"/>
      <use xlink:href="#DejaVuSans-2f" transform="translate(404.541016 0)"/>
      <use xlink:href="#DejaVuSans-32" transform="translate(438.232422 0)"/>
      <use xlink:href="#DejaVuSans-30" transform="translate(501.855469 0)"/>
      <use xlink:href="#DejaVuSans-30" transform="translate(565.478516 0)"/>
      <use xlink:href="#DejaVuSans-29" transform="translate(629.101562 0)"/>
     </g>
    </g>
    <g id="line2d_40">
     <path d="M 256.678625 267.484844 
L 263.678625 267.484844 
L 263.678625 267.484844 
L 270.678625 267.484844 
L 270.678625 267.484844 
" style="fill: none; stroke: #2ca02c; stroke-width: 1.5; stroke-linecap: square"/>
    </g>
    <g id="text_22">
     <!-- ortools (97/200) -->
     <g transform="translate(276.278625 269.934844) scale(0.07 -0.07)">
      <defs>
       <path id="DejaVuSans-72" d="M 2631 2963 
Q 2534 3019 2420 3045 
Q 2306 3072 2169 3072 
Q 1681 3072 1420 2755 
Q 1159 2438 1159 1844 
L 1159 0 
L 581 0 
L 581 3500 
L 1159 3500 
L 1159 2956 
Q 1341 3275 1631 3429 
Q 1922 3584 2338 3584 
Q 2397 3584 2469 3576 
Q 2541 3569 2628 3553 
L 2631 2963 
z
" transform="scale(0.015625)"/>
       <path id="DejaVuSans-39" d="M 703 97 
L 703 672 
Q 941 559 1184 500 
Q 1428 441 1663 441 
Q 2288 441 2617 861 
Q 2947 1281 2994 2138 
Q 2813 1869 2534 1725 
Q 2256 1581 1919 1581 
Q 1219 1581 811 2004 
Q 403 2428 403 3163 
Q 403 3881 828 4315 
Q 1253 4750 1959 4750 
Q 2769 4750 3195 4129 
Q 3622 3509 3622 2328 
Q 3622 1225 3098 567 
Q 2575 -91 1691 -91 
Q 1453 -91 1209 -44 
Q 966 3 703 97 
z
M 1959 2075 
Q 2384 2075 2632 2365 
Q 2881 2656 2881 3163 
Q 2881 3666 2632 3958 
Q 2384 4250 1959 4250 
Q 1534 4250 1286 3958 
Q 1038 3666 1038 3163 
Q 1038 2656 1286 2365 
Q 1534 2075 1959 2075 
z
" transform="scale(0.015625)"/>
      </defs>
      <use xlink:href="#DejaVuSans-6f"/>
      <use xlink:href="#DejaVuSans-72" transform="translate(61.181641 0)"/>
      <use xlink:href="#DejaVuSans-74" transform="translate(102.294922 0)"/>
      <use xlink:href="#DejaVuSans-6f" transform="translate(141.503906 0)"/>
      <use xlink:href="#DejaVuSans-6f" transform="translate(202.685547 0)"/>
      <use xlink:href="#DejaVuSans-6c" transform="translate(263.867188 0)"/>
      <use xlink:href="#DejaVuSans-73" transform="translate(291.650391 0)"/>
      <use xlink:href="#DejaVuSans-20" transform="translate(343.75 0)"/>
      <use xlink:href="#DejaVuSans-28" transform="translate(375.537109 0)"/>
      <use xlink:href="#DejaVuSans-39" transform="translate(414.550781 0)"/>
      <use xlink:href="#DejaVuSans-37" transform="translate(478.173828 0)"/>
      <use xlink:href="#DejaVuSans-2f" transform="translate(541.796875 0)"/>
      <use xlink:href="#DejaVuSans-32" transform="translate(575.488281 0)"/>
      <use xlink:href="#DejaVuSans-30" transform="translate(639.111328 0)"/>
      <use xlink:href="#DejaVuSans-30" transform="translate(702.734375 0)"/>
      <use xlink:href="#DejaVuSans-29" transform="translate(766.357422 0)"/>
     </g>
    </g>
    <g id="line2d_41">
     <path d="M 256.678625 277.759531 
L 263.678625 277.759531 
L 263.678625 277.759531 
L 270.678625 277.759531 
L 270.678625 277.759531 
" style="fill: none; stroke: #d62728; stroke-width: 1.5; stroke-linecap: square"/>
    </g>
    <g id="text_23">
     <!-- pumpkin (45/200) -->
     <g transform="translate(276.278625 280.209531) scale(0.07 -0.07)">
      <defs>
       <path id="DejaVuSans-70" d="M 1159 525 
L 1159 -1331 
L 581 -1331 
L 581 3500 
L 1159 3500 
L 1159 2969 
Q 1341 3281 1617 3432 
Q 1894 3584 2278 3584 
Q 2916 3584 3314 3078 
Q 3713 2572 3713 1747 
Q 3713 922 3314 415 
Q 2916 -91 2278 -91 
Q 1894 -91 1617 61 
Q 1341 213 1159 525 
z
M 3116 1747 
Q 3116 2381 2855 2742 
Q 2594 3103 2138 3103 
Q 1681 3103 1420 2742 
Q 1159 2381 1159 1747 
Q 1159 1113 1420 752 
Q 1681 391 2138 391 
Q 2594 391 2855 752 
Q 3116 1113 3116 1747 
z
" transform="scale(0.015625)"/>
       <path id="DejaVuSans-75" d="M 544 1381 
L 544 3500 
L 1119 3500 
L 1119 1403 
Q 1119 906 1312 657 
Q 1506 409 1894 409 
Q 2359 409 2629 706 
Q 2900 1003 2900 1516 
L 2900 3500 
L 3475 3500 
L 3475 0 
L 2900 0 
L 2900 538 
Q 2691 219 2414 64 
Q 2138 -91 1772 -91 
Q 1169 -91 856 284 
Q 544 659 544 1381 
z
M 1991 3584 
L 1991 3584 
z
" transform="scale(0.015625)"/>
       <path id="DejaVuSans-6b" d="M 581 4863 
L 1159 4863 
L 1159 1991 
L 2875 3500 
L 3609 3500 
L 1753 1863 
L 3688 0 
L 2938 0 
L 1159 1709 
L 1159 0 
L 581 0 
L 581 4863 
z
" transform="scale(0.015625)"/>
      </defs>
      <use xlink:href="#DejaVuSans-70"/>
      <use xlink:href="#DejaVuSans-75" transform="translate(63.476562 0)"/>
      <use xlink:href="#DejaVuSans-6d" transform="translate(126.855469 0)"/>
      <use xlink:href="#DejaVuSans-70" transform="translate(224.267578 0)"/>
      <use xlink:href="#DejaVuSans-6b" transform="translate(287.744141 0)"/>
      <use xlink:href="#DejaVuSans-69" transform="translate(345.654297 0)"/>
      <use xlink:href="#DejaVuSans-6e" transform="translate(373.4375 0)"/>
      <use xlink:href="#DejaVuSans-20" transform="translate(436.816406 0)"/>
      <use xlink:href="#DejaVuSans-28" transform="translate(468.603516 0)"/>
      <use xlink:href="#DejaVuSans-34" transform="translate(507.617188 0)"/>
      <use xlink:href="#DejaVuSans-35" transform="translate(571.240234 0)"/>
      <use xlink:href="#DejaVuSans-2f" transform="translate(634.863281 0)"/>
      <use xlink:href="#DejaVuSans-32" transform="translate(668.554688 0)"/>
      <use xlink:href="#DejaVuSans-30" transform="translate(732.177734 0)"/>
      <use xlink:href="#DejaVuSans-30" transform="translate(795.800781 0)"/>
      <use xlink:href="#DejaVuSans-29" transform="translate(859.423828 0)"/>
     </g>
    </g>
    <g id="line2d_42">
     <path d="M 256.678625 288.034219 
L 263.678625 288.034219 
L 263.678625 288.034219 
L 270.678625 288.034219 
L 270.678625 288.034219 
" style="fill: none; stroke: #9467bd; stroke-width: 1.5; stroke-linecap: square"/>
    </g>
    <g id="text_24">
     <!-- z3 (38/200) -->
     <g transform="translate(276.278625 290.484219) scale(0.07 -0.07)">
      <defs>
       <path id="DejaVuSans-7a" d="M 353 3500 
L 3084 3500 
L 3084 2975 
L 922 459 
L 3084 459 
L 3084 0 
L 275 0 
L 275 525 
L 2438 3041 
L 353 3041 
L 353 3500 
z
" transform="scale(0.015625)"/>
       <path id="DejaVuSans-38" d="M 2034 2216 
Q 1584 2216 1326 1975 
Q 1069 1734 1069 1313 
Q 1069 891 1326 650 
Q 1584 409 2034 409 
Q 2484 409 2743 651 
Q 3003 894 3003 1313 
Q 3003 1734 2745 1975 
Q 2488 2216 2034 2216 
z
M 1403 2484 
Q 997 2584 770 2862 
Q 544 3141 544 3541 
Q 544 4100 942 4425 
Q 1341 4750 2034 4750 
Q 2731 4750 3128 4425 
Q 3525 4100 3525 3541 
Q 3525 3141 3298 2862 
Q 3072 2584 2669 2484 
Q 3125 2378 3379 2068 
Q 3634 1759 3634 1313 
Q 3634 634 3220 271 
Q 2806 -91 2034 -91 
Q 1263 -91 848 271 
Q 434 634 434 1313 
Q 434 1759 690 2068 
Q 947 2378 1403 2484 
z
M 1172 3481 
Q 1172 3119 1398 2916 
Q 1625 2713 2034 2713 
Q 2441 2713 2670 2916 
Q 2900 3119 2900 3481 
Q 2900 3844 2670 4047 
Q 2441 4250 2034 4250 
Q 1625 4250 1398 4047 
Q 1172 3844 1172 3481 
z
" transform="scale(0.015625)"/>
      </defs>
      <use xlink:href="#DejaVuSans-7a"/>
      <use xlink:href="#DejaVuSans-33" transform="translate(52.490234 0)"/>
      <use xlink:href="#DejaVuSans-20" transform="translate(116.113281 0)"/>
      <use xlink:href="#DejaVuSans-28" transform="translate(147.900391 0)"/>
      <use xlink:href="#DejaVuSans-33" transform="translate(186.914062 0)"/>
      <use xlink:href="#DejaVuSans-38" transform="translate(250.537109 0)"/>
      <use xlink:href="#DejaVuSans-2f" transform="translate(314.160156 0)"/>
      <use xlink:href="#DejaVuSans-32" transform="translate(347.851562 0)"/>
      <use xlink:href="#DejaVuSans-30" transform="translate(411.474609 0)"/>
      <use xlink:href="#DejaVuSans-30" transform="translate(475.097656 0)"/>
      <use xlink:href="#DejaVuSans-29" transform="translate(538.720703 0)"/>
     </g>
    </g>
   </g>
  </g>
  <g id="axes_2">
   <g id="table_1">
    <g id="patch_8">
     <path d="M 399.92825 149.180404 
L 450.955833 149.180404 
L 450.955833 135.200606 
L 399.92825 135.200606 
z
" style="fill: #dde8f0; stroke: #000000; stroke-linejoin: miter"/>
    </g>
    <g id="text_25">
     <!-- 10s -->
     <g transform="translate(418.488526 144.122068) scale(0.07 -0.07)">
      <defs>
       <path id="DejaVuSans-Bold-31" d="M 750 831 
L 1813 831 
L 1813 3847 
L 722 3622 
L 722 4441 
L 1806 4666 
L 2950 4666 
L 2950 831 
L 4013 831 
L 4013 0 
L 750 0 
L 750 831 
z
" transform="scale(0.015625)"/>
       <path id="DejaVuSans-Bold-30" d="M 2944 2338 
Q 2944 3213 2780 3570 
Q 2616 3928 2228 3928 
Q 1841 3928 1675 3570 
Q 1509 3213 1509 2338 
Q 1509 1453 1675 1090 
Q 1841 728 2228 728 
Q 2613 728 2778 1090 
Q 2944 1453 2944 2338 
z
M 4147 2328 
Q 4147 1169 3647 539 
Q 3147 -91 2228 -91 
Q 1306 -91 806 539 
Q 306 1169 306 2328 
Q 306 3491 806 4120 
Q 1306 4750 2228 4750 
Q 3147 4750 3647 4120 
Q 4147 3491 4147 2328 
z
" transform="scale(0.015625)"/>
       <path id="DejaVuSans-Bold-73" d="M 3272 3391 
L 3272 2541 
Q 2913 2691 2578 2766 
Q 2244 2841 1947 2841 
Q 1628 2841 1473 2761 
Q 1319 2681 1319 2516 
Q 1319 2381 1436 2309 
Q 1553 2238 1856 2203 
L 2053 2175 
Q 2913 2066 3209 1816 
Q 3506 1566 3506 1031 
Q 3506 472 3093 190 
Q 2681 -91 1863 -91 
Q 1516 -91 1145 -36 
Q 775 19 384 128 
L 384 978 
Q 719 816 1070 734 
Q 1422 653 1784 653 
Q 2113 653 2278 743 
Q 2444 834 2444 1013 
Q 2444 1163 2330 1236 
Q 2216 1309 1875 1350 
L 1678 1375 
Q 931 1469 631 1722 
Q 331 1975 331 2491 
Q 331 3047 712 3315 
Q 1094 3584 1881 3584 
Q 2191 3584 2531 3537 
Q 2872 3491 3272 3391 
z
" transform="scale(0.015625)"/>
      </defs>
      <use xlink:href="#DejaVuSans-Bold-31"/>
      <use xlink:href="#DejaVuSans-Bold-30" transform="translate(69.580078 0)"/>
      <use xlink:href="#DejaVuSans-Bold-73" transform="translate(139.160156 0)"/>
     </g>
    </g>
    <g id="patch_9">
     <path d="M 450.955833 149.180404 
L 501.983417 149.180404 
L 501.983417 135.200606 
L 450.955833 135.200606 
z
" style="fill: #dde8f0; stroke: #000000; stroke-linejoin: miter"/>
    </g>
    <g id="text_26">
     <!-- 30s -->
     <g transform="translate(469.516109 144.122068) scale(0.07 -0.07)">
      <defs>
       <path id="DejaVuSans-Bold-33" d="M 2981 2516 
Q 3453 2394 3698 2092 
Q 3944 1791 3944 1325 
Q 3944 631 3412 270 
Q 2881 -91 1863 -91 
Q 1503 -91 1142 -33 
Q 781 25 428 141 
L 428 1069 
Q 766 900 1098 814 
Q 1431 728 1753 728 
Q 2231 728 2486 893 
Q 2741 1059 2741 1369 
Q 2741 1688 2480 1852 
Q 2219 2016 1709 2016 
L 1228 2016 
L 1228 2791 
L 1734 2791 
Q 2188 2791 2409 2933 
Q 2631 3075 2631 3366 
Q 2631 3634 2415 3781 
Q 2200 3928 1806 3928 
Q 1516 3928 1219 3862 
Q 922 3797 628 3669 
L 628 4550 
Q 984 4650 1334 4700 
Q 1684 4750 2022 4750 
Q 2931 4750 3382 4451 
Q 3834 4153 3834 3553 
Q 3834 3144 3618 2883 
Q 3403 2622 2981 2516 
z
" transform="scale(0.015625)"/>
      </defs>
      <use xlink:href="#DejaVuSans-Bold-33"/>
      <use xlink:href="#DejaVuSans-Bold-30" transform="translate(69.580078 0)"/>
      <use xlink:href="#DejaVuSans-Bold-73" transform="translate(139.160156 0)"/>
     </g>
    </g>
    <g id="patch_10">
     <path d="M 501.983417 149.180404 
L 553.011 149.180404 
L 553.011 135.200606 
L 501.983417 135.200606 
z
" style="fill: #dde8f0; stroke: #000000; stroke-linejoin: miter"/>
    </g>
    <g id="text_27">
     <!-- 60s -->
     <g transform="translate(520.543693 144.122068) scale(0.07 -0.07)">
      <defs>
       <path id="DejaVuSans-Bold-36" d="M 2316 2303 
Q 2000 2303 1842 2098 
Q 1684 1894 1684 1484 
Q 1684 1075 1842 870 
Q 2000 666 2316 666 
Q 2634 666 2792 870 
Q 2950 1075 2950 1484 
Q 2950 1894 2792 2098 
Q 2634 2303 2316 2303 
z
M 3803 4544 
L 3803 3681 
Q 3506 3822 3243 3889 
Q 2981 3956 2731 3956 
Q 2194 3956 1894 3657 
Q 1594 3359 1544 2772 
Q 1750 2925 1990 3001 
Q 2231 3078 2516 3078 
Q 3231 3078 3670 2659 
Q 4109 2241 4109 1563 
Q 4109 813 3618 361 
Q 3128 -91 2303 -91 
Q 1394 -91 895 523 
Q 397 1138 397 2266 
Q 397 3422 980 4083 
Q 1563 4744 2578 4744 
Q 2900 4744 3203 4694 
Q 3506 4644 3803 4544 
z
" transform="scale(0.015625)"/>
      </defs>
      <use xlink:href="#DejaVuSans-Bold-36"/>
      <use xlink:href="#DejaVuSans-Bold-30" transform="translate(69.580078 0)"/>
      <use xlink:href="#DejaVuSans-Bold-73" transform="translate(139.160156 0)"/>
     </g>
    </g>
    <g id="patch_11">
     <path d="M 553.011 149.180404 
L 604.038583 149.180404 
L 604.038583 135.200606 
L 553.011 135.200606 
z
" style="fill: #dde8f0; stroke: #000000; stroke-linejoin: miter"/>
    </g>
    <g id="text_28">
     <!-- 120s -->
     <g transform="translate(569.136042 144.122068) scale(0.07 -0.07)">
      <defs>
       <path id="DejaVuSans-Bold-32" d="M 1844 884 
L 3897 884 
L 3897 0 
L 506 0 
L 506 884 
L 2209 2388 
Q 2438 2594 2547 2791 
Q 2656 2988 2656 3200 
Q 2656 3528 2436 3728 
Q 2216 3928 1850 3928 
Q 1569 3928 1234 3808 
Q 900 3688 519 3450 
L 519 4475 
Q 925 4609 1322 4679 
Q 1719 4750 2100 4750 
Q 2938 4750 3402 4381 
Q 3866 4013 3866 3353 
Q 3866 2972 3669 2642 
Q 3472 2313 2841 1759 
L 1844 884 
z
" transform="scale(0.015625)"/>
      </defs>
      <use xlink:href="#DejaVuSans-Bold-31"/>
      <use xlink:href="#DejaVuSans-Bold-32" transform="translate(69.580078 0)"/>
      <use xlink:href="#DejaVuSans-Bold-30" transform="translate(139.160156 0)"/>
      <use xlink:href="#DejaVuSans-Bold-73" transform="translate(208.740234 0)"/>
     </g>
    </g>
    <g id="patch_12">
     <path d="M 604.038583 149.180404 
L 655.066167 149.180404 
L 655.066167 135.200606 
L 604.038583 135.200606 
z
" style="fill: #dde8f0; stroke: #000000; stroke-linejoin: miter"/>
    </g>
    <g id="text_29">
     <!-- 300s -->
     <g transform="translate(620.163625 144.122068) scale(0.07 -0.07)">
      <use xlink:href="#DejaVuSans-Bold-33"/>
      <use xlink:href="#DejaVuSans-Bold-30" transform="translate(69.580078 0)"/>
      <use xlink:href="#DejaVuSans-Bold-30" transform="translate(139.160156 0)"/>
      <use xlink:href="#DejaVuSans-Bold-73" transform="translate(208.740234 0)"/>
     </g>
    </g>
    <g id="patch_13">
     <path d="M 655.066167 149.180404 
L 706.09375 149.180404 
L 706.09375 135.200606 
L 655.066167 135.200606 
z
" style="fill: #dde8f0; stroke: #000000; stroke-linejoin: miter"/>
    </g>
    <g id="text_30">
     <!-- TL -->
     <g transform="translate(675.962146 140.202833) scale(0.07 -0.07)">
      <defs>
       <path id="DejaVuSans-Bold-4c" d="M 588 4666 
L 1791 4666 
L 1791 909 
L 3903 909 
L 3903 0 
L 588 0 
L 588 4666 
z
" transform="scale(0.015625)"/>
      </defs>
      <use xlink:href="#DejaVuSans-Bold-54"/>
      <use xlink:href="#DejaVuSans-Bold-4c" transform="translate(68.212891 0)"/>
     </g>
     <!-- (600s) -->
     <g transform="translate(667.99199 148.041302) scale(0.07 -0.07)">
      <use xlink:href="#DejaVuSans-Bold-28"/>
      <use xlink:href="#DejaVuSans-Bold-36" transform="translate(45.703125 0)"/>
      <use xlink:href="#DejaVuSans-Bold-30" transform="translate(115.283203 0)"/>
      <use xlink:href="#DejaVuSans-Bold-30" transform="translate(184.863281 0)"/>
      <use xlink:href="#DejaVuSans-Bold-73" transform="translate(254.443359 0)"/>
      <use xlink:href="#DejaVuSans-Bold-29" transform="translate(313.964844 0)"/>
     </g>
    </g>
    <g id="patch_14">
     <path d="M 363.236 163.160202 
L 399.92825 163.160202 
L 399.92825 149.180404 
L 363.236 149.180404 
z
" style="fill: #f0f0f0; stroke: #000000; stroke-linejoin: miter"/>
    </g>
    <g id="text_31">
     <!-- exact -->
     <g transform="translate(366.905225 158.101866) scale(0.07 -0.07)">
      <use xlink:href="#DejaVuSans-65"/>
      <use xlink:href="#DejaVuSans-78" transform="translate(59.773438 0)"/>
      <use xlink:href="#DejaVuSans-61" transform="translate(118.953125 0)"/>
      <use xlink:href="#DejaVuSans-63" transform="translate(180.232422 0)"/>
      <use xlink:href="#DejaVuSans-74" transform="translate(235.212891 0)"/>
     </g>
    </g>
    <g id="patch_15">
     <path d="M 399.92825 163.160202 
L 450.955833 163.160202 
L 450.955833 149.180404 
L 399.92825 149.180404 
z
" style="fill: #1f77b4; fill-opacity: 0.25; stroke: #000000; stroke-linejoin: miter"/>
    </g>
    <g id="text_32">
     <!-- 12/200 -->
     <g transform="translate(413.128604 158.101866) scale(0.07 -0.07)">
      <use xlink:href="#DejaVuSans-31"/>
      <use xlink:href="#DejaVuSans-32" transform="translate(63.623047 0)"/>
      <use xlink:href="#DejaVuSans-2f" transform="translate(127.246094 0)"/>
      <use xlink:href="#DejaVuSans-32" transform="translate(160.9375 0)"/>
      <use xlink:href="#DejaVuSans-30" transform="translate(224.560547 0)"/>
      <use xlink:href="#DejaVuSans-30" transform="translate(288.183594 0)"/>
     </g>
    </g>
    <g id="patch_16">
     <path d="M 450.955833 163.160202 
L 501.983417 163.160202 
L 501.983417 149.180404 
L 450.955833 149.180404 
z
" style="fill: #1f77b4; fill-opacity: 0.25; stroke: #000000; stroke-linejoin: miter"/>
    </g>
    <g id="text_33">
     <!-- 22/200 -->
     <g transform="translate(464.156187 158.101866) scale(0.07 -0.07)">
      <use xlink:href="#DejaVuSans-32"/>
      <use xlink:href="#DejaVuSans-32" transform="translate(63.623047 0)"/>
      <use xlink:href="#DejaVuSans-2f" transform="translate(127.246094 0)"/>
      <use xlink:href="#DejaVuSans-32" transform="translate(160.9375 0)"/>
      <use xlink:href="#DejaVuSans-30" transform="translate(224.560547 0)"/>
      <use xlink:href="#DejaVuSans-30" transform="translate(288.183594 0)"/>
     </g>
    </g>
    <g id="patch_17">
     <path d="M 501.983417 163.160202 
L 553.011 163.160202 
L 553.011 149.180404 
L 501.983417 149.180404 
z
" style="fill: #1f77b4; fill-opacity: 0.25; stroke: #000000; stroke-linejoin: miter"/>
    </g>
    <g id="text_34">
     <!-- 32/200 -->
     <g transform="translate(515.183771 158.101866) scale(0.07 -0.07)">
      <use xlink:href="#DejaVuSans-33"/>
      <use xlink:href="#DejaVuSans-32" transform="translate(63.623047 0)"/>
      <use xlink:href="#DejaVuSans-2f" transform="translate(127.246094 0)"/>
      <use xlink:href="#DejaVuSans-32" transform="translate(160.9375 0)"/>
      <use xlink:href="#DejaVuSans-30" transform="translate(224.560547 0)"/>
      <use xlink:href="#DejaVuSans-30" transform="translate(288.183594 0)"/>
     </g>
    </g>
    <g id="patch_18">
     <path d="M 553.011 163.160202 
L 604.038583 163.160202 
L 604.038583 149.180404 
L 553.011 149.180404 
z
" style="fill: #1f77b4; fill-opacity: 0.25; stroke: #000000; stroke-linejoin: miter"/>
    </g>
    <g id="text_35">
     <!-- 35/200 -->
     <g transform="translate(566.211354 158.101866) scale(0.07 -0.07)">
      <use xlink:href="#DejaVuSans-33"/>
      <use xlink:href="#DejaVuSans-35" transform="translate(63.623047 0)"/>
      <use xlink:href="#DejaVuSans-2f" transform="translate(127.246094 0)"/>
      <use xlink:href="#DejaVuSans-32" transform="translate(160.9375 0)"/>
      <use xlink:href="#DejaVuSans-30" transform="translate(224.560547 0)"/>
      <use xlink:href="#DejaVuSans-30" transform="translate(288.183594 0)"/>
     </g>
    </g>
    <g id="patch_19">
     <path d="M 604.038583 163.160202 
L 655.066167 163.160202 
L 655.066167 149.180404 
L 604.038583 149.180404 
z
" style="fill: #1f77b4; fill-opacity: 0.25; stroke: #000000; stroke-linejoin: miter"/>
    </g>
    <g id="text_36">
     <!-- 42/200 -->
     <g transform="translate(617.238937 158.101866) scale(0.07 -0.07)">
      <use xlink:href="#DejaVuSans-34"/>
      <use xlink:href="#DejaVuSans-32" transform="translate(63.623047 0)"/>
      <use xlink:href="#DejaVuSans-2f" transform="translate(127.246094 0)"/>
      <use xlink:href="#DejaVuSans-32" transform="translate(160.9375 0)"/>
      <use xlink:href="#DejaVuSans-30" transform="translate(224.560547 0)"/>
      <use xlink:href="#DejaVuSans-30" transform="translate(288.183594 0)"/>
     </g>
    </g>
    <g id="patch_20">
     <path d="M 655.066167 163.160202 
L 706.09375 163.160202 
L 706.09375 149.180404 
L 655.066167 149.180404 
z
" style="fill: #1f77b4; fill-opacity: 0.25; stroke: #000000; stroke-linejoin: miter"/>
    </g>
    <g id="text_37">
     <!-- 47/200 -->
     <g transform="translate(668.266521 158.101866) scale(0.07 -0.07)">
      <use xlink:href="#DejaVuSans-34"/>
      <use xlink:href="#DejaVuSans-37" transform="translate(63.623047 0)"/>
      <use xlink:href="#DejaVuSans-2f" transform="translate(127.246094 0)"/>
      <use xlink:href="#DejaVuSans-32" transform="translate(160.9375 0)"/>
      <use xlink:href="#DejaVuSans-30" transform="translate(224.560547 0)"/>
      <use xlink:href="#DejaVuSans-30" transform="translate(288.183594 0)"/>
     </g>
    </g>
    <g id="patch_21">
     <path d="M 363.236 177.14 
L 399.92825 177.14 
L 399.92825 163.160202 
L 363.236 163.160202 
z
" style="fill: #f0f0f0; stroke: #000000; stroke-linejoin: miter"/>
    </g>
    <g id="text_38">
     <!-- highs -->
     <g transform="translate(366.905225 172.081664) scale(0.07 -0.07)">
      <use xlink:href="#DejaVuSans-68"/>
      <use xlink:href="#DejaVuSans-69" transform="translate(63.378906 0)"/>
      <use xlink:href="#DejaVuSans-67" transform="translate(91.162109 0)"/>
      <use xlink:href="#DejaVuSans-68" transform="translate(154.638672 0)"/>
      <use xlink:href="#DejaVuSans-73" transform="translate(218.017578 0)"/>
     </g>
    </g>
    <g id="patch_22">
     <path d="M 399.92825 177.14 
L 450.955833 177.14 
L 450.955833 163.160202 
L 399.92825 163.160202 
z
" style="fill: #ff7f0e; fill-opacity: 0.25; stroke: #000000; stroke-linejoin: miter"/>
    </g>
    <g id="text_39">
     <!-- 1/200 -->
     <g transform="translate(415.355479 172.081664) scale(0.07 -0.07)">
      <use xlink:href="#DejaVuSans-31"/>
      <use xlink:href="#DejaVuSans-2f" transform="translate(63.623047 0)"/>
      <use xlink:href="#DejaVuSans-32" transform="translate(97.314453 0)"/>
      <use xlink:href="#DejaVuSans-30" transform="translate(160.9375 0)"/>
      <use xlink:href="#DejaVuSans-30" transform="translate(224.560547 0)"/>
     </g>
    </g>
    <g id="patch_23">
     <path d="M 450.955833 177.14 
L 501.983417 177.14 
L 501.983417 163.160202 
L 450.955833 163.160202 
z
" style="fill: #ff7f0e; fill-opacity: 0.25; stroke: #000000; stroke-linejoin: miter"/>
    </g>
    <g id="text_40">
     <!-- 4/200 -->
     <g transform="translate(466.383062 172.081664) scale(0.07 -0.07)">
      <use xlink:href="#DejaVuSans-34"/>
      <use xlink:href="#DejaVuSans-2f" transform="translate(63.623047 0)"/>
      <use xlink:href="#DejaVuSans-32" transform="translate(97.314453 0)"/>
      <use xlink:href="#DejaVuSans-30" transform="translate(160.9375 0)"/>
      <use xlink:href="#DejaVuSans-30" transform="translate(224.560547 0)"/>
     </g>
    </g>
    <g id="patch_24">
     <path d="M 501.983417 177.14 
L 553.011 177.14 
L 553.011 163.160202 
L 501.983417 163.160202 
z
" style="fill: #ff7f0e; fill-opacity: 0.25; stroke: #000000; stroke-linejoin: miter"/>
    </g>
    <g id="text_41">
     <!-- 4/200 -->
     <g transform="translate(517.410646 172.081664) scale(0.07 -0.07)">
      <use xlink:href="#DejaVuSans-34"/>
      <use xlink:href="#DejaVuSans-2f" transform="translate(63.623047 0)"/>
      <use xlink:href="#DejaVuSans-32" transform="translate(97.314453 0)"/>
      <use xlink:href="#DejaVuSans-30" transform="translate(160.9375 0)"/>
      <use xlink:href="#DejaVuSans-30" transform="translate(224.560547 0)"/>
     </g>
    </g>
    <g id="patch_25">
     <path d="M 553.011 177.14 
L 604.038583 177.14 
L 604.038583 163.160202 
L 553.011 163.160202 
z
" style="fill: #ff7f0e; fill-opacity: 0.25; stroke: #000000; stroke-linejoin: miter"/>
    </g>
    <g id="text_42">
     <!-- 4/200 -->
     <g transform="translate(568.438229 172.081664) scale(0.07 -0.07)">
      <use xlink:href="#DejaVuSans-34"/>
      <use xlink:href="#DejaVuSans-2f" transform="translate(63.623047 0)"/>
      <use xlink:href="#DejaVuSans-32" transform="translate(97.314453 0)"/>
      <use xlink:href="#DejaVuSans-30" transform="translate(160.9375 0)"/>
      <use xlink:href="#DejaVuSans-30" transform="translate(224.560547 0)"/>
     </g>
    </g>
    <g id="patch_26">
     <path d="M 604.038583 177.14 
L 655.066167 177.14 
L 655.066167 163.160202 
L 604.038583 163.160202 
z
" style="fill: #ff7f0e; fill-opacity: 0.25; stroke: #000000; stroke-linejoin: miter"/>
    </g>
    <g id="text_43">
     <!-- 4/200 -->
     <g transform="translate(619.465812 172.081664) scale(0.07 -0.07)">
      <use xlink:href="#DejaVuSans-34"/>
      <use xlink:href="#DejaVuSans-2f" transform="translate(63.623047 0)"/>
      <use xlink:href="#DejaVuSans-32" transform="translate(97.314453 0)"/>
      <use xlink:href="#DejaVuSans-30" transform="translate(160.9375 0)"/>
      <use xlink:href="#DejaVuSans-30" transform="translate(224.560547 0)"/>
     </g>
    </g>
    <g id="patch_27">
     <path d="M 655.066167 177.14 
L 706.09375 177.14 
L 706.09375 163.160202 
L 655.066167 163.160202 
z
" style="fill: #ff7f0e; fill-opacity: 0.25; stroke: #000000; stroke-linejoin: miter"/>
    </g>
    <g id="text_44">
     <!-- 4/200 -->
     <g transform="translate(670.493396 172.081664) scale(0.07 -0.07)">
      <use xlink:href="#DejaVuSans-34"/>
      <use xlink:href="#DejaVuSans-2f" transform="translate(63.623047 0)"/>
      <use xlink:href="#DejaVuSans-32" transform="translate(97.314453 0)"/>
      <use xlink:href="#DejaVuSans-30" transform="translate(160.9375 0)"/>
      <use xlink:href="#DejaVuSans-30" transform="translate(224.560547 0)"/>
     </g>
    </g>
    <g id="patch_28">
     <path d="M 363.236 191.119798 
L 399.92825 191.119798 
L 399.92825 177.14 
L 363.236 177.14 
z
" style="fill: #f0f0f0; stroke: #000000; stroke-linejoin: miter"/>
    </g>
    <g id="text_45">
     <!-- ortools -->
     <g transform="translate(366.905225 186.061461) scale(0.07 -0.07)">
      <use xlink:href="#DejaVuSans-6f"/>
      <use xlink:href="#DejaVuSans-72" transform="translate(61.181641 0)"/>
      <use xlink:href="#DejaVuSans-74" transform="translate(102.294922 0)"/>
      <use xlink:href="#DejaVuSans-6f" transform="translate(141.503906 0)"/>
      <use xlink:href="#DejaVuSans-6f" transform="translate(202.685547 0)"/>
      <use xlink:href="#DejaVuSans-6c" transform="translate(263.867188 0)"/>
      <use xlink:href="#DejaVuSans-73" transform="translate(291.650391 0)"/>
     </g>
    </g>
    <g id="patch_29">
     <path d="M 399.92825 191.119798 
L 450.955833 191.119798 
L 450.955833 177.14 
L 399.92825 177.14 
z
" style="fill: #2ca02c; fill-opacity: 0.25; stroke: #000000; stroke-linejoin: miter"/>
    </g>
    <g id="text_46">
     <!-- 44/200 -->
     <g transform="translate(413.128604 186.061461) scale(0.07 -0.07)">
      <use xlink:href="#DejaVuSans-34"/>
      <use xlink:href="#DejaVuSans-34" transform="translate(63.623047 0)"/>
      <use xlink:href="#DejaVuSans-2f" transform="translate(127.246094 0)"/>
      <use xlink:href="#DejaVuSans-32" transform="translate(160.9375 0)"/>
      <use xlink:href="#DejaVuSans-30" transform="translate(224.560547 0)"/>
      <use xlink:href="#DejaVuSans-30" transform="translate(288.183594 0)"/>
     </g>
    </g>
    <g id="patch_30">
     <path d="M 450.955833 191.119798 
L 501.983417 191.119798 
L 501.983417 177.14 
L 450.955833 177.14 
z
" style="fill: #2ca02c; fill-opacity: 0.25; stroke: #000000; stroke-linejoin: miter"/>
    </g>
    <g id="text_47">
     <!-- 51/200 -->
     <g transform="translate(464.156187 186.061461) scale(0.07 -0.07)">
      <use xlink:href="#DejaVuSans-35"/>
      <use xlink:href="#DejaVuSans-31" transform="translate(63.623047 0)"/>
      <use xlink:href="#DejaVuSans-2f" transform="translate(127.246094 0)"/>
      <use xlink:href="#DejaVuSans-32" transform="translate(160.9375 0)"/>
      <use xlink:href="#DejaVuSans-30" transform="translate(224.560547 0)"/>
      <use xlink:href="#DejaVuSans-30" transform="translate(288.183594 0)"/>
     </g>
    </g>
    <g id="patch_31">
     <path d="M 501.983417 191.119798 
L 553.011 191.119798 
L 553.011 177.14 
L 501.983417 177.14 
z
" style="fill: #2ca02c; fill-opacity: 0.25; stroke: #000000; stroke-linejoin: miter"/>
    </g>
    <g id="text_48">
     <!-- 63/200 -->
     <g transform="translate(515.183771 186.061461) scale(0.07 -0.07)">
      <use xlink:href="#DejaVuSans-36"/>
      <use xlink:href="#DejaVuSans-33" transform="translate(63.623047 0)"/>
      <use xlink:href="#DejaVuSans-2f" transform="translate(127.246094 0)"/>
      <use xlink:href="#DejaVuSans-32" transform="translate(160.9375 0)"/>
      <use xlink:href="#DejaVuSans-30" transform="translate(224.560547 0)"/>
      <use xlink:href="#DejaVuSans-30" transform="translate(288.183594 0)"/>
     </g>
    </g>
    <g id="patch_32">
     <path d="M 553.011 191.119798 
L 604.038583 191.119798 
L 604.038583 177.14 
L 553.011 177.14 
z
" style="fill: #2ca02c; fill-opacity: 0.25; stroke: #000000; stroke-linejoin: miter"/>
    </g>
    <g id="text_49">
     <!-- 73/200 -->
     <g transform="translate(566.211354 186.061461) scale(0.07 -0.07)">
      <use xlink:href="#DejaVuSans-37"/>
      <use xlink:href="#DejaVuSans-33" transform="translate(63.623047 0)"/>
      <use xlink:href="#DejaVuSans-2f" transform="translate(127.246094 0)"/>
      <use xlink:href="#DejaVuSans-32" transform="translate(160.9375 0)"/>
      <use xlink:href="#DejaVuSans-30" transform="translate(224.560547 0)"/>
      <use xlink:href="#DejaVuSans-30" transform="translate(288.183594 0)"/>
     </g>
    </g>
    <g id="patch_33">
     <path d="M 604.038583 191.119798 
L 655.066167 191.119798 
L 655.066167 177.14 
L 604.038583 177.14 
z
" style="fill: #2ca02c; fill-opacity: 0.25; stroke: #000000; stroke-linejoin: miter"/>
    </g>
    <g id="text_50">
     <!-- 83/200 -->
     <g transform="translate(617.238937 186.061461) scale(0.07 -0.07)">
      <use xlink:href="#DejaVuSans-38"/>
      <use xlink:href="#DejaVuSans-33" transform="translate(63.623047 0)"/>
      <use xlink:href="#DejaVuSans-2f" transform="translate(127.246094 0)"/>
      <use xlink:href="#DejaVuSans-32" transform="translate(160.9375 0)"/>
      <use xlink:href="#DejaVuSans-30" transform="translate(224.560547 0)"/>
      <use xlink:href="#DejaVuSans-30" transform="translate(288.183594 0)"/>
     </g>
    </g>
    <g id="patch_34">
     <path d="M 655.066167 191.119798 
L 706.09375 191.119798 
L 706.09375 177.14 
L 655.066167 177.14 
z
" style="fill: #2ca02c; fill-opacity: 0.25; stroke: #000000; stroke-linejoin: miter"/>
    </g>
    <g id="text_51">
     <!-- 97/200 -->
     <g transform="translate(668.266521 186.061461) scale(0.07 -0.07)">
      <use xlink:href="#DejaVuSans-39"/>
      <use xlink:href="#DejaVuSans-37" transform="translate(63.623047 0)"/>
      <use xlink:href="#DejaVuSans-2f" transform="translate(127.246094 0)"/>
      <use xlink:href="#DejaVuSans-32" transform="translate(160.9375 0)"/>
      <use xlink:href="#DejaVuSans-30" transform="translate(224.560547 0)"/>
      <use xlink:href="#DejaVuSans-30" transform="translate(288.183594 0)"/>
     </g>
    </g>
    <g id="patch_35">
     <path d="M 363.236 205.099596 
L 399.92825 205.099596 
L 399.92825 191.119798 
L 363.236 191.119798 
z
" style="fill: #f0f0f0; stroke: #000000; stroke-linejoin: miter"/>
    </g>
    <g id="text_52">
     <!-- pumpkin -->
     <g transform="translate(366.905225 200.041259) scale(0.07 -0.07)">
      <use xlink:href="#DejaVuSans-70"/>
      <use xlink:href="#DejaVuSans-75" transform="translate(63.476562 0)"/>
      <use xlink:href="#DejaVuSans-6d" transform="translate(126.855469 0)"/>
      <use xlink:href="#DejaVuSans-70" transform="translate(224.267578 0)"/>
      <use xlink:href="#DejaVuSans-6b" transform="translate(287.744141 0)"/>
      <use xlink:href="#DejaVuSans-69" transform="translate(345.654297 0)"/>
      <use xlink:href="#DejaVuSans-6e" transform="translate(373.4375 0)"/>
     </g>
    </g>
    <g id="patch_36">
     <path d="M 399.92825 205.099596 
L 450.955833 205.099596 
L 450.955833 191.119798 
L 399.92825 191.119798 
z
" style="fill: #d62728; fill-opacity: 0.25; stroke: #000000; stroke-linejoin: miter"/>
    </g>
    <g id="text_53">
     <!-- 18/200 -->
     <g transform="translate(413.128604 200.041259) scale(0.07 -0.07)">
      <use xlink:href="#DejaVuSans-31"/>
      <use xlink:href="#DejaVuSans-38" transform="translate(63.623047 0)"/>
      <use xlink:href="#DejaVuSans-2f" transform="translate(127.246094 0)"/>
      <use xlink:href="#DejaVuSans-32" transform="translate(160.9375 0)"/>
      <use xlink:href="#DejaVuSans-30" transform="translate(224.560547 0)"/>
      <use xlink:href="#DejaVuSans-30" transform="translate(288.183594 0)"/>
     </g>
    </g>
    <g id="patch_37">
     <path d="M 450.955833 205.099596 
L 501.983417 205.099596 
L 501.983417 191.119798 
L 450.955833 191.119798 
z
" style="fill: #d62728; fill-opacity: 0.25; stroke: #000000; stroke-linejoin: miter"/>
    </g>
    <g id="text_54">
     <!-- 27/200 -->
     <g transform="translate(464.156187 200.041259) scale(0.07 -0.07)">
      <use xlink:href="#DejaVuSans-32"/>
      <use xlink:href="#DejaVuSans-37" transform="translate(63.623047 0)"/>
      <use xlink:href="#DejaVuSans-2f" transform="translate(127.246094 0)"/>
      <use xlink:href="#DejaVuSans-32" transform="translate(160.9375 0)"/>
      <use xlink:href="#DejaVuSans-30" transform="translate(224.560547 0)"/>
      <use xlink:href="#DejaVuSans-30" transform="translate(288.183594 0)"/>
     </g>
    </g>
    <g id="patch_38">
     <path d="M 501.983417 205.099596 
L 553.011 205.099596 
L 553.011 191.119798 
L 501.983417 191.119798 
z
" style="fill: #d62728; fill-opacity: 0.25; stroke: #000000; stroke-linejoin: miter"/>
    </g>
    <g id="text_55">
     <!-- 30/200 -->
     <g transform="translate(515.183771 200.041259) scale(0.07 -0.07)">
      <use xlink:href="#DejaVuSans-33"/>
      <use xlink:href="#DejaVuSans-30" transform="translate(63.623047 0)"/>
      <use xlink:href="#DejaVuSans-2f" transform="translate(127.246094 0)"/>
      <use xlink:href="#DejaVuSans-32" transform="translate(160.9375 0)"/>
      <use xlink:href="#DejaVuSans-30" transform="translate(224.560547 0)"/>
      <use xlink:href="#DejaVuSans-30" transform="translate(288.183594 0)"/>
     </g>
    </g>
    <g id="patch_39">
     <path d="M 553.011 205.099596 
L 604.038583 205.099596 
L 604.038583 191.119798 
L 553.011 191.119798 
z
" style="fill: #d62728; fill-opacity: 0.25; stroke: #000000; stroke-linejoin: miter"/>
    </g>
    <g id="text_56">
     <!-- 32/200 -->
     <g transform="translate(566.211354 200.041259) scale(0.07 -0.07)">
      <use xlink:href="#DejaVuSans-33"/>
      <use xlink:href="#DejaVuSans-32" transform="translate(63.623047 0)"/>
      <use xlink:href="#DejaVuSans-2f" transform="translate(127.246094 0)"/>
      <use xlink:href="#DejaVuSans-32" transform="translate(160.9375 0)"/>
      <use xlink:href="#DejaVuSans-30" transform="translate(224.560547 0)"/>
      <use xlink:href="#DejaVuSans-30" transform="translate(288.183594 0)"/>
     </g>
    </g>
    <g id="patch_40">
     <path d="M 604.038583 205.099596 
L 655.066167 205.099596 
L 655.066167 191.119798 
L 604.038583 191.119798 
z
" style="fill: #d62728; fill-opacity: 0.25; stroke: #000000; stroke-linejoin: miter"/>
    </g>
    <g id="text_57">
     <!-- 37/200 -->
     <g transform="translate(617.238937 200.041259) scale(0.07 -0.07)">
      <use xlink:href="#DejaVuSans-33"/>
      <use xlink:href="#DejaVuSans-37" transform="translate(63.623047 0)"/>
      <use xlink:href="#DejaVuSans-2f" transform="translate(127.246094 0)"/>
      <use xlink:href="#DejaVuSans-32" transform="translate(160.9375 0)"/>
      <use xlink:href="#DejaVuSans-30" transform="translate(224.560547 0)"/>
      <use xlink:href="#DejaVuSans-30" transform="translate(288.183594 0)"/>
     </g>
    </g>
    <g id="patch_41">
     <path d="M 655.066167 205.099596 
L 706.09375 205.099596 
L 706.09375 191.119798 
L 655.066167 191.119798 
z
" style="fill: #d62728; fill-opacity: 0.25; stroke: #000000; stroke-linejoin: miter"/>
    </g>
    <g id="text_58">
     <!-- 45/200 -->
     <g transform="translate(668.266521 200.041259) scale(0.07 -0.07)">
      <use xlink:href="#DejaVuSans-34"/>
      <use xlink:href="#DejaVuSans-35" transform="translate(63.623047 0)"/>
      <use xlink:href="#DejaVuSans-2f" transform="translate(127.246094 0)"/>
      <use xlink:href="#DejaVuSans-32" transform="translate(160.9375 0)"/>
      <use xlink:href="#DejaVuSans-30" transform="translate(224.560547 0)"/>
      <use xlink:href="#DejaVuSans-30" transform="translate(288.183594 0)"/>
     </g>
    </g>
    <g id="patch_42">
     <path d="M 363.236 219.079394 
L 399.92825 219.079394 
L 399.92825 205.099596 
L 363.236 205.099596 
z
" style="fill: #f0f0f0; stroke: #000000; stroke-linejoin: miter"/>
    </g>
    <g id="text_59">
     <!-- z3 -->
     <g transform="translate(366.905225 214.021057) scale(0.07 -0.07)">
      <use xlink:href="#DejaVuSans-7a"/>
      <use xlink:href="#DejaVuSans-33" transform="translate(52.490234 0)"/>
     </g>
    </g>
    <g id="patch_43">
     <path d="M 399.92825 219.079394 
L 450.955833 219.079394 
L 450.955833 205.099596 
L 399.92825 205.099596 
z
" style="fill: #9467bd; fill-opacity: 0.25; stroke: #000000; stroke-linejoin: miter"/>
    </g>
    <g id="text_60">
     <!-- 7/200 -->
     <g transform="translate(415.355479 214.021057) scale(0.07 -0.07)">
      <use xlink:href="#DejaVuSans-37"/>
      <use xlink:href="#DejaVuSans-2f" transform="translate(63.623047 0)"/>
      <use xlink:href="#DejaVuSans-32" transform="translate(97.314453 0)"/>
      <use xlink:href="#DejaVuSans-30" transform="translate(160.9375 0)"/>
      <use xlink:href="#DejaVuSans-30" transform="translate(224.560547 0)"/>
     </g>
    </g>
    <g id="patch_44">
     <path d="M 450.955833 219.079394 
L 501.983417 219.079394 
L 501.983417 205.099596 
L 450.955833 205.099596 
z
" style="fill: #9467bd; fill-opacity: 0.25; stroke: #000000; stroke-linejoin: miter"/>
    </g>
    <g id="text_61">
     <!-- 8/200 -->
     <g transform="translate(466.383062 214.021057) scale(0.07 -0.07)">
      <use xlink:href="#DejaVuSans-38"/>
      <use xlink:href="#DejaVuSans-2f" transform="translate(63.623047 0)"/>
      <use xlink:href="#DejaVuSans-32" transform="translate(97.314453 0)"/>
      <use xlink:href="#DejaVuSans-30" transform="translate(160.9375 0)"/>
      <use xlink:href="#DejaVuSans-30" transform="translate(224.560547 0)"/>
     </g>
    </g>
    <g id="patch_45">
     <path d="M 501.983417 219.079394 
L 553.011 219.079394 
L 553.011 205.099596 
L 501.983417 205.099596 
z
" style="fill: #9467bd; fill-opacity: 0.25; stroke: #000000; stroke-linejoin: miter"/>
    </g>
    <g id="text_62">
     <!-- 16/200 -->
     <g transform="translate(515.183771 214.021057) scale(0.07 -0.07)">
      <use xlink:href="#DejaVuSans-31"/>
      <use xlink:href="#DejaVuSans-36" transform="translate(63.623047 0)"/>
      <use xlink:href="#DejaVuSans-2f" transform="translate(127.246094 0)"/>
      <use xlink:href="#DejaVuSans-32" transform="translate(160.9375 0)"/>
      <use xlink:href="#DejaVuSans-30" transform="translate(224.560547 0)"/>
      <use xlink:href="#DejaVuSans-30" transform="translate(288.183594 0)"/>
     </g>
    </g>
    <g id="patch_46">
     <path d="M 553.011 219.079394 
L 604.038583 219.079394 
L 604.038583 205.099596 
L 553.011 205.099596 
z
" style="fill: #9467bd; fill-opacity: 0.25; stroke: #000000; stroke-linejoin: miter"/>
    </g>
    <g id="text_63">
     <!-- 21/200 -->
     <g transform="translate(566.211354 214.021057) scale(0.07 -0.07)">
      <use xlink:href="#DejaVuSans-32"/>
      <use xlink:href="#DejaVuSans-31" transform="translate(63.623047 0)"/>
      <use xlink:href="#DejaVuSans-2f" transform="translate(127.246094 0)"/>
      <use xlink:href="#DejaVuSans-32" transform="translate(160.9375 0)"/>
      <use xlink:href="#DejaVuSans-30" transform="translate(224.560547 0)"/>
      <use xlink:href="#DejaVuSans-30" transform="translate(288.183594 0)"/>
     </g>
    </g>
    <g id="patch_47">
     <path d="M 604.038583 219.079394 
L 655.066167 219.079394 
L 655.066167 205.099596 
L 604.038583 205.099596 
z
" style="fill: #9467bd; fill-opacity: 0.25; stroke: #000000; stroke-linejoin: miter"/>
    </g>
    <g id="text_64">
     <!-- 27/200 -->
     <g transform="translate(617.238937 214.021057) scale(0.07 -0.07)">
      <use xlink:href="#DejaVuSans-32"/>
      <use xlink:href="#DejaVuSans-37" transform="translate(63.623047 0)"/>
      <use xlink:href="#DejaVuSans-2f" transform="translate(127.246094 0)"/>
      <use xlink:href="#DejaVuSans-32" transform="translate(160.9375 0)"/>
      <use xlink:href="#DejaVuSans-30" transform="translate(224.560547 0)"/>
      <use xlink:href="#DejaVuSans-30" transform="translate(288.183594 0)"/>
     </g>
    </g>
    <g id="patch_48">
     <path d="M 655.066167 219.079394 
L 706.09375 219.079394 
L 706.09375 205.099596 
L 655.066167 205.099596 
z
" style="fill: #9467bd; fill-opacity: 0.25; stroke: #000000; stroke-linejoin: miter"/>
    </g>
    <g id="text_65">
     <!-- 38/200 -->
     <g transform="translate(668.266521 214.021057) scale(0.07 -0.07)">
      <use xlink:href="#DejaVuSans-33"/>
      <use xlink:href="#DejaVuSans-38" transform="translate(63.623047 0)"/>
      <use xlink:href="#DejaVuSans-2f" transform="translate(127.246094 0)"/>
      <use xlink:href="#DejaVuSans-32" transform="translate(160.9375 0)"/>
      <use xlink:href="#DejaVuSans-30" transform="translate(224.560547 0)"/>
      <use xlink:href="#DejaVuSans-30" transform="translate(288.183594 0)"/>
     </g>
    </g>
   </g>
   <g id="text_66">
    <!-- Solver Ranking -->
    <g transform="translate(514.699828 50.04) scale(0.09 -0.09)">
     <defs>
      <path id="DejaVuSans-Bold-72" d="M 3138 2547 
Q 2991 2616 2845 2648 
Q 2700 2681 2553 2681 
Q 2122 2681 1889 2404 
Q 1656 2128 1656 1613 
L 1656 0 
L 538 0 
L 538 3500 
L 1656 3500 
L 1656 2925 
Q 1872 3269 2151 3426 
Q 2431 3584 2822 3584 
Q 2878 3584 2943 3579 
Q 3009 3575 3134 3559 
L 3138 2547 
z
" transform="scale(0.015625)"/>
      <path id="DejaVuSans-Bold-52" d="M 2297 2597 
Q 2675 2597 2839 2737 
Q 3003 2878 3003 3200 
Q 3003 3519 2839 3656 
Q 2675 3794 2297 3794 
L 1791 3794 
L 1791 2597 
L 2297 2597 
z
M 1791 1766 
L 1791 0 
L 588 0 
L 588 4666 
L 2425 4666 
Q 3347 4666 3776 4356 
Q 4206 4047 4206 3378 
Q 4206 2916 3982 2619 
Q 3759 2322 3309 2181 
Q 3556 2125 3751 1926 
Q 3947 1728 4147 1325 
L 4800 0 
L 3519 0 
L 2950 1159 
Q 2778 1509 2601 1637 
Q 2425 1766 2131 1766 
L 1791 1766 
z
" transform="scale(0.015625)"/>
      <path id="DejaVuSans-Bold-61" d="M 2106 1575 
Q 1756 1575 1579 1456 
Q 1403 1338 1403 1106 
Q 1403 894 1545 773 
Q 1688 653 1941 653 
Q 2256 653 2472 879 
Q 2688 1106 2688 1447 
L 2688 1575 
L 2106 1575 
z
M 3816 1997 
L 3816 0 
L 2688 0 
L 2688 519 
Q 2463 200 2181 54 
Q 1900 -91 1497 -91 
Q 953 -91 614 226 
Q 275 544 275 1050 
Q 275 1666 698 1953 
Q 1122 2241 2028 2241 
L 2688 2241 
L 2688 2328 
Q 2688 2594 2478 2717 
Q 2269 2841 1825 2841 
Q 1466 2841 1156 2769 
Q 847 2697 581 2553 
L 581 3406 
Q 941 3494 1303 3539 
Q 1666 3584 2028 3584 
Q 2975 3584 3395 3211 
Q 3816 2838 3816 1997 
z
" transform="scale(0.015625)"/>
      <path id="DejaVuSans-Bold-6e" d="M 4056 2131 
L 4056 0 
L 2931 0 
L 2931 347 
L 2931 1631 
Q 2931 2084 2911 2256 
Q 2891 2428 2841 2509 
Q 2775 2619 2662 2680 
Q 2550 2741 2406 2741 
Q 2056 2741 1856 2470 
Q 1656 2200 1656 1722 
L 1656 0 
L 538 0 
L 538 3500 
L 1656 3500 
L 1656 2988 
Q 1909 3294 2193 3439 
Q 2478 3584 2822 3584 
Q 3428 3584 3742 3212 
Q 4056 2841 4056 2131 
z
" transform="scale(0.015625)"/>
      <path id="DejaVuSans-Bold-6b" d="M 538 4863 
L 1656 4863 
L 1656 2216 
L 2944 3500 
L 4244 3500 
L 2534 1894 
L 4378 0 
L 3022 0 
L 1656 1459 
L 1656 0 
L 538 0 
L 538 4863 
z
" transform="scale(0.015625)"/>
      <path id="DejaVuSans-Bold-69" d="M 538 3500 
L 1656 3500 
L 1656 0 
L 538 0 
L 538 3500 
z
M 538 4863 
L 1656 4863 
L 1656 3950 
L 538 3950 
L 538 4863 
z
" transform="scale(0.015625)"/>
      <path id="DejaVuSans-Bold-67" d="M 2919 594 
Q 2688 288 2409 144 
Q 2131 0 1766 0 
Q 1125 0 706 504 
Q 288 1009 288 1791 
Q 288 2575 706 3076 
Q 1125 3578 1766 3578 
Q 2131 3578 2409 3434 
Q 2688 3291 2919 2981 
L 2919 3500 
L 4044 3500 
L 4044 353 
Q 4044 -491 3511 -936 
Q 2978 -1381 1966 -1381 
Q 1638 -1381 1331 -1331 
Q 1025 -1281 716 -1178 
L 716 -306 
Q 1009 -475 1290 -558 
Q 1572 -641 1856 -641 
Q 2406 -641 2662 -400 
Q 2919 -159 2919 353 
L 2919 594 
z
M 2181 2772 
Q 1834 2772 1640 2515 
Q 1447 2259 1447 1791 
Q 1447 1309 1634 1061 
Q 1822 813 2181 813 
Q 2531 813 2725 1069 
Q 2919 1325 2919 1791 
Q 2919 2259 2725 2515 
Q 2531 2772 2181 2772 
z
" transform="scale(0.015625)"/>
     </defs>
     <use xlink:href="#DejaVuSans-Bold-53"/>
     <use xlink:href="#DejaVuSans-Bold-6f" transform="translate(72.021484 0)"/>
     <use xlink:href="#DejaVuSans-Bold-6c" transform="translate(140.722656 0)"/>
     <use xlink:href="#DejaVuSans-Bold-76" transform="translate(175 0)"/>
     <use xlink:href="#DejaVuSans-Bold-65" transform="translate(240.185547 0)"/>
     <use xlink:href="#DejaVuSans-Bold-72" transform="translate(308.007812 0)"/>
     <use xlink:href="#DejaVuSans-Bold-20" transform="translate(357.324219 0)"/>
     <use xlink:href="#DejaVuSans-Bold-52" transform="translate(392.138672 0)"/>
     <use xlink:href="#DejaVuSans-Bold-61" transform="translate(469.140625 0)"/>
     <use xlink:href="#DejaVuSans-Bold-6e" transform="translate(536.621094 0)"/>
     <use xlink:href="#DejaVuSans-Bold-6b" transform="translate(607.8125 0)"/>
     <use xlink:href="#DejaVuSans-Bold-69" transform="translate(674.316406 0)"/>
     <use xlink:href="#DejaVuSans-Bold-6e" transform="translate(708.59375 0)"/>
     <use xlink:href="#DejaVuSans-Bold-67" transform="translate(779.785156 0)"/>
    </g>
   </g>
  </g>
  <g id="text_67">
   <!-- Track: XCSP3-2025-CSP25 -->
   <g transform="translate(276.634141 15.558281) scale(0.11 -0.11)">
    <defs>
     <path id="DejaVuSans-Bold-63" d="M 3366 3391 
L 3366 2478 
Q 3138 2634 2908 2709 
Q 2678 2784 2431 2784 
Q 1963 2784 1702 2511 
Q 1441 2238 1441 1747 
Q 1441 1256 1702 982 
Q 1963 709 2431 709 
Q 2694 709 2930 787 
Q 3166 866 3366 1019 
L 3366 103 
Q 3103 6 2833 -42 
Q 2563 -91 2291 -91 
Q 1344 -91 809 395 
Q 275 881 275 1747 
Q 275 2613 809 3098 
Q 1344 3584 2291 3584 
Q 2566 3584 2833 3536 
Q 3100 3488 3366 3391 
z
" transform="scale(0.015625)"/>
     <path id="DejaVuSans-Bold-3a" d="M 716 3500 
L 1844 3500 
L 1844 2291 
L 716 2291 
L 716 3500 
z
M 716 1209 
L 1844 1209 
L 1844 0 
L 716 0 
L 716 1209 
z
" transform="scale(0.015625)"/>
     <path id="DejaVuSans-Bold-58" d="M 3188 2381 
L 4806 0 
L 3553 0 
L 2463 1594 
L 1381 0 
L 122 0 
L 1741 2381 
L 184 4666 
L 1441 4666 
L 2463 3163 
L 3481 4666 
L 4744 4666 
L 3188 2381 
z
" transform="scale(0.015625)"/>
     <path id="DejaVuSans-Bold-43" d="M 4288 256 
Q 3956 84 3597 -3 
Q 3238 -91 2847 -91 
Q 1681 -91 1000 561 
Q 319 1213 319 2328 
Q 319 3447 1000 4098 
Q 1681 4750 2847 4750 
Q 3238 4750 3597 4662 
Q 3956 4575 4288 4403 
L 4288 3438 
Q 3953 3666 3628 3772 
Q 3303 3878 2944 3878 
Q 2300 3878 1931 3465 
Q 1563 3053 1563 2328 
Q 1563 1606 1931 1193 
Q 2300 781 2944 781 
Q 3303 781 3628 887 
Q 3953 994 4288 1222 
L 4288 256 
z
" transform="scale(0.015625)"/>
     <path id="DejaVuSans-Bold-50" d="M 588 4666 
L 2584 4666 
Q 3475 4666 3951 4270 
Q 4428 3875 4428 3144 
Q 4428 2409 3951 2014 
Q 3475 1619 2584 1619 
L 1791 1619 
L 1791 0 
L 588 0 
L 588 4666 
z
M 1791 3794 
L 1791 2491 
L 2456 2491 
Q 2806 2491 2997 2661 
Q 3188 2831 3188 3144 
Q 3188 3456 2997 3625 
Q 2806 3794 2456 3794 
L 1791 3794 
z
" transform="scale(0.015625)"/>
     <path id="DejaVuSans-Bold-2d" d="M 347 2297 
L 2309 2297 
L 2309 1388 
L 347 1388 
L 347 2297 
z
" transform="scale(0.015625)"/>
     <path id="DejaVuSans-Bold-35" d="M 678 4666 
L 3669 4666 
L 3669 3781 
L 1638 3781 
L 1638 3059 
Q 1775 3097 1914 3117 
Q 2053 3138 2203 3138 
Q 3056 3138 3531 2711 
Q 4006 2284 4006 1522 
Q 4006 766 3489 337 
Q 2972 -91 2053 -91 
Q 1656 -91 1267 -14 
Q 878 63 494 219 
L 494 1166 
Q 875 947 1217 837 
Q 1559 728 1863 728 
Q 2300 728 2551 942 
Q 2803 1156 2803 1522 
Q 2803 1891 2551 2103 
Q 2300 2316 1863 2316 
Q 1603 2316 1309 2248 
Q 1016 2181 678 2041 
L 678 4666 
z
" transform="scale(0.015625)"/>
    </defs>
    <use xlink:href="#DejaVuSans-Bold-54"/>
    <use xlink:href="#DejaVuSans-Bold-72" transform="translate(57.212891 0)"/>
    <use xlink:href="#DejaVuSans-Bold-61" transform="translate(106.529297 0)"/>
    <use xlink:href="#DejaVuSans-Bold-63" transform="translate(174.009766 0)"/>
    <use xlink:href="#DejaVuSans-Bold-6b" transform="translate(233.287109 0)"/>
    <use xlink:href="#DejaVuSans-Bold-3a" transform="translate(299.791016 0)"/>
    <use xlink:href="#DejaVuSans-Bold-20" transform="translate(339.78125 0)"/>
    <use xlink:href="#DejaVuSans-Bold-58" transform="translate(374.595703 0)"/>
    <use xlink:href="#DejaVuSans-Bold-43" transform="translate(448.070312 0)"/>
    <use xlink:href="#DejaVuSans-Bold-53" transform="translate(523.333984 0)"/>
    <use xlink:href="#DejaVuSans-Bold-50" transform="translate(595.355469 0)"/>
    <use xlink:href="#DejaVuSans-Bold-33" transform="translate(668.646484 0)"/>
    <use xlink:href="#DejaVuSans-Bold-2d" transform="translate(738.226562 0)"/>
    <use xlink:href="#DejaVuSans-Bold-32" transform="translate(779.730469 0)"/>
    <use xlink:href="#DejaVuSans-Bold-30" transform="translate(849.310547 0)"/>
    <use xlink:href="#DejaVuSans-Bold-32" transform="translate(918.890625 0)"/>
    <use xlink:href="#DejaVuSans-Bold-35" transform="translate(988.470703 0)"/>
    <use xlink:href="#DejaVuSans-Bold-2d" transform="translate(1058.050781 0)"/>
    <use xlink:href="#DejaVuSans-Bold-43" transform="translate(1099.554688 0)"/>
    <use xlink:href="#DejaVuSans-Bold-53" transform="translate(1174.818359 0)"/>
    <use xlink:href="#DejaVuSans-Bold-50" transform="translate(1246.839844 0)"/>
    <use xlink:href="#DejaVuSans-Bold-32" transform="translate(1320.130859 0)"/>
    <use xlink:href="#DejaVuSans-Bold-35" transform="translate(1389.710938 0)"/>
   </g>
  </g>
 </g>
 <defs>
  <clipPath id="p9419c8b877">
   <rect x="39.30375" y="56.04" width="306.1655" height="242.2"/>
  </clipPath>
 </defs>
</svg>
