<?xml version="1.0" encoding="utf-8" standalone="no"?>
<!DOCTYPE svg PUBLIC "-//W3C//DTD SVG 1.1//EN"
  "http://www.w3.org/Graphics/SVG/1.1/DTD/svg11.dtd">
<svg xmlns:xlink="http://www.w3.org/1999/xlink" width="784.38125pt" height="550.4451pt" viewBox="0 0 784.38125 550.4451" xmlns="http://www.w3.org/2000/svg" version="1.1">
 <metadata>
  <rdf:RDF xmlns:dc="http://purl.org/dc/elements/1.1/" xmlns:cc="http://creativecommons.org/ns#" xmlns:rdf="http://www.w3.org/1999/02/22-rdf-syntax-ns#">
   <cc:Work>
    <dc:type rdf:resource="http://purl.org/dc/dcmitype/StillImage"/>
    <dc:date>2026-05-22T14:30:56.465904</dc:date>
    <dc:format>image/svg+xml</dc:format>
    <dc:creator>
     <cc:Agent>
      <dc:title>Matplotlib v3.10.8, https://matplotlib.org/</dc:title>
     </cc:Agent>
    </dc:creator>
   </cc:Work>
  </rdf:RDF>
 </metadata>
 <defs>
  <style type="text/css">*{stroke-linejoin: round; stroke-linecap: butt}</style>
 </defs>
 <g id="figure_1">
  <g id="patch_1">
   <path d="M 0 550.4451 
L 784.38125 550.4451 
L 784.38125 0 
L 0 0 
z
" style="fill: #ffffff"/>
  </g>
  <g id="axes_1">
   <g id="patch_2">
    <path d="M 45.056875 425.52 
L 768.591875 425.52 
L 768.591875 61.44 
L 45.056875 61.44 
z
" style="fill: #ffffff"/>
   </g>
   <g id="matplotlib.axis_1">
    <g id="xtick_1">
     <g id="line2d_1">
      <path d="M 45.056875 425.52 
L 45.056875 61.44 
" clip-path="url(#pb82079ded2)" style="fill: none; stroke: #b0b0b0; stroke-opacity: 0.3; stroke-width: 0.8; stroke-linecap: square"/>
     </g>
     <g id="line2d_2">
      <defs>
       <path id="m237b1a4edf" d="M 0 0 
L 0 3.5 
" style="stroke: #000000; stroke-width: 0.8"/>
      </defs>
      <g>
       <use xlink:href="#m237b1a4edf" x="45.056875" y="425.52" style="stroke: #000000; stroke-width: 0.8"/>
      </g>
     </g>
     <g id="text_1">
      <!-- 0 -->
      <g transform="translate(42.19375 439.358594) scale(0.09 -0.09)">
       <defs>
        <path id="DejaVuSans-30" d="M 2034 4250 
Q 1547 4250 1301 3770 
Q 1056 3291 1056 2328 
Q 1056 1369 1301 889 
Q 1547 409 2034 409 
Q 2525 409 2770 889 
Q 3016 1369 3016 2328 
Q 3016 3291 2770 3770 
Q 2525 4250 2034 4250 
z
M 2034 4750 
Q 2819 4750 3233 4129 
Q 3647 3509 3647 2328 
Q 3647 1150 3233 529 
Q 2819 -91 2034 -91 
Q 1250 -91 836 529 
Q 422 1150 422 2328 
Q 422 3509 836 4129 
Q 1250 4750 2034 4750 
z
" transform="scale(0.015625)"/>
       </defs>
       <use xlink:href="#DejaVuSans-30"/>
      </g>
     </g>
    </g>
    <g id="xtick_2">
     <g id="line2d_3">
      <path d="M 165.646042 425.52 
L 165.646042 61.44 
" clip-path="url(#pb82079ded2)" style="fill: none; stroke: #b0b0b0; stroke-opacity: 0.3; stroke-width: 0.8; stroke-linecap: square"/>
     </g>
     <g id="line2d_4">
      <g>
       <use xlink:href="#m237b1a4edf" x="165.646042" y="425.52" style="stroke: #000000; stroke-width: 0.8"/>
      </g>
     </g>
     <g id="text_2">
      <!-- 100 -->
      <g transform="translate(157.056667 439.358594) scale(0.09 -0.09)">
       <defs>
        <path id="DejaVuSans-31" d="M 794 531 
L 1825 531 
L 1825 4091 
L 703 3866 
L 703 4441 
L 1819 4666 
L 2450 4666 
L 2450 531 
L 3481 531 
L 3481 0 
L 794 0 
L 794 531 
z
" transform="scale(0.015625)"/>
       </defs>
       <use xlink:href="#DejaVuSans-31"/>
       <use xlink:href="#DejaVuSans-30" transform="translate(63.623047 0)"/>
       <use xlink:href="#DejaVuSans-30" transform="translate(127.246094 0)"/>
      </g>
     </g>
    </g>
    <g id="xtick_3">
     <g id="line2d_5">
      <path d="M 286.235208 425.52 
L 286.235208 61.44 
" clip-path="url(#pb82079ded2)" style="fill: none; stroke: #b0b0b0; stroke-opacity: 0.3; stroke-width: 0.8; stroke-linecap: square"/>
     </g>
     <g id="line2d_6">
      <g>
       <use xlink:href="#m237b1a4edf" x="286.235208" y="425.52" style="stroke: #000000; stroke-width: 0.8"/>
      </g>
     </g>
     <g id="text_3">
      <!-- 200 -->
      <g transform="translate(277.645833 439.358594) scale(0.09 -0.09)">
       <defs>
        <path id="DejaVuSans-32" d="M 1228 531 
L 3431 531 
L 3431 0 
L 469 0 
L 469 531 
Q 828 903 1448 1529 
Q 2069 2156 2228 2338 
Q 2531 2678 2651 2914 
Q 2772 3150 2772 3378 
Q 2772 3750 2511 3984 
Q 2250 4219 1831 4219 
Q 1534 4219 1204 4116 
Q 875 4013 500 3803 
L 500 4441 
Q 881 4594 1212 4672 
Q 1544 4750 1819 4750 
Q 2544 4750 2975 4387 
Q 3406 4025 3406 3419 
Q 3406 3131 3298 2873 
Q 3191 2616 2906 2266 
Q 2828 2175 2409 1742 
Q 1991 1309 1228 531 
z
" transform="scale(0.015625)"/>
       </defs>
       <use xlink:href="#DejaVuSans-32"/>
       <use xlink:href="#DejaVuSans-30" transform="translate(63.623047 0)"/>
       <use xlink:href="#DejaVuSans-30" transform="translate(127.246094 0)"/>
      </g>
     </g>
    </g>
    <g id="xtick_4">
     <g id="line2d_7">
      <path d="M 406.824375 425.52 
L 406.824375 61.44 
" clip-path="url(#pb82079ded2)" style="fill: none; stroke: #b0b0b0; stroke-opacity: 0.3; stroke-width: 0.8; stroke-linecap: square"/>
     </g>
     <g id="line2d_8">
      <g>
       <use xlink:href="#m237b1a4edf" x="406.824375" y="425.52" style="stroke: #000000; stroke-width: 0.8"/>
      </g>
     </g>
     <g id="text_4">
      <!-- 300 -->
      <g transform="translate(398.235 439.358594) scale(0.09 -0.09)">
       <defs>
        <path id="DejaVuSans-33" d="M 2597 2516 
Q 3050 2419 3304 2112 
Q 3559 1806 3559 1356 
Q 3559 666 3084 287 
Q 2609 -91 1734 -91 
Q 1441 -91 1130 -33 
Q 819 25 488 141 
L 488 750 
Q 750 597 1062 519 
Q 1375 441 1716 441 
Q 2309 441 2620 675 
Q 2931 909 2931 1356 
Q 2931 1769 2642 2001 
Q 2353 2234 1838 2234 
L 1294 2234 
L 1294 2753 
L 1863 2753 
Q 2328 2753 2575 2939 
Q 2822 3125 2822 3475 
Q 2822 3834 2567 4026 
Q 2313 4219 1838 4219 
Q 1578 4219 1281 4162 
Q 984 4106 628 3988 
L 628 4550 
Q 988 4650 1302 4700 
Q 1616 4750 1894 4750 
Q 2613 4750 3031 4423 
Q 3450 4097 3450 3541 
Q 3450 3153 3228 2886 
Q 3006 2619 2597 2516 
z
" transform="scale(0.015625)"/>
       </defs>
       <use xlink:href="#DejaVuSans-33"/>
       <use xlink:href="#DejaVuSans-30" transform="translate(63.623047 0)"/>
       <use xlink:href="#DejaVuSans-30" transform="translate(127.246094 0)"/>
      </g>
     </g>
    </g>
    <g id="xtick_5">
     <g id="line2d_9">
      <path d="M 527.413542 425.52 
L 527.413542 61.44 
" clip-path="url(#pb82079ded2)" style="fill: none; stroke: #b0b0b0; stroke-opacity: 0.3; stroke-width: 0.8; stroke-linecap: square"/>
     </g>
     <g id="line2d_10">
      <g>
       <use xlink:href="#m237b1a4edf" x="527.413542" y="425.52" style="stroke: #000000; stroke-width: 0.8"/>
      </g>
     </g>
     <g id="text_5">
      <!-- 400 -->
      <g transform="translate(518.824167 439.358594) scale(0.09 -0.09)">
       <defs>
        <path id="DejaVuSans-34" d="M 2419 4116 
L 825 1625 
L 2419 1625 
L 2419 4116 
z
M 2253 4666 
L 3047 4666 
L 3047 1625 
L 3713 1625 
L 3713 1100 
L 3047 1100 
L 3047 0 
L 2419 0 
L 2419 1100 
L 313 1100 
L 313 1709 
L 2253 4666 
z
" transform="scale(0.015625)"/>
       </defs>
       <use xlink:href="#DejaVuSans-34"/>
       <use xlink:href="#DejaVuSans-30" transform="translate(63.623047 0)"/>
       <use xlink:href="#DejaVuSans-30" transform="translate(127.246094 0)"/>
      </g>
     </g>
    </g>
    <g id="xtick_6">
     <g id="line2d_11">
      <path d="M 648.002708 425.52 
L 648.002708 61.44 
" clip-path="url(#pb82079ded2)" style="fill: none; stroke: #b0b0b0; stroke-opacity: 0.3; stroke-width: 0.8; stroke-linecap: square"/>
     </g>
     <g id="line2d_12">
      <g>
       <use xlink:href="#m237b1a4edf" x="648.002708" y="425.52" style="stroke: #000000; stroke-width: 0.8"/>
      </g>
     </g>
     <g id="text_6">
      <!-- 500 -->
      <g transform="translate(639.413333 439.358594) scale(0.09 -0.09)">
       <defs>
        <path id="DejaVuSans-35" d="M 691 4666 
L 3169 4666 
L 3169 4134 
L 1269 4134 
L 1269 2991 
Q 1406 3038 1543 3061 
Q 1681 3084 1819 3084 
Q 2600 3084 3056 2656 
Q 3513 2228 3513 1497 
Q 3513 744 3044 326 
Q 2575 -91 1722 -91 
Q 1428 -91 1123 -41 
Q 819 9 494 109 
L 494 744 
Q 775 591 1075 516 
Q 1375 441 1709 441 
Q 2250 441 2565 725 
Q 2881 1009 2881 1497 
Q 2881 1984 2565 2268 
Q 2250 2553 1709 2553 
Q 1456 2553 1204 2497 
Q 953 2441 691 2322 
L 691 4666 
z
" transform="scale(0.015625)"/>
       </defs>
       <use xlink:href="#DejaVuSans-35"/>
       <use xlink:href="#DejaVuSans-30" transform="translate(63.623047 0)"/>
       <use xlink:href="#DejaVuSans-30" transform="translate(127.246094 0)"/>
      </g>
     </g>
    </g>
    <g id="xtick_7">
     <g id="line2d_13">
      <path d="M 768.591875 425.52 
L 768.591875 61.44 
" clip-path="url(#pb82079ded2)" style="fill: none; stroke: #b0b0b0; stroke-opacity: 0.3; stroke-width: 0.8; stroke-linecap: square"/>
     </g>
     <g id="line2d_14">
      <g>
       <use xlink:href="#m237b1a4edf" x="768.591875" y="425.52" style="stroke: #000000; stroke-width: 0.8"/>
      </g>
     </g>
     <g id="text_7">
      <!-- 600 -->
      <g transform="translate(760.0025 439.358594) scale(0.09 -0.09)">
       <defs>
        <path id="DejaVuSans-36" d="M 2113 2584 
Q 1688 2584 1439 2293 
Q 1191 2003 1191 1497 
Q 1191 994 1439 701 
Q 1688 409 2113 409 
Q 2538 409 2786 701 
Q 3034 994 3034 1497 
Q 3034 2003 2786 2293 
Q 2538 2584 2113 2584 
z
M 3366 4563 
L 3366 3988 
Q 3128 4100 2886 4159 
Q 2644 4219 2406 4219 
Q 1781 4219 1451 3797 
Q 1122 3375 1075 2522 
Q 1259 2794 1537 2939 
Q 1816 3084 2150 3084 
Q 2853 3084 3261 2657 
Q 3669 2231 3669 1497 
Q 3669 778 3244 343 
Q 2819 -91 2113 -91 
Q 1303 -91 875 529 
Q 447 1150 447 2328 
Q 447 3434 972 4092 
Q 1497 4750 2381 4750 
Q 2619 4750 2861 4703 
Q 3103 4656 3366 4563 
z
" transform="scale(0.015625)"/>
       </defs>
       <use xlink:href="#DejaVuSans-36"/>
       <use xlink:href="#DejaVuSans-30" transform="translate(63.623047 0)"/>
       <use xlink:href="#DejaVuSans-30" transform="translate(127.246094 0)"/>
      </g>
     </g>
    </g>
    <g id="text_8">
     <!-- Time (s) -->
     <g transform="translate(386.495469 452.82875) scale(0.1 -0.1)">
      <defs>
       <path id="DejaVuSans-54" d="M -19 4666 
L 3928 4666 
L 3928 4134 
L 2272 4134 
L 2272 0 
L 1638 0 
L 1638 4134 
L -19 4134 
L -19 4666 
z
" transform="scale(0.015625)"/>
       <path id="DejaVuSans-69" d="M 603 3500 
L 1178 3500 
L 1178 0 
L 603 0 
L 603 3500 
z
M 603 4863 
L 1178 4863 
L 1178 4134 
L 603 4134 
L 603 4863 
z
" transform="scale(0.015625)"/>
       <path id="DejaVuSans-6d" d="M 3328 2828 
Q 3544 3216 3844 3400 
Q 4144 3584 4550 3584 
Q 5097 3584 5394 3201 
Q 5691 2819 5691 2113 
L 5691 0 
L 5113 0 
L 5113 2094 
Q 5113 2597 4934 2840 
Q 4756 3084 4391 3084 
Q 3944 3084 3684 2787 
Q 3425 2491 3425 1978 
L 3425 0 
L 2847 0 
L 2847 2094 
Q 2847 2600 2669 2842 
Q 2491 3084 2119 3084 
Q 1678 3084 1418 2786 
Q 1159 2488 1159 1978 
L 1159 0 
L 581 0 
L 581 3500 
L 1159 3500 
L 1159 2956 
Q 1356 3278 1631 3431 
Q 1906 3584 2284 3584 
Q 2666 3584 2933 3390 
Q 3200 3197 3328 2828 
z
" transform="scale(0.015625)"/>
       <path id="DejaVuSans-65" d="M 3597 1894 
L 3597 1613 
L 953 1613 
Q 991 1019 1311 708 
Q 1631 397 2203 397 
Q 2534 397 2845 478 
Q 3156 559 3463 722 
L 3463 178 
Q 3153 47 2828 -22 
Q 2503 -91 2169 -91 
Q 1331 -91 842 396 
Q 353 884 353 1716 
Q 353 2575 817 3079 
Q 1281 3584 2069 3584 
Q 2775 3584 3186 3129 
Q 3597 2675 3597 1894 
z
M 3022 2063 
Q 3016 2534 2758 2815 
Q 2500 3097 2075 3097 
Q 1594 3097 1305 2825 
Q 1016 2553 972 2059 
L 3022 2063 
z
" transform="scale(0.015625)"/>
       <path id="DejaVuSans-20" transform="scale(0.015625)"/>
       <path id="DejaVuSans-28" d="M 1984 4856 
Q 1566 4138 1362 3434 
Q 1159 2731 1159 2009 
Q 1159 1288 1364 580 
Q 1569 -128 1984 -844 
L 1484 -844 
Q 1016 -109 783 600 
Q 550 1309 550 2009 
Q 550 2706 781 3412 
Q 1013 4119 1484 4856 
L 1984 4856 
z
" transform="scale(0.015625)"/>
       <path id="DejaVuSans-73" d="M 2834 3397 
L 2834 2853 
Q 2591 2978 2328 3040 
Q 2066 3103 1784 3103 
Q 1356 3103 1142 2972 
Q 928 2841 928 2578 
Q 928 2378 1081 2264 
Q 1234 2150 1697 2047 
L 1894 2003 
Q 2506 1872 2764 1633 
Q 3022 1394 3022 966 
Q 3022 478 2636 193 
Q 2250 -91 1575 -91 
Q 1294 -91 989 -36 
Q 684 19 347 128 
L 347 722 
Q 666 556 975 473 
Q 1284 391 1588 391 
Q 1994 391 2212 530 
Q 2431 669 2431 922 
Q 2431 1156 2273 1281 
Q 2116 1406 1581 1522 
L 1381 1569 
Q 847 1681 609 1914 
Q 372 2147 372 2553 
Q 372 3047 722 3315 
Q 1072 3584 1716 3584 
Q 2034 3584 2315 3537 
Q 2597 3491 2834 3397 
z
" transform="scale(0.015625)"/>
       <path id="DejaVuSans-29" d="M 513 4856 
L 1013 4856 
Q 1481 4119 1714 3412 
Q 1947 2706 1947 2009 
Q 1947 1309 1714 600 
Q 1481 -109 1013 -844 
L 513 -844 
Q 928 -128 1133 580 
Q 1338 1288 1338 2009 
Q 1338 2731 1133 3434 
Q 928 4138 513 4856 
z
" transform="scale(0.015625)"/>
      </defs>
      <use xlink:href="#DejaVuSans-54"/>
      <use xlink:href="#DejaVuSans-69" transform="translate(57.958984 0)"/>
      <use xlink:href="#DejaVuSans-6d" transform="translate(85.742188 0)"/>
      <use xlink:href="#DejaVuSans-65" transform="translate(183.154297 0)"/>
      <use xlink:href="#DejaVuSans-20" transform="translate(244.677734 0)"/>
      <use xlink:href="#DejaVuSans-28" transform="translate(276.464844 0)"/>
      <use xlink:href="#DejaVuSans-73" transform="translate(315.478516 0)"/>
      <use xlink:href="#DejaVuSans-29" transform="translate(367.578125 0)"/>
     </g>
    </g>
   </g>
   <g id="matplotlib.axis_2">
    <g id="ytick_1">
     <g id="line2d_15">
      <path d="M 45.056875 425.52 
L 768.591875 425.52 
" clip-path="url(#pb82079ded2)" style="fill: none; stroke: #b0b0b0; stroke-opacity: 0.3; stroke-width: 0.8; stroke-linecap: square"/>
     </g>
     <g id="line2d_16">
      <defs>
       <path id="m6dcbb1d8fb" d="M 0 0 
L -3.5 0 
" style="stroke: #000000; stroke-width: 0.8"/>
      </defs>
      <g>
       <use xlink:href="#m6dcbb1d8fb" x="45.056875" y="425.52" style="stroke: #000000; stroke-width: 0.8"/>
      </g>
     </g>
     <g id="text_9">
      <!-- 0 -->
      <g transform="translate(32.330625 428.939297) scale(0.09 -0.09)">
       <use xlink:href="#DejaVuSans-30"/>
      </g>
     </g>
    </g>
    <g id="ytick_2">
     <g id="line2d_17">
      <path d="M 45.056875 382.177143 
L 768.591875 382.177143 
" clip-path="url(#pb82079ded2)" style="fill: none; stroke: #b0b0b0; stroke-opacity: 0.3; stroke-width: 0.8; stroke-linecap: square"/>
     </g>
     <g id="line2d_18">
      <g>
       <use xlink:href="#m6dcbb1d8fb" x="45.056875" y="382.177143" style="stroke: #000000; stroke-width: 0.8"/>
      </g>
     </g>
     <g id="text_10">
      <!-- 25 -->
      <g transform="translate(26.604375 385.59644) scale(0.09 -0.09)">
       <use xlink:href="#DejaVuSans-32"/>
       <use xlink:href="#DejaVuSans-35" transform="translate(63.623047 0)"/>
      </g>
     </g>
    </g>
    <g id="ytick_3">
     <g id="line2d_19">
      <path d="M 45.056875 338.834286 
L 768.591875 338.834286 
" clip-path="url(#pb82079ded2)" style="fill: none; stroke: #b0b0b0; stroke-opacity: 0.3; stroke-width: 0.8; stroke-linecap: square"/>
     </g>
     <g id="line2d_20">
      <g>
       <use xlink:href="#m6dcbb1d8fb" x="45.056875" y="338.834286" style="stroke: #000000; stroke-width: 0.8"/>
      </g>
     </g>
     <g id="text_11">
      <!-- 50 -->
      <g transform="translate(26.604375 342.253583) scale(0.09 -0.09)">
       <use xlink:href="#DejaVuSans-35"/>
       <use xlink:href="#DejaVuSans-30" transform="translate(63.623047 0)"/>
      </g>
     </g>
    </g>
    <g id="ytick_4">
     <g id="line2d_21">
      <path d="M 45.056875 295.491429 
L 768.591875 295.491429 
" clip-path="url(#pb82079ded2)" style="fill: none; stroke: #b0b0b0; stroke-opacity: 0.3; stroke-width: 0.8; stroke-linecap: square"/>
     </g>
     <g id="line2d_22">
      <g>
       <use xlink:href="#m6dcbb1d8fb" x="45.056875" y="295.491429" style="stroke: #000000; stroke-width: 0.8"/>
      </g>
     </g>
     <g id="text_12">
      <!-- 75 -->
      <g transform="translate(26.604375 298.910725) scale(0.09 -0.09)">
       <defs>
        <path id="DejaVuSans-37" d="M 525 4666 
L 3525 4666 
L 3525 4397 
L 1831 0 
L 1172 0 
L 2766 4134 
L 525 4134 
L 525 4666 
z
" transform="scale(0.015625)"/>
       </defs>
       <use xlink:href="#DejaVuSans-37"/>
       <use xlink:href="#DejaVuSans-35" transform="translate(63.623047 0)"/>
      </g>
     </g>
    </g>
    <g id="ytick_5">
     <g id="line2d_23">
      <path d="M 45.056875 252.148571 
L 768.591875 252.148571 
" clip-path="url(#pb82079ded2)" style="fill: none; stroke: #b0b0b0; stroke-opacity: 0.3; stroke-width: 0.8; stroke-linecap: square"/>
     </g>
     <g id="line2d_24">
      <g>
       <use xlink:href="#m6dcbb1d8fb" x="45.056875" y="252.148571" style="stroke: #000000; stroke-width: 0.8"/>
      </g>
     </g>
     <g id="text_13">
      <!-- 100 -->
      <g transform="translate(20.878125 255.567868) scale(0.09 -0.09)">
       <use xlink:href="#DejaVuSans-31"/>
       <use xlink:href="#DejaVuSans-30" transform="translate(63.623047 0)"/>
       <use xlink:href="#DejaVuSans-30" transform="translate(127.246094 0)"/>
      </g>
     </g>
    </g>
    <g id="ytick_6">
     <g id="line2d_25">
      <path d="M 45.056875 208.805714 
L 768.591875 208.805714 
" clip-path="url(#pb82079ded2)" style="fill: none; stroke: #b0b0b0; stroke-opacity: 0.3; stroke-width: 0.8; stroke-linecap: square"/>
     </g>
     <g id="line2d_26">
      <g>
       <use xlink:href="#m6dcbb1d8fb" x="45.056875" y="208.805714" style="stroke: #000000; stroke-width: 0.8"/>
      </g>
     </g>
     <g id="text_14">
      <!-- 125 -->
      <g transform="translate(20.878125 212.225011) scale(0.09 -0.09)">
       <use xlink:href="#DejaVuSans-31"/>
       <use xlink:href="#DejaVuSans-32" transform="translate(63.623047 0)"/>
       <use xlink:href="#DejaVuSans-35" transform="translate(127.246094 0)"/>
      </g>
     </g>
    </g>
    <g id="ytick_7">
     <g id="line2d_27">
      <path d="M 45.056875 165.462857 
L 768.591875 165.462857 
" clip-path="url(#pb82079ded2)" style="fill: none; stroke: #b0b0b0; stroke-opacity: 0.3; stroke-width: 0.8; stroke-linecap: square"/>
     </g>
     <g id="line2d_28">
      <g>
       <use xlink:href="#m6dcbb1d8fb" x="45.056875" y="165.462857" style="stroke: #000000; stroke-width: 0.8"/>
      </g>
     </g>
     <g id="text_15">
      <!-- 150 -->
      <g transform="translate(20.878125 168.882154) scale(0.09 -0.09)">
       <use xlink:href="#DejaVuSans-31"/>
       <use xlink:href="#DejaVuSans-35" transform="translate(63.623047 0)"/>
       <use xlink:href="#DejaVuSans-30" transform="translate(127.246094 0)"/>
      </g>
     </g>
    </g>
    <g id="ytick_8">
     <g id="line2d_29">
      <path d="M 45.056875 122.12 
L 768.591875 122.12 
" clip-path="url(#pb82079ded2)" style="fill: none; stroke: #b0b0b0; stroke-opacity: 0.3; stroke-width: 0.8; stroke-linecap: square"/>
     </g>
     <g id="line2d_30">
      <g>
       <use xlink:href="#m6dcbb1d8fb" x="45.056875" y="122.12" style="stroke: #000000; stroke-width: 0.8"/>
      </g>
     </g>
     <g id="text_16">
      <!-- 175 -->
      <g transform="translate(20.878125 125.539297) scale(0.09 -0.09)">
       <use xlink:href="#DejaVuSans-31"/>
       <use xlink:href="#DejaVuSans-37" transform="translate(63.623047 0)"/>
       <use xlink:href="#DejaVuSans-35" transform="translate(127.246094 0)"/>
      </g>
     </g>
    </g>
    <g id="ytick_9">
     <g id="line2d_31">
      <path d="M 45.056875 78.777143 
L 768.591875 78.777143 
" clip-path="url(#pb82079ded2)" style="fill: none; stroke: #b0b0b0; stroke-opacity: 0.3; stroke-width: 0.8; stroke-linecap: square"/>
     </g>
     <g id="line2d_32">
      <g>
       <use xlink:href="#m6dcbb1d8fb" x="45.056875" y="78.777143" style="stroke: #000000; stroke-width: 0.8"/>
      </g>
     </g>
     <g id="text_17">
      <!-- 200 -->
      <g transform="translate(20.878125 82.19644) scale(0.09 -0.09)">
       <use xlink:href="#DejaVuSans-32"/>
       <use xlink:href="#DejaVuSans-30" transform="translate(63.623047 0)"/>
       <use xlink:href="#DejaVuSans-30" transform="translate(127.246094 0)"/>
      </g>
     </g>
    </g>
    <g id="text_18">
     <!-- Instances solved -->
     <g transform="translate(14.798438 285.204219) rotate(-90) scale(0.1 -0.1)">
      <defs>
       <path id="DejaVuSans-49" d="M 628 4666 
L 1259 4666 
L 1259 0 
L 628 0 
L 628 4666 
z
" transform="scale(0.015625)"/>
       <path id="DejaVuSans-6e" d="M 3513 2113 
L 3513 0 
L 2938 0 
L 2938 2094 
Q 2938 2591 2744 2837 
Q 2550 3084 2163 3084 
Q 1697 3084 1428 2787 
Q 1159 2491 1159 1978 
L 1159 0 
L 581 0 
L 581 3500 
L 1159 3500 
L 1159 2956 
Q 1366 3272 1645 3428 
Q 1925 3584 2291 3584 
Q 2894 3584 3203 3211 
Q 3513 2838 3513 2113 
z
" transform="scale(0.015625)"/>
       <path id="DejaVuSans-74" d="M 1172 4494 
L 1172 3500 
L 2356 3500 
L 2356 3053 
L 1172 3053 
L 1172 1153 
Q 1172 725 1289 603 
Q 1406 481 1766 481 
L 2356 481 
L 2356 0 
L 1766 0 
Q 1100 0 847 248 
Q 594 497 594 1153 
L 594 3053 
L 172 3053 
L 172 3500 
L 594 3500 
L 594 4494 
L 1172 4494 
z
" transform="scale(0.015625)"/>
       <path id="DejaVuSans-61" d="M 2194 1759 
Q 1497 1759 1228 1600 
Q 959 1441 959 1056 
Q 959 750 1161 570 
Q 1363 391 1709 391 
Q 2188 391 2477 730 
Q 2766 1069 2766 1631 
L 2766 1759 
L 2194 1759 
z
M 3341 1997 
L 3341 0 
L 2766 0 
L 2766 531 
Q 2569 213 2275 61 
Q 1981 -91 1556 -91 
Q 1019 -91 701 211 
Q 384 513 384 1019 
Q 384 1609 779 1909 
Q 1175 2209 1959 2209 
L 2766 2209 
L 2766 2266 
Q 2766 2663 2505 2880 
Q 2244 3097 1772 3097 
Q 1472 3097 1187 3025 
Q 903 2953 641 2809 
L 641 3341 
Q 956 3463 1253 3523 
Q 1550 3584 1831 3584 
Q 2591 3584 2966 3190 
Q 3341 2797 3341 1997 
z
" transform="scale(0.015625)"/>
       <path id="DejaVuSans-63" d="M 3122 3366 
L 3122 2828 
Q 2878 2963 2633 3030 
Q 2388 3097 2138 3097 
Q 1578 3097 1268 2742 
Q 959 2388 959 1747 
Q 959 1106 1268 751 
Q 1578 397 2138 397 
Q 2388 397 2633 464 
Q 2878 531 3122 666 
L 3122 134 
Q 2881 22 2623 -34 
Q 2366 -91 2075 -91 
Q 1284 -91 818 406 
Q 353 903 353 1747 
Q 353 2603 823 3093 
Q 1294 3584 2113 3584 
Q 2378 3584 2631 3529 
Q 2884 3475 3122 3366 
z
" transform="scale(0.015625)"/>
       <path id="DejaVuSans-6f" d="M 1959 3097 
Q 1497 3097 1228 2736 
Q 959 2375 959 1747 
Q 959 1119 1226 758 
Q 1494 397 1959 397 
Q 2419 397 2687 759 
Q 2956 1122 2956 1747 
Q 2956 2369 2687 2733 
Q 2419 3097 1959 3097 
z
M 1959 3584 
Q 2709 3584 3137 3096 
Q 3566 2609 3566 1747 
Q 3566 888 3137 398 
Q 2709 -91 1959 -91 
Q 1206 -91 779 398 
Q 353 888 353 1747 
Q 353 2609 779 3096 
Q 1206 3584 1959 3584 
z
" transform="scale(0.015625)"/>
       <path id="DejaVuSans-6c" d="M 603 4863 
L 1178 4863 
L 1178 0 
L 603 0 
L 603 4863 
z
" transform="scale(0.015625)"/>
       <path id="DejaVuSans-76" d="M 191 3500 
L 800 3500 
L 1894 563 
L 2988 3500 
L 3597 3500 
L 2284 0 
L 1503 0 
L 191 3500 
z
" transform="scale(0.015625)"/>
       <path id="DejaVuSans-64" d="M 2906 2969 
L 2906 4863 
L 3481 4863 
L 3481 0 
L 2906 0 
L 2906 525 
Q 2725 213 2448 61 
Q 2172 -91 1784 -91 
Q 1150 -91 751 415 
Q 353 922 353 1747 
Q 353 2572 751 3078 
Q 1150 3584 1784 3584 
Q 2172 3584 2448 3432 
Q 2725 3281 2906 2969 
z
M 947 1747 
Q 947 1113 1208 752 
Q 1469 391 1925 391 
Q 2381 391 2643 752 
Q 2906 1113 2906 1747 
Q 2906 2381 2643 2742 
Q 2381 3103 1925 3103 
Q 1469 3103 1208 2742 
Q 947 2381 947 1747 
z
" transform="scale(0.015625)"/>
      </defs>
      <use xlink:href="#DejaVuSans-49"/>
      <use xlink:href="#DejaVuSans-6e" transform="translate(29.492188 0)"/>
      <use xlink:href="#DejaVuSans-73" transform="translate(92.871094 0)"/>
      <use xlink:href="#DejaVuSans-74" transform="translate(144.970703 0)"/>
      <use xlink:href="#DejaVuSans-61" transform="translate(184.179688 0)"/>
      <use xlink:href="#DejaVuSans-6e" transform="translate(245.458984 0)"/>
      <use xlink:href="#DejaVuSans-63" transform="translate(308.837891 0)"/>
      <use xlink:href="#DejaVuSans-65" transform="translate(363.818359 0)"/>
      <use xlink:href="#DejaVuSans-73" transform="translate(425.341797 0)"/>
      <use xlink:href="#DejaVuSans-20" transform="translate(477.441406 0)"/>
      <use xlink:href="#DejaVuSans-73" transform="translate(509.228516 0)"/>
      <use xlink:href="#DejaVuSans-6f" transform="translate(561.328125 0)"/>
      <use xlink:href="#DejaVuSans-6c" transform="translate(622.509766 0)"/>
      <use xlink:href="#DejaVuSans-76" transform="translate(650.292969 0)"/>
      <use xlink:href="#DejaVuSans-65" transform="translate(709.472656 0)"/>
      <use xlink:href="#DejaVuSans-64" transform="translate(770.996094 0)"/>
     </g>
    </g>
   </g>
   <g id="line2d_33">
    <path d="M 45.056875 425.52 
L 48.871762 425.52 
L 48.871762 423.786286 
L 48.991608 423.786286 
L 48.991608 422.052571 
L 55.124094 422.052571 
L 55.124094 420.318857 
L 60.355661 420.318857 
L 60.355661 418.585143 
L 60.397225 418.585143 
L 60.397225 416.851429 
L 76.680667 416.851429 
L 76.680667 415.117714 
L 77.234312 415.117714 
L 77.234312 413.384 
L 88.218061 413.384 
L 88.218061 411.650286 
L 91.266861 411.650286 
L 91.266861 409.916571 
L 128.392478 409.916571 
L 128.392478 408.182857 
L 130.361468 408.182857 
L 130.361468 406.449143 
L 142.725215 406.449143 
L 142.725215 404.715429 
L 144.796441 404.715429 
L 144.796441 402.981714 
L 156.59547 402.981714 
L 156.59547 401.248 
L 183.44742 401.248 
L 183.44742 399.514286 
L 183.776038 399.514286 
L 183.776038 397.780571 
L 189.79443 397.780571 
L 189.79443 396.046857 
L 216.535125 396.046857 
L 216.535125 394.313143 
L 329.693265 394.313143 
L 329.693265 392.579429 
L 417.029189 392.579429 
L 417.029189 390.845714 
L 488.994996 390.845714 
L 488.994996 389.112 
L 564.557563 389.112 
L 564.557563 387.378286 
L 583.458384 387.378286 
L 583.458384 385.644571 
L 768.591875 385.644571 
L 768.591875 385.644571 
" clip-path="url(#pb82079ded2)" style="fill: none; stroke: #7f7f7f; stroke-width: 2.2; stroke-linecap: square"/>
   </g>
   <g id="line2d_34">
    <path d="M 45.056875 425.52 
L 47.441488 425.52 
L 47.441488 423.786286 
L 49.96882 423.786286 
L 49.96882 422.052571 
L 52.808086 422.052571 
L 52.808086 420.318857 
L 53.233314 420.318857 
L 53.233314 418.585143 
L 53.625606 418.585143 
L 53.625606 416.851429 
L 56.923122 416.851429 
L 56.923122 415.117714 
L 59.031989 415.117714 
L 59.031989 413.384 
L 60.504363 413.384 
L 60.504363 411.650286 
L 61.648421 411.650286 
L 61.648421 409.916571 
L 66.799525 409.916571 
L 66.799525 408.182857 
L 69.568054 408.182857 
L 69.568054 406.449143 
L 72.170054 406.449143 
L 72.170054 404.715429 
L 83.916509 404.715429 
L 83.916509 402.981714 
L 94.856297 402.981714 
L 94.856297 401.248 
L 104.161604 401.248 
L 104.161604 399.514286 
L 105.775058 399.514286 
L 105.775058 397.780571 
L 112.247839 397.780571 
L 112.247839 396.046857 
L 126.359499 396.046857 
L 126.359499 394.313143 
L 139.832436 394.313143 
L 139.832436 392.579429 
L 142.368457 392.579429 
L 142.368457 390.845714 
L 157.414653 390.845714 
L 157.414653 389.112 
L 160.749491 389.112 
L 160.749491 387.378286 
L 162.952637 387.378286 
L 162.952637 385.644571 
L 179.752325 385.644571 
L 179.752325 383.910857 
L 195.840052 383.910857 
L 195.840052 382.177143 
L 205.467422 382.177143 
L 205.467422 380.443429 
L 361.171977 380.443429 
L 361.171977 378.709714 
L 448.781178 378.709714 
L 448.781178 376.976 
L 490.858372 376.976 
L 490.858372 375.242286 
L 687.717707 375.242286 
L 687.717707 373.508571 
L 768.591875 373.508571 
L 768.591875 373.508571 
" clip-path="url(#pb82079ded2)" style="fill: none; stroke: #d62728; stroke-width: 2.2; stroke-linecap: square"/>
   </g>
   <g id="line2d_35">
    <path d="M 45.056875 425.52 
L 47.107093 425.52 
L 47.107093 423.786286 
L 47.170539 423.786286 
L 47.170539 422.052571 
L 47.290923 422.052571 
L 47.290923 420.318857 
L 47.426438 420.318857 
L 47.426438 418.585143 
L 47.585045 418.585143 
L 47.585045 416.851429 
L 47.792618 416.851429 
L 47.792618 415.117714 
L 47.799864 415.117714 
L 47.799864 413.384 
L 47.96825 413.384 
L 47.96825 411.650286 
L 48.032012 411.650286 
L 48.032012 409.916571 
L 48.368227 409.916571 
L 48.368227 408.182857 
L 48.43016 408.182857 
L 48.43016 406.449143 
L 48.515074 406.449143 
L 48.515074 404.715429 
L 48.657825 404.715429 
L 48.657825 402.981714 
L 48.716502 402.981714 
L 48.716502 401.248 
L 48.897064 401.248 
L 48.897064 399.514286 
L 49.047536 399.514286 
L 49.047536 397.780571 
L 50.454405 397.780571 
L 50.454405 396.046857 
L 51.627905 396.046857 
L 51.627905 394.313143 
L 51.657222 394.313143 
L 51.657222 392.579429 
L 51.775092 392.579429 
L 51.775092 390.845714 
L 52.227419 390.845714 
L 52.227419 389.112 
L 58.49111 389.112 
L 58.49111 387.378286 
L 70.78257 387.378286 
L 70.78257 385.644571 
L 71.939294 385.644571 
L 71.939294 383.910857 
L 72.028084 383.910857 
L 72.028084 382.177143 
L 72.096671 382.177143 
L 72.096671 380.443429 
L 103.416713 380.443429 
L 103.416713 378.709714 
L 202.64246 378.709714 
L 202.64246 376.976 
L 538.606152 376.976 
L 538.606152 375.242286 
L 578.896842 375.242286 
L 578.896842 373.508571 
L 639.188817 373.508571 
L 639.188817 371.774857 
L 768.591875 371.774857 
L 768.591875 371.774857 
" clip-path="url(#pb82079ded2)" style="fill: none; stroke: #1f77b4; stroke-width: 2.2; stroke-linecap: square"/>
   </g>
   <g id="line2d_36">
    <path d="M 45.056875 425.52 
L 53.400224 425.52 
L 53.400224 423.786286 
L 58.486175 423.786286 
L 58.486175 422.052571 
L 58.708332 422.052571 
L 58.708332 420.318857 
L 68.508074 420.318857 
L 68.508074 418.585143 
L 68.52483 418.585143 
L 68.52483 416.851429 
L 73.659619 416.851429 
L 73.659619 415.117714 
L 78.104146 415.117714 
L 78.104146 413.384 
L 80.460128 413.384 
L 80.460128 411.650286 
L 81.525922 411.650286 
L 81.525922 409.916571 
L 83.32407 409.916571 
L 83.32407 408.182857 
L 93.060243 408.182857 
L 93.060243 406.449143 
L 104.275154 406.449143 
L 104.275154 404.715429 
L 107.230676 404.715429 
L 107.230676 402.981714 
L 108.632578 402.981714 
L 108.632578 401.248 
L 115.232158 401.248 
L 115.232158 399.514286 
L 121.146163 399.514286 
L 121.146163 397.780571 
L 126.708292 397.780571 
L 126.708292 396.046857 
L 142.100575 396.046857 
L 142.100575 394.313143 
L 147.897121 394.313143 
L 147.897121 392.579429 
L 171.745641 392.579429 
L 171.745641 390.845714 
L 178.899247 390.845714 
L 178.899247 389.112 
L 189.475811 389.112 
L 189.475811 387.378286 
L 225.437491 387.378286 
L 225.437491 385.644571 
L 245.962103 385.644571 
L 245.962103 383.910857 
L 254.101253 383.910857 
L 254.101253 382.177143 
L 276.939061 382.177143 
L 276.939061 380.443429 
L 277.261881 380.443429 
L 277.261881 378.709714 
L 312.370242 378.709714 
L 312.370242 376.976 
L 338.759297 376.976 
L 338.759297 375.242286 
L 385.654783 375.242286 
L 385.654783 373.508571 
L 439.820599 373.508571 
L 439.820599 371.774857 
L 447.03417 371.774857 
L 447.03417 370.041143 
L 481.065142 370.041143 
L 481.065142 368.307429 
L 542.118224 368.307429 
L 542.118224 366.573714 
L 607.664389 366.573714 
L 607.664389 364.84 
L 768.591875 364.84 
L 768.591875 364.84 
" clip-path="url(#pb82079ded2)" style="fill: none; stroke: #8c564b; stroke-width: 2.2; stroke-linecap: square"/>
   </g>
   <g id="line2d_37">
    <path d="M 45.056875 425.52 
L 47.817423 425.52 
L 47.817423 423.786286 
L 48.036339 423.786286 
L 48.036339 422.052571 
L 48.143588 422.052571 
L 48.143588 420.318857 
L 48.6313 420.318857 
L 48.6313 418.585143 
L 53.389964 418.585143 
L 53.389964 416.851429 
L 55.577857 416.851429 
L 55.577857 415.117714 
L 56.112057 415.117714 
L 56.112057 413.384 
L 80.436741 413.384 
L 80.436741 411.650286 
L 85.164836 411.650286 
L 85.164836 409.916571 
L 87.779565 409.916571 
L 87.779565 408.182857 
L 94.283503 408.182857 
L 94.283503 406.449143 
L 100.011705 406.449143 
L 100.011705 404.715429 
L 103.509696 404.715429 
L 103.509696 402.981714 
L 103.975579 402.981714 
L 103.975579 401.248 
L 105.890018 401.248 
L 105.890018 399.514286 
L 110.375118 399.514286 
L 110.375118 397.780571 
L 134.388924 397.780571 
L 134.388924 396.046857 
L 149.765993 396.046857 
L 149.765993 394.313143 
L 171.383671 394.313143 
L 171.383671 392.579429 
L 183.215377 392.579429 
L 183.215377 390.845714 
L 185.533512 390.845714 
L 185.533512 389.112 
L 194.931161 389.112 
L 194.931161 387.378286 
L 200.7815 387.378286 
L 200.7815 385.644571 
L 235.352022 385.644571 
L 235.352022 383.910857 
L 262.01476 383.910857 
L 262.01476 382.177143 
L 321.345007 382.177143 
L 321.345007 380.443429 
L 390.891341 380.443429 
L 390.891341 378.709714 
L 407.41203 378.709714 
L 407.41203 376.976 
L 409.372623 376.976 
L 409.372623 375.242286 
L 449.509001 375.242286 
L 449.509001 373.508571 
L 452.654856 373.508571 
L 452.654856 371.774857 
L 459.708064 371.774857 
L 459.708064 370.041143 
L 459.779944 370.041143 
L 459.779944 368.307429 
L 493.249529 368.307429 
L 493.249529 366.573714 
L 504.601229 366.573714 
L 504.601229 364.84 
L 534.555504 364.84 
L 534.555504 363.106286 
L 583.298011 363.106286 
L 583.298011 361.372571 
L 677.088356 361.372571 
L 677.088356 359.638857 
L 768.591875 359.638857 
L 768.591875 359.638857 
" clip-path="url(#pb82079ded2)" style="fill: none; stroke: #bcbd22; stroke-width: 2.2; stroke-linecap: square"/>
   </g>
   <g id="line2d_38">
    <path d="M 45.056875 425.52 
L 48.053731 425.52 
L 48.053731 423.786286 
L 48.120864 423.786286 
L 48.120864 422.052571 
L 48.401375 422.052571 
L 48.401375 420.318857 
L 48.645915 420.318857 
L 48.645915 418.585143 
L 49.053962 418.585143 
L 49.053962 416.851429 
L 49.096187 416.851429 
L 49.096187 415.117714 
L 49.157783 415.117714 
L 49.157783 413.384 
L 49.426157 413.384 
L 49.426157 411.650286 
L 49.42753 411.650286 
L 49.42753 409.916571 
L 49.729172 409.916571 
L 49.729172 408.182857 
L 50.54442 408.182857 
L 50.54442 406.449143 
L 50.858718 406.449143 
L 50.858718 404.715429 
L 51.346243 404.715429 
L 51.346243 402.981714 
L 51.60906 402.981714 
L 51.60906 401.248 
L 52.004024 401.248 
L 52.004024 399.514286 
L 52.107612 399.514286 
L 52.107612 397.780571 
L 53.063718 397.780571 
L 53.063718 396.046857 
L 53.552977 396.046857 
L 53.552977 394.313143 
L 58.037278 394.313143 
L 58.037278 392.579429 
L 58.255963 392.579429 
L 58.255963 390.845714 
L 58.759956 390.845714 
L 58.759956 389.112 
L 60.006381 389.112 
L 60.006381 387.378286 
L 62.91575 387.378286 
L 62.91575 385.644571 
L 62.928787 385.644571 
L 62.928787 383.910857 
L 64.541295 383.910857 
L 64.541295 382.177143 
L 76.98456 382.177143 
L 76.98456 380.443429 
L 78.799409 380.443429 
L 78.799409 378.709714 
L 85.821987 378.709714 
L 85.821987 376.976 
L 94.722498 376.976 
L 94.722498 375.242286 
L 100.024179 375.242286 
L 100.024179 373.508571 
L 139.963243 373.508571 
L 139.963243 371.774857 
L 151.152655 371.774857 
L 151.152655 370.041143 
L 213.522012 370.041143 
L 213.522012 368.307429 
L 222.49273 368.307429 
L 222.49273 366.573714 
L 333.614709 366.573714 
L 333.614709 364.84 
L 334.311837 364.84 
L 334.311837 363.106286 
L 358.860281 363.106286 
L 358.860281 361.372571 
L 465.283226 361.372571 
L 465.283226 359.638857 
L 498.914287 359.638857 
L 498.914287 357.905143 
L 560.847042 357.905143 
L 560.847042 356.171429 
L 563.644169 356.171429 
L 563.644169 354.437714 
L 579.260046 354.437714 
L 579.260046 352.704 
L 588.414623 352.704 
L 588.414623 350.970286 
L 611.639969 350.970286 
L 611.639969 349.236571 
L 749.145671 349.236571 
L 749.145671 347.502857 
L 768.591875 347.502857 
L 768.591875 347.502857 
" clip-path="url(#pb82079ded2)" style="fill: none; stroke: #e377c2; stroke-width: 2.2; stroke-linecap: square"/>
   </g>
   <g id="line2d_39">
    <path d="M 45.056875 425.52 
L 47.225962 425.52 
L 47.225962 423.786286 
L 47.590761 423.786286 
L 47.590761 422.052571 
L 47.886089 422.052571 
L 47.886089 420.318857 
L 48.553228 420.318857 
L 48.553228 418.585143 
L 48.730998 418.585143 
L 48.730998 416.851429 
L 49.403662 416.851429 
L 49.403662 415.117714 
L 50.315674 415.117714 
L 50.315674 413.384 
L 50.521081 413.384 
L 50.521081 411.650286 
L 51.882142 411.650286 
L 51.882142 409.916571 
L 52.160173 409.916571 
L 52.160173 408.182857 
L 52.659158 408.182857 
L 52.659158 406.449143 
L 53.889647 406.449143 
L 53.889647 404.715429 
L 55.547603 404.715429 
L 55.547603 402.981714 
L 55.862235 402.981714 
L 55.862235 401.248 
L 56.751069 401.248 
L 56.751069 399.514286 
L 57.084354 399.514286 
L 57.084354 397.780571 
L 57.191792 397.780571 
L 57.191792 396.046857 
L 57.452423 396.046857 
L 57.452423 394.313143 
L 61.472563 394.313143 
L 61.472563 392.579429 
L 61.821661 392.579429 
L 61.821661 390.845714 
L 62.570607 390.845714 
L 62.570607 389.112 
L 65.226544 389.112 
L 65.226544 387.378286 
L 65.880712 387.378286 
L 65.880712 385.644571 
L 67.689333 385.644571 
L 67.689333 383.910857 
L 68.148138 383.910857 
L 68.148138 382.177143 
L 69.007311 382.177143 
L 69.007311 380.443429 
L 69.970289 380.443429 
L 69.970289 378.709714 
L 70.5297 378.709714 
L 70.5297 376.976 
L 71.452078 376.976 
L 71.452078 375.242286 
L 72.791351 375.242286 
L 72.791351 373.508571 
L 79.439783 373.508571 
L 79.439783 371.774857 
L 85.054294 371.774857 
L 85.054294 370.041143 
L 92.878758 370.041143 
L 92.878758 368.307429 
L 94.652295 368.307429 
L 94.652295 366.573714 
L 97.244844 366.573714 
L 97.244844 364.84 
L 97.489087 364.84 
L 97.489087 363.106286 
L 97.776402 363.106286 
L 97.776402 361.372571 
L 99.773446 361.372571 
L 99.773446 359.638857 
L 100.649687 359.638857 
L 100.649687 357.905143 
L 117.447493 357.905143 
L 117.447493 356.171429 
L 118.916721 356.171429 
L 118.916721 354.437714 
L 123.229184 354.437714 
L 123.229184 352.704 
L 250.145519 352.704 
L 250.145519 350.970286 
L 272.307142 350.970286 
L 272.307142 349.236571 
L 276.387237 349.236571 
L 276.387237 347.502857 
L 533.895989 347.502857 
L 533.895989 345.769143 
L 614.421127 345.769143 
L 614.421127 344.035429 
L 768.591875 344.035429 
L 768.591875 344.035429 
" clip-path="url(#pb82079ded2)" style="fill: none; stroke: #2ca02c; stroke-width: 2.2; stroke-linecap: square"/>
   </g>
   <g id="line2d_40">
    <path d="M 45.056875 425.52 
L 48.121811 425.52 
L 48.121811 423.786286 
L 50.331649 423.786286 
L 50.331649 422.052571 
L 50.332343 422.052571 
L 50.332343 420.318857 
L 51.960025 420.318857 
L 51.960025 418.585143 
L 52.664096 418.585143 
L 52.664096 416.851429 
L 52.821858 416.851429 
L 52.821858 415.117714 
L 52.884628 415.117714 
L 52.884628 413.384 
L 55.713856 413.384 
L 55.713856 411.650286 
L 56.106215 411.650286 
L 56.106215 409.916571 
L 56.322509 409.916571 
L 56.322509 408.182857 
L 56.353995 408.182857 
L 56.353995 406.449143 
L 56.810302 406.449143 
L 56.810302 404.715429 
L 57.531129 404.715429 
L 57.531129 402.981714 
L 57.579708 402.981714 
L 57.579708 401.248 
L 58.983958 401.248 
L 58.983958 399.514286 
L 62.373674 399.514286 
L 62.373674 397.780571 
L 63.746099 397.780571 
L 63.746099 396.046857 
L 65.757236 396.046857 
L 65.757236 394.313143 
L 66.46776 394.313143 
L 66.46776 392.579429 
L 71.370079 392.579429 
L 71.370079 390.845714 
L 74.788615 390.845714 
L 74.788615 389.112 
L 74.819536 389.112 
L 74.819536 387.378286 
L 82.643882 387.378286 
L 82.643882 385.644571 
L 85.754896 385.644571 
L 85.754896 383.910857 
L 90.435312 383.910857 
L 90.435312 382.177143 
L 91.606399 382.177143 
L 91.606399 380.443429 
L 92.397746 380.443429 
L 92.397746 378.709714 
L 94.26598 378.709714 
L 94.26598 376.976 
L 103.242423 376.976 
L 103.242423 375.242286 
L 106.253918 375.242286 
L 106.253918 373.508571 
L 107.361895 373.508571 
L 107.361895 371.774857 
L 109.573074 371.774857 
L 109.573074 370.041143 
L 123.112674 370.041143 
L 123.112674 368.307429 
L 157.742371 368.307429 
L 157.742371 366.573714 
L 162.355043 366.573714 
L 162.355043 364.84 
L 194.122957 364.84 
L 194.122957 363.106286 
L 258.473296 363.106286 
L 258.473296 361.372571 
L 291.295641 361.372571 
L 291.295641 359.638857 
L 296.086511 359.638857 
L 296.086511 357.905143 
L 299.602619 357.905143 
L 299.602619 356.171429 
L 343.314512 356.171429 
L 343.314512 354.437714 
L 379.319377 354.437714 
L 379.319377 352.704 
L 422.96457 352.704 
L 422.96457 350.970286 
L 459.285096 350.970286 
L 459.285096 349.236571 
L 531.568813 349.236571 
L 531.568813 347.502857 
L 532.076818 347.502857 
L 532.076818 345.769143 
L 559.856897 345.769143 
L 559.856897 344.035429 
L 768.591875 344.035429 
L 768.591875 344.035429 
" clip-path="url(#pb82079ded2)" style="fill: none; stroke: #ff7f0e; stroke-width: 2.2; stroke-linecap: square"/>
   </g>
   <g id="line2d_41">
    <path d="M 45.056875 425.52 
L 47.742595 425.52 
L 47.80458 416.851429 
L 47.922724 416.851429 
L 47.922724 415.117714 
L 48.070634 415.117714 
L 48.087956 411.650286 
L 48.21423 411.650286 
L 48.319248 408.182857 
L 48.331019 408.182857 
L 48.393011 404.715429 
L 48.530396 404.715429 
L 48.634935 397.780571 
L 48.70202 397.780571 
L 48.70202 396.046857 
L 48.92448 396.046857 
L 49.004544 390.845714 
L 49.23879 390.845714 
L 49.319977 387.378286 
L 49.379511 387.378286 
L 49.379511 385.644571 
L 49.518395 385.644571 
L 49.533786 382.177143 
L 49.633537 382.177143 
L 49.733199 375.242286 
L 49.767419 375.242286 
L 49.767419 373.508571 
L 49.983748 373.508571 
L 49.983748 371.774857 
L 50.100604 371.774857 
L 50.100604 370.041143 
L 50.368092 370.041143 
L 50.396132 366.573714 
L 50.522489 366.573714 
L 50.522489 364.84 
L 51.340643 364.84 
L 51.340643 363.106286 
L 51.470848 363.106286 
L 51.470848 361.372571 
L 51.665016 361.372571 
L 51.665016 359.638857 
L 52.315215 359.638857 
L 52.315215 357.905143 
L 52.794558 357.905143 
L 52.794558 356.171429 
L 53.383449 356.171429 
L 53.383449 354.437714 
L 53.66778 354.437714 
L 53.741451 350.970286 
L 54.107347 350.970286 
L 54.107347 349.236571 
L 55.079483 349.236571 
L 55.079483 347.502857 
L 56.460869 347.502857 
L 56.460869 345.769143 
L 60.784502 345.769143 
L 60.784502 344.035429 
L 62.506754 344.035429 
L 62.506754 342.301714 
L 62.949536 342.301714 
L 62.949536 340.568 
L 74.876971 340.568 
L 74.876971 338.834286 
L 75.567619 338.834286 
L 75.567619 337.100571 
L 78.727995 337.100571 
L 78.727995 335.366857 
L 80.075637 335.366857 
L 80.075637 333.633143 
L 81.035993 333.633143 
L 81.035993 331.899429 
L 88.184607 331.899429 
L 88.184607 330.165714 
L 94.360629 330.165714 
L 94.360629 328.432 
L 94.779591 328.432 
L 94.779591 326.698286 
L 97.344707 326.698286 
L 97.344707 324.964571 
L 98.964087 324.964571 
L 98.964087 323.230857 
L 99.937108 323.230857 
L 99.937108 321.497143 
L 103.838369 321.497143 
L 103.838369 319.763429 
L 104.360428 319.763429 
L 104.360428 318.029714 
L 117.452555 318.029714 
L 117.452555 316.296 
L 119.475109 316.296 
L 119.475109 314.562286 
L 120.437076 314.562286 
L 120.437076 312.828571 
L 122.087091 312.828571 
L 122.087091 311.094857 
L 129.098233 311.094857 
L 129.098233 309.361143 
L 130.210952 309.361143 
L 130.210952 307.627429 
L 137.525041 307.627429 
L 137.525041 305.893714 
L 139.842145 305.893714 
L 139.842145 304.16 
L 145.566679 304.16 
L 145.566679 302.426286 
L 163.738661 302.426286 
L 163.738661 300.692571 
L 171.673004 300.692571 
L 171.673004 298.958857 
L 183.435881 298.958857 
L 183.435881 297.225143 
L 220.696002 297.225143 
L 220.696002 295.491429 
L 222.999999 295.491429 
L 222.999999 293.757714 
L 224.059741 293.757714 
L 224.059741 292.024 
L 226.280893 292.024 
L 226.280893 290.290286 
L 235.767387 290.290286 
L 235.767387 288.556571 
L 243.549785 288.556571 
L 243.549785 286.822857 
L 324.612291 286.822857 
L 324.612291 285.089143 
L 347.012172 285.089143 
L 347.012172 283.355429 
L 373.039527 283.355429 
L 373.039527 281.621714 
L 393.623541 281.621714 
L 393.623541 279.888 
L 427.870275 279.888 
L 427.870275 278.154286 
L 429.285432 278.154286 
L 429.334501 274.686857 
L 437.519028 274.686857 
L 437.519028 272.953143 
L 486.945205 272.953143 
L 486.945205 271.219429 
L 487.957966 271.219429 
L 487.957966 269.485714 
L 517.009292 269.485714 
L 517.009292 267.752 
L 550.36966 267.752 
L 550.36966 266.018286 
L 592.882756 266.018286 
L 592.882756 264.284571 
L 664.943603 264.284571 
L 664.943603 262.550857 
L 666.374414 262.550857 
L 666.374414 260.817143 
L 684.279767 260.817143 
L 684.279767 259.083429 
L 768.591875 259.083429 
L 768.591875 259.083429 
" clip-path="url(#pb82079ded2)" style="fill: none; stroke: #9467bd; stroke-width: 2.2; stroke-linecap: square"/>
   </g>
   <g id="patch_3">
    <path d="M 45.056875 425.52 
L 45.056875 61.44 
" style="fill: none; stroke: #000000; stroke-width: 0.8; stroke-linejoin: miter; stroke-linecap: square"/>
   </g>
   <g id="patch_4">
    <path d="M 768.591875 425.52 
L 768.591875 61.44 
" style="fill: none; stroke: #000000; stroke-width: 0.8; stroke-linejoin: miter; stroke-linecap: square"/>
   </g>
   <g id="patch_5">
    <path d="M 45.056875 425.52 
L 768.591875 425.52 
" style="fill: none; stroke: #000000; stroke-width: 0.8; stroke-linejoin: miter; stroke-linecap: square"/>
   </g>
   <g id="patch_6">
    <path d="M 45.056875 61.44 
L 768.591875 61.44 
" style="fill: none; stroke: #000000; stroke-width: 0.8; stroke-linejoin: miter; stroke-linecap: square"/>
   </g>
   <g id="text_19">
    <!-- Solved (SAT/UNSAT) -->
    <g transform="translate(344.840234 55.44) scale(0.11 -0.11)">
     <defs>
      <path id="DejaVuSans-Bold-53" d="M 3834 4519 
L 3834 3531 
Q 3450 3703 3084 3790 
Q 2719 3878 2394 3878 
Q 1963 3878 1756 3759 
Q 1550 3641 1550 3391 
Q 1550 3203 1689 3098 
Q 1828 2994 2194 2919 
L 2706 2816 
Q 3484 2659 3812 2340 
Q 4141 2022 4141 1434 
Q 4141 663 3683 286 
Q 3225 -91 2284 -91 
Q 1841 -91 1394 -6 
Q 947 78 500 244 
L 500 1259 
Q 947 1022 1364 901 
Q 1781 781 2169 781 
Q 2563 781 2772 912 
Q 2981 1044 2981 1288 
Q 2981 1506 2839 1625 
Q 2697 1744 2272 1838 
L 1806 1941 
Q 1106 2091 782 2419 
Q 459 2747 459 3303 
Q 459 4000 909 4375 
Q 1359 4750 2203 4750 
Q 2588 4750 2994 4692 
Q 3400 4634 3834 4519 
z
" transform="scale(0.015625)"/>
      <path id="DejaVuSans-Bold-6f" d="M 2203 2784 
Q 1831 2784 1636 2517 
Q 1441 2250 1441 1747 
Q 1441 1244 1636 976 
Q 1831 709 2203 709 
Q 2569 709 2762 976 
Q 2956 1244 2956 1747 
Q 2956 2250 2762 2517 
Q 2569 2784 2203 2784 
z
M 2203 3584 
Q 3106 3584 3614 3096 
Q 4122 2609 4122 1747 
Q 4122 884 3614 396 
Q 3106 -91 2203 -91 
Q 1297 -91 786 396 
Q 275 884 275 1747 
Q 275 2609 786 3096 
Q 1297 3584 2203 3584 
z
" transform="scale(0.015625)"/>
      <path id="DejaVuSans-Bold-6c" d="M 538 4863 
L 1656 4863 
L 1656 0 
L 538 0 
L 538 4863 
z
" transform="scale(0.015625)"/>
      <path id="DejaVuSans-Bold-76" d="M 97 3500 
L 1216 3500 
L 2088 1081 
L 2956 3500 
L 4078 3500 
L 2700 0 
L 1472 0 
L 97 3500 
z
" transform="scale(0.015625)"/>
      <path id="DejaVuSans-Bold-65" d="M 4031 1759 
L 4031 1441 
L 1416 1441 
Q 1456 1047 1700 850 
Q 1944 653 2381 653 
Q 2734 653 3104 758 
Q 3475 863 3866 1075 
L 3866 213 
Q 3469 63 3072 -14 
Q 2675 -91 2278 -91 
Q 1328 -91 801 392 
Q 275 875 275 1747 
Q 275 2603 792 3093 
Q 1309 3584 2216 3584 
Q 3041 3584 3536 3087 
Q 4031 2591 4031 1759 
z
M 2881 2131 
Q 2881 2450 2695 2645 
Q 2509 2841 2209 2841 
Q 1884 2841 1681 2658 
Q 1478 2475 1428 2131 
L 2881 2131 
z
" transform="scale(0.015625)"/>
      <path id="DejaVuSans-Bold-64" d="M 2919 2988 
L 2919 4863 
L 4044 4863 
L 4044 0 
L 2919 0 
L 2919 506 
Q 2688 197 2409 53 
Q 2131 -91 1766 -91 
Q 1119 -91 703 423 
Q 288 938 288 1747 
Q 288 2556 703 3070 
Q 1119 3584 1766 3584 
Q 2128 3584 2408 3439 
Q 2688 3294 2919 2988 
z
M 2181 722 
Q 2541 722 2730 984 
Q 2919 1247 2919 1747 
Q 2919 2247 2730 2509 
Q 2541 2772 2181 2772 
Q 1825 2772 1636 2509 
Q 1447 2247 1447 1747 
Q 1447 1247 1636 984 
Q 1825 722 2181 722 
z
" transform="scale(0.015625)"/>
      <path id="DejaVuSans-Bold-20" transform="scale(0.015625)"/>
      <path id="DejaVuSans-Bold-28" d="M 2413 -844 
L 1484 -844 
Q 1006 -72 778 623 
Q 550 1319 550 2003 
Q 550 2688 779 3389 
Q 1009 4091 1484 4856 
L 2413 4856 
Q 2013 4116 1813 3408 
Q 1613 2700 1613 2009 
Q 1613 1319 1811 609 
Q 2009 -100 2413 -844 
z
" transform="scale(0.015625)"/>
      <path id="DejaVuSans-Bold-41" d="M 3419 850 
L 1538 850 
L 1241 0 
L 31 0 
L 1759 4666 
L 3194 4666 
L 4922 0 
L 3713 0 
L 3419 850 
z
M 1838 1716 
L 3116 1716 
L 2478 3572 
L 1838 1716 
z
" transform="scale(0.015625)"/>
      <path id="DejaVuSans-Bold-54" d="M 31 4666 
L 4331 4666 
L 4331 3756 
L 2784 3756 
L 2784 0 
L 1581 0 
L 1581 3756 
L 31 3756 
L 31 4666 
z
" transform="scale(0.015625)"/>
      <path id="DejaVuSans-Bold-2f" d="M 1644 4666 
L 2338 4666 
L 691 -594 
L 0 -594 
L 1644 4666 
z
" transform="scale(0.015625)"/>
      <path id="DejaVuSans-Bold-55" d="M 588 4666 
L 1791 4666 
L 1791 1869 
Q 1791 1291 1980 1042 
Q 2169 794 2597 794 
Q 3028 794 3217 1042 
Q 3406 1291 3406 1869 
L 3406 4666 
L 4609 4666 
L 4609 1869 
Q 4609 878 4112 393 
Q 3616 -91 2597 -91 
Q 1581 -91 1084 393 
Q 588 878 588 1869 
L 588 4666 
z
" transform="scale(0.015625)"/>
      <path id="DejaVuSans-Bold-4e" d="M 588 4666 
L 1931 4666 
L 3628 1466 
L 3628 4666 
L 4769 4666 
L 4769 0 
L 3425 0 
L 1728 3200 
L 1728 0 
L 588 0 
L 588 4666 
z
" transform="scale(0.015625)"/>
      <path id="DejaVuSans-Bold-29" d="M 513 -844 
Q 913 -100 1113 609 
Q 1313 1319 1313 2009 
Q 1313 2700 1113 3408 
Q 913 4116 513 4856 
L 1441 4856 
Q 1916 4091 2145 3389 
Q 2375 2688 2375 2003 
Q 2375 1319 2147 623 
Q 1919 -72 1441 -844 
L 513 -844 
z
" transform="scale(0.015625)"/>
     </defs>
     <use xlink:href="#DejaVuSans-Bold-53"/>
     <use xlink:href="#DejaVuSans-Bold-6f" transform="translate(72.021484 0)"/>
     <use xlink:href="#DejaVuSans-Bold-6c" transform="translate(140.722656 0)"/>
     <use xlink:href="#DejaVuSans-Bold-76" transform="translate(175 0)"/>
     <use xlink:href="#DejaVuSans-Bold-65" transform="translate(240.185547 0)"/>
     <use xlink:href="#DejaVuSans-Bold-64" transform="translate(308.007812 0)"/>
     <use xlink:href="#DejaVuSans-Bold-20" transform="translate(379.589844 0)"/>
     <use xlink:href="#DejaVuSans-Bold-28" transform="translate(414.404297 0)"/>
     <use xlink:href="#DejaVuSans-Bold-53" transform="translate(460.107422 0)"/>
     <use xlink:href="#DejaVuSans-Bold-41" transform="translate(532.128906 0)"/>
     <use xlink:href="#DejaVuSans-Bold-54" transform="translate(601.771484 0)"/>
     <use xlink:href="#DejaVuSans-Bold-2f" transform="translate(669.984375 0)"/>
     <use xlink:href="#DejaVuSans-Bold-55" transform="translate(706.507812 0)"/>
     <use xlink:href="#DejaVuSans-Bold-4e" transform="translate(787.708984 0)"/>
     <use xlink:href="#DejaVuSans-Bold-53" transform="translate(871.400391 0)"/>
     <use xlink:href="#DejaVuSans-Bold-41" transform="translate(943.421875 0)"/>
     <use xlink:href="#DejaVuSans-Bold-54" transform="translate(1013.064453 0)"/>
     <use xlink:href="#DejaVuSans-Bold-29" transform="translate(1081.277344 0)"/>
    </g>
   </g>
   <g id="legend_1">
    <g id="patch_7">
     <path d="M 255.26625 543.2451 
L 558.3825 543.2451 
Q 559.9825 543.2451 559.9825 541.6451 
L 559.9825 507.2176 
Q 559.9825 505.6176 558.3825 505.6176 
L 255.26625 505.6176 
Q 253.66625 505.6176 253.66625 507.2176 
L 253.66625 541.6451 
Q 253.66625 543.2451 255.26625 543.2451 
z
" style="fill: #ffffff; opacity: 0.95; stroke: #cccccc; stroke-linejoin: miter"/>
    </g>
    <g id="line2d_42">
     <path d="M 256.86625 512.09635 
L 264.86625 512.09635 
L 264.86625 512.09635 
L 272.86625 512.09635 
L 272.86625 512.09635 
" style="fill: none; stroke: #9467bd; stroke-width: 2.2; stroke-linecap: square"/>
    </g>
    <g id="text_20">
     <!-- ortools (96/200) -->
     <g transform="translate(279.26625 514.89635) scale(0.08 -0.08)">
      <defs>
       <path id="DejaVuSans-72" d="M 2631 2963 
Q 2534 3019 2420 3045 
Q 2306 3072 2169 3072 
Q 1681 3072 1420 2755 
Q 1159 2438 1159 1844 
L 1159 0 
L 581 0 
L 581 3500 
L 1159 3500 
L 1159 2956 
Q 1341 3275 1631 3429 
Q 1922 3584 2338 3584 
Q 2397 3584 2469 3576 
Q 2541 3569 2628 3553 
L 2631 2963 
z
" transform="scale(0.015625)"/>
       <path id="DejaVuSans-39" d="M 703 97 
L 703 672 
Q 941 559 1184 500 
Q 1428 441 1663 441 
Q 2288 441 2617 861 
Q 2947 1281 2994 2138 
Q 2813 1869 2534 1725 
Q 2256 1581 1919 1581 
Q 1219 1581 811 2004 
Q 403 2428 403 3163 
Q 403 3881 828 4315 
Q 1253 4750 1959 4750 
Q 2769 4750 3195 4129 
Q 3622 3509 3622 2328 
Q 3622 1225 3098 567 
Q 2575 -91 1691 -91 
Q 1453 -91 1209 -44 
Q 966 3 703 97 
z
M 1959 2075 
Q 2384 2075 2632 2365 
Q 2881 2656 2881 3163 
Q 2881 3666 2632 3958 
Q 2384 4250 1959 4250 
Q 1534 4250 1286 3958 
Q 1038 3666 1038 3163 
Q 1038 2656 1286 2365 
Q 1534 2075 1959 2075 
z
" transform="scale(0.015625)"/>
       <path id="DejaVuSans-2f" d="M 1625 4666 
L 2156 4666 
L 531 -594 
L 0 -594 
L 1625 4666 
z
" transform="scale(0.015625)"/>
      </defs>
      <use xlink:href="#DejaVuSans-6f"/>
      <use xlink:href="#DejaVuSans-72" transform="translate(61.181641 0)"/>
      <use xlink:href="#DejaVuSans-74" transform="translate(102.294922 0)"/>
      <use xlink:href="#DejaVuSans-6f" transform="translate(141.503906 0)"/>
      <use xlink:href="#DejaVuSans-6f" transform="translate(202.685547 0)"/>
      <use xlink:href="#DejaVuSans-6c" transform="translate(263.867188 0)"/>
      <use xlink:href="#DejaVuSans-73" transform="translate(291.650391 0)"/>
      <use xlink:href="#DejaVuSans-20" transform="translate(343.75 0)"/>
      <use xlink:href="#DejaVuSans-28" transform="translate(375.537109 0)"/>
      <use xlink:href="#DejaVuSans-39" transform="translate(414.550781 0)"/>
      <use xlink:href="#DejaVuSans-36" transform="translate(478.173828 0)"/>
      <use xlink:href="#DejaVuSans-2f" transform="translate(541.796875 0)"/>
      <use xlink:href="#DejaVuSans-32" transform="translate(575.488281 0)"/>
      <use xlink:href="#DejaVuSans-30" transform="translate(639.111328 0)"/>
      <use xlink:href="#DejaVuSans-30" transform="translate(702.734375 0)"/>
      <use xlink:href="#DejaVuSans-29" transform="translate(766.357422 0)"/>
     </g>
    </g>
    <g id="line2d_43">
     <path d="M 256.86625 523.83885 
L 264.86625 523.83885 
L 264.86625 523.83885 
L 272.86625 523.83885 
L 272.86625 523.83885 
" style="fill: none; stroke: #ff7f0e; stroke-width: 2.2; stroke-linecap: square"/>
    </g>
    <g id="text_21">
     <!-- exact (47/200) -->
     <g transform="translate(279.26625 526.63885) scale(0.08 -0.08)">
      <defs>
       <path id="DejaVuSans-78" d="M 3513 3500 
L 2247 1797 
L 3578 0 
L 2900 0 
L 1881 1375 
L 863 0 
L 184 0 
L 1544 1831 
L 300 3500 
L 978 3500 
L 1906 2253 
L 2834 3500 
L 3513 3500 
z
" transform="scale(0.015625)"/>
      </defs>
      <use xlink:href="#DejaVuSans-65"/>
      <use xlink:href="#DejaVuSans-78" transform="translate(59.773438 0)"/>
      <use xlink:href="#DejaVuSans-61" transform="translate(118.953125 0)"/>
      <use xlink:href="#DejaVuSans-63" transform="translate(180.232422 0)"/>
      <use xlink:href="#DejaVuSans-74" transform="translate(235.212891 0)"/>
      <use xlink:href="#DejaVuSans-20" transform="translate(274.421875 0)"/>
      <use xlink:href="#DejaVuSans-28" transform="translate(306.208984 0)"/>
      <use xlink:href="#DejaVuSans-34" transform="translate(345.222656 0)"/>
      <use xlink:href="#DejaVuSans-37" transform="translate(408.845703 0)"/>
      <use xlink:href="#DejaVuSans-2f" transform="translate(472.46875 0)"/>
      <use xlink:href="#DejaVuSans-32" transform="translate(506.160156 0)"/>
      <use xlink:href="#DejaVuSans-30" transform="translate(569.783203 0)"/>
      <use xlink:href="#DejaVuSans-30" transform="translate(633.40625 0)"/>
      <use xlink:href="#DejaVuSans-29" transform="translate(697.029297 0)"/>
     </g>
    </g>
    <g id="line2d_44">
     <path d="M 256.86625 535.58135 
L 264.86625 535.58135 
L 264.86625 535.58135 
L 272.86625 535.58135 
L 272.86625 535.58135 
" style="fill: none; stroke: #2ca02c; stroke-width: 2.2; stroke-linecap: square"/>
    </g>
    <g id="text_22">
     <!-- gurobi (47/200) -->
     <g transform="translate(279.26625 538.38135) scale(0.08 -0.08)">
      <defs>
       <path id="DejaVuSans-67" d="M 2906 1791 
Q 2906 2416 2648 2759 
Q 2391 3103 1925 3103 
Q 1463 3103 1205 2759 
Q 947 2416 947 1791 
Q 947 1169 1205 825 
Q 1463 481 1925 481 
Q 2391 481 2648 825 
Q 2906 1169 2906 1791 
z
M 3481 434 
Q 3481 -459 3084 -895 
Q 2688 -1331 1869 -1331 
Q 1566 -1331 1297 -1286 
Q 1028 -1241 775 -1147 
L 775 -588 
Q 1028 -725 1275 -790 
Q 1522 -856 1778 -856 
Q 2344 -856 2625 -561 
Q 2906 -266 2906 331 
L 2906 616 
Q 2728 306 2450 153 
Q 2172 0 1784 0 
Q 1141 0 747 490 
Q 353 981 353 1791 
Q 353 2603 747 3093 
Q 1141 3584 1784 3584 
Q 2172 3584 2450 3431 
Q 2728 3278 2906 2969 
L 2906 3500 
L 3481 3500 
L 3481 434 
z
" transform="scale(0.015625)"/>
       <path id="DejaVuSans-75" d="M 544 1381 
L 544 3500 
L 1119 3500 
L 1119 1403 
Q 1119 906 1312 657 
Q 1506 409 1894 409 
Q 2359 409 2629 706 
Q 2900 1003 2900 1516 
L 2900 3500 
L 3475 3500 
L 3475 0 
L 2900 0 
L 2900 538 
Q 2691 219 2414 64 
Q 2138 -91 1772 -91 
Q 1169 -91 856 284 
Q 544 659 544 1381 
z
M 1991 3584 
L 1991 3584 
z
" transform="scale(0.015625)"/>
       <path id="DejaVuSans-62" d="M 3116 1747 
Q 3116 2381 2855 2742 
Q 2594 3103 2138 3103 
Q 1681 3103 1420 2742 
Q 1159 2381 1159 1747 
Q 1159 1113 1420 752 
Q 1681 391 2138 391 
Q 2594 391 2855 752 
Q 3116 1113 3116 1747 
z
M 1159 2969 
Q 1341 3281 1617 3432 
Q 1894 3584 2278 3584 
Q 2916 3584 3314 3078 
Q 3713 2572 3713 1747 
Q 3713 922 3314 415 
Q 2916 -91 2278 -91 
Q 1894 -91 1617 61 
Q 1341 213 1159 525 
L 1159 0 
L 581 0 
L 581 4863 
L 1159 4863 
L 1159 2969 
z
" transform="scale(0.015625)"/>
      </defs>
      <use xlink:href="#DejaVuSans-67"/>
      <use xlink:href="#DejaVuSans-75" transform="translate(63.476562 0)"/>
      <use xlink:href="#DejaVuSans-72" transform="translate(126.855469 0)"/>
      <use xlink:href="#DejaVuSans-6f" transform="translate(165.71875 0)"/>
      <use xlink:href="#DejaVuSans-62" transform="translate(226.900391 0)"/>
      <use xlink:href="#DejaVuSans-69" transform="translate(290.376953 0)"/>
      <use xlink:href="#DejaVuSans-20" transform="translate(318.160156 0)"/>
      <use xlink:href="#DejaVuSans-28" transform="translate(349.947266 0)"/>
      <use xlink:href="#DejaVuSans-34" transform="translate(388.960938 0)"/>
      <use xlink:href="#DejaVuSans-37" transform="translate(452.583984 0)"/>
      <use xlink:href="#DejaVuSans-2f" transform="translate(516.207031 0)"/>
      <use xlink:href="#DejaVuSans-32" transform="translate(549.898438 0)"/>
      <use xlink:href="#DejaVuSans-30" transform="translate(613.521484 0)"/>
      <use xlink:href="#DejaVuSans-30" transform="translate(677.144531 0)"/>
      <use xlink:href="#DejaVuSans-29" transform="translate(740.767578 0)"/>
     </g>
    </g>
    <g id="line2d_45">
     <path d="M 359.69625 512.09635 
L 367.69625 512.09635 
L 367.69625 512.09635 
L 375.69625 512.09635 
L 375.69625 512.09635 
" style="fill: none; stroke: #e377c2; stroke-width: 2.2; stroke-linecap: square"/>
    </g>
    <g id="text_23">
     <!-- pumpkin (45/200) -->
     <g transform="translate(382.09625 514.89635) scale(0.08 -0.08)">
      <defs>
       <path id="DejaVuSans-70" d="M 1159 525 
L 1159 -1331 
L 581 -1331 
L 581 3500 
L 1159 3500 
L 1159 2969 
Q 1341 3281 1617 3432 
Q 1894 3584 2278 3584 
Q 2916 3584 3314 3078 
Q 3713 2572 3713 1747 
Q 3713 922 3314 415 
Q 2916 -91 2278 -91 
Q 1894 -91 1617 61 
Q 1341 213 1159 525 
z
M 3116 1747 
Q 3116 2381 2855 2742 
Q 2594 3103 2138 3103 
Q 1681 3103 1420 2742 
Q 1159 2381 1159 1747 
Q 1159 1113 1420 752 
Q 1681 391 2138 391 
Q 2594 391 2855 752 
Q 3116 1113 3116 1747 
z
" transform="scale(0.015625)"/>
       <path id="DejaVuSans-6b" d="M 581 4863 
L 1159 4863 
L 1159 1991 
L 2875 3500 
L 3609 3500 
L 1753 1863 
L 3688 0 
L 2938 0 
L 1159 1709 
L 1159 0 
L 581 0 
L 581 4863 
z
" transform="scale(0.015625)"/>
      </defs>
      <use xlink:href="#DejaVuSans-70"/>
      <use xlink:href="#DejaVuSans-75" transform="translate(63.476562 0)"/>
      <use xlink:href="#DejaVuSans-6d" transform="translate(126.855469 0)"/>
      <use xlink:href="#DejaVuSans-70" transform="translate(224.267578 0)"/>
      <use xlink:href="#DejaVuSans-6b" transform="translate(287.744141 0)"/>
      <use xlink:href="#DejaVuSans-69" transform="translate(345.654297 0)"/>
      <use xlink:href="#DejaVuSans-6e" transform="translate(373.4375 0)"/>
      <use xlink:href="#DejaVuSans-20" transform="translate(436.816406 0)"/>
      <use xlink:href="#DejaVuSans-28" transform="translate(468.603516 0)"/>
      <use xlink:href="#DejaVuSans-34" transform="translate(507.617188 0)"/>
      <use xlink:href="#DejaVuSans-35" transform="translate(571.240234 0)"/>
      <use xlink:href="#DejaVuSans-2f" transform="translate(634.863281 0)"/>
      <use xlink:href="#DejaVuSans-32" transform="translate(668.554688 0)"/>
      <use xlink:href="#DejaVuSans-30" transform="translate(732.177734 0)"/>
      <use xlink:href="#DejaVuSans-30" transform="translate(795.800781 0)"/>
      <use xlink:href="#DejaVuSans-29" transform="translate(859.423828 0)"/>
     </g>
    </g>
    <g id="line2d_46">
     <path d="M 359.69625 523.83885 
L 367.69625 523.83885 
L 367.69625 523.83885 
L 375.69625 523.83885 
L 375.69625 523.83885 
" style="fill: none; stroke: #bcbd22; stroke-width: 2.2; stroke-linecap: square"/>
    </g>
    <g id="text_24">
     <!-- z3 (38/200) -->
     <g transform="translate(382.09625 526.63885) scale(0.08 -0.08)">
      <defs>
       <path id="DejaVuSans-7a" d="M 353 3500 
L 3084 3500 
L 3084 2975 
L 922 459 
L 3084 459 
L 3084 0 
L 275 0 
L 275 525 
L 2438 3041 
L 353 3041 
L 353 3500 
z
" transform="scale(0.015625)"/>
       <path id="DejaVuSans-38" d="M 2034 2216 
Q 1584 2216 1326 1975 
Q 1069 1734 1069 1313 
Q 1069 891 1326 650 
Q 1584 409 2034 409 
Q 2484 409 2743 651 
Q 3003 894 3003 1313 
Q 3003 1734 2745 1975 
Q 2488 2216 2034 2216 
z
M 1403 2484 
Q 997 2584 770 2862 
Q 544 3141 544 3541 
Q 544 4100 942 4425 
Q 1341 4750 2034 4750 
Q 2731 4750 3128 4425 
Q 3525 4100 3525 3541 
Q 3525 3141 3298 2862 
Q 3072 2584 2669 2484 
Q 3125 2378 3379 2068 
Q 3634 1759 3634 1313 
Q 3634 634 3220 271 
Q 2806 -91 2034 -91 
Q 1263 -91 848 271 
Q 434 634 434 1313 
Q 434 1759 690 2068 
Q 947 2378 1403 2484 
z
M 1172 3481 
Q 1172 3119 1398 2916 
Q 1625 2713 2034 2713 
Q 2441 2713 2670 2916 
Q 2900 3119 2900 3481 
Q 2900 3844 2670 4047 
Q 2441 4250 2034 4250 
Q 1625 4250 1398 4047 
Q 1172 3844 1172 3481 
z
" transform="scale(0.015625)"/>
      </defs>
      <use xlink:href="#DejaVuSans-7a"/>
      <use xlink:href="#DejaVuSans-33" transform="translate(52.490234 0)"/>
      <use xlink:href="#DejaVuSans-20" transform="translate(116.113281 0)"/>
      <use xlink:href="#DejaVuSans-28" transform="translate(147.900391 0)"/>
      <use xlink:href="#DejaVuSans-33" transform="translate(186.914062 0)"/>
      <use xlink:href="#DejaVuSans-38" transform="translate(250.537109 0)"/>
      <use xlink:href="#DejaVuSans-2f" transform="translate(314.160156 0)"/>
      <use xlink:href="#DejaVuSans-32" transform="translate(347.851562 0)"/>
      <use xlink:href="#DejaVuSans-30" transform="translate(411.474609 0)"/>
      <use xlink:href="#DejaVuSans-30" transform="translate(475.097656 0)"/>
      <use xlink:href="#DejaVuSans-29" transform="translate(538.720703 0)"/>
     </g>
    </g>
    <g id="line2d_47">
     <path d="M 359.69625 535.58135 
L 367.69625 535.58135 
L 367.69625 535.58135 
L 375.69625 535.58135 
L 375.69625 535.58135 
" style="fill: none; stroke: #8c564b; stroke-width: 2.2; stroke-linecap: square"/>
    </g>
    <g id="text_25">
     <!-- pindakaas (35/200) -->
     <g transform="translate(382.09625 538.38135) scale(0.08 -0.08)">
      <use xlink:href="#DejaVuSans-70"/>
      <use xlink:href="#DejaVuSans-69" transform="translate(63.476562 0)"/>
      <use xlink:href="#DejaVuSans-6e" transform="translate(91.259766 0)"/>
      <use xlink:href="#DejaVuSans-64" transform="translate(154.638672 0)"/>
      <use xlink:href="#DejaVuSans-61" transform="translate(218.115234 0)"/>
      <use xlink:href="#DejaVuSans-6b" transform="translate(279.394531 0)"/>
      <use xlink:href="#DejaVuSans-61" transform="translate(335.554688 0)"/>
      <use xlink:href="#DejaVuSans-61" transform="translate(396.833984 0)"/>
      <use xlink:href="#DejaVuSans-73" transform="translate(458.113281 0)"/>
      <use xlink:href="#DejaVuSans-20" transform="translate(510.212891 0)"/>
      <use xlink:href="#DejaVuSans-28" transform="translate(542 0)"/>
      <use xlink:href="#DejaVuSans-33" transform="translate(581.013672 0)"/>
      <use xlink:href="#DejaVuSans-35" transform="translate(644.636719 0)"/>
      <use xlink:href="#DejaVuSans-2f" transform="translate(708.259766 0)"/>
      <use xlink:href="#DejaVuSans-32" transform="translate(741.951172 0)"/>
      <use xlink:href="#DejaVuSans-30" transform="translate(805.574219 0)"/>
      <use xlink:href="#DejaVuSans-30" transform="translate(869.197266 0)"/>
      <use xlink:href="#DejaVuSans-29" transform="translate(932.820312 0)"/>
     </g>
    </g>
    <g id="line2d_48">
     <path d="M 475.84375 512.09635 
L 483.84375 512.09635 
L 483.84375 512.09635 
L 491.84375 512.09635 
L 491.84375 512.09635 
" style="fill: none; stroke: #1f77b4; stroke-width: 2.2; stroke-linecap: square"/>
    </g>
    <g id="text_26">
     <!-- cpo (31/200) -->
     <g transform="translate(498.24375 514.89635) scale(0.08 -0.08)">
      <use xlink:href="#DejaVuSans-63"/>
      <use xlink:href="#DejaVuSans-70" transform="translate(54.980469 0)"/>
      <use xlink:href="#DejaVuSans-6f" transform="translate(118.457031 0)"/>
      <use xlink:href="#DejaVuSans-20" transform="translate(179.638672 0)"/>
      <use xlink:href="#DejaVuSans-28" transform="translate(211.425781 0)"/>
      <use xlink:href="#DejaVuSans-33" transform="translate(250.439453 0)"/>
      <use xlink:href="#DejaVuSans-31" transform="translate(314.0625 0)"/>
      <use xlink:href="#DejaVuSans-2f" transform="translate(377.685547 0)"/>
      <use xlink:href="#DejaVuSans-32" transform="translate(411.376953 0)"/>
      <use xlink:href="#DejaVuSans-30" transform="translate(475 0)"/>
      <use xlink:href="#DejaVuSans-30" transform="translate(538.623047 0)"/>
      <use xlink:href="#DejaVuSans-29" transform="translate(602.246094 0)"/>
     </g>
    </g>
    <g id="line2d_49">
     <path d="M 475.84375 523.83885 
L 483.84375 523.83885 
L 483.84375 523.83885 
L 491.84375 523.83885 
L 491.84375 523.83885 
" style="fill: none; stroke: #d62728; stroke-width: 2.2; stroke-linecap: square"/>
    </g>
    <g id="text_27">
     <!-- highs (30/200) -->
     <g transform="translate(498.24375 526.63885) scale(0.08 -0.08)">
      <defs>
       <path id="DejaVuSans-68" d="M 3513 2113 
L 3513 0 
L 2938 0 
L 2938 2094 
Q 2938 2591 2744 2837 
Q 2550 3084 2163 3084 
Q 1697 3084 1428 2787 
Q 1159 2491 1159 1978 
L 1159 0 
L 581 0 
L 581 4863 
L 1159 4863 
L 1159 2956 
Q 1366 3272 1645 3428 
Q 1925 3584 2291 3584 
Q 2894 3584 3203 3211 
Q 3513 2838 3513 2113 
z
" transform="scale(0.015625)"/>
      </defs>
      <use xlink:href="#DejaVuSans-68"/>
      <use xlink:href="#DejaVuSans-69" transform="translate(63.378906 0)"/>
      <use xlink:href="#DejaVuSans-67" transform="translate(91.162109 0)"/>
      <use xlink:href="#DejaVuSans-68" transform="translate(154.638672 0)"/>
      <use xlink:href="#DejaVuSans-73" transform="translate(218.017578 0)"/>
      <use xlink:href="#DejaVuSans-20" transform="translate(270.117188 0)"/>
      <use xlink:href="#DejaVuSans-28" transform="translate(301.904297 0)"/>
      <use xlink:href="#DejaVuSans-33" transform="translate(340.917969 0)"/>
      <use xlink:href="#DejaVuSans-30" transform="translate(404.541016 0)"/>
      <use xlink:href="#DejaVuSans-2f" transform="translate(468.164062 0)"/>
      <use xlink:href="#DejaVuSans-32" transform="translate(501.855469 0)"/>
      <use xlink:href="#DejaVuSans-30" transform="translate(565.478516 0)"/>
      <use xlink:href="#DejaVuSans-30" transform="translate(629.101562 0)"/>
      <use xlink:href="#DejaVuSans-29" transform="translate(692.724609 0)"/>
     </g>
    </g>
    <g id="line2d_50">
     <path d="M 475.84375 535.58135 
L 483.84375 535.58135 
L 483.84375 535.58135 
L 491.84375 535.58135 
L 491.84375 535.58135 
" style="fill: none; stroke: #7f7f7f; stroke-width: 2.2; stroke-linecap: square"/>
    </g>
    <g id="text_28">
     <!-- scip (23/200) -->
     <g transform="translate(498.24375 538.38135) scale(0.08 -0.08)">
      <use xlink:href="#DejaVuSans-73"/>
      <use xlink:href="#DejaVuSans-63" transform="translate(52.099609 0)"/>
      <use xlink:href="#DejaVuSans-69" transform="translate(107.080078 0)"/>
      <use xlink:href="#DejaVuSans-70" transform="translate(134.863281 0)"/>
      <use xlink:href="#DejaVuSans-20" transform="translate(198.339844 0)"/>
      <use xlink:href="#DejaVuSans-28" transform="translate(230.126953 0)"/>
      <use xlink:href="#DejaVuSans-32" transform="translate(269.140625 0)"/>
      <use xlink:href="#DejaVuSans-33" transform="translate(332.763672 0)"/>
      <use xlink:href="#DejaVuSans-2f" transform="translate(396.386719 0)"/>
      <use xlink:href="#DejaVuSans-32" transform="translate(430.078125 0)"/>
      <use xlink:href="#DejaVuSans-30" transform="translate(493.701172 0)"/>
      <use xlink:href="#DejaVuSans-30" transform="translate(557.324219 0)"/>
      <use xlink:href="#DejaVuSans-29" transform="translate(620.947266 0)"/>
     </g>
    </g>
   </g>
  </g>
  <g id="text_29">
   <!-- Track: XCSP3-2025-CSP25 -->
   <g transform="translate(297.134609 17.077969) scale(0.13 -0.13)">
    <defs>
     <path id="DejaVuSans-Bold-72" d="M 3138 2547 
Q 2991 2616 2845 2648 
Q 2700 2681 2553 2681 
Q 2122 2681 1889 2404 
Q 1656 2128 1656 1613 
L 1656 0 
L 538 0 
L 538 3500 
L 1656 3500 
L 1656 2925 
Q 1872 3269 2151 3426 
Q 2431 3584 2822 3584 
Q 2878 3584 2943 3579 
Q 3009 3575 3134 3559 
L 3138 2547 
z
" transform="scale(0.015625)"/>
     <path id="DejaVuSans-Bold-61" d="M 2106 1575 
Q 1756 1575 1579 1456 
Q 1403 1338 1403 1106 
Q 1403 894 1545 773 
Q 1688 653 1941 653 
Q 2256 653 2472 879 
Q 2688 1106 2688 1447 
L 2688 1575 
L 2106 1575 
z
M 3816 1997 
L 3816 0 
L 2688 0 
L 2688 519 
Q 2463 200 2181 54 
Q 1900 -91 1497 -91 
Q 953 -91 614 226 
Q 275 544 275 1050 
Q 275 1666 698 1953 
Q 1122 2241 2028 2241 
L 2688 2241 
L 2688 2328 
Q 2688 2594 2478 2717 
Q 2269 2841 1825 2841 
Q 1466 2841 1156 2769 
Q 847 2697 581 2553 
L 581 3406 
Q 941 3494 1303 3539 
Q 1666 3584 2028 3584 
Q 2975 3584 3395 3211 
Q 3816 2838 3816 1997 
z
" transform="scale(0.015625)"/>
     <path id="DejaVuSans-Bold-63" d="M 3366 3391 
L 3366 2478 
Q 3138 2634 2908 2709 
Q 2678 2784 2431 2784 
Q 1963 2784 1702 2511 
Q 1441 2238 1441 1747 
Q 1441 1256 1702 982 
Q 1963 709 2431 709 
Q 2694 709 2930 787 
Q 3166 866 3366 1019 
L 3366 103 
Q 3103 6 2833 -42 
Q 2563 -91 2291 -91 
Q 1344 -91 809 395 
Q 275 881 275 1747 
Q 275 2613 809 3098 
Q 1344 3584 2291 3584 
Q 2566 3584 2833 3536 
Q 3100 3488 3366 3391 
z
" transform="scale(0.015625)"/>
     <path id="DejaVuSans-Bold-6b" d="M 538 4863 
L 1656 4863 
L 1656 2216 
L 2944 3500 
L 4244 3500 
L 2534 1894 
L 4378 0 
L 3022 0 
L 1656 1459 
L 1656 0 
L 538 0 
L 538 4863 
z
" transform="scale(0.015625)"/>
     <path id="DejaVuSans-Bold-3a" d="M 716 3500 
L 1844 3500 
L 1844 2291 
L 716 2291 
L 716 3500 
z
M 716 1209 
L 1844 1209 
L 1844 0 
L 716 0 
L 716 1209 
z
" transform="scale(0.015625)"/>
     <path id="DejaVuSans-Bold-58" d="M 3188 2381 
L 4806 0 
L 3553 0 
L 2463 1594 
L 1381 0 
L 122 0 
L 1741 2381 
L 184 4666 
L 1441 4666 
L 2463 3163 
L 3481 4666 
L 4744 4666 
L 3188 2381 
z
" transform="scale(0.015625)"/>
     <path id="DejaVuSans-Bold-43" d="M 4288 256 
Q 3956 84 3597 -3 
Q 3238 -91 2847 -91 
Q 1681 -91 1000 561 
Q 319 1213 319 2328 
Q 319 3447 1000 4098 
Q 1681 4750 2847 4750 
Q 3238 4750 3597 4662 
Q 3956 4575 4288 4403 
L 4288 3438 
Q 3953 3666 3628 3772 
Q 3303 3878 2944 3878 
Q 2300 3878 1931 3465 
Q 1563 3053 1563 2328 
Q 1563 1606 1931 1193 
Q 2300 781 2944 781 
Q 3303 781 3628 887 
Q 3953 994 4288 1222 
L 4288 256 
z
" transform="scale(0.015625)"/>
     <path id="DejaVuSans-Bold-50" d="M 588 4666 
L 2584 4666 
Q 3475 4666 3951 4270 
Q 4428 3875 4428 3144 
Q 4428 2409 3951 2014 
Q 3475 1619 2584 1619 
L 1791 1619 
L 1791 0 
L 588 0 
L 588 4666 
z
M 1791 3794 
L 1791 2491 
L 2456 2491 
Q 2806 2491 2997 2661 
Q 3188 2831 3188 3144 
Q 3188 3456 2997 3625 
Q 2806 3794 2456 3794 
L 1791 3794 
z
" transform="scale(0.015625)"/>
     <path id="DejaVuSans-Bold-33" d="M 2981 2516 
Q 3453 2394 3698 2092 
Q 3944 1791 3944 1325 
Q 3944 631 3412 270 
Q 2881 -91 1863 -91 
Q 1503 -91 1142 -33 
Q 781 25 428 141 
L 428 1069 
Q 766 900 1098 814 
Q 1431 728 1753 728 
Q 2231 728 2486 893 
Q 2741 1059 2741 1369 
Q 2741 1688 2480 1852 
Q 2219 2016 1709 2016 
L 1228 2016 
L 1228 2791 
L 1734 2791 
Q 2188 2791 2409 2933 
Q 2631 3075 2631 3366 
Q 2631 3634 2415 3781 
Q 2200 3928 1806 3928 
Q 1516 3928 1219 3862 
Q 922 3797 628 3669 
L 628 4550 
Q 984 4650 1334 4700 
Q 1684 4750 2022 4750 
Q 2931 4750 3382 4451 
Q 3834 4153 3834 3553 
Q 3834 3144 3618 2883 
Q 3403 2622 2981 2516 
z
" transform="scale(0.015625)"/>
     <path id="DejaVuSans-Bold-2d" d="M 347 2297 
L 2309 2297 
L 2309 1388 
L 347 1388 
L 347 2297 
z
" transform="scale(0.015625)"/>
     <path id="DejaVuSans-Bold-32" d="M 1844 884 
L 3897 884 
L 3897 0 
L 506 0 
L 506 884 
L 2209 2388 
Q 2438 2594 2547 2791 
Q 2656 2988 2656 3200 
Q 2656 3528 2436 3728 
Q 2216 3928 1850 3928 
Q 1569 3928 1234 3808 
Q 900 3688 519 3450 
L 519 4475 
Q 925 4609 1322 4679 
Q 1719 4750 2100 4750 
Q 2938 4750 3402 4381 
Q 3866 4013 3866 3353 
Q 3866 2972 3669 2642 
Q 3472 2313 2841 1759 
L 1844 884 
z
" transform="scale(0.015625)"/>
     <path id="DejaVuSans-Bold-30" d="M 2944 2338 
Q 2944 3213 2780 3570 
Q 2616 3928 2228 3928 
Q 1841 3928 1675 3570 
Q 1509 3213 1509 2338 
Q 1509 1453 1675 1090 
Q 1841 728 2228 728 
Q 2613 728 2778 1090 
Q 2944 1453 2944 2338 
z
M 4147 2328 
Q 4147 1169 3647 539 
Q 3147 -91 2228 -91 
Q 1306 -91 806 539 
Q 306 1169 306 2328 
Q 306 3491 806 4120 
Q 1306 4750 2228 4750 
Q 3147 4750 3647 4120 
Q 4147 3491 4147 2328 
z
" transform="scale(0.015625)"/>
     <path id="DejaVuSans-Bold-35" d="M 678 4666 
L 3669 4666 
L 3669 3781 
L 1638 3781 
L 1638 3059 
Q 1775 3097 1914 3117 
Q 2053 3138 2203 3138 
Q 3056 3138 3531 2711 
Q 4006 2284 4006 1522 
Q 4006 766 3489 337 
Q 2972 -91 2053 -91 
Q 1656 -91 1267 -14 
Q 878 63 494 219 
L 494 1166 
Q 875 947 1217 837 
Q 1559 728 1863 728 
Q 2300 728 2551 942 
Q 2803 1156 2803 1522 
Q 2803 1891 2551 2103 
Q 2300 2316 1863 2316 
Q 1603 2316 1309 2248 
Q 1016 2181 678 2041 
L 678 4666 
z
" transform="scale(0.015625)"/>
    </defs>
    <use xlink:href="#DejaVuSans-Bold-54"/>
    <use xlink:href="#DejaVuSans-Bold-72" transform="translate(57.212891 0)"/>
    <use xlink:href="#DejaVuSans-Bold-61" transform="translate(106.529297 0)"/>
    <use xlink:href="#DejaVuSans-Bold-63" transform="translate(174.009766 0)"/>
    <use xlink:href="#DejaVuSans-Bold-6b" transform="translate(233.287109 0)"/>
    <use xlink:href="#DejaVuSans-Bold-3a" transform="translate(299.791016 0)"/>
    <use xlink:href="#DejaVuSans-Bold-20" transform="translate(339.78125 0)"/>
    <use xlink:href="#DejaVuSans-Bold-58" transform="translate(374.595703 0)"/>
    <use xlink:href="#DejaVuSans-Bold-43" transform="translate(448.070312 0)"/>
    <use xlink:href="#DejaVuSans-Bold-53" transform="translate(523.333984 0)"/>
    <use xlink:href="#DejaVuSans-Bold-50" transform="translate(595.355469 0)"/>
    <use xlink:href="#DejaVuSans-Bold-33" transform="translate(668.646484 0)"/>
    <use xlink:href="#DejaVuSans-Bold-2d" transform="translate(738.226562 0)"/>
    <use xlink:href="#DejaVuSans-Bold-32" transform="translate(779.730469 0)"/>
    <use xlink:href="#DejaVuSans-Bold-30" transform="translate(849.310547 0)"/>
    <use xlink:href="#DejaVuSans-Bold-32" transform="translate(918.890625 0)"/>
    <use xlink:href="#DejaVuSans-Bold-35" transform="translate(988.470703 0)"/>
    <use xlink:href="#DejaVuSans-Bold-2d" transform="translate(1058.050781 0)"/>
    <use xlink:href="#DejaVuSans-Bold-43" transform="translate(1099.554688 0)"/>
    <use xlink:href="#DejaVuSans-Bold-53" transform="translate(1174.818359 0)"/>
    <use xlink:href="#DejaVuSans-Bold-50" transform="translate(1246.839844 0)"/>
    <use xlink:href="#DejaVuSans-Bold-32" transform="translate(1320.130859 0)"/>
    <use xlink:href="#DejaVuSans-Bold-35" transform="translate(1389.710938 0)"/>
   </g>
  </g>
 </g>
 <defs>
  <clipPath id="pb82079ded2">
   <rect x="45.056875" y="61.44" width="723.535" height="364.08"/>
  </clipPath>
 </defs>
</svg>
