<?xml version="1.0" encoding="utf-8" standalone="no"?>
<!DOCTYPE svg PUBLIC "-//W3C//DTD SVG 1.1//EN"
  "http://www.w3.org/Graphics/SVG/1.1/DTD/svg11.dtd">
<svg xmlns:xlink="http://www.w3.org/1999/xlink" width="1612.38125pt" height="526.9601pt" viewBox="0 0 1612.38125 526.9601" xmlns="http://www.w3.org/2000/svg" version="1.1">
 <metadata>
  <rdf:RDF xmlns:dc="http://purl.org/dc/elements/1.1/" xmlns:cc="http://creativecommons.org/ns#" xmlns:rdf="http://www.w3.org/1999/02/22-rdf-syntax-ns#">
   <cc:Work>
    <dc:type rdf:resource="http://purl.org/dc/dcmitype/StillImage"/>
    <dc:date>2026-05-26T14:12:29.838514</dc:date>
    <dc:format>image/svg+xml</dc:format>
    <dc:creator>
     <cc:Agent>
      <dc:title>Matplotlib v3.10.8, https://matplotlib.org/</dc:title>
     </cc:Agent>
    </dc:creator>
   </cc:Work>
  </rdf:RDF>
 </metadata>
 <defs>
  <style type="text/css">*{stroke-linejoin: round; stroke-linecap: butt}</style>
 </defs>
 <g id="figure_1">
  <g id="patch_1">
   <path d="M 0 526.9601 
L 1612.38125 526.9601 
L 1612.38125 0 
L 0 0 
z
" style="fill: #ffffff"/>
  </g>
  <g id="axes_1">
   <g id="patch_2">
    <path d="M 45.056875 425.52 
L 523.791875 425.52 
L 523.791875 61.44 
L 45.056875 61.44 
z
" style="fill: #ffffff"/>
   </g>
   <g id="matplotlib.axis_1">
    <g id="xtick_1">
     <g id="line2d_1">
      <path d="M 45.056875 425.52 
L 45.056875 61.44 
" clip-path="url(#pe8bc0f5a37)" style="fill: none; stroke: #b0b0b0; stroke-opacity: 0.3; stroke-width: 0.8; stroke-linecap: square"/>
     </g>
     <g id="line2d_2">
      <defs>
       <path id="me7f2d1bfc8" d="M 0 0 
L 0 3.5 
" style="stroke: #000000; stroke-width: 0.8"/>
      </defs>
      <g>
       <use xlink:href="#me7f2d1bfc8" x="45.056875" y="425.52" style="stroke: #000000; stroke-width: 0.8"/>
      </g>
     </g>
     <g id="text_1">
      <!-- 0 -->
      <g transform="translate(42.19375 439.358594) scale(0.09 -0.09)">
       <defs>
        <path id="DejaVuSans-30" d="M 2034 4250 
Q 1547 4250 1301 3770 
Q 1056 3291 1056 2328 
Q 1056 1369 1301 889 
Q 1547 409 2034 409 
Q 2525 409 2770 889 
Q 3016 1369 3016 2328 
Q 3016 3291 2770 3770 
Q 2525 4250 2034 4250 
z
M 2034 4750 
Q 2819 4750 3233 4129 
Q 3647 3509 3647 2328 
Q 3647 1150 3233 529 
Q 2819 -91 2034 -91 
Q 1250 -91 836 529 
Q 422 1150 422 2328 
Q 422 3509 836 4129 
Q 1250 4750 2034 4750 
z
" transform="scale(0.015625)"/>
       </defs>
       <use xlink:href="#DejaVuSans-30"/>
      </g>
     </g>
    </g>
    <g id="xtick_2">
     <g id="line2d_3">
      <path d="M 124.846042 425.52 
L 124.846042 61.44 
" clip-path="url(#pe8bc0f5a37)" style="fill: none; stroke: #b0b0b0; stroke-opacity: 0.3; stroke-width: 0.8; stroke-linecap: square"/>
     </g>
     <g id="line2d_4">
      <g>
       <use xlink:href="#me7f2d1bfc8" x="124.846042" y="425.52" style="stroke: #000000; stroke-width: 0.8"/>
      </g>
     </g>
     <g id="text_2">
      <!-- 50 -->
      <g transform="translate(119.119792 439.358594) scale(0.09 -0.09)">
       <defs>
        <path id="DejaVuSans-35" d="M 691 4666 
L 3169 4666 
L 3169 4134 
L 1269 4134 
L 1269 2991 
Q 1406 3038 1543 3061 
Q 1681 3084 1819 3084 
Q 2600 3084 3056 2656 
Q 3513 2228 3513 1497 
Q 3513 744 3044 326 
Q 2575 -91 1722 -91 
Q 1428 -91 1123 -41 
Q 819 9 494 109 
L 494 744 
Q 775 591 1075 516 
Q 1375 441 1709 441 
Q 2250 441 2565 725 
Q 2881 1009 2881 1497 
Q 2881 1984 2565 2268 
Q 2250 2553 1709 2553 
Q 1456 2553 1204 2497 
Q 953 2441 691 2322 
L 691 4666 
z
" transform="scale(0.015625)"/>
       </defs>
       <use xlink:href="#DejaVuSans-35"/>
       <use xlink:href="#DejaVuSans-30" transform="translate(63.623047 0)"/>
      </g>
     </g>
    </g>
    <g id="xtick_3">
     <g id="line2d_5">
      <path d="M 204.635208 425.52 
L 204.635208 61.44 
" clip-path="url(#pe8bc0f5a37)" style="fill: none; stroke: #b0b0b0; stroke-opacity: 0.3; stroke-width: 0.8; stroke-linecap: square"/>
     </g>
     <g id="line2d_6">
      <g>
       <use xlink:href="#me7f2d1bfc8" x="204.635208" y="425.52" style="stroke: #000000; stroke-width: 0.8"/>
      </g>
     </g>
     <g id="text_3">
      <!-- 100 -->
      <g transform="translate(196.045833 439.358594) scale(0.09 -0.09)">
       <defs>
        <path id="DejaVuSans-31" d="M 794 531 
L 1825 531 
L 1825 4091 
L 703 3866 
L 703 4441 
L 1819 4666 
L 2450 4666 
L 2450 531 
L 3481 531 
L 3481 0 
L 794 0 
L 794 531 
z
" transform="scale(0.015625)"/>
       </defs>
       <use xlink:href="#DejaVuSans-31"/>
       <use xlink:href="#DejaVuSans-30" transform="translate(63.623047 0)"/>
       <use xlink:href="#DejaVuSans-30" transform="translate(127.246094 0)"/>
      </g>
     </g>
    </g>
    <g id="xtick_4">
     <g id="line2d_7">
      <path d="M 284.424375 425.52 
L 284.424375 61.44 
" clip-path="url(#pe8bc0f5a37)" style="fill: none; stroke: #b0b0b0; stroke-opacity: 0.3; stroke-width: 0.8; stroke-linecap: square"/>
     </g>
     <g id="line2d_8">
      <g>
       <use xlink:href="#me7f2d1bfc8" x="284.424375" y="425.52" style="stroke: #000000; stroke-width: 0.8"/>
      </g>
     </g>
     <g id="text_4">
      <!-- 150 -->
      <g transform="translate(275.835 439.358594) scale(0.09 -0.09)">
       <use xlink:href="#DejaVuSans-31"/>
       <use xlink:href="#DejaVuSans-35" transform="translate(63.623047 0)"/>
       <use xlink:href="#DejaVuSans-30" transform="translate(127.246094 0)"/>
      </g>
     </g>
    </g>
    <g id="xtick_5">
     <g id="line2d_9">
      <path d="M 364.213542 425.52 
L 364.213542 61.44 
" clip-path="url(#pe8bc0f5a37)" style="fill: none; stroke: #b0b0b0; stroke-opacity: 0.3; stroke-width: 0.8; stroke-linecap: square"/>
     </g>
     <g id="line2d_10">
      <g>
       <use xlink:href="#me7f2d1bfc8" x="364.213542" y="425.52" style="stroke: #000000; stroke-width: 0.8"/>
      </g>
     </g>
     <g id="text_5">
      <!-- 200 -->
      <g transform="translate(355.624167 439.358594) scale(0.09 -0.09)">
       <defs>
        <path id="DejaVuSans-32" d="M 1228 531 
L 3431 531 
L 3431 0 
L 469 0 
L 469 531 
Q 828 903 1448 1529 
Q 2069 2156 2228 2338 
Q 2531 2678 2651 2914 
Q 2772 3150 2772 3378 
Q 2772 3750 2511 3984 
Q 2250 4219 1831 4219 
Q 1534 4219 1204 4116 
Q 875 4013 500 3803 
L 500 4441 
Q 881 4594 1212 4672 
Q 1544 4750 1819 4750 
Q 2544 4750 2975 4387 
Q 3406 4025 3406 3419 
Q 3406 3131 3298 2873 
Q 3191 2616 2906 2266 
Q 2828 2175 2409 1742 
Q 1991 1309 1228 531 
z
" transform="scale(0.015625)"/>
       </defs>
       <use xlink:href="#DejaVuSans-32"/>
       <use xlink:href="#DejaVuSans-30" transform="translate(63.623047 0)"/>
       <use xlink:href="#DejaVuSans-30" transform="translate(127.246094 0)"/>
      </g>
     </g>
    </g>
    <g id="xtick_6">
     <g id="line2d_11">
      <path d="M 444.002708 425.52 
L 444.002708 61.44 
" clip-path="url(#pe8bc0f5a37)" style="fill: none; stroke: #b0b0b0; stroke-opacity: 0.3; stroke-width: 0.8; stroke-linecap: square"/>
     </g>
     <g id="line2d_12">
      <g>
       <use xlink:href="#me7f2d1bfc8" x="444.002708" y="425.52" style="stroke: #000000; stroke-width: 0.8"/>
      </g>
     </g>
     <g id="text_6">
      <!-- 250 -->
      <g transform="translate(435.413333 439.358594) scale(0.09 -0.09)">
       <use xlink:href="#DejaVuSans-32"/>
       <use xlink:href="#DejaVuSans-35" transform="translate(63.623047 0)"/>
       <use xlink:href="#DejaVuSans-30" transform="translate(127.246094 0)"/>
      </g>
     </g>
    </g>
    <g id="xtick_7">
     <g id="line2d_13">
      <path d="M 523.791875 425.52 
L 523.791875 61.44 
" clip-path="url(#pe8bc0f5a37)" style="fill: none; stroke: #b0b0b0; stroke-opacity: 0.3; stroke-width: 0.8; stroke-linecap: square"/>
     </g>
     <g id="line2d_14">
      <g>
       <use xlink:href="#me7f2d1bfc8" x="523.791875" y="425.52" style="stroke: #000000; stroke-width: 0.8"/>
      </g>
     </g>
     <g id="text_7">
      <!-- 300 -->
      <g transform="translate(515.2025 439.358594) scale(0.09 -0.09)">
       <defs>
        <path id="DejaVuSans-33" d="M 2597 2516 
Q 3050 2419 3304 2112 
Q 3559 1806 3559 1356 
Q 3559 666 3084 287 
Q 2609 -91 1734 -91 
Q 1441 -91 1130 -33 
Q 819 25 488 141 
L 488 750 
Q 750 597 1062 519 
Q 1375 441 1716 441 
Q 2309 441 2620 675 
Q 2931 909 2931 1356 
Q 2931 1769 2642 2001 
Q 2353 2234 1838 2234 
L 1294 2234 
L 1294 2753 
L 1863 2753 
Q 2328 2753 2575 2939 
Q 2822 3125 2822 3475 
Q 2822 3834 2567 4026 
Q 2313 4219 1838 4219 
Q 1578 4219 1281 4162 
Q 984 4106 628 3988 
L 628 4550 
Q 988 4650 1302 4700 
Q 1616 4750 1894 4750 
Q 2613 4750 3031 4423 
Q 3450 4097 3450 3541 
Q 3450 3153 3228 2886 
Q 3006 2619 2597 2516 
z
" transform="scale(0.015625)"/>
       </defs>
       <use xlink:href="#DejaVuSans-33"/>
       <use xlink:href="#DejaVuSans-30" transform="translate(63.623047 0)"/>
       <use xlink:href="#DejaVuSans-30" transform="translate(127.246094 0)"/>
      </g>
     </g>
    </g>
    <g id="text_8">
     <!-- Time (s) -->
     <g transform="translate(264.095469 452.82875) scale(0.1 -0.1)">
      <defs>
       <path id="DejaVuSans-54" d="M -19 4666 
L 3928 4666 
L 3928 4134 
L 2272 4134 
L 2272 0 
L 1638 0 
L 1638 4134 
L -19 4134 
L -19 4666 
z
" transform="scale(0.015625)"/>
       <path id="DejaVuSans-69" d="M 603 3500 
L 1178 3500 
L 1178 0 
L 603 0 
L 603 3500 
z
M 603 4863 
L 1178 4863 
L 1178 4134 
L 603 4134 
L 603 4863 
z
" transform="scale(0.015625)"/>
       <path id="DejaVuSans-6d" d="M 3328 2828 
Q 3544 3216 3844 3400 
Q 4144 3584 4550 3584 
Q 5097 3584 5394 3201 
Q 5691 2819 5691 2113 
L 5691 0 
L 5113 0 
L 5113 2094 
Q 5113 2597 4934 2840 
Q 4756 3084 4391 3084 
Q 3944 3084 3684 2787 
Q 3425 2491 3425 1978 
L 3425 0 
L 2847 0 
L 2847 2094 
Q 2847 2600 2669 2842 
Q 2491 3084 2119 3084 
Q 1678 3084 1418 2786 
Q 1159 2488 1159 1978 
L 1159 0 
L 581 0 
L 581 3500 
L 1159 3500 
L 1159 2956 
Q 1356 3278 1631 3431 
Q 1906 3584 2284 3584 
Q 2666 3584 2933 3390 
Q 3200 3197 3328 2828 
z
" transform="scale(0.015625)"/>
       <path id="DejaVuSans-65" d="M 3597 1894 
L 3597 1613 
L 953 1613 
Q 991 1019 1311 708 
Q 1631 397 2203 397 
Q 2534 397 2845 478 
Q 3156 559 3463 722 
L 3463 178 
Q 3153 47 2828 -22 
Q 2503 -91 2169 -91 
Q 1331 -91 842 396 
Q 353 884 353 1716 
Q 353 2575 817 3079 
Q 1281 3584 2069 3584 
Q 2775 3584 3186 3129 
Q 3597 2675 3597 1894 
z
M 3022 2063 
Q 3016 2534 2758 2815 
Q 2500 3097 2075 3097 
Q 1594 3097 1305 2825 
Q 1016 2553 972 2059 
L 3022 2063 
z
" transform="scale(0.015625)"/>
       <path id="DejaVuSans-20" transform="scale(0.015625)"/>
       <path id="DejaVuSans-28" d="M 1984 4856 
Q 1566 4138 1362 3434 
Q 1159 2731 1159 2009 
Q 1159 1288 1364 580 
Q 1569 -128 1984 -844 
L 1484 -844 
Q 1016 -109 783 600 
Q 550 1309 550 2009 
Q 550 2706 781 3412 
Q 1013 4119 1484 4856 
L 1984 4856 
z
" transform="scale(0.015625)"/>
       <path id="DejaVuSans-73" d="M 2834 3397 
L 2834 2853 
Q 2591 2978 2328 3040 
Q 2066 3103 1784 3103 
Q 1356 3103 1142 2972 
Q 928 2841 928 2578 
Q 928 2378 1081 2264 
Q 1234 2150 1697 2047 
L 1894 2003 
Q 2506 1872 2764 1633 
Q 3022 1394 3022 966 
Q 3022 478 2636 193 
Q 2250 -91 1575 -91 
Q 1294 -91 989 -36 
Q 684 19 347 128 
L 347 722 
Q 666 556 975 473 
Q 1284 391 1588 391 
Q 1994 391 2212 530 
Q 2431 669 2431 922 
Q 2431 1156 2273 1281 
Q 2116 1406 1581 1522 
L 1381 1569 
Q 847 1681 609 1914 
Q 372 2147 372 2553 
Q 372 3047 722 3315 
Q 1072 3584 1716 3584 
Q 2034 3584 2315 3537 
Q 2597 3491 2834 3397 
z
" transform="scale(0.015625)"/>
       <path id="DejaVuSans-29" d="M 513 4856 
L 1013 4856 
Q 1481 4119 1714 3412 
Q 1947 2706 1947 2009 
Q 1947 1309 1714 600 
Q 1481 -109 1013 -844 
L 513 -844 
Q 928 -128 1133 580 
Q 1338 1288 1338 2009 
Q 1338 2731 1133 3434 
Q 928 4138 513 4856 
z
" transform="scale(0.015625)"/>
      </defs>
      <use xlink:href="#DejaVuSans-54"/>
      <use xlink:href="#DejaVuSans-69" transform="translate(57.958984 0)"/>
      <use xlink:href="#DejaVuSans-6d" transform="translate(85.742188 0)"/>
      <use xlink:href="#DejaVuSans-65" transform="translate(183.154297 0)"/>
      <use xlink:href="#DejaVuSans-20" transform="translate(244.677734 0)"/>
      <use xlink:href="#DejaVuSans-28" transform="translate(276.464844 0)"/>
      <use xlink:href="#DejaVuSans-73" transform="translate(315.478516 0)"/>
      <use xlink:href="#DejaVuSans-29" transform="translate(367.578125 0)"/>
     </g>
    </g>
   </g>
   <g id="matplotlib.axis_2">
    <g id="ytick_1">
     <g id="line2d_15">
      <path d="M 45.056875 425.52 
L 523.791875 425.52 
" clip-path="url(#pe8bc0f5a37)" style="fill: none; stroke: #b0b0b0; stroke-opacity: 0.3; stroke-width: 0.8; stroke-linecap: square"/>
     </g>
     <g id="line2d_16">
      <defs>
       <path id="m178843189c" d="M 0 0 
L -3.5 0 
" style="stroke: #000000; stroke-width: 0.8"/>
      </defs>
      <g>
       <use xlink:href="#m178843189c" x="45.056875" y="425.52" style="stroke: #000000; stroke-width: 0.8"/>
      </g>
     </g>
     <g id="text_9">
      <!-- 0 -->
      <g transform="translate(32.330625 428.939297) scale(0.09 -0.09)">
       <use xlink:href="#DejaVuSans-30"/>
      </g>
     </g>
    </g>
    <g id="ytick_2">
     <g id="line2d_17">
      <path d="M 45.056875 363.04381 
L 523.791875 363.04381 
" clip-path="url(#pe8bc0f5a37)" style="fill: none; stroke: #b0b0b0; stroke-opacity: 0.3; stroke-width: 0.8; stroke-linecap: square"/>
     </g>
     <g id="line2d_18">
      <g>
       <use xlink:href="#m178843189c" x="45.056875" y="363.04381" style="stroke: #000000; stroke-width: 0.8"/>
      </g>
     </g>
     <g id="text_10">
      <!-- 20 -->
      <g transform="translate(26.604375 366.463106) scale(0.09 -0.09)">
       <use xlink:href="#DejaVuSans-32"/>
       <use xlink:href="#DejaVuSans-30" transform="translate(63.623047 0)"/>
      </g>
     </g>
    </g>
    <g id="ytick_3">
     <g id="line2d_19">
      <path d="M 45.056875 300.567619 
L 523.791875 300.567619 
" clip-path="url(#pe8bc0f5a37)" style="fill: none; stroke: #b0b0b0; stroke-opacity: 0.3; stroke-width: 0.8; stroke-linecap: square"/>
     </g>
     <g id="line2d_20">
      <g>
       <use xlink:href="#m178843189c" x="45.056875" y="300.567619" style="stroke: #000000; stroke-width: 0.8"/>
      </g>
     </g>
     <g id="text_11">
      <!-- 40 -->
      <g transform="translate(26.604375 303.986916) scale(0.09 -0.09)">
       <defs>
        <path id="DejaVuSans-34" d="M 2419 4116 
L 825 1625 
L 2419 1625 
L 2419 4116 
z
M 2253 4666 
L 3047 4666 
L 3047 1625 
L 3713 1625 
L 3713 1100 
L 3047 1100 
L 3047 0 
L 2419 0 
L 2419 1100 
L 313 1100 
L 313 1709 
L 2253 4666 
z
" transform="scale(0.015625)"/>
       </defs>
       <use xlink:href="#DejaVuSans-34"/>
       <use xlink:href="#DejaVuSans-30" transform="translate(63.623047 0)"/>
      </g>
     </g>
    </g>
    <g id="ytick_4">
     <g id="line2d_21">
      <path d="M 45.056875 238.091429 
L 523.791875 238.091429 
" clip-path="url(#pe8bc0f5a37)" style="fill: none; stroke: #b0b0b0; stroke-opacity: 0.3; stroke-width: 0.8; stroke-linecap: square"/>
     </g>
     <g id="line2d_22">
      <g>
       <use xlink:href="#m178843189c" x="45.056875" y="238.091429" style="stroke: #000000; stroke-width: 0.8"/>
      </g>
     </g>
     <g id="text_12">
      <!-- 60 -->
      <g transform="translate(26.604375 241.510725) scale(0.09 -0.09)">
       <defs>
        <path id="DejaVuSans-36" d="M 2113 2584 
Q 1688 2584 1439 2293 
Q 1191 2003 1191 1497 
Q 1191 994 1439 701 
Q 1688 409 2113 409 
Q 2538 409 2786 701 
Q 3034 994 3034 1497 
Q 3034 2003 2786 2293 
Q 2538 2584 2113 2584 
z
M 3366 4563 
L 3366 3988 
Q 3128 4100 2886 4159 
Q 2644 4219 2406 4219 
Q 1781 4219 1451 3797 
Q 1122 3375 1075 2522 
Q 1259 2794 1537 2939 
Q 1816 3084 2150 3084 
Q 2853 3084 3261 2657 
Q 3669 2231 3669 1497 
Q 3669 778 3244 343 
Q 2819 -91 2113 -91 
Q 1303 -91 875 529 
Q 447 1150 447 2328 
Q 447 3434 972 4092 
Q 1497 4750 2381 4750 
Q 2619 4750 2861 4703 
Q 3103 4656 3366 4563 
z
" transform="scale(0.015625)"/>
       </defs>
       <use xlink:href="#DejaVuSans-36"/>
       <use xlink:href="#DejaVuSans-30" transform="translate(63.623047 0)"/>
      </g>
     </g>
    </g>
    <g id="ytick_5">
     <g id="line2d_23">
      <path d="M 45.056875 175.615238 
L 523.791875 175.615238 
" clip-path="url(#pe8bc0f5a37)" style="fill: none; stroke: #b0b0b0; stroke-opacity: 0.3; stroke-width: 0.8; stroke-linecap: square"/>
     </g>
     <g id="line2d_24">
      <g>
       <use xlink:href="#m178843189c" x="45.056875" y="175.615238" style="stroke: #000000; stroke-width: 0.8"/>
      </g>
     </g>
     <g id="text_13">
      <!-- 80 -->
      <g transform="translate(26.604375 179.034535) scale(0.09 -0.09)">
       <defs>
        <path id="DejaVuSans-38" d="M 2034 2216 
Q 1584 2216 1326 1975 
Q 1069 1734 1069 1313 
Q 1069 891 1326 650 
Q 1584 409 2034 409 
Q 2484 409 2743 651 
Q 3003 894 3003 1313 
Q 3003 1734 2745 1975 
Q 2488 2216 2034 2216 
z
M 1403 2484 
Q 997 2584 770 2862 
Q 544 3141 544 3541 
Q 544 4100 942 4425 
Q 1341 4750 2034 4750 
Q 2731 4750 3128 4425 
Q 3525 4100 3525 3541 
Q 3525 3141 3298 2862 
Q 3072 2584 2669 2484 
Q 3125 2378 3379 2068 
Q 3634 1759 3634 1313 
Q 3634 634 3220 271 
Q 2806 -91 2034 -91 
Q 1263 -91 848 271 
Q 434 634 434 1313 
Q 434 1759 690 2068 
Q 947 2378 1403 2484 
z
M 1172 3481 
Q 1172 3119 1398 2916 
Q 1625 2713 2034 2713 
Q 2441 2713 2670 2916 
Q 2900 3119 2900 3481 
Q 2900 3844 2670 4047 
Q 2441 4250 2034 4250 
Q 1625 4250 1398 4047 
Q 1172 3844 1172 3481 
z
" transform="scale(0.015625)"/>
       </defs>
       <use xlink:href="#DejaVuSans-38"/>
       <use xlink:href="#DejaVuSans-30" transform="translate(63.623047 0)"/>
      </g>
     </g>
    </g>
    <g id="ytick_6">
     <g id="line2d_25">
      <path d="M 45.056875 113.139048 
L 523.791875 113.139048 
" clip-path="url(#pe8bc0f5a37)" style="fill: none; stroke: #b0b0b0; stroke-opacity: 0.3; stroke-width: 0.8; stroke-linecap: square"/>
     </g>
     <g id="line2d_26">
      <g>
       <use xlink:href="#m178843189c" x="45.056875" y="113.139048" style="stroke: #000000; stroke-width: 0.8"/>
      </g>
     </g>
     <g id="text_14">
      <!-- 100 -->
      <g transform="translate(20.878125 116.558344) scale(0.09 -0.09)">
       <use xlink:href="#DejaVuSans-31"/>
       <use xlink:href="#DejaVuSans-30" transform="translate(63.623047 0)"/>
       <use xlink:href="#DejaVuSans-30" transform="translate(127.246094 0)"/>
      </g>
     </g>
    </g>
    <g id="text_15">
     <!-- Instances solved -->
     <g transform="translate(14.798438 285.204219) rotate(-90) scale(0.1 -0.1)">
      <defs>
       <path id="DejaVuSans-49" d="M 628 4666 
L 1259 4666 
L 1259 0 
L 628 0 
L 628 4666 
z
" transform="scale(0.015625)"/>
       <path id="DejaVuSans-6e" d="M 3513 2113 
L 3513 0 
L 2938 0 
L 2938 2094 
Q 2938 2591 2744 2837 
Q 2550 3084 2163 3084 
Q 1697 3084 1428 2787 
Q 1159 2491 1159 1978 
L 1159 0 
L 581 0 
L 581 3500 
L 1159 3500 
L 1159 2956 
Q 1366 3272 1645 3428 
Q 1925 3584 2291 3584 
Q 2894 3584 3203 3211 
Q 3513 2838 3513 2113 
z
" transform="scale(0.015625)"/>
       <path id="DejaVuSans-74" d="M 1172 4494 
L 1172 3500 
L 2356 3500 
L 2356 3053 
L 1172 3053 
L 1172 1153 
Q 1172 725 1289 603 
Q 1406 481 1766 481 
L 2356 481 
L 2356 0 
L 1766 0 
Q 1100 0 847 248 
Q 594 497 594 1153 
L 594 3053 
L 172 3053 
L 172 3500 
L 594 3500 
L 594 4494 
L 1172 4494 
z
" transform="scale(0.015625)"/>
       <path id="DejaVuSans-61" d="M 2194 1759 
Q 1497 1759 1228 1600 
Q 959 1441 959 1056 
Q 959 750 1161 570 
Q 1363 391 1709 391 
Q 2188 391 2477 730 
Q 2766 1069 2766 1631 
L 2766 1759 
L 2194 1759 
z
M 3341 1997 
L 3341 0 
L 2766 0 
L 2766 531 
Q 2569 213 2275 61 
Q 1981 -91 1556 -91 
Q 1019 -91 701 211 
Q 384 513 384 1019 
Q 384 1609 779 1909 
Q 1175 2209 1959 2209 
L 2766 2209 
L 2766 2266 
Q 2766 2663 2505 2880 
Q 2244 3097 1772 3097 
Q 1472 3097 1187 3025 
Q 903 2953 641 2809 
L 641 3341 
Q 956 3463 1253 3523 
Q 1550 3584 1831 3584 
Q 2591 3584 2966 3190 
Q 3341 2797 3341 1997 
z
" transform="scale(0.015625)"/>
       <path id="DejaVuSans-63" d="M 3122 3366 
L 3122 2828 
Q 2878 2963 2633 3030 
Q 2388 3097 2138 3097 
Q 1578 3097 1268 2742 
Q 959 2388 959 1747 
Q 959 1106 1268 751 
Q 1578 397 2138 397 
Q 2388 397 2633 464 
Q 2878 531 3122 666 
L 3122 134 
Q 2881 22 2623 -34 
Q 2366 -91 2075 -91 
Q 1284 -91 818 406 
Q 353 903 353 1747 
Q 353 2603 823 3093 
Q 1294 3584 2113 3584 
Q 2378 3584 2631 3529 
Q 2884 3475 3122 3366 
z
" transform="scale(0.015625)"/>
       <path id="DejaVuSans-6f" d="M 1959 3097 
Q 1497 3097 1228 2736 
Q 959 2375 959 1747 
Q 959 1119 1226 758 
Q 1494 397 1959 397 
Q 2419 397 2687 759 
Q 2956 1122 2956 1747 
Q 2956 2369 2687 2733 
Q 2419 3097 1959 3097 
z
M 1959 3584 
Q 2709 3584 3137 3096 
Q 3566 2609 3566 1747 
Q 3566 888 3137 398 
Q 2709 -91 1959 -91 
Q 1206 -91 779 398 
Q 353 888 353 1747 
Q 353 2609 779 3096 
Q 1206 3584 1959 3584 
z
" transform="scale(0.015625)"/>
       <path id="DejaVuSans-6c" d="M 603 4863 
L 1178 4863 
L 1178 0 
L 603 0 
L 603 4863 
z
" transform="scale(0.015625)"/>
       <path id="DejaVuSans-76" d="M 191 3500 
L 800 3500 
L 1894 563 
L 2988 3500 
L 3597 3500 
L 2284 0 
L 1503 0 
L 191 3500 
z
" transform="scale(0.015625)"/>
       <path id="DejaVuSans-64" d="M 2906 2969 
L 2906 4863 
L 3481 4863 
L 3481 0 
L 2906 0 
L 2906 525 
Q 2725 213 2448 61 
Q 2172 -91 1784 -91 
Q 1150 -91 751 415 
Q 353 922 353 1747 
Q 353 2572 751 3078 
Q 1150 3584 1784 3584 
Q 2172 3584 2448 3432 
Q 2725 3281 2906 2969 
z
M 947 1747 
Q 947 1113 1208 752 
Q 1469 391 1925 391 
Q 2381 391 2643 752 
Q 2906 1113 2906 1747 
Q 2906 2381 2643 2742 
Q 2381 3103 1925 3103 
Q 1469 3103 1208 2742 
Q 947 2381 947 1747 
z
" transform="scale(0.015625)"/>
      </defs>
      <use xlink:href="#DejaVuSans-49"/>
      <use xlink:href="#DejaVuSans-6e" transform="translate(29.492188 0)"/>
      <use xlink:href="#DejaVuSans-73" transform="translate(92.871094 0)"/>
      <use xlink:href="#DejaVuSans-74" transform="translate(144.970703 0)"/>
      <use xlink:href="#DejaVuSans-61" transform="translate(184.179688 0)"/>
      <use xlink:href="#DejaVuSans-6e" transform="translate(245.458984 0)"/>
      <use xlink:href="#DejaVuSans-63" transform="translate(308.837891 0)"/>
      <use xlink:href="#DejaVuSans-65" transform="translate(363.818359 0)"/>
      <use xlink:href="#DejaVuSans-73" transform="translate(425.341797 0)"/>
      <use xlink:href="#DejaVuSans-20" transform="translate(477.441406 0)"/>
      <use xlink:href="#DejaVuSans-73" transform="translate(509.228516 0)"/>
      <use xlink:href="#DejaVuSans-6f" transform="translate(561.328125 0)"/>
      <use xlink:href="#DejaVuSans-6c" transform="translate(622.509766 0)"/>
      <use xlink:href="#DejaVuSans-76" transform="translate(650.292969 0)"/>
      <use xlink:href="#DejaVuSans-65" transform="translate(709.472656 0)"/>
      <use xlink:href="#DejaVuSans-64" transform="translate(770.996094 0)"/>
     </g>
    </g>
   </g>
   <g id="line2d_27">
    <path d="M 45.056875 425.52 
L 47.509475 425.52 
L 47.509475 422.39619 
L 48.112927 422.39619 
L 48.112927 419.272381 
L 48.146876 419.272381 
L 48.146876 416.148571 
L 48.581209 416.148571 
L 48.581209 413.024762 
L 48.662016 413.024762 
L 48.662016 409.900952 
L 48.746833 409.900952 
L 48.746833 406.777143 
L 49.079286 406.777143 
L 49.079286 403.653333 
L 49.331881 403.653333 
L 49.331881 400.529524 
L 49.90379 400.529524 
L 49.90379 397.405714 
L 50.191989 397.405714 
L 50.191989 394.281905 
L 50.714244 394.281905 
L 50.714244 391.158095 
L 50.88729 391.158095 
L 50.88729 388.034286 
L 51.186256 388.034286 
L 51.186256 384.910476 
L 51.220737 384.910476 
L 51.220737 381.786667 
L 51.444365 381.786667 
L 51.444365 378.662857 
L 51.61318 378.662857 
L 51.61318 375.539048 
L 53.309526 375.539048 
L 53.309526 372.415238 
L 53.948319 372.415238 
L 53.948319 369.291429 
L 54.243465 369.291429 
L 54.243465 366.167619 
L 54.338942 366.167619 
L 54.338942 363.04381 
L 54.828545 363.04381 
L 54.828545 359.92 
L 55.63914 359.92 
L 55.63914 356.79619 
L 55.74095 356.79619 
L 55.74095 353.672381 
L 55.956502 353.672381 
L 55.956502 350.548571 
L 56.183259 350.548571 
L 56.183259 347.424762 
L 56.725864 347.424762 
L 56.725864 344.300952 
L 57.987614 344.300952 
L 57.987614 341.177143 
L 58.930802 341.177143 
L 58.930802 338.053333 
L 60.513752 338.053333 
L 60.513752 334.929524 
L 61.061314 334.929524 
L 61.061314 331.805714 
L 61.20752 331.805714 
L 61.20752 328.681905 
L 62.552152 328.681905 
L 62.552152 325.558095 
L 63.071884 325.558095 
L 63.071884 322.434286 
L 66.000916 322.434286 
L 66.000916 319.310476 
L 67.154768 319.310476 
L 67.154768 316.186667 
L 69.225516 316.186667 
L 69.225516 313.062857 
L 69.683878 313.062857 
L 69.683878 309.939048 
L 69.833656 309.939048 
L 69.833656 306.815238 
L 70.933746 306.815238 
L 70.933746 303.691429 
L 77.708018 303.691429 
L 77.708018 300.567619 
L 96.370545 300.567619 
L 96.370545 297.44381 
L 97.48412 297.44381 
L 97.48412 294.32 
L 117.69294 294.32 
L 117.69294 291.19619 
L 136.273555 291.19619 
L 136.273555 288.072381 
L 160.770718 288.072381 
L 160.770718 284.948571 
L 163.734685 284.948571 
L 163.734685 281.824762 
L 177.402368 281.824762 
L 177.402368 278.700952 
L 182.071593 278.700952 
L 182.071593 275.577143 
L 213.841021 275.577143 
L 213.841021 272.453333 
L 245.611122 272.453333 
L 245.611122 269.329524 
L 248.542312 269.329524 
L 248.542312 266.205714 
L 259.797525 266.205714 
L 259.797525 263.081905 
L 280.873004 263.081905 
L 280.873004 259.958095 
L 321.830658 259.958095 
L 321.830658 256.834286 
L 360.67595 256.834286 
L 360.67595 253.710476 
L 410.379067 253.710476 
L 410.379067 250.586667 
L 523.791875 250.586667 
L 523.791875 250.586667 
" clip-path="url(#pe8bc0f5a37)" style="fill: none; stroke: #1f77b4; stroke-width: 2.2; stroke-linecap: square"/>
   </g>
   <g id="patch_3">
    <path d="M 45.056875 425.52 
L 45.056875 61.44 
" style="fill: none; stroke: #000000; stroke-width: 0.8; stroke-linejoin: miter; stroke-linecap: square"/>
   </g>
   <g id="patch_4">
    <path d="M 523.791875 425.52 
L 523.791875 61.44 
" style="fill: none; stroke: #000000; stroke-width: 0.8; stroke-linejoin: miter; stroke-linecap: square"/>
   </g>
   <g id="patch_5">
    <path d="M 45.056875 425.52 
L 523.791875 425.52 
" style="fill: none; stroke: #000000; stroke-width: 0.8; stroke-linejoin: miter; stroke-linecap: square"/>
   </g>
   <g id="patch_6">
    <path d="M 45.056875 61.44 
L 523.791875 61.44 
" style="fill: none; stroke: #000000; stroke-width: 0.8; stroke-linejoin: miter; stroke-linecap: square"/>
   </g>
   <g id="text_16">
    <!-- Solved (SAT/UNSAT) -->
    <g transform="translate(222.440234 55.44) scale(0.11 -0.11)">
     <defs>
      <path id="DejaVuSans-Bold-53" d="M 3834 4519 
L 3834 3531 
Q 3450 3703 3084 3790 
Q 2719 3878 2394 3878 
Q 1963 3878 1756 3759 
Q 1550 3641 1550 3391 
Q 1550 3203 1689 3098 
Q 1828 2994 2194 2919 
L 2706 2816 
Q 3484 2659 3812 2340 
Q 4141 2022 4141 1434 
Q 4141 663 3683 286 
Q 3225 -91 2284 -91 
Q 1841 -91 1394 -6 
Q 947 78 500 244 
L 500 1259 
Q 947 1022 1364 901 
Q 1781 781 2169 781 
Q 2563 781 2772 912 
Q 2981 1044 2981 1288 
Q 2981 1506 2839 1625 
Q 2697 1744 2272 1838 
L 1806 1941 
Q 1106 2091 782 2419 
Q 459 2747 459 3303 
Q 459 4000 909 4375 
Q 1359 4750 2203 4750 
Q 2588 4750 2994 4692 
Q 3400 4634 3834 4519 
z
" transform="scale(0.015625)"/>
      <path id="DejaVuSans-Bold-6f" d="M 2203 2784 
Q 1831 2784 1636 2517 
Q 1441 2250 1441 1747 
Q 1441 1244 1636 976 
Q 1831 709 2203 709 
Q 2569 709 2762 976 
Q 2956 1244 2956 1747 
Q 2956 2250 2762 2517 
Q 2569 2784 2203 2784 
z
M 2203 3584 
Q 3106 3584 3614 3096 
Q 4122 2609 4122 1747 
Q 4122 884 3614 396 
Q 3106 -91 2203 -91 
Q 1297 -91 786 396 
Q 275 884 275 1747 
Q 275 2609 786 3096 
Q 1297 3584 2203 3584 
z
" transform="scale(0.015625)"/>
      <path id="DejaVuSans-Bold-6c" d="M 538 4863 
L 1656 4863 
L 1656 0 
L 538 0 
L 538 4863 
z
" transform="scale(0.015625)"/>
      <path id="DejaVuSans-Bold-76" d="M 97 3500 
L 1216 3500 
L 2088 1081 
L 2956 3500 
L 4078 3500 
L 2700 0 
L 1472 0 
L 97 3500 
z
" transform="scale(0.015625)"/>
      <path id="DejaVuSans-Bold-65" d="M 4031 1759 
L 4031 1441 
L 1416 1441 
Q 1456 1047 1700 850 
Q 1944 653 2381 653 
Q 2734 653 3104 758 
Q 3475 863 3866 1075 
L 3866 213 
Q 3469 63 3072 -14 
Q 2675 -91 2278 -91 
Q 1328 -91 801 392 
Q 275 875 275 1747 
Q 275 2603 792 3093 
Q 1309 3584 2216 3584 
Q 3041 3584 3536 3087 
Q 4031 2591 4031 1759 
z
M 2881 2131 
Q 2881 2450 2695 2645 
Q 2509 2841 2209 2841 
Q 1884 2841 1681 2658 
Q 1478 2475 1428 2131 
L 2881 2131 
z
" transform="scale(0.015625)"/>
      <path id="DejaVuSans-Bold-64" d="M 2919 2988 
L 2919 4863 
L 4044 4863 
L 4044 0 
L 2919 0 
L 2919 506 
Q 2688 197 2409 53 
Q 2131 -91 1766 -91 
Q 1119 -91 703 423 
Q 288 938 288 1747 
Q 288 2556 703 3070 
Q 1119 3584 1766 3584 
Q 2128 3584 2408 3439 
Q 2688 3294 2919 2988 
z
M 2181 722 
Q 2541 722 2730 984 
Q 2919 1247 2919 1747 
Q 2919 2247 2730 2509 
Q 2541 2772 2181 2772 
Q 1825 2772 1636 2509 
Q 1447 2247 1447 1747 
Q 1447 1247 1636 984 
Q 1825 722 2181 722 
z
" transform="scale(0.015625)"/>
      <path id="DejaVuSans-Bold-20" transform="scale(0.015625)"/>
      <path id="DejaVuSans-Bold-28" d="M 2413 -844 
L 1484 -844 
Q 1006 -72 778 623 
Q 550 1319 550 2003 
Q 550 2688 779 3389 
Q 1009 4091 1484 4856 
L 2413 4856 
Q 2013 4116 1813 3408 
Q 1613 2700 1613 2009 
Q 1613 1319 1811 609 
Q 2009 -100 2413 -844 
z
" transform="scale(0.015625)"/>
      <path id="DejaVuSans-Bold-41" d="M 3419 850 
L 1538 850 
L 1241 0 
L 31 0 
L 1759 4666 
L 3194 4666 
L 4922 0 
L 3713 0 
L 3419 850 
z
M 1838 1716 
L 3116 1716 
L 2478 3572 
L 1838 1716 
z
" transform="scale(0.015625)"/>
      <path id="DejaVuSans-Bold-54" d="M 31 4666 
L 4331 4666 
L 4331 3756 
L 2784 3756 
L 2784 0 
L 1581 0 
L 1581 3756 
L 31 3756 
L 31 4666 
z
" transform="scale(0.015625)"/>
      <path id="DejaVuSans-Bold-2f" d="M 1644 4666 
L 2338 4666 
L 691 -594 
L 0 -594 
L 1644 4666 
z
" transform="scale(0.015625)"/>
      <path id="DejaVuSans-Bold-55" d="M 588 4666 
L 1791 4666 
L 1791 1869 
Q 1791 1291 1980 1042 
Q 2169 794 2597 794 
Q 3028 794 3217 1042 
Q 3406 1291 3406 1869 
L 3406 4666 
L 4609 4666 
L 4609 1869 
Q 4609 878 4112 393 
Q 3616 -91 2597 -91 
Q 1581 -91 1084 393 
Q 588 878 588 1869 
L 588 4666 
z
" transform="scale(0.015625)"/>
      <path id="DejaVuSans-Bold-4e" d="M 588 4666 
L 1931 4666 
L 3628 1466 
L 3628 4666 
L 4769 4666 
L 4769 0 
L 3425 0 
L 1728 3200 
L 1728 0 
L 588 0 
L 588 4666 
z
" transform="scale(0.015625)"/>
      <path id="DejaVuSans-Bold-29" d="M 513 -844 
Q 913 -100 1113 609 
Q 1313 1319 1313 2009 
Q 1313 2700 1113 3408 
Q 913 4116 513 4856 
L 1441 4856 
Q 1916 4091 2145 3389 
Q 2375 2688 2375 2003 
Q 2375 1319 2147 623 
Q 1919 -72 1441 -844 
L 513 -844 
z
" transform="scale(0.015625)"/>
     </defs>
     <use xlink:href="#DejaVuSans-Bold-53"/>
     <use xlink:href="#DejaVuSans-Bold-6f" transform="translate(72.021484 0)"/>
     <use xlink:href="#DejaVuSans-Bold-6c" transform="translate(140.722656 0)"/>
     <use xlink:href="#DejaVuSans-Bold-76" transform="translate(175 0)"/>
     <use xlink:href="#DejaVuSans-Bold-65" transform="translate(240.185547 0)"/>
     <use xlink:href="#DejaVuSans-Bold-64" transform="translate(308.007812 0)"/>
     <use xlink:href="#DejaVuSans-Bold-20" transform="translate(379.589844 0)"/>
     <use xlink:href="#DejaVuSans-Bold-28" transform="translate(414.404297 0)"/>
     <use xlink:href="#DejaVuSans-Bold-53" transform="translate(460.107422 0)"/>
     <use xlink:href="#DejaVuSans-Bold-41" transform="translate(532.128906 0)"/>
     <use xlink:href="#DejaVuSans-Bold-54" transform="translate(601.771484 0)"/>
     <use xlink:href="#DejaVuSans-Bold-2f" transform="translate(669.984375 0)"/>
     <use xlink:href="#DejaVuSans-Bold-55" transform="translate(706.507812 0)"/>
     <use xlink:href="#DejaVuSans-Bold-4e" transform="translate(787.708984 0)"/>
     <use xlink:href="#DejaVuSans-Bold-53" transform="translate(871.400391 0)"/>
     <use xlink:href="#DejaVuSans-Bold-41" transform="translate(943.421875 0)"/>
     <use xlink:href="#DejaVuSans-Bold-54" transform="translate(1013.064453 0)"/>
     <use xlink:href="#DejaVuSans-Bold-29" transform="translate(1081.277344 0)"/>
    </g>
   </g>
   <g id="legend_1">
    <g id="patch_7">
     <path d="M 239.409375 519.7601 
L 329.439375 519.7601 
Q 331.039375 519.7601 331.039375 518.1601 
L 331.039375 507.2176 
Q 331.039375 505.6176 329.439375 505.6176 
L 239.409375 505.6176 
Q 237.809375 505.6176 237.809375 507.2176 
L 237.809375 518.1601 
Q 237.809375 519.7601 239.409375 519.7601 
z
" style="fill: #ffffff; opacity: 0.95; stroke: #cccccc; stroke-linejoin: miter"/>
    </g>
    <g id="line2d_28">
     <path d="M 241.009375 512.09635 
L 249.009375 512.09635 
L 249.009375 512.09635 
L 257.009375 512.09635 
L 257.009375 512.09635 
" style="fill: none; stroke: #1f77b4; stroke-width: 2.2; stroke-linecap: square"/>
    </g>
    <g id="text_17">
     <!-- ortools (56/111) -->
     <g transform="translate(263.409375 514.89635) scale(0.08 -0.08)">
      <defs>
       <path id="DejaVuSans-72" d="M 2631 2963 
Q 2534 3019 2420 3045 
Q 2306 3072 2169 3072 
Q 1681 3072 1420 2755 
Q 1159 2438 1159 1844 
L 1159 0 
L 581 0 
L 581 3500 
L 1159 3500 
L 1159 2956 
Q 1341 3275 1631 3429 
Q 1922 3584 2338 3584 
Q 2397 3584 2469 3576 
Q 2541 3569 2628 3553 
L 2631 2963 
z
" transform="scale(0.015625)"/>
       <path id="DejaVuSans-2f" d="M 1625 4666 
L 2156 4666 
L 531 -594 
L 0 -594 
L 1625 4666 
z
" transform="scale(0.015625)"/>
      </defs>
      <use xlink:href="#DejaVuSans-6f"/>
      <use xlink:href="#DejaVuSans-72" transform="translate(61.181641 0)"/>
      <use xlink:href="#DejaVuSans-74" transform="translate(102.294922 0)"/>
      <use xlink:href="#DejaVuSans-6f" transform="translate(141.503906 0)"/>
      <use xlink:href="#DejaVuSans-6f" transform="translate(202.685547 0)"/>
      <use xlink:href="#DejaVuSans-6c" transform="translate(263.867188 0)"/>
      <use xlink:href="#DejaVuSans-73" transform="translate(291.650391 0)"/>
      <use xlink:href="#DejaVuSans-20" transform="translate(343.75 0)"/>
      <use xlink:href="#DejaVuSans-28" transform="translate(375.537109 0)"/>
      <use xlink:href="#DejaVuSans-35" transform="translate(414.550781 0)"/>
      <use xlink:href="#DejaVuSans-36" transform="translate(478.173828 0)"/>
      <use xlink:href="#DejaVuSans-2f" transform="translate(541.796875 0)"/>
      <use xlink:href="#DejaVuSans-31" transform="translate(575.488281 0)"/>
      <use xlink:href="#DejaVuSans-31" transform="translate(639.111328 0)"/>
      <use xlink:href="#DejaVuSans-31" transform="translate(702.734375 0)"/>
      <use xlink:href="#DejaVuSans-29" transform="translate(766.357422 0)"/>
     </g>
    </g>
   </g>
  </g>
  <g id="axes_2">
   <g id="patch_8">
    <path d="M 581.456875 425.52 
L 1060.191875 425.52 
L 1060.191875 61.44 
L 581.456875 61.44 
z
" style="fill: #ffffff"/>
   </g>
   <g id="matplotlib.axis_3">
    <g id="xtick_8">
     <g id="line2d_29">
      <path d="M 581.456875 425.52 
L 581.456875 61.44 
" clip-path="url(#p599b242b6c)" style="fill: none; stroke: #b0b0b0; stroke-opacity: 0.3; stroke-width: 0.8; stroke-linecap: square"/>
     </g>
     <g id="line2d_30">
      <g>
       <use xlink:href="#me7f2d1bfc8" x="581.456875" y="425.52" style="stroke: #000000; stroke-width: 0.8"/>
      </g>
     </g>
     <g id="text_18">
      <!-- 0 -->
      <g transform="translate(578.59375 439.358594) scale(0.09 -0.09)">
       <use xlink:href="#DejaVuSans-30"/>
      </g>
     </g>
    </g>
    <g id="xtick_9">
     <g id="line2d_31">
      <path d="M 661.246042 425.52 
L 661.246042 61.44 
" clip-path="url(#p599b242b6c)" style="fill: none; stroke: #b0b0b0; stroke-opacity: 0.3; stroke-width: 0.8; stroke-linecap: square"/>
     </g>
     <g id="line2d_32">
      <g>
       <use xlink:href="#me7f2d1bfc8" x="661.246042" y="425.52" style="stroke: #000000; stroke-width: 0.8"/>
      </g>
     </g>
     <g id="text_19">
      <!-- 50 -->
      <g transform="translate(655.519792 439.358594) scale(0.09 -0.09)">
       <use xlink:href="#DejaVuSans-35"/>
       <use xlink:href="#DejaVuSans-30" transform="translate(63.623047 0)"/>
      </g>
     </g>
    </g>
    <g id="xtick_10">
     <g id="line2d_33">
      <path d="M 741.035208 425.52 
L 741.035208 61.44 
" clip-path="url(#p599b242b6c)" style="fill: none; stroke: #b0b0b0; stroke-opacity: 0.3; stroke-width: 0.8; stroke-linecap: square"/>
     </g>
     <g id="line2d_34">
      <g>
       <use xlink:href="#me7f2d1bfc8" x="741.035208" y="425.52" style="stroke: #000000; stroke-width: 0.8"/>
      </g>
     </g>
     <g id="text_20">
      <!-- 100 -->
      <g transform="translate(732.445833 439.358594) scale(0.09 -0.09)">
       <use xlink:href="#DejaVuSans-31"/>
       <use xlink:href="#DejaVuSans-30" transform="translate(63.623047 0)"/>
       <use xlink:href="#DejaVuSans-30" transform="translate(127.246094 0)"/>
      </g>
     </g>
    </g>
    <g id="xtick_11">
     <g id="line2d_35">
      <path d="M 820.824375 425.52 
L 820.824375 61.44 
" clip-path="url(#p599b242b6c)" style="fill: none; stroke: #b0b0b0; stroke-opacity: 0.3; stroke-width: 0.8; stroke-linecap: square"/>
     </g>
     <g id="line2d_36">
      <g>
       <use xlink:href="#me7f2d1bfc8" x="820.824375" y="425.52" style="stroke: #000000; stroke-width: 0.8"/>
      </g>
     </g>
     <g id="text_21">
      <!-- 150 -->
      <g transform="translate(812.235 439.358594) scale(0.09 -0.09)">
       <use xlink:href="#DejaVuSans-31"/>
       <use xlink:href="#DejaVuSans-35" transform="translate(63.623047 0)"/>
       <use xlink:href="#DejaVuSans-30" transform="translate(127.246094 0)"/>
      </g>
     </g>
    </g>
    <g id="xtick_12">
     <g id="line2d_37">
      <path d="M 900.613542 425.52 
L 900.613542 61.44 
" clip-path="url(#p599b242b6c)" style="fill: none; stroke: #b0b0b0; stroke-opacity: 0.3; stroke-width: 0.8; stroke-linecap: square"/>
     </g>
     <g id="line2d_38">
      <g>
       <use xlink:href="#me7f2d1bfc8" x="900.613542" y="425.52" style="stroke: #000000; stroke-width: 0.8"/>
      </g>
     </g>
     <g id="text_22">
      <!-- 200 -->
      <g transform="translate(892.024167 439.358594) scale(0.09 -0.09)">
       <use xlink:href="#DejaVuSans-32"/>
       <use xlink:href="#DejaVuSans-30" transform="translate(63.623047 0)"/>
       <use xlink:href="#DejaVuSans-30" transform="translate(127.246094 0)"/>
      </g>
     </g>
    </g>
    <g id="xtick_13">
     <g id="line2d_39">
      <path d="M 980.402708 425.52 
L 980.402708 61.44 
" clip-path="url(#p599b242b6c)" style="fill: none; stroke: #b0b0b0; stroke-opacity: 0.3; stroke-width: 0.8; stroke-linecap: square"/>
     </g>
     <g id="line2d_40">
      <g>
       <use xlink:href="#me7f2d1bfc8" x="980.402708" y="425.52" style="stroke: #000000; stroke-width: 0.8"/>
      </g>
     </g>
     <g id="text_23">
      <!-- 250 -->
      <g transform="translate(971.813333 439.358594) scale(0.09 -0.09)">
       <use xlink:href="#DejaVuSans-32"/>
       <use xlink:href="#DejaVuSans-35" transform="translate(63.623047 0)"/>
       <use xlink:href="#DejaVuSans-30" transform="translate(127.246094 0)"/>
      </g>
     </g>
    </g>
    <g id="xtick_14">
     <g id="line2d_41">
      <path d="M 1060.191875 425.52 
L 1060.191875 61.44 
" clip-path="url(#p599b242b6c)" style="fill: none; stroke: #b0b0b0; stroke-opacity: 0.3; stroke-width: 0.8; stroke-linecap: square"/>
     </g>
     <g id="line2d_42">
      <g>
       <use xlink:href="#me7f2d1bfc8" x="1060.191875" y="425.52" style="stroke: #000000; stroke-width: 0.8"/>
      </g>
     </g>
     <g id="text_24">
      <!-- 300 -->
      <g transform="translate(1051.6025 439.358594) scale(0.09 -0.09)">
       <use xlink:href="#DejaVuSans-33"/>
       <use xlink:href="#DejaVuSans-30" transform="translate(63.623047 0)"/>
       <use xlink:href="#DejaVuSans-30" transform="translate(127.246094 0)"/>
      </g>
     </g>
    </g>
    <g id="text_25">
     <!-- Time (s) -->
     <g transform="translate(800.495469 452.82875) scale(0.1 -0.1)">
      <use xlink:href="#DejaVuSans-54"/>
      <use xlink:href="#DejaVuSans-69" transform="translate(57.958984 0)"/>
      <use xlink:href="#DejaVuSans-6d" transform="translate(85.742188 0)"/>
      <use xlink:href="#DejaVuSans-65" transform="translate(183.154297 0)"/>
      <use xlink:href="#DejaVuSans-20" transform="translate(244.677734 0)"/>
      <use xlink:href="#DejaVuSans-28" transform="translate(276.464844 0)"/>
      <use xlink:href="#DejaVuSans-73" transform="translate(315.478516 0)"/>
      <use xlink:href="#DejaVuSans-29" transform="translate(367.578125 0)"/>
     </g>
    </g>
   </g>
   <g id="matplotlib.axis_4">
    <g id="ytick_7">
     <g id="line2d_43">
      <path d="M 581.456875 425.52 
L 1060.191875 425.52 
" clip-path="url(#p599b242b6c)" style="fill: none; stroke: #b0b0b0; stroke-opacity: 0.3; stroke-width: 0.8; stroke-linecap: square"/>
     </g>
     <g id="line2d_44">
      <g>
       <use xlink:href="#m178843189c" x="581.456875" y="425.52" style="stroke: #000000; stroke-width: 0.8"/>
      </g>
     </g>
     <g id="text_26">
      <!-- 0 -->
      <g transform="translate(568.730625 428.939297) scale(0.09 -0.09)">
       <use xlink:href="#DejaVuSans-30"/>
      </g>
     </g>
    </g>
    <g id="ytick_8">
     <g id="line2d_45">
      <path d="M 581.456875 357.531204 
L 1060.191875 357.531204 
" clip-path="url(#p599b242b6c)" style="fill: none; stroke: #b0b0b0; stroke-opacity: 0.3; stroke-width: 0.8; stroke-linecap: square"/>
     </g>
     <g id="line2d_46">
      <g>
       <use xlink:href="#m178843189c" x="581.456875" y="357.531204" style="stroke: #000000; stroke-width: 0.8"/>
      </g>
     </g>
     <g id="text_27">
      <!-- 20 -->
      <g transform="translate(563.004375 360.950501) scale(0.09 -0.09)">
       <use xlink:href="#DejaVuSans-32"/>
       <use xlink:href="#DejaVuSans-30" transform="translate(63.623047 0)"/>
      </g>
     </g>
    </g>
    <g id="ytick_9">
     <g id="line2d_47">
      <path d="M 581.456875 289.542409 
L 1060.191875 289.542409 
" clip-path="url(#p599b242b6c)" style="fill: none; stroke: #b0b0b0; stroke-opacity: 0.3; stroke-width: 0.8; stroke-linecap: square"/>
     </g>
     <g id="line2d_48">
      <g>
       <use xlink:href="#m178843189c" x="581.456875" y="289.542409" style="stroke: #000000; stroke-width: 0.8"/>
      </g>
     </g>
     <g id="text_28">
      <!-- 40 -->
      <g transform="translate(563.004375 292.961706) scale(0.09 -0.09)">
       <use xlink:href="#DejaVuSans-34"/>
       <use xlink:href="#DejaVuSans-30" transform="translate(63.623047 0)"/>
      </g>
     </g>
    </g>
    <g id="ytick_10">
     <g id="line2d_49">
      <path d="M 581.456875 221.553613 
L 1060.191875 221.553613 
" clip-path="url(#p599b242b6c)" style="fill: none; stroke: #b0b0b0; stroke-opacity: 0.3; stroke-width: 0.8; stroke-linecap: square"/>
     </g>
     <g id="line2d_50">
      <g>
       <use xlink:href="#m178843189c" x="581.456875" y="221.553613" style="stroke: #000000; stroke-width: 0.8"/>
      </g>
     </g>
     <g id="text_29">
      <!-- 60 -->
      <g transform="translate(563.004375 224.97291) scale(0.09 -0.09)">
       <use xlink:href="#DejaVuSans-36"/>
       <use xlink:href="#DejaVuSans-30" transform="translate(63.623047 0)"/>
      </g>
     </g>
    </g>
    <g id="ytick_11">
     <g id="line2d_51">
      <path d="M 581.456875 153.564818 
L 1060.191875 153.564818 
" clip-path="url(#p599b242b6c)" style="fill: none; stroke: #b0b0b0; stroke-opacity: 0.3; stroke-width: 0.8; stroke-linecap: square"/>
     </g>
     <g id="line2d_52">
      <g>
       <use xlink:href="#m178843189c" x="581.456875" y="153.564818" style="stroke: #000000; stroke-width: 0.8"/>
      </g>
     </g>
     <g id="text_30">
      <!-- 80 -->
      <g transform="translate(563.004375 156.984115) scale(0.09 -0.09)">
       <use xlink:href="#DejaVuSans-38"/>
       <use xlink:href="#DejaVuSans-30" transform="translate(63.623047 0)"/>
      </g>
     </g>
    </g>
    <g id="ytick_12">
     <g id="line2d_53">
      <path d="M 581.456875 85.576022 
L 1060.191875 85.576022 
" clip-path="url(#p599b242b6c)" style="fill: none; stroke: #b0b0b0; stroke-opacity: 0.3; stroke-width: 0.8; stroke-linecap: square"/>
     </g>
     <g id="line2d_54">
      <g>
       <use xlink:href="#m178843189c" x="581.456875" y="85.576022" style="stroke: #000000; stroke-width: 0.8"/>
      </g>
     </g>
     <g id="text_31">
      <!-- 100 -->
      <g transform="translate(557.278125 88.995319) scale(0.09 -0.09)">
       <use xlink:href="#DejaVuSans-31"/>
       <use xlink:href="#DejaVuSans-30" transform="translate(63.623047 0)"/>
       <use xlink:href="#DejaVuSans-30" transform="translate(127.246094 0)"/>
      </g>
     </g>
    </g>
    <g id="text_32">
     <!-- Instances proved optimal -->
     <g transform="translate(551.198437 306.822969) rotate(-90) scale(0.1 -0.1)">
      <defs>
       <path id="DejaVuSans-70" d="M 1159 525 
L 1159 -1331 
L 581 -1331 
L 581 3500 
L 1159 3500 
L 1159 2969 
Q 1341 3281 1617 3432 
Q 1894 3584 2278 3584 
Q 2916 3584 3314 3078 
Q 3713 2572 3713 1747 
Q 3713 922 3314 415 
Q 2916 -91 2278 -91 
Q 1894 -91 1617 61 
Q 1341 213 1159 525 
z
M 3116 1747 
Q 3116 2381 2855 2742 
Q 2594 3103 2138 3103 
Q 1681 3103 1420 2742 
Q 1159 2381 1159 1747 
Q 1159 1113 1420 752 
Q 1681 391 2138 391 
Q 2594 391 2855 752 
Q 3116 1113 3116 1747 
z
" transform="scale(0.015625)"/>
      </defs>
      <use xlink:href="#DejaVuSans-49"/>
      <use xlink:href="#DejaVuSans-6e" transform="translate(29.492188 0)"/>
      <use xlink:href="#DejaVuSans-73" transform="translate(92.871094 0)"/>
      <use xlink:href="#DejaVuSans-74" transform="translate(144.970703 0)"/>
      <use xlink:href="#DejaVuSans-61" transform="translate(184.179688 0)"/>
      <use xlink:href="#DejaVuSans-6e" transform="translate(245.458984 0)"/>
      <use xlink:href="#DejaVuSans-63" transform="translate(308.837891 0)"/>
      <use xlink:href="#DejaVuSans-65" transform="translate(363.818359 0)"/>
      <use xlink:href="#DejaVuSans-73" transform="translate(425.341797 0)"/>
      <use xlink:href="#DejaVuSans-20" transform="translate(477.441406 0)"/>
      <use xlink:href="#DejaVuSans-70" transform="translate(509.228516 0)"/>
      <use xlink:href="#DejaVuSans-72" transform="translate(572.705078 0)"/>
      <use xlink:href="#DejaVuSans-6f" transform="translate(611.568359 0)"/>
      <use xlink:href="#DejaVuSans-76" transform="translate(672.75 0)"/>
      <use xlink:href="#DejaVuSans-65" transform="translate(731.929688 0)"/>
      <use xlink:href="#DejaVuSans-64" transform="translate(793.453125 0)"/>
      <use xlink:href="#DejaVuSans-20" transform="translate(856.929688 0)"/>
      <use xlink:href="#DejaVuSans-6f" transform="translate(888.716797 0)"/>
      <use xlink:href="#DejaVuSans-70" transform="translate(949.898438 0)"/>
      <use xlink:href="#DejaVuSans-74" transform="translate(1013.375 0)"/>
      <use xlink:href="#DejaVuSans-69" transform="translate(1052.583984 0)"/>
      <use xlink:href="#DejaVuSans-6d" transform="translate(1080.367188 0)"/>
      <use xlink:href="#DejaVuSans-61" transform="translate(1177.779297 0)"/>
      <use xlink:href="#DejaVuSans-6c" transform="translate(1239.058594 0)"/>
     </g>
    </g>
   </g>
   <g id="line2d_55">
    <path d="M 581.456875 425.52 
L 583.909475 425.52 
L 583.909475 422.12056 
L 584.512927 422.12056 
L 584.512927 418.72112 
L 584.546876 418.72112 
L 584.546876 415.321681 
L 584.981209 415.321681 
L 584.981209 411.922241 
L 585.062016 411.922241 
L 585.062016 408.522801 
L 585.146833 408.522801 
L 585.146833 405.123361 
L 585.479286 405.123361 
L 585.479286 401.723922 
L 585.731881 401.723922 
L 585.731881 398.324482 
L 586.30379 398.324482 
L 586.30379 394.925042 
L 586.591989 394.925042 
L 586.591989 391.525602 
L 587.114244 391.525602 
L 587.114244 388.126162 
L 587.28729 388.126162 
L 587.28729 384.726723 
L 587.586256 384.726723 
L 587.586256 381.327283 
L 587.620737 381.327283 
L 587.620737 377.927843 
L 587.844365 377.927843 
L 587.844365 374.528403 
L 588.01318 374.528403 
L 588.01318 371.128964 
L 589.709526 371.128964 
L 589.709526 367.729524 
L 590.348319 367.729524 
L 590.348319 364.330084 
L 590.643465 364.330084 
L 590.643465 360.930644 
L 590.738942 360.930644 
L 590.738942 357.531204 
L 591.228545 357.531204 
L 591.228545 354.131765 
L 592.03914 354.131765 
L 592.03914 350.732325 
L 592.14095 350.732325 
L 592.14095 347.332885 
L 592.356502 347.332885 
L 592.356502 343.933445 
L 592.583259 343.933445 
L 592.583259 340.534006 
L 593.125864 340.534006 
L 593.125864 337.134566 
L 594.387614 337.134566 
L 594.387614 333.735126 
L 595.330802 333.735126 
L 595.330802 330.335686 
L 596.913752 330.335686 
L 596.913752 326.936246 
L 597.461314 326.936246 
L 597.461314 323.536807 
L 597.60752 323.536807 
L 597.60752 320.137367 
L 598.952152 320.137367 
L 598.952152 316.737927 
L 599.471884 316.737927 
L 599.471884 313.338487 
L 602.400916 313.338487 
L 602.400916 309.939048 
L 603.554768 309.939048 
L 603.554768 306.539608 
L 605.625516 306.539608 
L 605.625516 303.140168 
L 606.083878 303.140168 
L 606.083878 299.740728 
L 606.233656 299.740728 
L 606.233656 296.341289 
L 607.333746 296.341289 
L 607.333746 292.941849 
L 614.108018 292.941849 
L 614.108018 289.542409 
L 632.770545 289.542409 
L 632.770545 286.142969 
L 633.88412 286.142969 
L 633.88412 282.743529 
L 654.09294 282.743529 
L 654.09294 279.34409 
L 672.673555 279.34409 
L 672.673555 275.94465 
L 697.170718 275.94465 
L 697.170718 272.54521 
L 700.134685 272.54521 
L 700.134685 269.14577 
L 713.802368 269.14577 
L 713.802368 265.746331 
L 718.471593 265.746331 
L 718.471593 262.346891 
L 750.241021 262.346891 
L 750.241021 258.947451 
L 782.011122 258.947451 
L 782.011122 255.548011 
L 784.942312 255.548011 
L 784.942312 252.148571 
L 796.197525 252.148571 
L 796.197525 248.749132 
L 817.273004 248.749132 
L 817.273004 245.349692 
L 858.230658 245.349692 
L 858.230658 241.950252 
L 897.07595 241.950252 
L 897.07595 238.550812 
L 946.779067 238.550812 
L 946.779067 235.151373 
L 1060.191875 235.151373 
L 1060.191875 235.151373 
" clip-path="url(#p599b242b6c)" style="fill: none; stroke: #1f77b4; stroke-width: 2.2; stroke-linecap: square"/>
   </g>
   <g id="patch_9">
    <path d="M 581.456875 425.52 
L 581.456875 61.44 
" style="fill: none; stroke: #000000; stroke-width: 0.8; stroke-linejoin: miter; stroke-linecap: square"/>
   </g>
   <g id="patch_10">
    <path d="M 1060.191875 425.52 
L 1060.191875 61.44 
" style="fill: none; stroke: #000000; stroke-width: 0.8; stroke-linejoin: miter; stroke-linecap: square"/>
   </g>
   <g id="patch_11">
    <path d="M 581.456875 425.52 
L 1060.191875 425.52 
" style="fill: none; stroke: #000000; stroke-width: 0.8; stroke-linejoin: miter; stroke-linecap: square"/>
   </g>
   <g id="patch_12">
    <path d="M 581.456875 61.44 
L 1060.191875 61.44 
" style="fill: none; stroke: #000000; stroke-width: 0.8; stroke-linejoin: miter; stroke-linecap: square"/>
   </g>
   <g id="text_33">
    <!-- Proved Optimal -->
    <g transform="translate(772.679609 55.44) scale(0.11 -0.11)">
     <defs>
      <path id="DejaVuSans-Bold-50" d="M 588 4666 
L 2584 4666 
Q 3475 4666 3951 4270 
Q 4428 3875 4428 3144 
Q 4428 2409 3951 2014 
Q 3475 1619 2584 1619 
L 1791 1619 
L 1791 0 
L 588 0 
L 588 4666 
z
M 1791 3794 
L 1791 2491 
L 2456 2491 
Q 2806 2491 2997 2661 
Q 3188 2831 3188 3144 
Q 3188 3456 2997 3625 
Q 2806 3794 2456 3794 
L 1791 3794 
z
" transform="scale(0.015625)"/>
      <path id="DejaVuSans-Bold-72" d="M 3138 2547 
Q 2991 2616 2845 2648 
Q 2700 2681 2553 2681 
Q 2122 2681 1889 2404 
Q 1656 2128 1656 1613 
L 1656 0 
L 538 0 
L 538 3500 
L 1656 3500 
L 1656 2925 
Q 1872 3269 2151 3426 
Q 2431 3584 2822 3584 
Q 2878 3584 2943 3579 
Q 3009 3575 3134 3559 
L 3138 2547 
z
" transform="scale(0.015625)"/>
      <path id="DejaVuSans-Bold-4f" d="M 2719 3878 
Q 2169 3878 1866 3472 
Q 1563 3066 1563 2328 
Q 1563 1594 1866 1187 
Q 2169 781 2719 781 
Q 3272 781 3575 1187 
Q 3878 1594 3878 2328 
Q 3878 3066 3575 3472 
Q 3272 3878 2719 3878 
z
M 2719 4750 
Q 3844 4750 4481 4106 
Q 5119 3463 5119 2328 
Q 5119 1197 4481 553 
Q 3844 -91 2719 -91 
Q 1597 -91 958 553 
Q 319 1197 319 2328 
Q 319 3463 958 4106 
Q 1597 4750 2719 4750 
z
" transform="scale(0.015625)"/>
      <path id="DejaVuSans-Bold-70" d="M 1656 506 
L 1656 -1331 
L 538 -1331 
L 538 3500 
L 1656 3500 
L 1656 2988 
Q 1888 3294 2169 3439 
Q 2450 3584 2816 3584 
Q 3463 3584 3878 3070 
Q 4294 2556 4294 1747 
Q 4294 938 3878 423 
Q 3463 -91 2816 -91 
Q 2450 -91 2169 54 
Q 1888 200 1656 506 
z
M 2400 2772 
Q 2041 2772 1848 2508 
Q 1656 2244 1656 1747 
Q 1656 1250 1848 986 
Q 2041 722 2400 722 
Q 2759 722 2948 984 
Q 3138 1247 3138 1747 
Q 3138 2247 2948 2509 
Q 2759 2772 2400 2772 
z
" transform="scale(0.015625)"/>
      <path id="DejaVuSans-Bold-74" d="M 1759 4494 
L 1759 3500 
L 2913 3500 
L 2913 2700 
L 1759 2700 
L 1759 1216 
Q 1759 972 1856 886 
Q 1953 800 2241 800 
L 2816 800 
L 2816 0 
L 1856 0 
Q 1194 0 917 276 
Q 641 553 641 1216 
L 641 2700 
L 84 2700 
L 84 3500 
L 641 3500 
L 641 4494 
L 1759 4494 
z
" transform="scale(0.015625)"/>
      <path id="DejaVuSans-Bold-69" d="M 538 3500 
L 1656 3500 
L 1656 0 
L 538 0 
L 538 3500 
z
M 538 4863 
L 1656 4863 
L 1656 3950 
L 538 3950 
L 538 4863 
z
" transform="scale(0.015625)"/>
      <path id="DejaVuSans-Bold-6d" d="M 3781 2919 
Q 3994 3244 4286 3414 
Q 4578 3584 4928 3584 
Q 5531 3584 5847 3212 
Q 6163 2841 6163 2131 
L 6163 0 
L 5038 0 
L 5038 1825 
Q 5041 1866 5042 1909 
Q 5044 1953 5044 2034 
Q 5044 2406 4934 2573 
Q 4825 2741 4581 2741 
Q 4263 2741 4089 2478 
Q 3916 2216 3909 1719 
L 3909 0 
L 2784 0 
L 2784 1825 
Q 2784 2406 2684 2573 
Q 2584 2741 2328 2741 
Q 2006 2741 1831 2477 
Q 1656 2213 1656 1722 
L 1656 0 
L 531 0 
L 531 3500 
L 1656 3500 
L 1656 2988 
Q 1863 3284 2130 3434 
Q 2397 3584 2719 3584 
Q 3081 3584 3359 3409 
Q 3638 3234 3781 2919 
z
" transform="scale(0.015625)"/>
      <path id="DejaVuSans-Bold-61" d="M 2106 1575 
Q 1756 1575 1579 1456 
Q 1403 1338 1403 1106 
Q 1403 894 1545 773 
Q 1688 653 1941 653 
Q 2256 653 2472 879 
Q 2688 1106 2688 1447 
L 2688 1575 
L 2106 1575 
z
M 3816 1997 
L 3816 0 
L 2688 0 
L 2688 519 
Q 2463 200 2181 54 
Q 1900 -91 1497 -91 
Q 953 -91 614 226 
Q 275 544 275 1050 
Q 275 1666 698 1953 
Q 1122 2241 2028 2241 
L 2688 2241 
L 2688 2328 
Q 2688 2594 2478 2717 
Q 2269 2841 1825 2841 
Q 1466 2841 1156 2769 
Q 847 2697 581 2553 
L 581 3406 
Q 941 3494 1303 3539 
Q 1666 3584 2028 3584 
Q 2975 3584 3395 3211 
Q 3816 2838 3816 1997 
z
" transform="scale(0.015625)"/>
     </defs>
     <use xlink:href="#DejaVuSans-Bold-50"/>
     <use xlink:href="#DejaVuSans-Bold-72" transform="translate(73.291016 0)"/>
     <use xlink:href="#DejaVuSans-Bold-6f" transform="translate(122.607422 0)"/>
     <use xlink:href="#DejaVuSans-Bold-76" transform="translate(191.308594 0)"/>
     <use xlink:href="#DejaVuSans-Bold-65" transform="translate(256.494141 0)"/>
     <use xlink:href="#DejaVuSans-Bold-64" transform="translate(324.316406 0)"/>
     <use xlink:href="#DejaVuSans-Bold-20" transform="translate(395.898438 0)"/>
     <use xlink:href="#DejaVuSans-Bold-4f" transform="translate(430.712891 0)"/>
     <use xlink:href="#DejaVuSans-Bold-70" transform="translate(515.722656 0)"/>
     <use xlink:href="#DejaVuSans-Bold-74" transform="translate(587.304688 0)"/>
     <use xlink:href="#DejaVuSans-Bold-69" transform="translate(635.107422 0)"/>
     <use xlink:href="#DejaVuSans-Bold-6d" transform="translate(669.384766 0)"/>
     <use xlink:href="#DejaVuSans-Bold-61" transform="translate(773.583984 0)"/>
     <use xlink:href="#DejaVuSans-Bold-6c" transform="translate(841.064453 0)"/>
    </g>
   </g>
   <g id="legend_2">
    <g id="patch_13">
     <path d="M 775.809375 519.7601 
L 865.839375 519.7601 
Q 867.439375 519.7601 867.439375 518.1601 
L 867.439375 507.2176 
Q 867.439375 505.6176 865.839375 505.6176 
L 775.809375 505.6176 
Q 774.209375 505.6176 774.209375 507.2176 
L 774.209375 518.1601 
Q 774.209375 519.7601 775.809375 519.7601 
z
" style="fill: #ffffff; opacity: 0.95; stroke: #cccccc; stroke-linejoin: miter"/>
    </g>
    <g id="line2d_56">
     <path d="M 777.409375 512.09635 
L 785.409375 512.09635 
L 785.409375 512.09635 
L 793.409375 512.09635 
L 793.409375 512.09635 
" style="fill: none; stroke: #1f77b4; stroke-width: 2.2; stroke-linecap: square"/>
    </g>
    <g id="text_34">
     <!-- ortools (56/102) -->
     <g transform="translate(799.809375 514.89635) scale(0.08 -0.08)">
      <use xlink:href="#DejaVuSans-6f"/>
      <use xlink:href="#DejaVuSans-72" transform="translate(61.181641 0)"/>
      <use xlink:href="#DejaVuSans-74" transform="translate(102.294922 0)"/>
      <use xlink:href="#DejaVuSans-6f" transform="translate(141.503906 0)"/>
      <use xlink:href="#DejaVuSans-6f" transform="translate(202.685547 0)"/>
      <use xlink:href="#DejaVuSans-6c" transform="translate(263.867188 0)"/>
      <use xlink:href="#DejaVuSans-73" transform="translate(291.650391 0)"/>
      <use xlink:href="#DejaVuSans-20" transform="translate(343.75 0)"/>
      <use xlink:href="#DejaVuSans-28" transform="translate(375.537109 0)"/>
      <use xlink:href="#DejaVuSans-35" transform="translate(414.550781 0)"/>
      <use xlink:href="#DejaVuSans-36" transform="translate(478.173828 0)"/>
      <use xlink:href="#DejaVuSans-2f" transform="translate(541.796875 0)"/>
      <use xlink:href="#DejaVuSans-31" transform="translate(575.488281 0)"/>
      <use xlink:href="#DejaVuSans-30" transform="translate(639.111328 0)"/>
      <use xlink:href="#DejaVuSans-32" transform="translate(702.734375 0)"/>
      <use xlink:href="#DejaVuSans-29" transform="translate(766.357422 0)"/>
     </g>
    </g>
   </g>
  </g>
  <g id="axes_3">
   <g id="patch_14">
    <path d="M 1117.856875 425.52 
L 1596.591875 425.52 
L 1596.591875 61.44 
L 1117.856875 61.44 
z
" style="fill: #ffffff"/>
   </g>
   <g id="matplotlib.axis_5">
    <g id="xtick_15">
     <g id="line2d_57">
      <path d="M 1117.856875 425.52 
L 1117.856875 61.44 
" clip-path="url(#peefaea2c6a)" style="fill: none; stroke: #b0b0b0; stroke-opacity: 0.3; stroke-width: 0.8; stroke-linecap: square"/>
     </g>
     <g id="line2d_58">
      <g>
       <use xlink:href="#me7f2d1bfc8" x="1117.856875" y="425.52" style="stroke: #000000; stroke-width: 0.8"/>
      </g>
     </g>
     <g id="text_35">
      <!-- 0 -->
      <g transform="translate(1114.99375 439.358594) scale(0.09 -0.09)">
       <use xlink:href="#DejaVuSans-30"/>
      </g>
     </g>
    </g>
    <g id="xtick_16">
     <g id="line2d_59">
      <path d="M 1197.646042 425.52 
L 1197.646042 61.44 
" clip-path="url(#peefaea2c6a)" style="fill: none; stroke: #b0b0b0; stroke-opacity: 0.3; stroke-width: 0.8; stroke-linecap: square"/>
     </g>
     <g id="line2d_60">
      <g>
       <use xlink:href="#me7f2d1bfc8" x="1197.646042" y="425.52" style="stroke: #000000; stroke-width: 0.8"/>
      </g>
     </g>
     <g id="text_36">
      <!-- 50 -->
      <g transform="translate(1191.919792 439.358594) scale(0.09 -0.09)">
       <use xlink:href="#DejaVuSans-35"/>
       <use xlink:href="#DejaVuSans-30" transform="translate(63.623047 0)"/>
      </g>
     </g>
    </g>
    <g id="xtick_17">
     <g id="line2d_61">
      <path d="M 1277.435208 425.52 
L 1277.435208 61.44 
" clip-path="url(#peefaea2c6a)" style="fill: none; stroke: #b0b0b0; stroke-opacity: 0.3; stroke-width: 0.8; stroke-linecap: square"/>
     </g>
     <g id="line2d_62">
      <g>
       <use xlink:href="#me7f2d1bfc8" x="1277.435208" y="425.52" style="stroke: #000000; stroke-width: 0.8"/>
      </g>
     </g>
     <g id="text_37">
      <!-- 100 -->
      <g transform="translate(1268.845833 439.358594) scale(0.09 -0.09)">
       <use xlink:href="#DejaVuSans-31"/>
       <use xlink:href="#DejaVuSans-30" transform="translate(63.623047 0)"/>
       <use xlink:href="#DejaVuSans-30" transform="translate(127.246094 0)"/>
      </g>
     </g>
    </g>
    <g id="xtick_18">
     <g id="line2d_63">
      <path d="M 1357.224375 425.52 
L 1357.224375 61.44 
" clip-path="url(#peefaea2c6a)" style="fill: none; stroke: #b0b0b0; stroke-opacity: 0.3; stroke-width: 0.8; stroke-linecap: square"/>
     </g>
     <g id="line2d_64">
      <g>
       <use xlink:href="#me7f2d1bfc8" x="1357.224375" y="425.52" style="stroke: #000000; stroke-width: 0.8"/>
      </g>
     </g>
     <g id="text_38">
      <!-- 150 -->
      <g transform="translate(1348.635 439.358594) scale(0.09 -0.09)">
       <use xlink:href="#DejaVuSans-31"/>
       <use xlink:href="#DejaVuSans-35" transform="translate(63.623047 0)"/>
       <use xlink:href="#DejaVuSans-30" transform="translate(127.246094 0)"/>
      </g>
     </g>
    </g>
    <g id="xtick_19">
     <g id="line2d_65">
      <path d="M 1437.013542 425.52 
L 1437.013542 61.44 
" clip-path="url(#peefaea2c6a)" style="fill: none; stroke: #b0b0b0; stroke-opacity: 0.3; stroke-width: 0.8; stroke-linecap: square"/>
     </g>
     <g id="line2d_66">
      <g>
       <use xlink:href="#me7f2d1bfc8" x="1437.013542" y="425.52" style="stroke: #000000; stroke-width: 0.8"/>
      </g>
     </g>
     <g id="text_39">
      <!-- 200 -->
      <g transform="translate(1428.424167 439.358594) scale(0.09 -0.09)">
       <use xlink:href="#DejaVuSans-32"/>
       <use xlink:href="#DejaVuSans-30" transform="translate(63.623047 0)"/>
       <use xlink:href="#DejaVuSans-30" transform="translate(127.246094 0)"/>
      </g>
     </g>
    </g>
    <g id="xtick_20">
     <g id="line2d_67">
      <path d="M 1516.802708 425.52 
L 1516.802708 61.44 
" clip-path="url(#peefaea2c6a)" style="fill: none; stroke: #b0b0b0; stroke-opacity: 0.3; stroke-width: 0.8; stroke-linecap: square"/>
     </g>
     <g id="line2d_68">
      <g>
       <use xlink:href="#me7f2d1bfc8" x="1516.802708" y="425.52" style="stroke: #000000; stroke-width: 0.8"/>
      </g>
     </g>
     <g id="text_40">
      <!-- 250 -->
      <g transform="translate(1508.213333 439.358594) scale(0.09 -0.09)">
       <use xlink:href="#DejaVuSans-32"/>
       <use xlink:href="#DejaVuSans-35" transform="translate(63.623047 0)"/>
       <use xlink:href="#DejaVuSans-30" transform="translate(127.246094 0)"/>
      </g>
     </g>
    </g>
    <g id="xtick_21">
     <g id="line2d_69">
      <path d="M 1596.591875 425.52 
L 1596.591875 61.44 
" clip-path="url(#peefaea2c6a)" style="fill: none; stroke: #b0b0b0; stroke-opacity: 0.3; stroke-width: 0.8; stroke-linecap: square"/>
     </g>
     <g id="line2d_70">
      <g>
       <use xlink:href="#me7f2d1bfc8" x="1596.591875" y="425.52" style="stroke: #000000; stroke-width: 0.8"/>
      </g>
     </g>
     <g id="text_41">
      <!-- 300 -->
      <g transform="translate(1588.0025 439.358594) scale(0.09 -0.09)">
       <use xlink:href="#DejaVuSans-33"/>
       <use xlink:href="#DejaVuSans-30" transform="translate(63.623047 0)"/>
       <use xlink:href="#DejaVuSans-30" transform="translate(127.246094 0)"/>
      </g>
     </g>
    </g>
    <g id="text_42">
     <!-- Time (s) -->
     <g transform="translate(1336.895469 452.82875) scale(0.1 -0.1)">
      <use xlink:href="#DejaVuSans-54"/>
      <use xlink:href="#DejaVuSans-69" transform="translate(57.958984 0)"/>
      <use xlink:href="#DejaVuSans-6d" transform="translate(85.742188 0)"/>
      <use xlink:href="#DejaVuSans-65" transform="translate(183.154297 0)"/>
      <use xlink:href="#DejaVuSans-20" transform="translate(244.677734 0)"/>
      <use xlink:href="#DejaVuSans-28" transform="translate(276.464844 0)"/>
      <use xlink:href="#DejaVuSans-73" transform="translate(315.478516 0)"/>
      <use xlink:href="#DejaVuSans-29" transform="translate(367.578125 0)"/>
     </g>
    </g>
   </g>
   <g id="matplotlib.axis_6">
    <g id="ytick_13">
     <g id="line2d_71">
      <path d="M 1117.856875 425.52 
L 1596.591875 425.52 
" clip-path="url(#peefaea2c6a)" style="fill: none; stroke: #b0b0b0; stroke-opacity: 0.3; stroke-width: 0.8; stroke-linecap: square"/>
     </g>
     <g id="line2d_72">
      <g>
       <use xlink:href="#m178843189c" x="1117.856875" y="425.52" style="stroke: #000000; stroke-width: 0.8"/>
      </g>
     </g>
     <g id="text_43">
      <!-- 0 -->
      <g transform="translate(1105.130625 428.939297) scale(0.09 -0.09)">
       <use xlink:href="#DejaVuSans-30"/>
      </g>
     </g>
    </g>
    <g id="ytick_14">
     <g id="line2d_73">
      <path d="M 1117.856875 363.04381 
L 1596.591875 363.04381 
" clip-path="url(#peefaea2c6a)" style="fill: none; stroke: #b0b0b0; stroke-opacity: 0.3; stroke-width: 0.8; stroke-linecap: square"/>
     </g>
     <g id="line2d_74">
      <g>
       <use xlink:href="#m178843189c" x="1117.856875" y="363.04381" style="stroke: #000000; stroke-width: 0.8"/>
      </g>
     </g>
     <g id="text_44">
      <!-- 20 -->
      <g transform="translate(1099.404375 366.463106) scale(0.09 -0.09)">
       <use xlink:href="#DejaVuSans-32"/>
       <use xlink:href="#DejaVuSans-30" transform="translate(63.623047 0)"/>
      </g>
     </g>
    </g>
    <g id="ytick_15">
     <g id="line2d_75">
      <path d="M 1117.856875 300.567619 
L 1596.591875 300.567619 
" clip-path="url(#peefaea2c6a)" style="fill: none; stroke: #b0b0b0; stroke-opacity: 0.3; stroke-width: 0.8; stroke-linecap: square"/>
     </g>
     <g id="line2d_76">
      <g>
       <use xlink:href="#m178843189c" x="1117.856875" y="300.567619" style="stroke: #000000; stroke-width: 0.8"/>
      </g>
     </g>
     <g id="text_45">
      <!-- 40 -->
      <g transform="translate(1099.404375 303.986916) scale(0.09 -0.09)">
       <use xlink:href="#DejaVuSans-34"/>
       <use xlink:href="#DejaVuSans-30" transform="translate(63.623047 0)"/>
      </g>
     </g>
    </g>
    <g id="ytick_16">
     <g id="line2d_77">
      <path d="M 1117.856875 238.091429 
L 1596.591875 238.091429 
" clip-path="url(#peefaea2c6a)" style="fill: none; stroke: #b0b0b0; stroke-opacity: 0.3; stroke-width: 0.8; stroke-linecap: square"/>
     </g>
     <g id="line2d_78">
      <g>
       <use xlink:href="#m178843189c" x="1117.856875" y="238.091429" style="stroke: #000000; stroke-width: 0.8"/>
      </g>
     </g>
     <g id="text_46">
      <!-- 60 -->
      <g transform="translate(1099.404375 241.510725) scale(0.09 -0.09)">
       <use xlink:href="#DejaVuSans-36"/>
       <use xlink:href="#DejaVuSans-30" transform="translate(63.623047 0)"/>
      </g>
     </g>
    </g>
    <g id="ytick_17">
     <g id="line2d_79">
      <path d="M 1117.856875 175.615238 
L 1596.591875 175.615238 
" clip-path="url(#peefaea2c6a)" style="fill: none; stroke: #b0b0b0; stroke-opacity: 0.3; stroke-width: 0.8; stroke-linecap: square"/>
     </g>
     <g id="line2d_80">
      <g>
       <use xlink:href="#m178843189c" x="1117.856875" y="175.615238" style="stroke: #000000; stroke-width: 0.8"/>
      </g>
     </g>
     <g id="text_47">
      <!-- 80 -->
      <g transform="translate(1099.404375 179.034535) scale(0.09 -0.09)">
       <use xlink:href="#DejaVuSans-38"/>
       <use xlink:href="#DejaVuSans-30" transform="translate(63.623047 0)"/>
      </g>
     </g>
    </g>
    <g id="ytick_18">
     <g id="line2d_81">
      <path d="M 1117.856875 113.139048 
L 1596.591875 113.139048 
" clip-path="url(#peefaea2c6a)" style="fill: none; stroke: #b0b0b0; stroke-opacity: 0.3; stroke-width: 0.8; stroke-linecap: square"/>
     </g>
     <g id="line2d_82">
      <g>
       <use xlink:href="#m178843189c" x="1117.856875" y="113.139048" style="stroke: #000000; stroke-width: 0.8"/>
      </g>
     </g>
     <g id="text_48">
      <!-- 100 -->
      <g transform="translate(1093.678125 116.558344) scale(0.09 -0.09)">
       <use xlink:href="#DejaVuSans-31"/>
       <use xlink:href="#DejaVuSans-30" transform="translate(63.623047 0)"/>
       <use xlink:href="#DejaVuSans-30" transform="translate(127.246094 0)"/>
      </g>
     </g>
    </g>
    <g id="text_49">
     <!-- Avg. norm. quality (instances) -->
     <g transform="translate(1087.598438 318.544062) rotate(-90) scale(0.1 -0.1)">
      <defs>
       <path id="DejaVuSans-41" d="M 2188 4044 
L 1331 1722 
L 3047 1722 
L 2188 4044 
z
M 1831 4666 
L 2547 4666 
L 4325 0 
L 3669 0 
L 3244 1197 
L 1141 1197 
L 716 0 
L 50 0 
L 1831 4666 
z
" transform="scale(0.015625)"/>
       <path id="DejaVuSans-67" d="M 2906 1791 
Q 2906 2416 2648 2759 
Q 2391 3103 1925 3103 
Q 1463 3103 1205 2759 
Q 947 2416 947 1791 
Q 947 1169 1205 825 
Q 1463 481 1925 481 
Q 2391 481 2648 825 
Q 2906 1169 2906 1791 
z
M 3481 434 
Q 3481 -459 3084 -895 
Q 2688 -1331 1869 -1331 
Q 1566 -1331 1297 -1286 
Q 1028 -1241 775 -1147 
L 775 -588 
Q 1028 -725 1275 -790 
Q 1522 -856 1778 -856 
Q 2344 -856 2625 -561 
Q 2906 -266 2906 331 
L 2906 616 
Q 2728 306 2450 153 
Q 2172 0 1784 0 
Q 1141 0 747 490 
Q 353 981 353 1791 
Q 353 2603 747 3093 
Q 1141 3584 1784 3584 
Q 2172 3584 2450 3431 
Q 2728 3278 2906 2969 
L 2906 3500 
L 3481 3500 
L 3481 434 
z
" transform="scale(0.015625)"/>
       <path id="DejaVuSans-2e" d="M 684 794 
L 1344 794 
L 1344 0 
L 684 0 
L 684 794 
z
" transform="scale(0.015625)"/>
       <path id="DejaVuSans-71" d="M 947 1747 
Q 947 1113 1208 752 
Q 1469 391 1925 391 
Q 2381 391 2643 752 
Q 2906 1113 2906 1747 
Q 2906 2381 2643 2742 
Q 2381 3103 1925 3103 
Q 1469 3103 1208 2742 
Q 947 2381 947 1747 
z
M 2906 525 
Q 2725 213 2448 61 
Q 2172 -91 1784 -91 
Q 1150 -91 751 415 
Q 353 922 353 1747 
Q 353 2572 751 3078 
Q 1150 3584 1784 3584 
Q 2172 3584 2448 3432 
Q 2725 3281 2906 2969 
L 2906 3500 
L 3481 3500 
L 3481 -1331 
L 2906 -1331 
L 2906 525 
z
" transform="scale(0.015625)"/>
       <path id="DejaVuSans-75" d="M 544 1381 
L 544 3500 
L 1119 3500 
L 1119 1403 
Q 1119 906 1312 657 
Q 1506 409 1894 409 
Q 2359 409 2629 706 
Q 2900 1003 2900 1516 
L 2900 3500 
L 3475 3500 
L 3475 0 
L 2900 0 
L 2900 538 
Q 2691 219 2414 64 
Q 2138 -91 1772 -91 
Q 1169 -91 856 284 
Q 544 659 544 1381 
z
M 1991 3584 
L 1991 3584 
z
" transform="scale(0.015625)"/>
       <path id="DejaVuSans-79" d="M 2059 -325 
Q 1816 -950 1584 -1140 
Q 1353 -1331 966 -1331 
L 506 -1331 
L 506 -850 
L 844 -850 
Q 1081 -850 1212 -737 
Q 1344 -625 1503 -206 
L 1606 56 
L 191 3500 
L 800 3500 
L 1894 763 
L 2988 3500 
L 3597 3500 
L 2059 -325 
z
" transform="scale(0.015625)"/>
      </defs>
      <use xlink:href="#DejaVuSans-41"/>
      <use xlink:href="#DejaVuSans-76" transform="translate(62.533203 0)"/>
      <use xlink:href="#DejaVuSans-67" transform="translate(121.712891 0)"/>
      <use xlink:href="#DejaVuSans-2e" transform="translate(185.189453 0)"/>
      <use xlink:href="#DejaVuSans-20" transform="translate(216.976562 0)"/>
      <use xlink:href="#DejaVuSans-6e" transform="translate(248.763672 0)"/>
      <use xlink:href="#DejaVuSans-6f" transform="translate(312.142578 0)"/>
      <use xlink:href="#DejaVuSans-72" transform="translate(373.324219 0)"/>
      <use xlink:href="#DejaVuSans-6d" transform="translate(412.6875 0)"/>
      <use xlink:href="#DejaVuSans-2e" transform="translate(510.099609 0)"/>
      <use xlink:href="#DejaVuSans-20" transform="translate(541.886719 0)"/>
      <use xlink:href="#DejaVuSans-71" transform="translate(573.673828 0)"/>
      <use xlink:href="#DejaVuSans-75" transform="translate(637.150391 0)"/>
      <use xlink:href="#DejaVuSans-61" transform="translate(700.529297 0)"/>
      <use xlink:href="#DejaVuSans-6c" transform="translate(761.808594 0)"/>
      <use xlink:href="#DejaVuSans-69" transform="translate(789.591797 0)"/>
      <use xlink:href="#DejaVuSans-74" transform="translate(817.375 0)"/>
      <use xlink:href="#DejaVuSans-79" transform="translate(856.583984 0)"/>
      <use xlink:href="#DejaVuSans-20" transform="translate(915.763672 0)"/>
      <use xlink:href="#DejaVuSans-28" transform="translate(947.550781 0)"/>
      <use xlink:href="#DejaVuSans-69" transform="translate(986.564453 0)"/>
      <use xlink:href="#DejaVuSans-6e" transform="translate(1014.347656 0)"/>
      <use xlink:href="#DejaVuSans-73" transform="translate(1077.726562 0)"/>
      <use xlink:href="#DejaVuSans-74" transform="translate(1129.826172 0)"/>
      <use xlink:href="#DejaVuSans-61" transform="translate(1169.035156 0)"/>
      <use xlink:href="#DejaVuSans-6e" transform="translate(1230.314453 0)"/>
      <use xlink:href="#DejaVuSans-63" transform="translate(1293.693359 0)"/>
      <use xlink:href="#DejaVuSans-65" transform="translate(1348.673828 0)"/>
      <use xlink:href="#DejaVuSans-73" transform="translate(1410.197266 0)"/>
      <use xlink:href="#DejaVuSans-29" transform="translate(1462.296875 0)"/>
     </g>
    </g>
   </g>
   <g id="line2d_83">
    <path d="M 1117.856875 425.52 
L 1117.948958 394.281905 
L 1118.306204 394.281905 
L 1118.378043 388.223002 
L 1118.473952 388.223002 
L 1118.566708 387.376634 
L 1118.611193 387.376634 
L 1118.719298 382.829158 
L 1118.737112 382.829158 
L 1118.809586 381.552704 
L 1118.886546 381.46653 
L 1118.996619 380.875975 
L 1118.999111 380.875975 
L 1119.104642 376.362552 
L 1119.247871 376.34479 
L 1119.356578 371.842038 
L 1119.427114 371.75273 
L 1119.523572 371.062761 
L 1119.539064 371.062761 
L 1119.641075 369.356681 
L 1119.66247 369.356681 
L 1119.74101 366.682608 
L 1119.801908 366.682599 
L 1119.896568 365.122567 
L 1119.917525 365.122567 
L 1120.000307 362.699614 
L 1120.07092 362.699614 
L 1120.178264 354.428545 
L 1120.385527 354.339299 
L 1120.436067 352.907553 
L 1120.700854 352.907553 
L 1120.80688 348.591752 
L 1120.992724 348.591588 
L 1121.101854 342.4952 
L 1121.123053 342.4952 
L 1121.233533 326.837998 
L 1121.276945 326.837998 
L 1121.334597 319.145931 
L 1121.392697 319.145931 
L 1121.435966 309.660163 
L 1121.573384 309.639768 
L 1121.676561 304.605101 
L 1121.752693 304.601702 
L 1121.845807 302.433144 
L 1121.91756 302.40935 
L 1122.003822 298.096703 
L 1122.034395 298.096703 
L 1122.116039 297.315751 
L 1122.44957 297.236313 
L 1122.532362 295.690949 
L 1122.579214 295.690949 
L 1122.684568 292.594073 
L 1122.724991 292.594069 
L 1122.828718 286.962407 
L 1122.872771 286.962407 
L 1122.940361 286.782252 
L 1123.118758 286.765257 
L 1123.144657 286.56806 
L 1123.520883 286.568034 
L 1123.602599 284.677212 
L 1123.645846 284.677212 
L 1123.645846 284.156577 
L 1123.840496 284.123697 
L 1123.89582 283.342745 
L 1124.051853 283.342745 
L 1124.051853 280.218935 
L 1124.306651 280.218932 
L 1124.306651 279.958614 
L 1124.444664 279.905063 
L 1124.444664 277.349219 
L 1124.607886 277.332223 
L 1124.682274 276.530876 
L 1124.913181 276.51728 
L 1124.992 275.918712 
L 1125.082192 275.91531 
L 1125.190267 274.913638 
L 1125.413621 274.90684 
L 1125.469335 273.308758 
L 1125.537831 273.308758 
L 1125.619489 269.744216 
L 1125.76201 269.744216 
L 1125.864949 269.015327 
L 1125.928315 269.015327 
L 1126.000934 267.982067 
L 1126.080959 267.982067 
L 1126.087521 266.748562 
L 1126.409745 266.748562 
L 1126.465536 264.946365 
L 1126.533349 264.946365 
L 1126.533349 264.802189 
L 1127.157456 264.737605 
L 1127.221399 264.012209 
L 1127.373271 264.012209 
L 1127.373271 260.888399 
L 1127.824714 260.828326 
L 1127.894066 260.34774 
L 1128.028274 260.34774 
L 1128.028274 258.741209 
L 1128.167362 258.741209 
L 1128.167362 258.268729 
L 1128.461841 258.268729 
L 1128.526451 258.068435 
L 1128.762816 258.068435 
L 1128.866557 256.678626 
L 1130.158346 256.678626 
L 1130.158346 256.563055 
L 1130.540405 256.563055 
L 1130.566474 255.589868 
L 1130.698049 255.589868 
L 1130.698049 252.466059 
L 1130.964918 252.454937 
L 1130.999831 252.021904 
L 1131.486225 251.917777 
L 1131.486225 251.293015 
L 1132.166963 251.188888 
L 1132.240173 247.440316 
L 1132.86557 247.440316 
L 1132.86557 246.854602 
L 1134.946321 246.854602 
L 1134.946321 243.730793 
L 1135.33662 243.730793 
L 1135.33662 243.336799 
L 1135.512233 243.336799 
L 1135.512233 243.14156 
L 1135.719127 243.14156 
L 1135.719127 240.411745 
L 1136.15616 240.411745 
L 1136.219251 237.079681 
L 1136.94557 236.975554 
L 1136.94557 236.7673 
L 1137.725011 236.661927 
L 1137.750019 233.297825 
L 1138.086475 233.297825 
L 1138.106547 233.048774 
L 1138.288472 233.048774 
L 1138.349136 231.47906 
L 1138.479191 231.47906 
L 1138.530799 228.355251 
L 1139.141725 228.355251 
L 1139.150756 224.684774 
L 1139.608019 224.684774 
L 1139.692653 224.148149 
L 1139.86811 224.130298 
L 1139.86811 223.817917 
L 1140.511538 223.761019 
L 1140.591002 222.879299 
L 1140.671016 222.879299 
L 1140.773787 221.026426 
L 1140.849712 221.026426 
L 1140.922073 220.172223 
L 1141.370863 220.172223 
L 1141.370863 217.048414 
L 1142.92786 217.000355 
L 1142.92786 216.92226 
L 1143.531592 216.90441 
L 1143.531592 216.710659 
L 1144.414059 216.710659 
L 1144.414059 216.445526 
L 1145.082977 216.346951 
L 1145.181303 214.11459 
L 1146.50318 214.11459 
L 1146.50318 213.649342 
L 1146.887922 213.649342 
L 1146.887922 213.44995 
L 1147.803619 213.383486 
L 1147.803619 211.821581 
L 1148.236415 211.821581 
L 1148.236415 211.66539 
L 1148.370096 211.66539 
L 1148.370096 210.884438 
L 1149.723613 210.817974 
L 1149.723613 210.75151 
L 1149.843128 210.75151 
L 1149.843128 210.126748 
L 1150.444975 210.126748 
L 1150.444975 207.002939 
L 1151.414754 207.002939 
L 1151.414754 206.867121 
L 1151.680022 206.867121 
L 1151.680022 206.71093 
L 1152.061077 206.71093 
L 1152.061077 206.55474 
L 1152.269783 206.55474 
L 1152.269783 203.702566 
L 1154.353201 203.624386 
L 1154.391499 203.117075 
L 1159.063566 203.058686 
L 1159.096152 199.934876 
L 1159.689861 199.934876 
L 1159.797978 198.796292 
L 1160.223604 198.796292 
L 1160.223604 198.588038 
L 1160.465661 198.483911 
L 1160.465661 198.275657 
L 1160.625494 198.275657 
L 1160.625494 198.158879 
L 1161.799341 198.158879 
L 1161.863581 198.012906 
L 1162.083099 198.012906 
L 1162.083099 197.77935 
L 1163.684837 197.691767 
L 1163.684837 197.574989 
L 1164.503154 197.574989 
L 1164.503154 197.429017 
L 1164.661084 197.429017 
L 1164.661084 197.220763 
L 1165.503731 197.220763 
L 1165.575727 195.919175 
L 1166.078473 195.919175 
L 1166.078473 192.795366 
L 1167.957757 192.736977 
L 1167.957757 192.112215 
L 1168.12624 192.112215 
L 1168.12624 191.799834 
L 1169.899845 191.799834 
L 1169.899845 191.616081 
L 1171.635676 191.616081 
L 1171.635676 191.432327 
L 1172.337799 191.432327 
L 1172.337799 191.230791 
L 1173.512327 191.230791 
L 1173.512327 188.106981 
L 1176.006031 188.106981 
L 1176.006031 184.983172 
L 1179.932118 184.976374 
L 1179.932118 184.830401 
L 1180.950888 184.777413 
L 1180.950888 184.689035 
L 1184.887449 184.593859 
L 1184.887449 181.47005 
L 1187.569771 181.47005 
L 1187.569771 181.301195 
L 1187.981124 181.301195 
L 1187.981124 179.865931 
L 1188.796101 179.781504 
L 1188.796101 179.73929 
L 1189.29502 179.697077 
L 1189.29502 179.612649 
L 1189.990107 179.570436 
L 1189.990107 179.443795 
L 1191.233783 179.397171 
L 1191.341251 178.91959 
L 1192.19222 178.860088 
L 1192.19222 178.775661 
L 1192.794413 178.682413 
L 1192.81335 178.415535 
L 1193.838652 178.341718 
L 1193.838652 178.215077 
L 1194.665384 178.125825 
L 1194.665384 178.032577 
L 1195.311594 178.032577 
L 1195.311594 177.905936 
L 1195.90917 177.859312 
L 1195.90917 175.434863 
L 1196.04485 175.434863 
L 1196.04485 175.266008 
L 1196.458675 175.17276 
L 1196.54851 174.947633 
L 1197.209885 174.854385 
L 1197.209885 174.735382 
L 1205.618039 174.735382 
L 1205.692523 169.201777 
L 1208.236437 169.142276 
L 1208.236437 169.083887 
L 1210.097778 169.083887 
L 1210.097778 168.920259 
L 1210.564219 168.832675 
L 1210.564219 168.788049 
L 1215.228737 168.682665 
L 1215.315213 166.42658 
L 1215.468708 166.339807 
L 1215.541869 166.07949 
L 1215.614879 166.07949 
L 1215.725893 165.819172 
L 1215.795325 165.819172 
L 1215.870374 165.558855 
L 1216.414029 165.558855 
L 1216.414029 162.435045 
L 1222.354871 162.358855 
L 1222.414123 162.243617 
L 1225.159155 162.204569 
L 1225.159155 161.21063 
L 1226.155574 161.21063 
L 1226.155574 160.926647 
L 1227.155194 160.926647 
L 1227.155194 160.742894 
L 1227.397458 160.651017 
L 1227.397458 160.225043 
L 1227.815957 160.133166 
L 1227.815957 160.041289 
L 1228.465123 159.949413 
L 1228.465123 159.736426 
L 1229.346556 159.697378 
L 1229.346556 159.484391 
L 1229.728846 159.484391 
L 1229.763405 158.64505 
L 1229.915457 158.64505 
L 1229.915457 156.302193 
L 1230.473014 156.302193 
L 1230.562044 153.959335 
L 1230.609059 153.959335 
L 1230.609059 153.178383 
L 1233.512665 153.119994 
L 1233.512665 153.028117 
L 1233.873944 153.028117 
L 1233.873944 152.875736 
L 1235.360655 152.817347 
L 1235.360655 152.554597 
L 1235.485648 152.554597 
L 1235.485648 152.402216 
L 1235.870576 152.402216 
L 1235.870576 152.260225 
L 1237.299443 152.260225 
L 1237.299443 151.976242 
L 1239.747625 151.905246 
L 1239.747625 151.479272 
L 1240.13492 151.479272 
L 1240.13492 149.593199 
L 1242.083671 149.534259 
L 1242.083671 149.463263 
L 1243.486851 149.463263 
L 1243.486851 149.345384 
L 1244.615227 149.345384 
L 1244.615227 148.579166 
L 1246.30703 148.473781 
L 1246.38935 148.232991 
L 1246.581446 148.232991 
L 1246.581446 145.109181 
L 1249.593192 145.003521 
L 1249.600772 144.839747 
L 1251.414775 144.839747 
L 1251.414775 144.687366 
L 1252.479754 144.589929 
L 1252.479754 144.513739 
L 1252.789245 144.513739 
L 1252.789245 144.336919 
L 1254.821967 144.336919 
L 1254.821967 144.108348 
L 1260.033041 144.048275 
L 1260.033041 141.705418 
L 1261.279827 141.705418 
L 1261.279827 141.344978 
L 1267.148399 141.344978 
L 1267.148399 141.192597 
L 1268.865441 141.116407 
L 1268.865441 141.040216 
L 1270.476053 141.040216 
L 1270.476053 140.859996 
L 1270.756452 140.859996 
L 1270.756452 140.631425 
L 1270.94218 140.631425 
L 1270.94218 140.021901 
L 1272.986305 139.945711 
L 1272.986305 137.404306 
L 1273.583101 137.298414 
L 1273.583101 137.178268 
L 1275.587877 137.125322 
L 1275.587877 136.972941 
L 1281.925529 136.879102 
L 1281.925529 136.861453 
L 1283.486675 136.80138 
L 1283.486675 136.748434 
L 1283.983435 136.748434 
L 1283.983435 135.186529 
L 1289.395783 135.115935 
L 1289.395783 135.039744 
L 1297.85677 134.963554 
L 1297.85677 134.928256 
L 1301.325763 134.846116 
L 1301.325763 131.722307 
L 1304.693415 131.722307 
L 1304.693415 130.024584 
L 1304.984373 129.922721 
L 1304.984373 129.893526 
L 1305.821731 129.791663 
L 1305.821731 129.146528 
L 1307.399744 129.078619 
L 1307.399744 129.012155 
L 1309.76622 128.910292 
L 1309.76622 125.786482 
L 1310.990799 125.786482 
L 1310.990799 124.775838 
L 1311.292839 124.775838 
L 1311.292839 124.500208 
L 1311.559923 124.500208 
L 1311.559923 123.948947 
L 1314.374178 123.86339 
L 1314.374178 123.829435 
L 1319.308784 123.723544 
L 1319.308784 123.53979 
L 1331.831969 123.437927 
L 1331.831969 123.420278 
L 1333.984051 123.344088 
L 1333.984051 123.276179 
L 1336.664324 123.206927 
L 1336.664324 123.139018 
L 1338.11276 123.139018 
L 1338.11276 121.71378 
L 1338.389788 121.71378 
L 1338.389788 120.288542 
L 1345.680476 120.210447 
L 1345.680476 120.176492 
L 1347.146357 120.176492 
L 1347.146357 120.059349 
L 1359.475702 120.000778 
L 1359.475702 119.924587 
L 1372.03095 119.924587 
L 1372.03095 119.729349 
L 1486.041022 119.670778 
L 1486.126487 116.638845 
L 1518.969377 116.537297 
L 1518.969377 116.527626 
L 1579.948616 116.435749 
L 1579.948616 116.416407 
L 1585.535512 116.416407 
L 1585.535512 116.261667 
L 1596.591875 116.174626 
L 1596.591875 116.174626 
" clip-path="url(#peefaea2c6a)" style="fill: none; stroke: #1f77b4; stroke-width: 2.2; stroke-linecap: square"/>
   </g>
   <g id="patch_15">
    <path d="M 1117.856875 425.52 
L 1117.856875 61.44 
" style="fill: none; stroke: #000000; stroke-width: 0.8; stroke-linejoin: miter; stroke-linecap: square"/>
   </g>
   <g id="patch_16">
    <path d="M 1596.591875 425.52 
L 1596.591875 61.44 
" style="fill: none; stroke: #000000; stroke-width: 0.8; stroke-linejoin: miter; stroke-linecap: square"/>
   </g>
   <g id="patch_17">
    <path d="M 1117.856875 425.52 
L 1596.591875 425.52 
" style="fill: none; stroke: #000000; stroke-width: 0.8; stroke-linejoin: miter; stroke-linecap: square"/>
   </g>
   <g id="patch_18">
    <path d="M 1117.856875 61.44 
L 1596.591875 61.44 
" style="fill: none; stroke: #000000; stroke-width: 0.8; stroke-linejoin: miter; stroke-linecap: square"/>
   </g>
   <g id="text_50">
    <!-- Anytime Quality -->
    <g transform="translate(1307.288672 55.44) scale(0.11 -0.11)">
     <defs>
      <path id="DejaVuSans-Bold-6e" d="M 4056 2131 
L 4056 0 
L 2931 0 
L 2931 347 
L 2931 1631 
Q 2931 2084 2911 2256 
Q 2891 2428 2841 2509 
Q 2775 2619 2662 2680 
Q 2550 2741 2406 2741 
Q 2056 2741 1856 2470 
Q 1656 2200 1656 1722 
L 1656 0 
L 538 0 
L 538 3500 
L 1656 3500 
L 1656 2988 
Q 1909 3294 2193 3439 
Q 2478 3584 2822 3584 
Q 3428 3584 3742 3212 
Q 4056 2841 4056 2131 
z
" transform="scale(0.015625)"/>
      <path id="DejaVuSans-Bold-79" d="M 78 3500 
L 1197 3500 
L 2138 1125 
L 2938 3500 
L 4056 3500 
L 2584 -331 
Q 2363 -916 2067 -1148 
Q 1772 -1381 1288 -1381 
L 641 -1381 
L 641 -647 
L 991 -647 
Q 1275 -647 1404 -556 
Q 1534 -466 1606 -231 
L 1638 -134 
L 78 3500 
z
" transform="scale(0.015625)"/>
      <path id="DejaVuSans-Bold-51" d="M 2847 -84 
L 2753 -84 
Q 1600 -84 959 553 
Q 319 1191 319 2328 
Q 319 3463 958 4106 
Q 1597 4750 2719 4750 
Q 3853 4750 4486 4112 
Q 5119 3475 5119 2328 
Q 5119 1541 4783 972 
Q 4447 403 3816 116 
L 4756 -934 
L 3609 -934 
L 2847 -84 
z
M 2719 3878 
Q 2169 3878 1866 3472 
Q 1563 3066 1563 2328 
Q 1563 1578 1859 1179 
Q 2156 781 2719 781 
Q 3272 781 3575 1187 
Q 3878 1594 3878 2328 
Q 3878 3066 3575 3472 
Q 3272 3878 2719 3878 
z
" transform="scale(0.015625)"/>
      <path id="DejaVuSans-Bold-75" d="M 500 1363 
L 500 3500 
L 1625 3500 
L 1625 3150 
Q 1625 2866 1622 2436 
Q 1619 2006 1619 1863 
Q 1619 1441 1641 1255 
Q 1663 1069 1716 984 
Q 1784 875 1895 815 
Q 2006 756 2150 756 
Q 2500 756 2700 1025 
Q 2900 1294 2900 1772 
L 2900 3500 
L 4019 3500 
L 4019 0 
L 2900 0 
L 2900 506 
Q 2647 200 2364 54 
Q 2081 -91 1741 -91 
Q 1134 -91 817 281 
Q 500 653 500 1363 
z
" transform="scale(0.015625)"/>
     </defs>
     <use xlink:href="#DejaVuSans-Bold-41"/>
     <use xlink:href="#DejaVuSans-Bold-6e" transform="translate(77.392578 0)"/>
     <use xlink:href="#DejaVuSans-Bold-79" transform="translate(148.583984 0)"/>
     <use xlink:href="#DejaVuSans-Bold-74" transform="translate(213.769531 0)"/>
     <use xlink:href="#DejaVuSans-Bold-69" transform="translate(261.572266 0)"/>
     <use xlink:href="#DejaVuSans-Bold-6d" transform="translate(295.849609 0)"/>
     <use xlink:href="#DejaVuSans-Bold-65" transform="translate(400.048828 0)"/>
     <use xlink:href="#DejaVuSans-Bold-20" transform="translate(467.871094 0)"/>
     <use xlink:href="#DejaVuSans-Bold-51" transform="translate(502.685547 0)"/>
     <use xlink:href="#DejaVuSans-Bold-75" transform="translate(587.695312 0)"/>
     <use xlink:href="#DejaVuSans-Bold-61" transform="translate(658.886719 0)"/>
     <use xlink:href="#DejaVuSans-Bold-6c" transform="translate(726.367188 0)"/>
     <use xlink:href="#DejaVuSans-Bold-69" transform="translate(760.644531 0)"/>
     <use xlink:href="#DejaVuSans-Bold-74" transform="translate(794.921875 0)"/>
     <use xlink:href="#DejaVuSans-Bold-79" transform="translate(842.724609 0)"/>
    </g>
   </g>
   <g id="legend_3">
    <g id="patch_19">
     <path d="M 1312.209375 519.7601 
L 1402.239375 519.7601 
Q 1403.839375 519.7601 1403.839375 518.1601 
L 1403.839375 507.2176 
Q 1403.839375 505.6176 1402.239375 505.6176 
L 1312.209375 505.6176 
Q 1310.609375 505.6176 1310.609375 507.2176 
L 1310.609375 518.1601 
Q 1310.609375 519.7601 1312.209375 519.7601 
z
" style="fill: #ffffff; opacity: 0.95; stroke: #cccccc; stroke-linejoin: miter"/>
    </g>
    <g id="line2d_84">
     <path d="M 1313.809375 512.09635 
L 1321.809375 512.09635 
L 1321.809375 512.09635 
L 1329.809375 512.09635 
L 1329.809375 512.09635 
" style="fill: none; stroke: #1f77b4; stroke-width: 2.2; stroke-linecap: square"/>
    </g>
    <g id="text_51">
     <!-- ortools (99/111) -->
     <g transform="translate(1336.209375 514.89635) scale(0.08 -0.08)">
      <defs>
       <path id="DejaVuSans-39" d="M 703 97 
L 703 672 
Q 941 559 1184 500 
Q 1428 441 1663 441 
Q 2288 441 2617 861 
Q 2947 1281 2994 2138 
Q 2813 1869 2534 1725 
Q 2256 1581 1919 1581 
Q 1219 1581 811 2004 
Q 403 2428 403 3163 
Q 403 3881 828 4315 
Q 1253 4750 1959 4750 
Q 2769 4750 3195 4129 
Q 3622 3509 3622 2328 
Q 3622 1225 3098 567 
Q 2575 -91 1691 -91 
Q 1453 -91 1209 -44 
Q 966 3 703 97 
z
M 1959 2075 
Q 2384 2075 2632 2365 
Q 2881 2656 2881 3163 
Q 2881 3666 2632 3958 
Q 2384 4250 1959 4250 
Q 1534 4250 1286 3958 
Q 1038 3666 1038 3163 
Q 1038 2656 1286 2365 
Q 1534 2075 1959 2075 
z
" transform="scale(0.015625)"/>
      </defs>
      <use xlink:href="#DejaVuSans-6f"/>
      <use xlink:href="#DejaVuSans-72" transform="translate(61.181641 0)"/>
      <use xlink:href="#DejaVuSans-74" transform="translate(102.294922 0)"/>
      <use xlink:href="#DejaVuSans-6f" transform="translate(141.503906 0)"/>
      <use xlink:href="#DejaVuSans-6f" transform="translate(202.685547 0)"/>
      <use xlink:href="#DejaVuSans-6c" transform="translate(263.867188 0)"/>
      <use xlink:href="#DejaVuSans-73" transform="translate(291.650391 0)"/>
      <use xlink:href="#DejaVuSans-20" transform="translate(343.75 0)"/>
      <use xlink:href="#DejaVuSans-28" transform="translate(375.537109 0)"/>
      <use xlink:href="#DejaVuSans-39" transform="translate(414.550781 0)"/>
      <use xlink:href="#DejaVuSans-39" transform="translate(478.173828 0)"/>
      <use xlink:href="#DejaVuSans-2f" transform="translate(541.796875 0)"/>
      <use xlink:href="#DejaVuSans-31" transform="translate(575.488281 0)"/>
      <use xlink:href="#DejaVuSans-31" transform="translate(639.111328 0)"/>
      <use xlink:href="#DejaVuSans-31" transform="translate(702.734375 0)"/>
      <use xlink:href="#DejaVuSans-29" transform="translate(766.357422 0)"/>
     </g>
    </g>
   </g>
  </g>
  <g id="text_52">
   <!-- Track: XCSP3-2025-COP25 -->
   <g transform="translate(710.411484 17.077969) scale(0.13 -0.13)">
    <defs>
     <path id="DejaVuSans-Bold-63" d="M 3366 3391 
L 3366 2478 
Q 3138 2634 2908 2709 
Q 2678 2784 2431 2784 
Q 1963 2784 1702 2511 
Q 1441 2238 1441 1747 
Q 1441 1256 1702 982 
Q 1963 709 2431 709 
Q 2694 709 2930 787 
Q 3166 866 3366 1019 
L 3366 103 
Q 3103 6 2833 -42 
Q 2563 -91 2291 -91 
Q 1344 -91 809 395 
Q 275 881 275 1747 
Q 275 2613 809 3098 
Q 1344 3584 2291 3584 
Q 2566 3584 2833 3536 
Q 3100 3488 3366 3391 
z
" transform="scale(0.015625)"/>
     <path id="DejaVuSans-Bold-6b" d="M 538 4863 
L 1656 4863 
L 1656 2216 
L 2944 3500 
L 4244 3500 
L 2534 1894 
L 4378 0 
L 3022 0 
L 1656 1459 
L 1656 0 
L 538 0 
L 538 4863 
z
" transform="scale(0.015625)"/>
     <path id="DejaVuSans-Bold-3a" d="M 716 3500 
L 1844 3500 
L 1844 2291 
L 716 2291 
L 716 3500 
z
M 716 1209 
L 1844 1209 
L 1844 0 
L 716 0 
L 716 1209 
z
" transform="scale(0.015625)"/>
     <path id="DejaVuSans-Bold-58" d="M 3188 2381 
L 4806 0 
L 3553 0 
L 2463 1594 
L 1381 0 
L 122 0 
L 1741 2381 
L 184 4666 
L 1441 4666 
L 2463 3163 
L 3481 4666 
L 4744 4666 
L 3188 2381 
z
" transform="scale(0.015625)"/>
     <path id="DejaVuSans-Bold-43" d="M 4288 256 
Q 3956 84 3597 -3 
Q 3238 -91 2847 -91 
Q 1681 -91 1000 561 
Q 319 1213 319 2328 
Q 319 3447 1000 4098 
Q 1681 4750 2847 4750 
Q 3238 4750 3597 4662 
Q 3956 4575 4288 4403 
L 4288 3438 
Q 3953 3666 3628 3772 
Q 3303 3878 2944 3878 
Q 2300 3878 1931 3465 
Q 1563 3053 1563 2328 
Q 1563 1606 1931 1193 
Q 2300 781 2944 781 
Q 3303 781 3628 887 
Q 3953 994 4288 1222 
L 4288 256 
z
" transform="scale(0.015625)"/>
     <path id="DejaVuSans-Bold-33" d="M 2981 2516 
Q 3453 2394 3698 2092 
Q 3944 1791 3944 1325 
Q 3944 631 3412 270 
Q 2881 -91 1863 -91 
Q 1503 -91 1142 -33 
Q 781 25 428 141 
L 428 1069 
Q 766 900 1098 814 
Q 1431 728 1753 728 
Q 2231 728 2486 893 
Q 2741 1059 2741 1369 
Q 2741 1688 2480 1852 
Q 2219 2016 1709 2016 
L 1228 2016 
L 1228 2791 
L 1734 2791 
Q 2188 2791 2409 2933 
Q 2631 3075 2631 3366 
Q 2631 3634 2415 3781 
Q 2200 3928 1806 3928 
Q 1516 3928 1219 3862 
Q 922 3797 628 3669 
L 628 4550 
Q 984 4650 1334 4700 
Q 1684 4750 2022 4750 
Q 2931 4750 3382 4451 
Q 3834 4153 3834 3553 
Q 3834 3144 3618 2883 
Q 3403 2622 2981 2516 
z
" transform="scale(0.015625)"/>
     <path id="DejaVuSans-Bold-2d" d="M 347 2297 
L 2309 2297 
L 2309 1388 
L 347 1388 
L 347 2297 
z
" transform="scale(0.015625)"/>
     <path id="DejaVuSans-Bold-32" d="M 1844 884 
L 3897 884 
L 3897 0 
L 506 0 
L 506 884 
L 2209 2388 
Q 2438 2594 2547 2791 
Q 2656 2988 2656 3200 
Q 2656 3528 2436 3728 
Q 2216 3928 1850 3928 
Q 1569 3928 1234 3808 
Q 900 3688 519 3450 
L 519 4475 
Q 925 4609 1322 4679 
Q 1719 4750 2100 4750 
Q 2938 4750 3402 4381 
Q 3866 4013 3866 3353 
Q 3866 2972 3669 2642 
Q 3472 2313 2841 1759 
L 1844 884 
z
" transform="scale(0.015625)"/>
     <path id="DejaVuSans-Bold-30" d="M 2944 2338 
Q 2944 3213 2780 3570 
Q 2616 3928 2228 3928 
Q 1841 3928 1675 3570 
Q 1509 3213 1509 2338 
Q 1509 1453 1675 1090 
Q 1841 728 2228 728 
Q 2613 728 2778 1090 
Q 2944 1453 2944 2338 
z
M 4147 2328 
Q 4147 1169 3647 539 
Q 3147 -91 2228 -91 
Q 1306 -91 806 539 
Q 306 1169 306 2328 
Q 306 3491 806 4120 
Q 1306 4750 2228 4750 
Q 3147 4750 3647 4120 
Q 4147 3491 4147 2328 
z
" transform="scale(0.015625)"/>
     <path id="DejaVuSans-Bold-35" d="M 678 4666 
L 3669 4666 
L 3669 3781 
L 1638 3781 
L 1638 3059 
Q 1775 3097 1914 3117 
Q 2053 3138 2203 3138 
Q 3056 3138 3531 2711 
Q 4006 2284 4006 1522 
Q 4006 766 3489 337 
Q 2972 -91 2053 -91 
Q 1656 -91 1267 -14 
Q 878 63 494 219 
L 494 1166 
Q 875 947 1217 837 
Q 1559 728 1863 728 
Q 2300 728 2551 942 
Q 2803 1156 2803 1522 
Q 2803 1891 2551 2103 
Q 2300 2316 1863 2316 
Q 1603 2316 1309 2248 
Q 1016 2181 678 2041 
L 678 4666 
z
" transform="scale(0.015625)"/>
    </defs>
    <use xlink:href="#DejaVuSans-Bold-54"/>
    <use xlink:href="#DejaVuSans-Bold-72" transform="translate(57.212891 0)"/>
    <use xlink:href="#DejaVuSans-Bold-61" transform="translate(106.529297 0)"/>
    <use xlink:href="#DejaVuSans-Bold-63" transform="translate(174.009766 0)"/>
    <use xlink:href="#DejaVuSans-Bold-6b" transform="translate(233.287109 0)"/>
    <use xlink:href="#DejaVuSans-Bold-3a" transform="translate(299.791016 0)"/>
    <use xlink:href="#DejaVuSans-Bold-20" transform="translate(339.78125 0)"/>
    <use xlink:href="#DejaVuSans-Bold-58" transform="translate(374.595703 0)"/>
    <use xlink:href="#DejaVuSans-Bold-43" transform="translate(448.070312 0)"/>
    <use xlink:href="#DejaVuSans-Bold-53" transform="translate(523.333984 0)"/>
    <use xlink:href="#DejaVuSans-Bold-50" transform="translate(595.355469 0)"/>
    <use xlink:href="#DejaVuSans-Bold-33" transform="translate(668.646484 0)"/>
    <use xlink:href="#DejaVuSans-Bold-2d" transform="translate(738.226562 0)"/>
    <use xlink:href="#DejaVuSans-Bold-32" transform="translate(779.730469 0)"/>
    <use xlink:href="#DejaVuSans-Bold-30" transform="translate(849.310547 0)"/>
    <use xlink:href="#DejaVuSans-Bold-32" transform="translate(918.890625 0)"/>
    <use xlink:href="#DejaVuSans-Bold-35" transform="translate(988.470703 0)"/>
    <use xlink:href="#DejaVuSans-Bold-2d" transform="translate(1058.050781 0)"/>
    <use xlink:href="#DejaVuSans-Bold-43" transform="translate(1099.554688 0)"/>
    <use xlink:href="#DejaVuSans-Bold-4f" transform="translate(1172.943359 0)"/>
    <use xlink:href="#DejaVuSans-Bold-50" transform="translate(1257.953125 0)"/>
    <use xlink:href="#DejaVuSans-Bold-32" transform="translate(1331.244141 0)"/>
    <use xlink:href="#DejaVuSans-Bold-35" transform="translate(1400.824219 0)"/>
   </g>
  </g>
 </g>
 <defs>
  <clipPath id="pe8bc0f5a37">
   <rect x="45.056875" y="61.44" width="478.735" height="364.08"/>
  </clipPath>
  <clipPath id="p599b242b6c">
   <rect x="581.456875" y="61.44" width="478.735" height="364.08"/>
  </clipPath>
  <clipPath id="peefaea2c6a">
   <rect x="1117.856875" y="61.44" width="478.735" height="364.08"/>
  </clipPath>
 </defs>
</svg>
